solid
 facet normal  0.000000e+00  0.000000e+00  1.000000e+00
   outer loop
     vertex -1.919382e+01 -1.552428e+00  1.089902e+01
     vertex -1.906630e+01 -1.466625e+00  1.089902e+01
     vertex -1.918083e+01 -1.412425e+00  1.089902e+01
   endloop
 endfacet
 facet normal -0.000000e+00  0.000000e+00  1.000000e+00
   outer loop
     vertex -1.918083e+01 -1.412425e+00  1.089902e+01
     vertex -1.906630e+01 -1.466625e+00  1.089902e+01
     vertex -1.906630e+01 -1.299375e+00  1.089902e+01
   endloop
 endfacet
 facet normal  0.000000e+00  0.000000e+00  1.000000e+00
   outer loop
     vertex -1.919489e+01 -1.717465e+00  1.089902e+01
     vertex -1.906630e+01 -1.633875e+00  1.089902e+01
     vertex -1.919382e+01 -1.552428e+00  1.089902e+01
   endloop
 endfacet
 facet normal -0.000000e+00  0.000000e+00  1.000000e+00
   outer loop
     vertex -1.919382e+01 -1.552428e+00  1.089902e+01
     vertex -1.906630e+01 -1.633875e+00  1.089902e+01
     vertex -1.906630e+01 -1.466625e+00  1.089902e+01
   endloop
 endfacet
 facet normal  0.000000e+00 -0.000000e+00  1.000000e+00
   outer loop
     vertex -1.919383e+01 -1.882537e+00  1.089902e+01
     vertex -1.906630e+01 -1.801125e+00  1.089902e+01
     vertex -1.919489e+01 -1.717465e+00  1.089902e+01
   endloop
 endfacet
 facet normal -0.000000e+00  0.000000e+00  1.000000e+00
   outer loop
     vertex -1.919489e+01 -1.717465e+00  1.089902e+01
     vertex -1.906630e+01 -1.801125e+00  1.089902e+01
     vertex -1.906630e+01 -1.633875e+00  1.089902e+01
   endloop
 endfacet
 facet normal  0.000000e+00 -0.000000e+00  1.000000e+00
   outer loop
     vertex -1.918084e+01 -2.022575e+00  1.089902e+01
     vertex -1.906630e+01 -1.968375e+00  1.089902e+01
     vertex -1.919383e+01 -1.882537e+00  1.089902e+01
   endloop
 endfacet
 facet normal -0.000000e+00  0.000000e+00  1.000000e+00
   outer loop
     vertex -1.919383e+01 -1.882537e+00  1.089902e+01
     vertex -1.906630e+01 -1.968375e+00  1.089902e+01
     vertex -1.906630e+01 -1.801125e+00  1.089902e+01
   endloop
 endfacet
 facet normal  0.000000e+00  0.000000e+00  1.000000e+00
   outer loop
     vertex -1.924760e+01 -2.135625e+00  1.089902e+01
     vertex -1.906630e+01 -2.135625e+00  1.089902e+01
     vertex -1.918084e+01 -2.022575e+00  1.089902e+01
   endloop
 endfacet
 facet normal -0.000000e+00  0.000000e+00  1.000000e+00
   outer loop
     vertex -1.918084e+01 -2.022575e+00  1.089902e+01
     vertex -1.906630e+01 -2.135625e+00  1.089902e+01
     vertex -1.906630e+01 -1.968375e+00  1.089902e+01
   endloop
 endfacet
 facet normal  0.000000e+00  0.000000e+00  1.000000e+00
   outer loop
     vertex -1.979150e+01 -1.299375e+00  1.089902e+01
     vertex -1.989029e+01 -1.452195e+00  1.089902e+01
     vertex -1.973403e+01 -1.413949e+00  1.089902e+01
   endloop
 endfacet
 facet normal  0.000000e+00 -0.000000e+00  1.000000e+00
   outer loop
     vertex -2.002986e+01 -1.552337e+00  1.089902e+01
     vertex -1.989029e+01 -1.452195e+00  1.089902e+01
     vertex -2.004114e+01 -1.412460e+00  1.089902e+01
   endloop
 endfacet
 facet normal  0.000000e+00 -0.000000e+00  1.000000e+00
   outer loop
     vertex -1.989029e+01 -1.452195e+00  1.089902e+01
     vertex -1.979150e+01 -1.299375e+00  1.089902e+01
     vertex -1.997280e+01 -1.299375e+00  1.089902e+01
   endloop
 endfacet
 facet normal -0.000000e+00  0.000000e+00  1.000000e+00
   outer loop
     vertex -2.004114e+01 -1.412460e+00  1.089902e+01
     vertex -1.989029e+01 -1.452195e+00  1.089902e+01
     vertex -1.997280e+01 -1.299375e+00  1.089902e+01
   endloop
 endfacet
 facet normal  0.000000e+00  0.000000e+00  1.000000e+00
   outer loop
     vertex -2.004114e+01 -1.412460e+00  1.089902e+01
     vertex -2.015410e+01 -1.466625e+00  1.089902e+01
     vertex -2.002986e+01 -1.552337e+00  1.089902e+01
   endloop
 endfacet
 facet normal  0.000000e+00  0.000000e+00  1.000000e+00
   outer loop
     vertex -2.002986e+01 -1.552337e+00  1.089902e+01
     vertex -2.015410e+01 -1.466625e+00  1.089902e+01
     vertex -2.015410e+01 -1.633875e+00  1.089902e+01
   endloop
 endfacet
 facet normal  0.000000e+00  0.000000e+00  1.000000e+00
   outer loop
     vertex -1.997280e+01 -1.299375e+00  1.089902e+01
     vertex -2.015410e+01 -1.299375e+00  1.089902e+01
     vertex -2.004114e+01 -1.412460e+00  1.089902e+01
   endloop
 endfacet
 facet normal  0.000000e+00  0.000000e+00  1.000000e+00
   outer loop
     vertex -2.004114e+01 -1.412460e+00  1.089902e+01
     vertex -2.015410e+01 -1.299375e+00  1.089902e+01
     vertex -2.015410e+01 -1.466625e+00  1.089902e+01
   endloop
 endfacet
 facet normal  0.000000e+00 -0.000000e+00  1.000000e+00
   outer loop
     vertex -1.961212e+01 -1.476328e+00  1.089902e+01
     vertex -1.961020e+01 -1.299375e+00  1.089902e+01
     vertex -1.973403e+01 -1.413949e+00  1.089902e+01
   endloop
 endfacet
 facet normal  0.000000e+00  0.000000e+00  1.000000e+00
   outer loop
     vertex -1.961020e+01 -2.135625e+00  1.089902e+01
     vertex -1.973403e+01 -2.021052e+00  1.089902e+01
     vertex -1.979150e+01 -2.135625e+00  1.089902e+01
   endloop
 endfacet
 facet normal  0.000000e+00  0.000000e+00  1.000000e+00
   outer loop
     vertex -2.004114e+01 -2.022540e+00  1.089902e+01
     vertex -1.989028e+01 -1.982804e+00  1.089902e+01
     vertex -2.002985e+01 -1.882661e+00  1.089902e+01
   endloop
 endfacet
 facet normal  0.000000e+00  0.000000e+00  1.000000e+00
   outer loop
     vertex -1.979150e+01 -2.135625e+00  1.089902e+01
     vertex -1.989028e+01 -1.982804e+00  1.089902e+01
     vertex -1.997280e+01 -2.135625e+00  1.089902e+01
   endloop
 endfacet
 facet normal  0.000000e+00  0.000000e+00  1.000000e+00
   outer loop
     vertex -2.015410e+01 -2.135625e+00  1.089902e+01
     vertex -1.997280e+01 -2.135625e+00  1.089902e+01
     vertex -2.004114e+01 -2.022540e+00  1.089902e+01
   endloop
 endfacet
 facet normal -0.000000e+00  0.000000e+00  1.000000e+00
   outer loop
     vertex -2.004114e+01 -2.022540e+00  1.089902e+01
     vertex -1.997280e+01 -2.135625e+00  1.089902e+01
     vertex -1.989028e+01 -1.982804e+00  1.089902e+01
   endloop
 endfacet
 facet normal  0.000000e+00  0.000000e+00  1.000000e+00
   outer loop
     vertex -2.002985e+01 -1.882661e+00  1.089902e+01
     vertex -2.015410e+01 -1.968375e+00  1.089902e+01
     vertex -2.004114e+01 -2.022540e+00  1.089902e+01
   endloop
 endfacet
 facet normal  0.000000e+00  0.000000e+00  1.000000e+00
   outer loop
     vertex -2.004114e+01 -2.022540e+00  1.089902e+01
     vertex -2.015410e+01 -1.968375e+00  1.089902e+01
     vertex -2.015410e+01 -2.135625e+00  1.089902e+01
   endloop
 endfacet
 facet normal  0.000000e+00  0.000000e+00  1.000000e+00
   outer loop
     vertex -1.961212e+01 -1.958670e+00  1.089902e+01
     vertex -1.961020e+01 -2.135625e+00  1.089902e+01
     vertex -1.948971e+01 -2.020843e+00  1.089902e+01
   endloop
 endfacet
 facet normal  0.000000e+00  0.000000e+00  1.000000e+00
   outer loop
     vertex -1.989028e+01 -1.982804e+00  1.089902e+01
     vertex -1.979150e+01 -2.135625e+00  1.089902e+01
     vertex -1.973403e+01 -2.021052e+00  1.089902e+01
   endloop
 endfacet
 facet normal  0.000000e+00  0.000000e+00  1.000000e+00
   outer loop
     vertex -2.002870e+01 -1.717498e+00  1.089902e+01
     vertex -2.015410e+01 -1.801125e+00  1.089902e+01
     vertex -2.002985e+01 -1.882661e+00  1.089902e+01
   endloop
 endfacet
 facet normal  0.000000e+00  0.000000e+00  1.000000e+00
   outer loop
     vertex -2.002985e+01 -1.882661e+00  1.089902e+01
     vertex -2.015410e+01 -1.801125e+00  1.089902e+01
     vertex -2.015410e+01 -1.968375e+00  1.089902e+01
   endloop
 endfacet
 facet normal  0.000000e+00  0.000000e+00  1.000000e+00
   outer loop
     vertex -2.002986e+01 -1.552337e+00  1.089902e+01
     vertex -2.015410e+01 -1.633875e+00  1.089902e+01
     vertex -2.002870e+01 -1.717498e+00  1.089902e+01
   endloop
 endfacet
 facet normal  0.000000e+00  0.000000e+00  1.000000e+00
   outer loop
     vertex -2.002870e+01 -1.717498e+00  1.089902e+01
     vertex -2.015410e+01 -1.633875e+00  1.089902e+01
     vertex -2.015410e+01 -1.801125e+00  1.089902e+01
   endloop
 endfacet
 facet normal  0.000000e+00  0.000000e+00  1.000000e+00
   outer loop
     vertex -1.989403e+01 -1.802232e+00  1.089902e+01
     vertex -2.002985e+01 -1.882661e+00  1.089902e+01
     vertex -1.989028e+01 -1.982804e+00  1.089902e+01
   endloop
 endfacet
 facet normal  0.000000e+00  0.000000e+00  1.000000e+00
   outer loop
     vertex -1.975144e+01 -1.881153e+00  1.089902e+01
     vertex -1.989028e+01 -1.982804e+00  1.089902e+01
     vertex -1.973403e+01 -2.021052e+00  1.089902e+01
   endloop
 endfacet
 facet normal  0.000000e+00  0.000000e+00  1.000000e+00
   outer loop
     vertex -1.975489e+01 -1.717499e+00  1.089902e+01
     vertex -1.989403e+01 -1.802232e+00  1.089902e+01
     vertex -1.975144e+01 -1.881153e+00  1.089902e+01
   endloop
 endfacet
 facet normal  0.000000e+00 -0.000000e+00  1.000000e+00
   outer loop
     vertex -1.989028e+01 -1.982804e+00  1.089902e+01
     vertex -1.975144e+01 -1.881153e+00  1.089902e+01
     vertex -1.989403e+01 -1.802232e+00  1.089902e+01
   endloop
 endfacet
 facet normal  0.000000e+00  0.000000e+00  1.000000e+00
   outer loop
     vertex -1.989029e+01 -1.452195e+00  1.089902e+01
     vertex -2.002986e+01 -1.552337e+00  1.089902e+01
     vertex -1.989380e+01 -1.632816e+00  1.089902e+01
   endloop
 endfacet
 facet normal  0.000000e+00  0.000000e+00  1.000000e+00
   outer loop
     vertex -1.975141e+01 -1.553854e+00  1.089902e+01
     vertex -1.989380e+01 -1.632816e+00  1.089902e+01
     vertex -1.975489e+01 -1.717499e+00  1.089902e+01
   endloop
 endfacet
 facet normal  0.000000e+00  0.000000e+00  1.000000e+00
   outer loop
     vertex -1.973403e+01 -1.413949e+00  1.089902e+01
     vertex -1.989029e+01 -1.452195e+00  1.089902e+01
     vertex -1.975141e+01 -1.553854e+00  1.089902e+01
   endloop
 endfacet
 facet normal  0.000000e+00  0.000000e+00  1.000000e+00
   outer loop
     vertex -1.989380e+01 -1.632816e+00  1.089902e+01
     vertex -1.975141e+01 -1.553854e+00  1.089902e+01
     vertex -1.989029e+01 -1.452195e+00  1.089902e+01
   endloop
 endfacet
 facet normal  0.000000e+00  0.000000e+00  1.000000e+00
   outer loop
     vertex -1.989403e+01 -1.802232e+00  1.089902e+01
     vertex -1.975489e+01 -1.717499e+00  1.089902e+01
     vertex -1.989380e+01 -1.632816e+00  1.089902e+01
   endloop
 endfacet
 facet normal  0.000000e+00 -0.000000e+00  1.000000e+00
   outer loop
     vertex -2.002870e+01 -1.717498e+00  1.089902e+01
     vertex -1.989380e+01 -1.632816e+00  1.089902e+01
     vertex -2.002986e+01 -1.552337e+00  1.089902e+01
   endloop
 endfacet
 facet normal  0.000000e+00  0.000000e+00  1.000000e+00
   outer loop
     vertex -2.002985e+01 -1.882661e+00  1.089902e+01
     vertex -1.989403e+01 -1.802232e+00  1.089902e+01
     vertex -2.002870e+01 -1.717498e+00  1.089902e+01
   endloop
 endfacet
 facet normal  0.000000e+00  0.000000e+00  1.000000e+00
   outer loop
     vertex -1.989380e+01 -1.632816e+00  1.089902e+01
     vertex -2.002870e+01 -1.717498e+00  1.089902e+01
     vertex -1.989403e+01 -1.802232e+00  1.089902e+01
   endloop
 endfacet
 facet normal  0.000000e+00  0.000000e+00  1.000000e+00
   outer loop
     vertex -1.961020e+01 -2.135625e+00  1.089902e+01
     vertex -1.961212e+01 -1.958670e+00  1.089902e+01
     vertex -1.973403e+01 -2.021052e+00  1.089902e+01
   endloop
 endfacet
 facet normal  0.000000e+00  0.000000e+00  1.000000e+00
   outer loop
     vertex -1.948971e+01 -2.020843e+00  1.089902e+01
     vertex -1.961020e+01 -2.135625e+00  1.089902e+01
     vertex -1.942890e+01 -2.135625e+00  1.089902e+01
   endloop
 endfacet
 facet normal  0.000000e+00  0.000000e+00  1.000000e+00
   outer loop
     vertex -1.947366e+01 -1.881311e+00  1.089902e+01
     vertex -1.961212e+01 -1.958670e+00  1.089902e+01
     vertex -1.948971e+01 -2.020843e+00  1.089902e+01
   endloop
 endfacet
 facet normal  0.000000e+00  0.000000e+00  1.000000e+00
   outer loop
     vertex -1.933364e+01 -1.982607e+00  1.089902e+01
     vertex -1.942890e+01 -2.135625e+00  1.089902e+01
     vertex -1.924760e+01 -2.135625e+00  1.089902e+01
   endloop
 endfacet
 facet normal  0.000000e+00  0.000000e+00  1.000000e+00
   outer loop
     vertex -1.933143e+01 -1.802117e+00  1.089902e+01
     vertex -1.947366e+01 -1.881311e+00  1.089902e+01
     vertex -1.933364e+01 -1.982607e+00  1.089902e+01
   endloop
 endfacet
 facet normal  0.000000e+00  0.000000e+00  1.000000e+00
   outer loop
     vertex -1.919383e+01 -1.882537e+00  1.089902e+01
     vertex -1.933364e+01 -1.982607e+00  1.089902e+01
     vertex -1.918084e+01 -2.022575e+00  1.089902e+01
   endloop
 endfacet
 facet normal  0.000000e+00  0.000000e+00  1.000000e+00
   outer loop
     vertex -1.919489e+01 -1.717465e+00  1.089902e+01
     vertex -1.933143e+01 -1.802117e+00  1.089902e+01
     vertex -1.919383e+01 -1.882537e+00  1.089902e+01
   endloop
 endfacet
 facet normal  0.000000e+00  0.000000e+00  1.000000e+00
   outer loop
     vertex -1.933364e+01 -1.982607e+00  1.089902e+01
     vertex -1.919383e+01 -1.882537e+00  1.089902e+01
     vertex -1.933143e+01 -1.802117e+00  1.089902e+01
   endloop
 endfacet
 facet normal  0.000000e+00  0.000000e+00  1.000000e+00
   outer loop
     vertex -1.918084e+01 -2.022575e+00  1.089902e+01
     vertex -1.933364e+01 -1.982607e+00  1.089902e+01
     vertex -1.924760e+01 -2.135625e+00  1.089902e+01
   endloop
 endfacet
 facet normal  0.000000e+00  0.000000e+00  1.000000e+00
   outer loop
     vertex -1.948971e+01 -2.020843e+00  1.089902e+01
     vertex -1.933364e+01 -1.982607e+00  1.089902e+01
     vertex -1.947366e+01 -1.881311e+00  1.089902e+01
   endloop
 endfacet
 facet normal  0.000000e+00 -0.000000e+00  1.000000e+00
   outer loop
     vertex -1.942890e+01 -2.135625e+00  1.089902e+01
     vertex -1.933364e+01 -1.982607e+00  1.089902e+01
     vertex -1.948971e+01 -2.020843e+00  1.089902e+01
   endloop
 endfacet
 facet normal  0.000000e+00  0.000000e+00  1.000000e+00
   outer loop
     vertex -1.961020e+01 -1.299375e+00  1.089902e+01
     vertex -1.961212e+01 -1.476328e+00  1.089902e+01
     vertex -1.948971e+01 -1.414159e+00  1.089902e+01
   endloop
 endfacet
 facet normal  0.000000e+00  0.000000e+00  1.000000e+00
   outer loop
     vertex -1.948971e+01 -1.414159e+00  1.089902e+01
     vertex -1.961212e+01 -1.476328e+00  1.089902e+01
     vertex -1.947366e+01 -1.553669e+00  1.089902e+01
   endloop
 endfacet
 facet normal  0.000000e+00 -0.000000e+00  1.000000e+00
   outer loop
     vertex -1.973403e+01 -1.413949e+00  1.089902e+01
     vertex -1.961020e+01 -1.299375e+00  1.089902e+01
     vertex -1.979150e+01 -1.299375e+00  1.089902e+01
   endloop
 endfacet
 facet normal  0.000000e+00  0.000000e+00  1.000000e+00
   outer loop
     vertex -1.933378e+01 -1.452358e+00  1.089902e+01
     vertex -1.947366e+01 -1.553669e+00  1.089902e+01
     vertex -1.933144e+01 -1.632862e+00  1.089902e+01
   endloop
 endfacet
 facet normal  0.000000e+00  0.000000e+00  1.000000e+00
   outer loop
     vertex -1.919382e+01 -1.552428e+00  1.089902e+01
     vertex -1.933144e+01 -1.632862e+00  1.089902e+01
     vertex -1.919489e+01 -1.717465e+00  1.089902e+01
   endloop
 endfacet
 facet normal  0.000000e+00  0.000000e+00  1.000000e+00
   outer loop
     vertex -1.918083e+01 -1.412425e+00  1.089902e+01
     vertex -1.933378e+01 -1.452358e+00  1.089902e+01
     vertex -1.919382e+01 -1.552428e+00  1.089902e+01
   endloop
 endfacet
 facet normal  0.000000e+00 -0.000000e+00  1.000000e+00
   outer loop
     vertex -1.933144e+01 -1.632862e+00  1.089902e+01
     vertex -1.919382e+01 -1.552428e+00  1.089902e+01
     vertex -1.933378e+01 -1.452358e+00  1.089902e+01
   endloop
 endfacet
 facet normal  0.000000e+00  0.000000e+00  1.000000e+00
   outer loop
     vertex -1.933378e+01 -1.452358e+00  1.089902e+01
     vertex -1.942890e+01 -1.299375e+00  1.089902e+01
     vertex -1.948971e+01 -1.414159e+00  1.089902e+01
   endloop
 endfacet
 facet normal  0.000000e+00  0.000000e+00  1.000000e+00
   outer loop
     vertex -1.906630e+01 -1.299375e+00  1.089902e+01
     vertex -1.924760e+01 -1.299375e+00  1.089902e+01
     vertex -1.918083e+01 -1.412425e+00  1.089902e+01
   endloop
 endfacet
 facet normal  0.000000e+00  0.000000e+00  1.000000e+00
   outer loop
     vertex -1.918083e+01 -1.412425e+00  1.089902e+01
     vertex -1.924760e+01 -1.299375e+00  1.089902e+01
     vertex -1.933378e+01 -1.452358e+00  1.089902e+01
   endloop
 endfacet
 facet normal -0.000000e+00  0.000000e+00  1.000000e+00
   outer loop
     vertex -1.942890e+01 -1.299375e+00  1.089902e+01
     vertex -1.933378e+01 -1.452358e+00  1.089902e+01
     vertex -1.924760e+01 -1.299375e+00  1.089902e+01
   endloop
 endfacet
 facet normal  0.000000e+00 -0.000000e+00  1.000000e+00
   outer loop
     vertex -1.947366e+01 -1.553669e+00  1.089902e+01
     vertex -1.933378e+01 -1.452358e+00  1.089902e+01
     vertex -1.948971e+01 -1.414159e+00  1.089902e+01
   endloop
 endfacet
 facet normal  0.000000e+00 -0.000000e+00  1.000000e+00
   outer loop
     vertex -1.948971e+01 -1.414159e+00  1.089902e+01
     vertex -1.942890e+01 -1.299375e+00  1.089902e+01
     vertex -1.961020e+01 -1.299375e+00  1.089902e+01
   endloop
 endfacet
 facet normal  0.000000e+00 -0.000000e+00  1.000000e+00
   outer loop
     vertex -1.933143e+01 -1.802117e+00  1.089902e+01
     vertex -1.919489e+01 -1.717465e+00  1.089902e+01
     vertex -1.933144e+01 -1.632862e+00  1.089902e+01
   endloop
 endfacet
 facet normal  0.000000e+00 -0.000000e+00  1.000000e+00
   outer loop
     vertex -1.947200e+01 -1.717505e+00  1.089902e+01
     vertex -1.933144e+01 -1.632862e+00  1.089902e+01
     vertex -1.947366e+01 -1.553669e+00  1.089902e+01
   endloop
 endfacet
 facet normal  0.000000e+00  0.000000e+00  1.000000e+00
   outer loop
     vertex -1.947366e+01 -1.881311e+00  1.089902e+01
     vertex -1.933143e+01 -1.802117e+00  1.089902e+01
     vertex -1.947200e+01 -1.717505e+00  1.089902e+01
   endloop
 endfacet
 facet normal  0.000000e+00  0.000000e+00  1.000000e+00
   outer loop
     vertex -1.933144e+01 -1.632862e+00  1.089902e+01
     vertex -1.947200e+01 -1.717505e+00  1.089902e+01
     vertex -1.933143e+01 -1.802117e+00  1.089902e+01
   endloop
 endfacet
 facet normal  0.000000e+00  0.000000e+00  1.000000e+00
   outer loop
     vertex -1.961303e+01 -1.635946e+00  1.089902e+01
     vertex -1.947366e+01 -1.553669e+00  1.089902e+01
     vertex -1.961212e+01 -1.476328e+00  1.089902e+01
   endloop
 endfacet
 facet normal  0.000000e+00  0.000000e+00  1.000000e+00
   outer loop
     vertex -1.975141e+01 -1.553854e+00  1.089902e+01
     vertex -1.961212e+01 -1.476328e+00  1.089902e+01
     vertex -1.973403e+01 -1.413949e+00  1.089902e+01
   endloop
 endfacet
 facet normal  0.000000e+00  0.000000e+00  1.000000e+00
   outer loop
     vertex -1.975489e+01 -1.717499e+00  1.089902e+01
     vertex -1.961303e+01 -1.635946e+00  1.089902e+01
     vertex -1.975141e+01 -1.553854e+00  1.089902e+01
   endloop
 endfacet
 facet normal  0.000000e+00  0.000000e+00  1.000000e+00
   outer loop
     vertex -1.961212e+01 -1.476328e+00  1.089902e+01
     vertex -1.975141e+01 -1.553854e+00  1.089902e+01
     vertex -1.961303e+01 -1.635946e+00  1.089902e+01
   endloop
 endfacet
 facet normal  0.000000e+00 -0.000000e+00  1.000000e+00
   outer loop
     vertex -1.961212e+01 -1.958670e+00  1.089902e+01
     vertex -1.947366e+01 -1.881311e+00  1.089902e+01
     vertex -1.961301e+01 -1.799127e+00  1.089902e+01
   endloop
 endfacet
 facet normal  0.000000e+00 -0.000000e+00  1.000000e+00
   outer loop
     vertex -1.975144e+01 -1.881153e+00  1.089902e+01
     vertex -1.961301e+01 -1.799127e+00  1.089902e+01
     vertex -1.975489e+01 -1.717499e+00  1.089902e+01
   endloop
 endfacet
 facet normal  0.000000e+00 -0.000000e+00  1.000000e+00
   outer loop
     vertex -1.973403e+01 -2.021052e+00  1.089902e+01
     vertex -1.961212e+01 -1.958670e+00  1.089902e+01
     vertex -1.975144e+01 -1.881153e+00  1.089902e+01
   endloop
 endfacet
 facet normal  0.000000e+00  0.000000e+00  1.000000e+00
   outer loop
     vertex -1.961301e+01 -1.799127e+00  1.089902e+01
     vertex -1.975144e+01 -1.881153e+00  1.089902e+01
     vertex -1.961212e+01 -1.958670e+00  1.089902e+01
   endloop
 endfacet
 facet normal  0.000000e+00  0.000000e+00  1.000000e+00
   outer loop
     vertex -1.961303e+01 -1.635946e+00  1.089902e+01
     vertex -1.975489e+01 -1.717499e+00  1.089902e+01
     vertex -1.961301e+01 -1.799127e+00  1.089902e+01
   endloop
 endfacet
 facet normal  0.000000e+00  0.000000e+00  1.000000e+00
   outer loop
     vertex -1.947200e+01 -1.717505e+00  1.089902e+01
     vertex -1.961301e+01 -1.799127e+00  1.089902e+01
     vertex -1.947366e+01 -1.881311e+00  1.089902e+01
   endloop
 endfacet
 facet normal  0.000000e+00  0.000000e+00  1.000000e+00
   outer loop
     vertex -1.947366e+01 -1.553669e+00  1.089902e+01
     vertex -1.961303e+01 -1.635946e+00  1.089902e+01
     vertex -1.947200e+01 -1.717505e+00  1.089902e+01
   endloop
 endfacet
 facet normal  0.000000e+00 -0.000000e+00  1.000000e+00
   outer loop
     vertex -1.961301e+01 -1.799127e+00  1.089902e+01
     vertex -1.947200e+01 -1.717505e+00  1.089902e+01
     vertex -1.961303e+01 -1.635946e+00  1.089902e+01
   endloop
 endfacet
endsolid
