solid
 facet normal  0.000000e+00 -0.000000e+00  1.000000e+00
   outer loop
     vertex -1.762500e+01 -2.525000e-01  4.725000e+00
     vertex -1.762500e+01 -6.500000e-02  4.725000e+00
     vertex -1.777718e+01 -2.313362e-01  4.725000e+00
   endloop
 endfacet
 facet normal -0.000000e+00  0.000000e+00  1.000000e+00
   outer loop
     vertex -1.782292e+01 -6.500000e-02  4.725000e+00
     vertex -1.777718e+01 -2.313362e-01  4.725000e+00
     vertex -1.762500e+01 -6.500000e-02  4.725000e+00
   endloop
 endfacet
 facet normal  0.000000e+00  0.000000e+00  1.000000e+00
   outer loop
     vertex -1.777718e+01 -2.313362e-01  4.725000e+00
     vertex -1.782292e+01 -6.500000e-02  4.725000e+00
     vertex -1.793190e+01 -2.074574e-01  4.725000e+00
   endloop
 endfacet
 facet normal  0.000000e+00  0.000000e+00  1.000000e+00
   outer loop
     vertex -1.802083e+01 -6.500000e-02  4.725000e+00
     vertex -1.821875e+01 -6.500000e-02  4.725000e+00
     vertex -1.808029e+01 -2.428312e-01  4.725000e+00
   endloop
 endfacet
 facet normal  0.000000e+00  0.000000e+00  1.000000e+00
   outer loop
     vertex -1.825219e+01 -2.464876e-01  4.725000e+00
     vertex -1.808029e+01 -2.428312e-01  4.725000e+00
     vertex -1.821875e+01 -6.500000e-02  4.725000e+00
   endloop
 endfacet
 facet normal -0.000000e+00  0.000000e+00  1.000000e+00
   outer loop
     vertex -1.802083e+01 -6.500000e-02  4.725000e+00
     vertex -1.793190e+01 -2.074574e-01  4.725000e+00
     vertex -1.782292e+01 -6.500000e-02  4.725000e+00
   endloop
 endfacet
 facet normal  0.000000e+00 -0.000000e+00  1.000000e+00
   outer loop
     vertex -1.851825e+01 -2.119441e-01  4.725000e+00
     vertex -1.841667e+01 -6.500000e-02  4.725000e+00
     vertex -1.861458e+01 -6.500000e-02  4.725000e+00
   endloop
 endfacet
 facet normal  0.000000e+00  0.000000e+00  1.000000e+00
   outer loop
     vertex -1.861458e+01 -6.500000e-02  4.725000e+00
     vertex -1.868993e+01 -2.333397e-01  4.725000e+00
     vertex -1.851825e+01 -2.119441e-01  4.725000e+00
   endloop
 endfacet
 facet normal -0.000000e+00  0.000000e+00  1.000000e+00
   outer loop
     vertex -1.851825e+01 -2.119441e-01  4.725000e+00
     vertex -1.839579e+01 -2.735524e-01  4.725000e+00
     vertex -1.841667e+01 -6.500000e-02  4.725000e+00
   endloop
 endfacet
 facet normal  0.000000e+00 -0.000000e+00  1.000000e+00
   outer loop
     vertex -1.868993e+01 -2.333397e-01  4.725000e+00
     vertex -1.861458e+01 -6.500000e-02  4.725000e+00
     vertex -1.881250e+01 -6.500000e-02  4.725000e+00
   endloop
 endfacet
 facet normal  0.000000e+00  0.000000e+00  1.000000e+00
   outer loop
     vertex -1.911124e+01 -2.380082e-01  4.725000e+00
     vertex -1.889994e+01 -2.377573e-01  4.725000e+00
     vertex -1.901042e+01 -6.500000e-02  4.725000e+00
   endloop
 endfacet
 facet normal  0.000000e+00 -0.000000e+00  1.000000e+00
   outer loop
     vertex -1.889994e+01 -2.377573e-01  4.725000e+00
     vertex -1.881250e+01 -6.500000e-02  4.725000e+00
     vertex -1.901042e+01 -6.500000e-02  4.725000e+00
   endloop
 endfacet
 facet normal  0.000000e+00  0.000000e+00  1.000000e+00
   outer loop
     vertex -1.881250e+01 -6.500000e-02  4.725000e+00
     vertex -1.889994e+01 -2.377573e-01  4.725000e+00
     vertex -1.868993e+01 -2.333397e-01  4.725000e+00
   endloop
 endfacet
 facet normal -0.000000e+00  0.000000e+00  1.000000e+00
   outer loop
     vertex -1.841667e+01 -6.500000e-02  4.725000e+00
     vertex -1.825219e+01 -2.464876e-01  4.725000e+00
     vertex -1.821875e+01 -6.500000e-02  4.725000e+00
   endloop
 endfacet
 facet normal  0.000000e+00 -0.000000e+00  1.000000e+00
   outer loop
     vertex -1.762500e+01 -1.002500e+00  4.725000e+00
     vertex -1.762500e+01 -8.150000e-01  4.725000e+00
     vertex -1.772183e+01 -8.052579e-01  4.725000e+00
   endloop
 endfacet
 facet normal  0.000000e+00  0.000000e+00  1.000000e+00
   outer loop
     vertex -1.787917e+01 -1.191752e+00  4.725000e+00
     vertex -1.771854e+01 -1.188700e+00  4.725000e+00
     vertex -1.780334e+01 -1.000376e+00  4.725000e+00
   endloop
 endfacet
 facet normal -0.000000e+00  0.000000e+00  1.000000e+00
   outer loop
     vertex -1.777411e+01 -1.375154e+00  4.725000e+00
     vertex -1.762500e+01 -1.377500e+00  4.725000e+00
     vertex -1.771854e+01 -1.188700e+00  4.725000e+00
   endloop
 endfacet
 facet normal -0.000000e+00  0.000000e+00  1.000000e+00
   outer loop
     vertex -1.796614e+01 -1.362994e+00  4.725000e+00
     vertex -1.777411e+01 -1.375154e+00  4.725000e+00
     vertex -1.787917e+01 -1.191752e+00  4.725000e+00
   endloop
 endfacet
 facet normal  0.000000e+00  0.000000e+00  1.000000e+00
   outer loop
     vertex -1.771854e+01 -1.188700e+00  4.725000e+00
     vertex -1.787917e+01 -1.191752e+00  4.725000e+00
     vertex -1.777411e+01 -1.375154e+00  4.725000e+00
   endloop
 endfacet
 facet normal  0.000000e+00 -0.000000e+00  1.000000e+00
   outer loop
     vertex -1.782292e+01 -1.565000e+00  4.725000e+00
     vertex -1.777411e+01 -1.375154e+00  4.725000e+00
     vertex -1.796614e+01 -1.362994e+00  4.725000e+00
   endloop
 endfacet
 facet normal  0.000000e+00  0.000000e+00  1.000000e+00
   outer loop
     vertex -1.796614e+01 -1.362994e+00  4.725000e+00
     vertex -1.802083e+01 -1.565000e+00  4.725000e+00
     vertex -1.782292e+01 -1.565000e+00  4.725000e+00
   endloop
 endfacet
 facet normal  0.000000e+00 -0.000000e+00  1.000000e+00
   outer loop
     vertex -1.762500e+01 -1.565000e+00  4.725000e+00
     vertex -1.762500e+01 -1.377500e+00  4.725000e+00
     vertex -1.777411e+01 -1.375154e+00  4.725000e+00
   endloop
 endfacet
 facet normal  0.000000e+00  0.000000e+00  1.000000e+00
   outer loop
     vertex -1.777411e+01 -1.375154e+00  4.725000e+00
     vertex -1.782292e+01 -1.565000e+00  4.725000e+00
     vertex -1.762500e+01 -1.565000e+00  4.725000e+00
   endloop
 endfacet
 facet normal  0.000000e+00  0.000000e+00  1.000000e+00
   outer loop
     vertex -1.771854e+01 -1.188700e+00  4.725000e+00
     vertex -1.762500e+01 -1.377500e+00  4.725000e+00
     vertex -1.762500e+01 -1.190000e+00  4.725000e+00
   endloop
 endfacet
 facet normal  0.000000e+00  0.000000e+00  1.000000e+00
   outer loop
     vertex -1.772183e+01 -8.052579e-01  4.725000e+00
     vertex -1.780334e+01 -1.000376e+00  4.725000e+00
     vertex -1.762500e+01 -1.002500e+00  4.725000e+00
   endloop
 endfacet
 facet normal  0.000000e+00  0.000000e+00  1.000000e+00
   outer loop
     vertex -1.780334e+01 -1.000376e+00  4.725000e+00
     vertex -1.771854e+01 -1.188700e+00  4.725000e+00
     vertex -1.762500e+01 -1.002500e+00  4.725000e+00
   endloop
 endfacet
 facet normal -0.000000e+00  0.000000e+00  1.000000e+00
   outer loop
     vertex -1.771854e+01 -1.188700e+00  4.725000e+00
     vertex -1.762500e+01 -1.190000e+00  4.725000e+00
     vertex -1.762500e+01 -1.002500e+00  4.725000e+00
   endloop
 endfacet
 facet normal  0.000000e+00  0.000000e+00  1.000000e+00
   outer loop
     vertex -1.922173e+01 -4.201413e-01  4.725000e+00
     vertex -1.900274e+01 -4.199961e-01  4.725000e+00
     vertex -1.911124e+01 -2.380082e-01  4.725000e+00
   endloop
 endfacet
 facet normal  0.000000e+00  0.000000e+00  1.000000e+00
   outer loop
     vertex -1.911255e+01 -6.088915e-01  4.725000e+00
     vertex -1.889093e+01 -6.081960e-01  4.725000e+00
     vertex -1.900274e+01 -4.199961e-01  4.725000e+00
   endloop
 endfacet
 facet normal -0.000000e+00  0.000000e+00  1.000000e+00
   outer loop
     vertex -1.933387e+01 -6.085750e-01  4.725000e+00
     vertex -1.911255e+01 -6.088915e-01  4.725000e+00
     vertex -1.922173e+01 -4.201413e-01  4.725000e+00
   endloop
 endfacet
 facet normal  0.000000e+00  0.000000e+00  1.000000e+00
   outer loop
     vertex -1.900274e+01 -4.199961e-01  4.725000e+00
     vertex -1.922173e+01 -4.201413e-01  4.725000e+00
     vertex -1.911255e+01 -6.088915e-01  4.725000e+00
   endloop
 endfacet
 facet normal -0.000000e+00  0.000000e+00  1.000000e+00
   outer loop
     vertex -1.900174e+01 -8.000464e-01  4.725000e+00
     vertex -1.877945e+01 -8.000586e-01  4.725000e+00
     vertex -1.889093e+01 -6.081960e-01  4.725000e+00
   endloop
 endfacet
 facet normal -0.000000e+00  0.000000e+00  1.000000e+00
   outer loop
     vertex -1.889062e+01 -9.923826e-01  4.725000e+00
     vertex -1.866601e+01 -9.943581e-01  4.725000e+00
     vertex -1.877945e+01 -8.000586e-01  4.725000e+00
   endloop
 endfacet
 facet normal -0.000000e+00  0.000000e+00  1.000000e+00
   outer loop
     vertex -1.911265e+01 -9.919282e-01  4.725000e+00
     vertex -1.889062e+01 -9.923826e-01  4.725000e+00
     vertex -1.900174e+01 -8.000464e-01  4.725000e+00
   endloop
 endfacet
 facet normal  0.000000e+00  0.000000e+00  1.000000e+00
   outer loop
     vertex -1.877945e+01 -8.000586e-01  4.725000e+00
     vertex -1.900174e+01 -8.000464e-01  4.725000e+00
     vertex -1.889062e+01 -9.923826e-01  4.725000e+00
   endloop
 endfacet
 facet normal  0.000000e+00  0.000000e+00  1.000000e+00
   outer loop
     vertex -1.944574e+01 -8.003176e-01  4.725000e+00
     vertex -1.922354e+01 -8.000978e-01  4.725000e+00
     vertex -1.933387e+01 -6.085750e-01  4.725000e+00
   endloop
 endfacet
 facet normal  0.000000e+00  0.000000e+00  1.000000e+00
   outer loop
     vertex -1.933479e+01 -9.924584e-01  4.725000e+00
     vertex -1.911265e+01 -9.919282e-01  4.725000e+00
     vertex -1.922354e+01 -8.000978e-01  4.725000e+00
   endloop
 endfacet
 facet normal  0.000000e+00  0.000000e+00  1.000000e+00
   outer loop
     vertex -1.956005e+01 -9.944507e-01  4.725000e+00
     vertex -1.933479e+01 -9.924584e-01  4.725000e+00
     vertex -1.944574e+01 -8.003176e-01  4.725000e+00
   endloop
 endfacet
 facet normal  0.000000e+00  0.000000e+00  1.000000e+00
   outer loop
     vertex -1.922354e+01 -8.000978e-01  4.725000e+00
     vertex -1.944574e+01 -8.003176e-01  4.725000e+00
     vertex -1.933479e+01 -9.924584e-01  4.725000e+00
   endloop
 endfacet
 facet normal  0.000000e+00  0.000000e+00  1.000000e+00
   outer loop
     vertex -1.900174e+01 -8.000464e-01  4.725000e+00
     vertex -1.922354e+01 -8.000978e-01  4.725000e+00
     vertex -1.911265e+01 -9.919282e-01  4.725000e+00
   endloop
 endfacet
 facet normal  0.000000e+00  0.000000e+00  1.000000e+00
   outer loop
     vertex -1.911255e+01 -6.088915e-01  4.725000e+00
     vertex -1.933387e+01 -6.085750e-01  4.725000e+00
     vertex -1.922354e+01 -8.000978e-01  4.725000e+00
   endloop
 endfacet
 facet normal  0.000000e+00  0.000000e+00  1.000000e+00
   outer loop
     vertex -1.889093e+01 -6.081960e-01  4.725000e+00
     vertex -1.911255e+01 -6.088915e-01  4.725000e+00
     vertex -1.900174e+01 -8.000464e-01  4.725000e+00
   endloop
 endfacet
 facet normal  0.000000e+00  0.000000e+00  1.000000e+00
   outer loop
     vertex -1.922354e+01 -8.000978e-01  4.725000e+00
     vertex -1.900174e+01 -8.000464e-01  4.725000e+00
     vertex -1.911255e+01 -6.088915e-01  4.725000e+00
   endloop
 endfacet
 facet normal -0.000000e+00  0.000000e+00  1.000000e+00
   outer loop
     vertex -1.878026e+01 -1.186963e+00  4.725000e+00
     vertex -1.853877e+01 -1.203930e+00  4.725000e+00
     vertex -1.866601e+01 -9.943581e-01  4.725000e+00
   endloop
 endfacet
 facet normal -0.000000e+00  0.000000e+00  1.000000e+00
   outer loop
     vertex -1.868739e+01 -1.381664e+00  4.725000e+00
     vertex -1.849266e+01 -1.406751e+00  4.725000e+00
     vertex -1.853877e+01 -1.203930e+00  4.725000e+00
   endloop
 endfacet
 facet normal -0.000000e+00  0.000000e+00  1.000000e+00
   outer loop
     vertex -1.889937e+01 -1.375403e+00  4.725000e+00
     vertex -1.868739e+01 -1.381664e+00  4.725000e+00
     vertex -1.878026e+01 -1.186963e+00  4.725000e+00
   endloop
 endfacet
 facet normal  0.000000e+00  0.000000e+00  1.000000e+00
   outer loop
     vertex -1.853877e+01 -1.203930e+00  4.725000e+00
     vertex -1.878026e+01 -1.186963e+00  4.725000e+00
     vertex -1.868739e+01 -1.381664e+00  4.725000e+00
   endloop
 endfacet
 facet normal  0.000000e+00  0.000000e+00  1.000000e+00
   outer loop
     vertex -2.174783e+01 -2.465292e-01  4.725000e+00
     vertex -2.178125e+01 -6.500000e-02  4.725000e+00
     vertex -2.191961e+01 -2.426220e-01  4.725000e+00
   endloop
 endfacet
 facet normal  0.000000e+00  0.000000e+00  1.000000e+00
   outer loop
     vertex -1.868739e+01 -1.381664e+00  4.725000e+00
     vertex -1.889937e+01 -1.375403e+00  4.725000e+00
     vertex -1.881250e+01 -1.565000e+00  4.725000e+00
   endloop
 endfacet
 facet normal  0.000000e+00  0.000000e+00  1.000000e+00
   outer loop
     vertex -1.881250e+01 -1.565000e+00  4.725000e+00
     vertex -1.861458e+01 -1.565000e+00  4.725000e+00
     vertex -1.868739e+01 -1.381664e+00  4.725000e+00
   endloop
 endfacet
 facet normal  0.000000e+00  0.000000e+00  1.000000e+00
   outer loop
     vertex -1.861458e+01 -1.565000e+00  4.725000e+00
     vertex -1.841667e+01 -1.565000e+00  4.725000e+00
     vertex -1.849266e+01 -1.406751e+00  4.725000e+00
   endloop
 endfacet
 facet normal  0.000000e+00  0.000000e+00  1.000000e+00
   outer loop
     vertex -1.969016e+01 -1.204370e+00  4.725000e+00
     vertex -1.944511e+01 -1.186525e+00  4.725000e+00
     vertex -1.956005e+01 -9.944507e-01  4.725000e+00
   endloop
 endfacet
 facet normal  0.000000e+00  0.000000e+00  1.000000e+00
   outer loop
     vertex -1.849266e+01 -1.406751e+00  4.725000e+00
     vertex -1.868739e+01 -1.381664e+00  4.725000e+00
     vertex -1.861458e+01 -1.565000e+00  4.725000e+00
   endloop
 endfacet
 facet normal  0.000000e+00  0.000000e+00  1.000000e+00
   outer loop
     vertex -1.953655e+01 -1.381228e+00  4.725000e+00
     vertex -1.932350e+01 -1.375335e+00  4.725000e+00
     vertex -1.944511e+01 -1.186525e+00  4.725000e+00
   endloop
 endfacet
 facet normal  0.000000e+00  0.000000e+00  1.000000e+00
   outer loop
     vertex -1.973292e+01 -1.405538e+00  4.725000e+00
     vertex -1.953655e+01 -1.381228e+00  4.725000e+00
     vertex -1.969016e+01 -1.204370e+00  4.725000e+00
   endloop
 endfacet
 facet normal  0.000000e+00  0.000000e+00  1.000000e+00
   outer loop
     vertex -1.944511e+01 -1.186525e+00  4.725000e+00
     vertex -1.969016e+01 -1.204370e+00  4.725000e+00
     vertex -1.953655e+01 -1.381228e+00  4.725000e+00
   endloop
 endfacet
 facet normal  0.000000e+00  0.000000e+00  1.000000e+00
   outer loop
     vertex -1.920833e+01 -1.565000e+00  4.725000e+00
     vertex -1.932350e+01 -1.375335e+00  4.725000e+00
     vertex -1.940625e+01 -1.565000e+00  4.725000e+00
   endloop
 endfacet
 facet normal  0.000000e+00 -0.000000e+00  1.000000e+00
   outer loop
     vertex -1.960417e+01 -1.565000e+00  4.725000e+00
     vertex -1.953655e+01 -1.381228e+00  4.725000e+00
     vertex -1.973292e+01 -1.405538e+00  4.725000e+00
   endloop
 endfacet
 facet normal  0.000000e+00  0.000000e+00  1.000000e+00
   outer loop
     vertex -1.973292e+01 -1.405538e+00  4.725000e+00
     vertex -1.980208e+01 -1.565000e+00  4.725000e+00
     vertex -1.960417e+01 -1.565000e+00  4.725000e+00
   endloop
 endfacet
 facet normal  0.000000e+00  0.000000e+00  1.000000e+00
   outer loop
     vertex -1.953655e+01 -1.381228e+00  4.725000e+00
     vertex -1.960417e+01 -1.565000e+00  4.725000e+00
     vertex -1.940625e+01 -1.565000e+00  4.725000e+00
   endloop
 endfacet
 facet normal  0.000000e+00 -0.000000e+00  1.000000e+00
   outer loop
     vertex -1.940625e+01 -1.565000e+00  4.725000e+00
     vertex -1.932350e+01 -1.375335e+00  4.725000e+00
     vertex -1.953655e+01 -1.381228e+00  4.725000e+00
   endloop
 endfacet
 facet normal  0.000000e+00  0.000000e+00  1.000000e+00
   outer loop
     vertex -1.911128e+01 -1.374843e+00  4.725000e+00
     vertex -1.901042e+01 -1.565000e+00  4.725000e+00
     vertex -1.889937e+01 -1.375403e+00  4.725000e+00
   endloop
 endfacet
 facet normal  0.000000e+00  0.000000e+00  1.000000e+00
   outer loop
     vertex -1.881250e+01 -1.565000e+00  4.725000e+00
     vertex -1.889937e+01 -1.375403e+00  4.725000e+00
     vertex -1.901042e+01 -1.565000e+00  4.725000e+00
   endloop
 endfacet
 facet normal  0.000000e+00  0.000000e+00  1.000000e+00
   outer loop
     vertex -1.922203e+01 -1.184034e+00  4.725000e+00
     vertex -1.944511e+01 -1.186525e+00  4.725000e+00
     vertex -1.932350e+01 -1.375335e+00  4.725000e+00
   endloop
 endfacet
 facet normal  0.000000e+00  0.000000e+00  1.000000e+00
   outer loop
     vertex -1.911128e+01 -1.374843e+00  4.725000e+00
     vertex -1.932350e+01 -1.375335e+00  4.725000e+00
     vertex -1.920833e+01 -1.565000e+00  4.725000e+00
   endloop
 endfacet
 facet normal  0.000000e+00  0.000000e+00  1.000000e+00
   outer loop
     vertex -1.911128e+01 -1.374843e+00  4.725000e+00
     vertex -1.920833e+01 -1.565000e+00  4.725000e+00
     vertex -1.901042e+01 -1.565000e+00  4.725000e+00
   endloop
 endfacet
 facet normal  0.000000e+00  0.000000e+00  1.000000e+00
   outer loop
     vertex -1.933479e+01 -9.924584e-01  4.725000e+00
     vertex -1.956005e+01 -9.944507e-01  4.725000e+00
     vertex -1.944511e+01 -1.186525e+00  4.725000e+00
   endloop
 endfacet
 facet normal  0.000000e+00  0.000000e+00  1.000000e+00
   outer loop
     vertex -1.911265e+01 -9.919282e-01  4.725000e+00
     vertex -1.933479e+01 -9.924584e-01  4.725000e+00
     vertex -1.922203e+01 -1.184034e+00  4.725000e+00
   endloop
 endfacet
 facet normal  0.000000e+00  0.000000e+00  1.000000e+00
   outer loop
     vertex -1.944511e+01 -1.186525e+00  4.725000e+00
     vertex -1.922203e+01 -1.184034e+00  4.725000e+00
     vertex -1.933479e+01 -9.924584e-01  4.725000e+00
   endloop
 endfacet
 facet normal  0.000000e+00  0.000000e+00  1.000000e+00
   outer loop
     vertex -1.878026e+01 -1.186963e+00  4.725000e+00
     vertex -1.900253e+01 -1.184102e+00  4.725000e+00
     vertex -1.889937e+01 -1.375403e+00  4.725000e+00
   endloop
 endfacet
 facet normal  0.000000e+00  0.000000e+00  1.000000e+00
   outer loop
     vertex -1.889062e+01 -9.923826e-01  4.725000e+00
     vertex -1.911265e+01 -9.919282e-01  4.725000e+00
     vertex -1.900253e+01 -1.184102e+00  4.725000e+00
   endloop
 endfacet
 facet normal  0.000000e+00  0.000000e+00  1.000000e+00
   outer loop
     vertex -1.866601e+01 -9.943581e-01  4.725000e+00
     vertex -1.889062e+01 -9.923826e-01  4.725000e+00
     vertex -1.878026e+01 -1.186963e+00  4.725000e+00
   endloop
 endfacet
 facet normal -0.000000e+00  0.000000e+00  1.000000e+00
   outer loop
     vertex -1.900253e+01 -1.184102e+00  4.725000e+00
     vertex -1.878026e+01 -1.186963e+00  4.725000e+00
     vertex -1.889062e+01 -9.923826e-01  4.725000e+00
   endloop
 endfacet
 facet normal -0.000000e+00  0.000000e+00  1.000000e+00
   outer loop
     vertex -1.922203e+01 -1.184034e+00  4.725000e+00
     vertex -1.900253e+01 -1.184102e+00  4.725000e+00
     vertex -1.911265e+01 -9.919282e-01  4.725000e+00
   endloop
 endfacet
 facet normal -0.000000e+00  0.000000e+00  1.000000e+00
   outer loop
     vertex -1.911128e+01 -1.374843e+00  4.725000e+00
     vertex -1.889937e+01 -1.375403e+00  4.725000e+00
     vertex -1.900253e+01 -1.184102e+00  4.725000e+00
   endloop
 endfacet
 facet normal  0.000000e+00  0.000000e+00  1.000000e+00
   outer loop
     vertex -1.932350e+01 -1.375335e+00  4.725000e+00
     vertex -1.911128e+01 -1.374843e+00  4.725000e+00
     vertex -1.922203e+01 -1.184034e+00  4.725000e+00
   endloop
 endfacet
 facet normal  0.000000e+00  0.000000e+00  1.000000e+00
   outer loop
     vertex -1.900253e+01 -1.184102e+00  4.725000e+00
     vertex -1.922203e+01 -1.184034e+00  4.725000e+00
     vertex -1.911128e+01 -1.374843e+00  4.725000e+00
   endloop
 endfacet
 facet normal  0.000000e+00  0.000000e+00  1.000000e+00
   outer loop
     vertex -1.824336e+01 -1.359858e+00  4.725000e+00
     vertex -1.834993e+01 -1.441762e+00  4.725000e+00
     vertex -1.821875e+01 -1.565000e+00  4.725000e+00
   endloop
 endfacet
 facet normal  0.000000e+00  0.000000e+00  1.000000e+00
   outer loop
     vertex -1.802083e+01 -1.565000e+00  4.725000e+00
     vertex -1.810749e+01 -1.418541e+00  4.725000e+00
     vertex -1.821875e+01 -1.565000e+00  4.725000e+00
   endloop
 endfacet
 facet normal  0.000000e+00 -0.000000e+00  1.000000e+00
   outer loop
     vertex -1.849266e+01 -1.406751e+00  4.725000e+00
     vertex -1.838399e+01 -1.315725e+00  4.725000e+00
     vertex -1.853877e+01 -1.203930e+00  4.725000e+00
   endloop
 endfacet
 facet normal  0.000000e+00  0.000000e+00  1.000000e+00
   outer loop
     vertex -2.203032e+01 -1.363783e+00  4.725000e+00
     vertex -2.197917e+01 -1.565000e+00  4.725000e+00
     vertex -2.188975e+01 -1.422731e+00  4.725000e+00
   endloop
 endfacet
 facet normal  0.000000e+00  0.000000e+00  1.000000e+00
   outer loop
     vertex -1.844244e+01 -9.948477e-01  4.725000e+00
     vertex -1.866601e+01 -9.943581e-01  4.725000e+00
     vertex -1.853877e+01 -1.203930e+00  4.725000e+00
   endloop
 endfacet
 facet normal  0.000000e+00  0.000000e+00  1.000000e+00
   outer loop
     vertex -1.822476e+01 -1.000065e+00  4.725000e+00
     vertex -1.844244e+01 -9.948477e-01  4.725000e+00
     vertex -1.832466e+01 -1.179674e+00  4.725000e+00
   endloop
 endfacet
 facet normal  0.000000e+00  0.000000e+00  1.000000e+00
   outer loop
     vertex -1.853877e+01 -1.203930e+00  4.725000e+00
     vertex -1.832466e+01 -1.179674e+00  4.725000e+00
     vertex -1.844244e+01 -9.948477e-01  4.725000e+00
   endloop
 endfacet
 facet normal  0.000000e+00  0.000000e+00  1.000000e+00
   outer loop
     vertex -2.184972e+01 -1.224850e+00  4.725000e+00
     vertex -2.199018e+01 -1.028076e+00  4.725000e+00
     vertex -2.199690e+01 -1.203467e+00  4.725000e+00
   endloop
 endfacet
 facet normal  0.000000e+00  0.000000e+00  1.000000e+00
   outer loop
     vertex -1.800574e+01 -1.027732e+00  4.725000e+00
     vertex -1.822476e+01 -1.000065e+00  4.725000e+00
     vertex -1.812313e+01 -1.218557e+00  4.725000e+00
   endloop
 endfacet
 facet normal  0.000000e+00  0.000000e+00  1.000000e+00
   outer loop
     vertex -1.780334e+01 -1.000376e+00  4.725000e+00
     vertex -1.800574e+01 -1.027732e+00  4.725000e+00
     vertex -1.787917e+01 -1.191752e+00  4.725000e+00
   endloop
 endfacet
 facet normal  0.000000e+00  0.000000e+00  1.000000e+00
   outer loop
     vertex -1.812313e+01 -1.218557e+00  4.725000e+00
     vertex -1.799650e+01 -1.201962e+00  4.725000e+00
     vertex -1.800574e+01 -1.027732e+00  4.725000e+00
   endloop
 endfacet
 facet normal -0.000000e+00  0.000000e+00  1.000000e+00
   outer loop
     vertex -1.832466e+01 -1.179674e+00  4.725000e+00
     vertex -1.812313e+01 -1.218557e+00  4.725000e+00
     vertex -1.822476e+01 -1.000065e+00  4.725000e+00
   endloop
 endfacet
 facet normal -0.000000e+00  0.000000e+00  1.000000e+00
   outer loop
     vertex -1.824336e+01 -1.359858e+00  4.725000e+00
     vertex -1.810749e+01 -1.418541e+00  4.725000e+00
     vertex -1.812313e+01 -1.218557e+00  4.725000e+00
   endloop
 endfacet
 facet normal -0.000000e+00  0.000000e+00  1.000000e+00
   outer loop
     vertex -2.177063e+01 -1.385847e+00  4.725000e+00
     vertex -2.165850e+01 -1.441412e+00  4.725000e+00
     vertex -2.165409e+01 -1.296645e+00  4.725000e+00
   endloop
 endfacet
 facet normal  0.000000e+00  0.000000e+00  1.000000e+00
   outer loop
     vertex -1.812313e+01 -1.218557e+00  4.725000e+00
     vertex -1.832466e+01 -1.179674e+00  4.725000e+00
     vertex -1.824336e+01 -1.359858e+00  4.725000e+00
   endloop
 endfacet
 facet normal  0.000000e+00  0.000000e+00  1.000000e+00
   outer loop
     vertex -1.855670e+01 -8.003339e-01  4.725000e+00
     vertex -1.877945e+01 -8.000586e-01  4.725000e+00
     vertex -1.866601e+01 -9.943581e-01  4.725000e+00
   endloop
 endfacet
 facet normal  0.000000e+00  0.000000e+00  1.000000e+00
   outer loop
     vertex -1.866670e+01 -6.064298e-01  4.725000e+00
     vertex -1.889093e+01 -6.081960e-01  4.725000e+00
     vertex -1.877945e+01 -8.000586e-01  4.725000e+00
   endloop
 endfacet
 facet normal  0.000000e+00  0.000000e+00  1.000000e+00
   outer loop
     vertex -1.844392e+01 -6.072549e-01  4.725000e+00
     vertex -1.866670e+01 -6.064298e-01  4.725000e+00
     vertex -1.855670e+01 -8.003339e-01  4.725000e+00
   endloop
 endfacet
 facet normal -0.000000e+00  0.000000e+00  1.000000e+00
   outer loop
     vertex -1.877945e+01 -8.000586e-01  4.725000e+00
     vertex -1.855670e+01 -8.003339e-01  4.725000e+00
     vertex -1.866670e+01 -6.064298e-01  4.725000e+00
   endloop
 endfacet
 facet normal  0.000000e+00  0.000000e+00  1.000000e+00
   outer loop
     vertex -1.878170e+01 -4.177444e-01  4.725000e+00
     vertex -1.900274e+01 -4.199961e-01  4.725000e+00
     vertex -1.889093e+01 -6.081960e-01  4.725000e+00
   endloop
 endfacet
 facet normal  0.000000e+00  0.000000e+00  1.000000e+00
   outer loop
     vertex -1.889994e+01 -2.377573e-01  4.725000e+00
     vertex -1.911124e+01 -2.380082e-01  4.725000e+00
     vertex -1.900274e+01 -4.199961e-01  4.725000e+00
   endloop
 endfacet
 facet normal  0.000000e+00  0.000000e+00  1.000000e+00
   outer loop
     vertex -1.868993e+01 -2.333397e-01  4.725000e+00
     vertex -1.889994e+01 -2.377573e-01  4.725000e+00
     vertex -1.878170e+01 -4.177444e-01  4.725000e+00
   endloop
 endfacet
 facet normal  0.000000e+00  0.000000e+00  1.000000e+00
   outer loop
     vertex -1.900274e+01 -4.199961e-01  4.725000e+00
     vertex -1.878170e+01 -4.177444e-01  4.725000e+00
     vertex -1.889994e+01 -2.377573e-01  4.725000e+00
   endloop
 endfacet
 facet normal  0.000000e+00  0.000000e+00  1.000000e+00
   outer loop
     vertex -1.832736e+01 -4.252538e-01  4.725000e+00
     vertex -1.854304e+01 -3.997175e-01  4.725000e+00
     vertex -1.844392e+01 -6.072549e-01  4.725000e+00
   endloop
 endfacet
 facet normal  0.000000e+00  0.000000e+00  1.000000e+00
   outer loop
     vertex -1.851825e+01 -2.119441e-01  4.725000e+00
     vertex -1.868993e+01 -2.333397e-01  4.725000e+00
     vertex -1.854304e+01 -3.997175e-01  4.725000e+00
   endloop
 endfacet
 facet normal  0.000000e+00  0.000000e+00  1.000000e+00
   outer loop
     vertex -2.148173e+01 -2.119593e-01  4.725000e+00
     vertex -2.158333e+01 -6.500000e-02  4.725000e+00
     vertex -2.160411e+01 -2.736763e-01  4.725000e+00
   endloop
 endfacet
 facet normal  0.000000e+00  0.000000e+00  1.000000e+00
   outer loop
     vertex -1.832736e+01 -4.252538e-01  4.725000e+00
     vertex -1.839579e+01 -2.735524e-01  4.725000e+00
     vertex -1.854304e+01 -3.997175e-01  4.725000e+00
   endloop
 endfacet
 facet normal  0.000000e+00  0.000000e+00  1.000000e+00
   outer loop
     vertex -1.878170e+01 -4.177444e-01  4.725000e+00
     vertex -1.854304e+01 -3.997175e-01  4.725000e+00
     vertex -1.868993e+01 -2.333397e-01  4.725000e+00
   endloop
 endfacet
 facet normal -0.000000e+00  0.000000e+00  1.000000e+00
   outer loop
     vertex -1.866670e+01 -6.064298e-01  4.725000e+00
     vertex -1.844392e+01 -6.072549e-01  4.725000e+00
     vertex -1.854304e+01 -3.997175e-01  4.725000e+00
   endloop
 endfacet
 facet normal  0.000000e+00  0.000000e+00  1.000000e+00
   outer loop
     vertex -1.889093e+01 -6.081960e-01  4.725000e+00
     vertex -1.866670e+01 -6.064298e-01  4.725000e+00
     vertex -1.878170e+01 -4.177444e-01  4.725000e+00
   endloop
 endfacet
 facet normal  0.000000e+00  0.000000e+00  1.000000e+00
   outer loop
     vertex -1.854304e+01 -3.997175e-01  4.725000e+00
     vertex -1.878170e+01 -4.177444e-01  4.725000e+00
     vertex -1.866670e+01 -6.064298e-01  4.725000e+00
   endloop
 endfacet
 facet normal  0.000000e+00  0.000000e+00  1.000000e+00
   outer loop
     vertex -1.772183e+01 -8.052579e-01  4.725000e+00
     vertex -1.790294e+01 -8.035222e-01  4.725000e+00
     vertex -1.780334e+01 -1.000376e+00  4.725000e+00
   endloop
 endfacet
 facet normal  0.000000e+00  0.000000e+00  1.000000e+00
   outer loop
     vertex -1.778657e+01 -5.836507e-01  4.725000e+00
     vertex -1.800885e+01 -6.040085e-01  4.725000e+00
     vertex -1.790294e+01 -8.035222e-01  4.725000e+00
   endloop
 endfacet
 facet normal -0.000000e+00  0.000000e+00  1.000000e+00
   outer loop
     vertex -1.790294e+01 -8.035222e-01  4.725000e+00
     vertex -1.772183e+01 -8.052579e-01  4.725000e+00
     vertex -1.778657e+01 -5.836507e-01  4.725000e+00
   endloop
 endfacet
 facet normal  0.000000e+00  0.000000e+00  1.000000e+00
   outer loop
     vertex -1.778657e+01 -5.836507e-01  4.725000e+00
     vertex -1.772183e+01 -8.052579e-01  4.725000e+00
     vertex -1.762500e+01 -6.275000e-01  4.725000e+00
   endloop
 endfacet
 facet normal -0.000000e+00  0.000000e+00  1.000000e+00
   outer loop
     vertex -1.772183e+01 -8.052579e-01  4.725000e+00
     vertex -1.762500e+01 -8.150000e-01  4.725000e+00
     vertex -1.762500e+01 -6.275000e-01  4.725000e+00
   endloop
 endfacet
 facet normal  0.000000e+00  0.000000e+00  1.000000e+00
   outer loop
     vertex -1.791836e+01 -3.905252e-01  4.725000e+00
     vertex -1.813164e+01 -4.221623e-01  4.725000e+00
     vertex -1.800885e+01 -6.040085e-01  4.725000e+00
   endloop
 endfacet
 facet normal  0.000000e+00  0.000000e+00  1.000000e+00
   outer loop
     vertex -1.825219e+01 -2.464876e-01  4.725000e+00
     vertex -1.841667e+01 -6.500000e-02  4.725000e+00
     vertex -1.839579e+01 -2.735524e-01  4.725000e+00
   endloop
 endfacet
 facet normal  0.000000e+00  0.000000e+00  1.000000e+00
   outer loop
     vertex -1.777718e+01 -2.313362e-01  4.725000e+00
     vertex -1.793190e+01 -2.074574e-01  4.725000e+00
     vertex -1.791836e+01 -3.905252e-01  4.725000e+00
   endloop
 endfacet
 facet normal  0.000000e+00  0.000000e+00  1.000000e+00
   outer loop
     vertex -1.793190e+01 -2.074574e-01  4.725000e+00
     vertex -1.808029e+01 -2.428312e-01  4.725000e+00
     vertex -1.791836e+01 -3.905252e-01  4.725000e+00
   endloop
 endfacet
 facet normal  0.000000e+00  0.000000e+00  1.000000e+00
   outer loop
     vertex -1.773989e+01 -3.840310e-01  4.725000e+00
     vertex -1.778657e+01 -5.836507e-01  4.725000e+00
     vertex -1.762500e+01 -4.400000e-01  4.725000e+00
   endloop
 endfacet
 facet normal  0.000000e+00  0.000000e+00  1.000000e+00
   outer loop
     vertex -1.777718e+01 -2.313362e-01  4.725000e+00
     vertex -1.773989e+01 -3.840310e-01  4.725000e+00
     vertex -1.762500e+01 -2.525000e-01  4.725000e+00
   endloop
 endfacet
 facet normal -0.000000e+00  0.000000e+00  1.000000e+00
   outer loop
     vertex -1.773989e+01 -3.840310e-01  4.725000e+00
     vertex -1.762500e+01 -4.400000e-01  4.725000e+00
     vertex -1.762500e+01 -2.525000e-01  4.725000e+00
   endloop
 endfacet
 facet normal  0.000000e+00  0.000000e+00  1.000000e+00
   outer loop
     vertex -1.791836e+01 -3.905252e-01  4.725000e+00
     vertex -1.773989e+01 -3.840310e-01  4.725000e+00
     vertex -1.777718e+01 -2.313362e-01  4.725000e+00
   endloop
 endfacet
 facet normal  0.000000e+00 -0.000000e+00  1.000000e+00
   outer loop
     vertex -1.762500e+01 -6.275000e-01  4.725000e+00
     vertex -1.762500e+01 -4.400000e-01  4.725000e+00
     vertex -1.778657e+01 -5.836507e-01  4.725000e+00
   endloop
 endfacet
 facet normal  0.000000e+00  0.000000e+00  1.000000e+00
   outer loop
     vertex -1.800885e+01 -6.040085e-01  4.725000e+00
     vertex -1.778657e+01 -5.836507e-01  4.725000e+00
     vertex -1.791836e+01 -3.905252e-01  4.725000e+00
   endloop
 endfacet
 facet normal  0.000000e+00  0.000000e+00  1.000000e+00
   outer loop
     vertex -1.773989e+01 -3.840310e-01  4.725000e+00
     vertex -1.791836e+01 -3.905252e-01  4.725000e+00
     vertex -1.778657e+01 -5.836507e-01  4.725000e+00
   endloop
 endfacet
 facet normal  0.000000e+00  0.000000e+00  1.000000e+00
   outer loop
     vertex -1.832736e+01 -4.252538e-01  4.725000e+00
     vertex -1.813164e+01 -4.221623e-01  4.725000e+00
     vertex -1.825219e+01 -2.464876e-01  4.725000e+00
   endloop
 endfacet
 facet normal  0.000000e+00  0.000000e+00  1.000000e+00
   outer loop
     vertex -1.822652e+01 -6.098641e-01  4.725000e+00
     vertex -1.800885e+01 -6.040085e-01  4.725000e+00
     vertex -1.813164e+01 -4.221623e-01  4.725000e+00
   endloop
 endfacet
 facet normal -0.000000e+00  0.000000e+00  1.000000e+00
   outer loop
     vertex -1.844392e+01 -6.072549e-01  4.725000e+00
     vertex -1.822652e+01 -6.098641e-01  4.725000e+00
     vertex -1.832736e+01 -4.252538e-01  4.725000e+00
   endloop
 endfacet
 facet normal  0.000000e+00  0.000000e+00  1.000000e+00
   outer loop
     vertex -1.813164e+01 -4.221623e-01  4.725000e+00
     vertex -1.832736e+01 -4.252538e-01  4.725000e+00
     vertex -1.822652e+01 -6.098641e-01  4.725000e+00
   endloop
 endfacet
 facet normal  0.000000e+00  0.000000e+00  1.000000e+00
   outer loop
     vertex -1.811649e+01 -8.058596e-01  4.725000e+00
     vertex -1.790294e+01 -8.035222e-01  4.725000e+00
     vertex -1.800885e+01 -6.040085e-01  4.725000e+00
   endloop
 endfacet
 facet normal  0.000000e+00  0.000000e+00  1.000000e+00
   outer loop
     vertex -1.800574e+01 -1.027732e+00  4.725000e+00
     vertex -1.780334e+01 -1.000376e+00  4.725000e+00
     vertex -1.790294e+01 -8.035222e-01  4.725000e+00
   endloop
 endfacet
 facet normal -0.000000e+00  0.000000e+00  1.000000e+00
   outer loop
     vertex -1.822476e+01 -1.000065e+00  4.725000e+00
     vertex -1.800574e+01 -1.027732e+00  4.725000e+00
     vertex -1.811649e+01 -8.058596e-01  4.725000e+00
   endloop
 endfacet
 facet normal  0.000000e+00  0.000000e+00  1.000000e+00
   outer loop
     vertex -1.790294e+01 -8.035222e-01  4.725000e+00
     vertex -1.811649e+01 -8.058596e-01  4.725000e+00
     vertex -1.800574e+01 -1.027732e+00  4.725000e+00
   endloop
 endfacet
 facet normal -0.000000e+00  0.000000e+00  1.000000e+00
   outer loop
     vertex -1.855670e+01 -8.003339e-01  4.725000e+00
     vertex -1.833556e+01 -8.019690e-01  4.725000e+00
     vertex -1.844392e+01 -6.072549e-01  4.725000e+00
   endloop
 endfacet
 facet normal -0.000000e+00  0.000000e+00  1.000000e+00
   outer loop
     vertex -1.844244e+01 -9.948477e-01  4.725000e+00
     vertex -1.822476e+01 -1.000065e+00  4.725000e+00
     vertex -1.833556e+01 -8.019690e-01  4.725000e+00
   endloop
 endfacet
 facet normal -0.000000e+00  0.000000e+00  1.000000e+00
   outer loop
     vertex -1.866601e+01 -9.943581e-01  4.725000e+00
     vertex -1.844244e+01 -9.948477e-01  4.725000e+00
     vertex -1.855670e+01 -8.003339e-01  4.725000e+00
   endloop
 endfacet
 facet normal  0.000000e+00  0.000000e+00  1.000000e+00
   outer loop
     vertex -1.833556e+01 -8.019690e-01  4.725000e+00
     vertex -1.855670e+01 -8.003339e-01  4.725000e+00
     vertex -1.844244e+01 -9.948477e-01  4.725000e+00
   endloop
 endfacet
 facet normal  0.000000e+00  0.000000e+00  1.000000e+00
   outer loop
     vertex -1.811649e+01 -8.058596e-01  4.725000e+00
     vertex -1.833556e+01 -8.019690e-01  4.725000e+00
     vertex -1.822476e+01 -1.000065e+00  4.725000e+00
   endloop
 endfacet
 facet normal  0.000000e+00  0.000000e+00  1.000000e+00
   outer loop
     vertex -1.822652e+01 -6.098641e-01  4.725000e+00
     vertex -1.844392e+01 -6.072549e-01  4.725000e+00
     vertex -1.833556e+01 -8.019690e-01  4.725000e+00
   endloop
 endfacet
 facet normal  0.000000e+00  0.000000e+00  1.000000e+00
   outer loop
     vertex -1.800885e+01 -6.040085e-01  4.725000e+00
     vertex -1.822652e+01 -6.098641e-01  4.725000e+00
     vertex -1.811649e+01 -8.058596e-01  4.725000e+00
   endloop
 endfacet
 facet normal -0.000000e+00  0.000000e+00  1.000000e+00
   outer loop
     vertex -1.833556e+01 -8.019690e-01  4.725000e+00
     vertex -1.811649e+01 -8.058596e-01  4.725000e+00
     vertex -1.822652e+01 -6.098641e-01  4.725000e+00
   endloop
 endfacet
 facet normal  0.000000e+00  0.000000e+00  1.000000e+00
   outer loop
     vertex -2.110003e+01 -2.377816e-01  4.725000e+00
     vertex -2.118750e+01 -6.500000e-02  4.725000e+00
     vertex -2.131006e+01 -2.333722e-01  4.725000e+00
   endloop
 endfacet
 facet normal -0.000000e+00  0.000000e+00  1.000000e+00
   outer loop
     vertex -2.110003e+01 -2.377816e-01  4.725000e+00
     vertex -2.088875e+01 -2.380044e-01  4.725000e+00
     vertex -2.098958e+01 -6.500000e-02  4.725000e+00
   endloop
 endfacet
 facet normal  0.000000e+00 -0.000000e+00  1.000000e+00
   outer loop
     vertex -2.088875e+01 -2.380044e-01  4.725000e+00
     vertex -2.079167e+01 -6.500000e-02  4.725000e+00
     vertex -2.098958e+01 -6.500000e-02  4.725000e+00
   endloop
 endfacet
 facet normal -0.000000e+00  0.000000e+00  1.000000e+00
   outer loop
     vertex -2.138542e+01 -6.500000e-02  4.725000e+00
     vertex -2.131006e+01 -2.333722e-01  4.725000e+00
     vertex -2.118750e+01 -6.500000e-02  4.725000e+00
   endloop
 endfacet
 facet normal  0.000000e+00 -0.000000e+00  1.000000e+00
   outer loop
     vertex -2.110003e+01 -2.377816e-01  4.725000e+00
     vertex -2.098958e+01 -6.500000e-02  4.725000e+00
     vertex -2.118750e+01 -6.500000e-02  4.725000e+00
   endloop
 endfacet
 facet normal  0.000000e+00  0.000000e+00  1.000000e+00
   outer loop
     vertex -2.131006e+01 -2.333722e-01  4.725000e+00
     vertex -2.138542e+01 -6.500000e-02  4.725000e+00
     vertex -2.148173e+01 -2.119593e-01  4.725000e+00
   endloop
 endfacet
 facet normal -0.000000e+00  0.000000e+00  1.000000e+00
   outer loop
     vertex -2.174783e+01 -2.465292e-01  4.725000e+00
     vertex -2.160411e+01 -2.736763e-01  4.725000e+00
     vertex -2.158333e+01 -6.500000e-02  4.725000e+00
   endloop
 endfacet
 facet normal -0.000000e+00  0.000000e+00  1.000000e+00
   outer loop
     vertex -2.178125e+01 -6.500000e-02  4.725000e+00
     vertex -2.174783e+01 -2.465292e-01  4.725000e+00
     vertex -2.158333e+01 -6.500000e-02  4.725000e+00
   endloop
 endfacet
 facet normal -0.000000e+00  0.000000e+00  1.000000e+00
   outer loop
     vertex -2.158333e+01 -6.500000e-02  4.725000e+00
     vertex -2.148173e+01 -2.119593e-01  4.725000e+00
     vertex -2.138542e+01 -6.500000e-02  4.725000e+00
   endloop
 endfacet
 facet normal -0.000000e+00  0.000000e+00  1.000000e+00
   outer loop
     vertex -2.197917e+01 -6.500000e-02  4.725000e+00
     vertex -2.191961e+01 -2.426220e-01  4.725000e+00
     vertex -2.178125e+01 -6.500000e-02  4.725000e+00
   endloop
 endfacet
 facet normal -0.000000e+00  0.000000e+00  1.000000e+00
   outer loop
     vertex -2.217708e+01 -6.500000e-02  4.725000e+00
     vertex -2.206818e+01 -2.074606e-01  4.725000e+00
     vertex -2.197917e+01 -6.500000e-02  4.725000e+00
   endloop
 endfacet
 facet normal  0.000000e+00  0.000000e+00  1.000000e+00
   outer loop
     vertex -2.237500e+01 -2.525000e-01  4.725000e+00
     vertex -2.222287e+01 -2.312898e-01  4.725000e+00
     vertex -2.237500e+01 -6.500000e-02  4.725000e+00
   endloop
 endfacet
 facet normal -0.000000e+00  0.000000e+00  1.000000e+00
   outer loop
     vertex -2.237500e+01 -6.500000e-02  4.725000e+00
     vertex -2.222287e+01 -2.312898e-01  4.725000e+00
     vertex -2.217708e+01 -6.500000e-02  4.725000e+00
   endloop
 endfacet
 facet normal  0.000000e+00  0.000000e+00  1.000000e+00
   outer loop
     vertex -2.222287e+01 -2.312898e-01  4.725000e+00
     vertex -2.206818e+01 -2.074606e-01  4.725000e+00
     vertex -2.217708e+01 -6.500000e-02  4.725000e+00
   endloop
 endfacet
 facet normal -0.000000e+00  0.000000e+00  1.000000e+00
   outer loop
     vertex -2.206818e+01 -2.074606e-01  4.725000e+00
     vertex -2.191961e+01 -2.426220e-01  4.725000e+00
     vertex -2.197917e+01 -6.500000e-02  4.725000e+00
   endloop
 endfacet
 facet normal  0.000000e+00  0.000000e+00  1.000000e+00
   outer loop
     vertex -2.099728e+01 -4.201550e-01  4.725000e+00
     vertex -2.077832e+01 -4.199766e-01  4.725000e+00
     vertex -2.088875e+01 -2.380044e-01  4.725000e+00
   endloop
 endfacet
 facet normal  0.000000e+00  0.000000e+00  1.000000e+00
   outer loop
     vertex -2.088746e+01 -6.088896e-01  4.725000e+00
     vertex -2.066616e+01 -6.085880e-01  4.725000e+00
     vertex -2.077832e+01 -4.199766e-01  4.725000e+00
   endloop
 endfacet
 facet normal -0.000000e+00  0.000000e+00  1.000000e+00
   outer loop
     vertex -2.110905e+01 -6.082078e-01  4.725000e+00
     vertex -2.088746e+01 -6.088896e-01  4.725000e+00
     vertex -2.099728e+01 -4.201550e-01  4.725000e+00
   endloop
 endfacet
 facet normal  0.000000e+00  0.000000e+00  1.000000e+00
   outer loop
     vertex -2.077832e+01 -4.199766e-01  4.725000e+00
     vertex -2.099728e+01 -4.201550e-01  4.725000e+00
     vertex -2.088746e+01 -6.088896e-01  4.725000e+00
   endloop
 endfacet
 facet normal -0.000000e+00  0.000000e+00  1.000000e+00
   outer loop
     vertex -2.077646e+01 -8.000973e-01  4.725000e+00
     vertex -2.055435e+01 -8.001841e-01  4.725000e+00
     vertex -2.066616e+01 -6.085880e-01  4.725000e+00
   endloop
 endfacet
 facet normal -0.000000e+00  0.000000e+00  1.000000e+00
   outer loop
     vertex -2.066532e+01 -9.923296e-01  4.725000e+00
     vertex -2.044043e+01 -9.935100e-01  4.725000e+00
     vertex -2.055435e+01 -8.001841e-01  4.725000e+00
   endloop
 endfacet
 facet normal -0.000000e+00  0.000000e+00  1.000000e+00
   outer loop
     vertex -2.088737e+01 -9.919181e-01  4.725000e+00
     vertex -2.066532e+01 -9.923296e-01  4.725000e+00
     vertex -2.077646e+01 -8.000973e-01  4.725000e+00
   endloop
 endfacet
 facet normal  0.000000e+00  0.000000e+00  1.000000e+00
   outer loop
     vertex -2.055435e+01 -8.001841e-01  4.725000e+00
     vertex -2.077646e+01 -8.000973e-01  4.725000e+00
     vertex -2.066532e+01 -9.923296e-01  4.725000e+00
   endloop
 endfacet
 facet normal -0.000000e+00  0.000000e+00  1.000000e+00
   outer loop
     vertex -2.122055e+01 -7.998864e-01  4.725000e+00
     vertex -2.099825e+01 -8.000326e-01  4.725000e+00
     vertex -2.110905e+01 -6.082078e-01  4.725000e+00
   endloop
 endfacet
 facet normal  0.000000e+00  0.000000e+00  1.000000e+00
   outer loop
     vertex -2.110946e+01 -9.921922e-01  4.725000e+00
     vertex -2.088737e+01 -9.919181e-01  4.725000e+00
     vertex -2.099825e+01 -8.000326e-01  4.725000e+00
   endloop
 endfacet
 facet normal  0.000000e+00  0.000000e+00  1.000000e+00
   outer loop
     vertex -2.133406e+01 -9.930324e-01  4.725000e+00
     vertex -2.110946e+01 -9.921922e-01  4.725000e+00
     vertex -2.122055e+01 -7.998864e-01  4.725000e+00
   endloop
 endfacet
 facet normal  0.000000e+00  0.000000e+00  1.000000e+00
   outer loop
     vertex -2.099825e+01 -8.000326e-01  4.725000e+00
     vertex -2.122055e+01 -7.998864e-01  4.725000e+00
     vertex -2.110946e+01 -9.921922e-01  4.725000e+00
   endloop
 endfacet
 facet normal  0.000000e+00  0.000000e+00  1.000000e+00
   outer loop
     vertex -2.077646e+01 -8.000973e-01  4.725000e+00
     vertex -2.099825e+01 -8.000326e-01  4.725000e+00
     vertex -2.088737e+01 -9.919181e-01  4.725000e+00
   endloop
 endfacet
 facet normal  0.000000e+00  0.000000e+00  1.000000e+00
   outer loop
     vertex -2.088746e+01 -6.088896e-01  4.725000e+00
     vertex -2.110905e+01 -6.082078e-01  4.725000e+00
     vertex -2.099825e+01 -8.000326e-01  4.725000e+00
   endloop
 endfacet
 facet normal  0.000000e+00  0.000000e+00  1.000000e+00
   outer loop
     vertex -2.066616e+01 -6.085880e-01  4.725000e+00
     vertex -2.088746e+01 -6.088896e-01  4.725000e+00
     vertex -2.077646e+01 -8.000973e-01  4.725000e+00
   endloop
 endfacet
 facet normal -0.000000e+00  0.000000e+00  1.000000e+00
   outer loop
     vertex -2.099825e+01 -8.000326e-01  4.725000e+00
     vertex -2.077646e+01 -8.000973e-01  4.725000e+00
     vertex -2.088746e+01 -6.088896e-01  4.725000e+00
   endloop
 endfacet
 facet normal -0.000000e+00  0.000000e+00  1.000000e+00
   outer loop
     vertex -2.055492e+01 -1.185989e+00  4.725000e+00
     vertex -2.031020e+01 -1.195306e+00  4.725000e+00
     vertex -2.044043e+01 -9.935100e-01  4.725000e+00
   endloop
 endfacet
 facet normal -0.000000e+00  0.000000e+00  1.000000e+00
   outer loop
     vertex -2.046309e+01 -1.379892e+00  4.725000e+00
     vertex -2.026427e+01 -1.400598e+00  4.725000e+00
     vertex -2.031020e+01 -1.195306e+00  4.725000e+00
   endloop
 endfacet
 facet normal -0.000000e+00  0.000000e+00  1.000000e+00
   outer loop
     vertex -2.067650e+01 -1.375351e+00  4.725000e+00
     vertex -2.046309e+01 -1.379892e+00  4.725000e+00
     vertex -2.055492e+01 -1.185989e+00  4.725000e+00
   endloop
 endfacet
 facet normal  0.000000e+00  0.000000e+00  1.000000e+00
   outer loop
     vertex -2.031020e+01 -1.195306e+00  4.725000e+00
     vertex -2.055492e+01 -1.185989e+00  4.725000e+00
     vertex -2.046309e+01 -1.379892e+00  4.725000e+00
   endloop
 endfacet
 facet normal  0.000000e+00  0.000000e+00  1.000000e+00
   outer loop
     vertex -2.046309e+01 -1.379892e+00  4.725000e+00
     vertex -2.067650e+01 -1.375351e+00  4.725000e+00
     vertex -2.059375e+01 -1.565000e+00  4.725000e+00
   endloop
 endfacet
 facet normal  0.000000e+00  0.000000e+00  1.000000e+00
   outer loop
     vertex -2.059375e+01 -1.565000e+00  4.725000e+00
     vertex -2.039583e+01 -1.565000e+00  4.725000e+00
     vertex -2.046309e+01 -1.379892e+00  4.725000e+00
   endloop
 endfacet
 facet normal  0.000000e+00  0.000000e+00  1.000000e+00
   outer loop
     vertex -2.039583e+01 -1.565000e+00  4.725000e+00
     vertex -2.019792e+01 -1.565000e+00  4.725000e+00
     vertex -2.026427e+01 -1.400598e+00  4.725000e+00
   endloop
 endfacet
 facet normal  0.000000e+00  0.000000e+00  1.000000e+00
   outer loop
     vertex -2.146392e+01 -1.196449e+00  4.725000e+00
     vertex -2.122003e+01 -1.185699e+00  4.725000e+00
     vertex -2.133406e+01 -9.930324e-01  4.725000e+00
   endloop
 endfacet
 facet normal  0.000000e+00  0.000000e+00  1.000000e+00
   outer loop
     vertex -2.026427e+01 -1.400598e+00  4.725000e+00
     vertex -2.046309e+01 -1.379892e+00  4.725000e+00
     vertex -2.039583e+01 -1.565000e+00  4.725000e+00
   endloop
 endfacet
 facet normal  0.000000e+00  0.000000e+00  1.000000e+00
   outer loop
     vertex -2.131358e+01 -1.380282e+00  4.725000e+00
     vertex -2.110073e+01 -1.375324e+00  4.725000e+00
     vertex -2.122003e+01 -1.185699e+00  4.725000e+00
   endloop
 endfacet
 facet normal  0.000000e+00  0.000000e+00  1.000000e+00
   outer loop
     vertex -2.151281e+01 -1.403205e+00  4.725000e+00
     vertex -2.131358e+01 -1.380282e+00  4.725000e+00
     vertex -2.146392e+01 -1.196449e+00  4.725000e+00
   endloop
 endfacet
 facet normal  0.000000e+00  0.000000e+00  1.000000e+00
   outer loop
     vertex -2.122003e+01 -1.185699e+00  4.725000e+00
     vertex -2.146392e+01 -1.196449e+00  4.725000e+00
     vertex -2.131358e+01 -1.380282e+00  4.725000e+00
   endloop
 endfacet
 facet normal  0.000000e+00  0.000000e+00  1.000000e+00
   outer loop
     vertex -2.098958e+01 -1.565000e+00  4.725000e+00
     vertex -2.110073e+01 -1.375324e+00  4.725000e+00
     vertex -2.118750e+01 -1.565000e+00  4.725000e+00
   endloop
 endfacet
 facet normal  0.000000e+00 -0.000000e+00  1.000000e+00
   outer loop
     vertex -2.138542e+01 -1.565000e+00  4.725000e+00
     vertex -2.131358e+01 -1.380282e+00  4.725000e+00
     vertex -2.151281e+01 -1.403205e+00  4.725000e+00
   endloop
 endfacet
 facet normal  0.000000e+00  0.000000e+00  1.000000e+00
   outer loop
     vertex -2.151281e+01 -1.403205e+00  4.725000e+00
     vertex -2.158333e+01 -1.565000e+00  4.725000e+00
     vertex -2.138542e+01 -1.565000e+00  4.725000e+00
   endloop
 endfacet
 facet normal  0.000000e+00  0.000000e+00  1.000000e+00
   outer loop
     vertex -2.131358e+01 -1.380282e+00  4.725000e+00
     vertex -2.138542e+01 -1.565000e+00  4.725000e+00
     vertex -2.118750e+01 -1.565000e+00  4.725000e+00
   endloop
 endfacet
 facet normal  0.000000e+00 -0.000000e+00  1.000000e+00
   outer loop
     vertex -2.118750e+01 -1.565000e+00  4.725000e+00
     vertex -2.110073e+01 -1.375324e+00  4.725000e+00
     vertex -2.131358e+01 -1.380282e+00  4.725000e+00
   endloop
 endfacet
 facet normal  0.000000e+00  0.000000e+00  1.000000e+00
   outer loop
     vertex -2.088874e+01 -1.374835e+00  4.725000e+00
     vertex -2.079167e+01 -1.565000e+00  4.725000e+00
     vertex -2.067650e+01 -1.375351e+00  4.725000e+00
   endloop
 endfacet
 facet normal  0.000000e+00  0.000000e+00  1.000000e+00
   outer loop
     vertex -2.059375e+01 -1.565000e+00  4.725000e+00
     vertex -2.067650e+01 -1.375351e+00  4.725000e+00
     vertex -2.079167e+01 -1.565000e+00  4.725000e+00
   endloop
 endfacet
 facet normal  0.000000e+00  0.000000e+00  1.000000e+00
   outer loop
     vertex -2.099746e+01 -1.183916e+00  4.725000e+00
     vertex -2.122003e+01 -1.185699e+00  4.725000e+00
     vertex -2.110073e+01 -1.375324e+00  4.725000e+00
   endloop
 endfacet
 facet normal  0.000000e+00  0.000000e+00  1.000000e+00
   outer loop
     vertex -2.088874e+01 -1.374835e+00  4.725000e+00
     vertex -2.110073e+01 -1.375324e+00  4.725000e+00
     vertex -2.098958e+01 -1.565000e+00  4.725000e+00
   endloop
 endfacet
 facet normal  0.000000e+00  0.000000e+00  1.000000e+00
   outer loop
     vertex -2.088874e+01 -1.374835e+00  4.725000e+00
     vertex -2.098958e+01 -1.565000e+00  4.725000e+00
     vertex -2.079167e+01 -1.565000e+00  4.725000e+00
   endloop
 endfacet
 facet normal  0.000000e+00  0.000000e+00  1.000000e+00
   outer loop
     vertex -2.110946e+01 -9.921922e-01  4.725000e+00
     vertex -2.133406e+01 -9.930324e-01  4.725000e+00
     vertex -2.122003e+01 -1.185699e+00  4.725000e+00
   endloop
 endfacet
 facet normal  0.000000e+00  0.000000e+00  1.000000e+00
   outer loop
     vertex -2.088737e+01 -9.919181e-01  4.725000e+00
     vertex -2.110946e+01 -9.921922e-01  4.725000e+00
     vertex -2.099746e+01 -1.183916e+00  4.725000e+00
   endloop
 endfacet
 facet normal  0.000000e+00  0.000000e+00  1.000000e+00
   outer loop
     vertex -2.122003e+01 -1.185699e+00  4.725000e+00
     vertex -2.099746e+01 -1.183916e+00  4.725000e+00
     vertex -2.110946e+01 -9.921922e-01  4.725000e+00
   endloop
 endfacet
 facet normal  0.000000e+00  0.000000e+00  1.000000e+00
   outer loop
     vertex -2.055492e+01 -1.185989e+00  4.725000e+00
     vertex -2.077795e+01 -1.183984e+00  4.725000e+00
     vertex -2.067650e+01 -1.375351e+00  4.725000e+00
   endloop
 endfacet
 facet normal  0.000000e+00  0.000000e+00  1.000000e+00
   outer loop
     vertex -2.066532e+01 -9.923296e-01  4.725000e+00
     vertex -2.088737e+01 -9.919181e-01  4.725000e+00
     vertex -2.077795e+01 -1.183984e+00  4.725000e+00
   endloop
 endfacet
 facet normal  0.000000e+00  0.000000e+00  1.000000e+00
   outer loop
     vertex -2.044043e+01 -9.935100e-01  4.725000e+00
     vertex -2.066532e+01 -9.923296e-01  4.725000e+00
     vertex -2.055492e+01 -1.185989e+00  4.725000e+00
   endloop
 endfacet
 facet normal -0.000000e+00  0.000000e+00  1.000000e+00
   outer loop
     vertex -2.077795e+01 -1.183984e+00  4.725000e+00
     vertex -2.055492e+01 -1.185989e+00  4.725000e+00
     vertex -2.066532e+01 -9.923296e-01  4.725000e+00
   endloop
 endfacet
 facet normal -0.000000e+00  0.000000e+00  1.000000e+00
   outer loop
     vertex -2.099746e+01 -1.183916e+00  4.725000e+00
     vertex -2.077795e+01 -1.183984e+00  4.725000e+00
     vertex -2.088737e+01 -9.919181e-01  4.725000e+00
   endloop
 endfacet
 facet normal -0.000000e+00  0.000000e+00  1.000000e+00
   outer loop
     vertex -2.088874e+01 -1.374835e+00  4.725000e+00
     vertex -2.067650e+01 -1.375351e+00  4.725000e+00
     vertex -2.077795e+01 -1.183984e+00  4.725000e+00
   endloop
 endfacet
 facet normal  0.000000e+00  0.000000e+00  1.000000e+00
   outer loop
     vertex -2.110073e+01 -1.375324e+00  4.725000e+00
     vertex -2.088874e+01 -1.374835e+00  4.725000e+00
     vertex -2.099746e+01 -1.183916e+00  4.725000e+00
   endloop
 endfacet
 facet normal  0.000000e+00  0.000000e+00  1.000000e+00
   outer loop
     vertex -2.077795e+01 -1.183984e+00  4.725000e+00
     vertex -2.099746e+01 -1.183916e+00  4.725000e+00
     vertex -2.088874e+01 -1.374835e+00  4.725000e+00
   endloop
 endfacet
 facet normal  0.000000e+00  0.000000e+00  1.000000e+00
   outer loop
     vertex -2.227811e+01 -8.052640e-01  4.725000e+00
     vertex -2.237500e+01 -8.150000e-01  4.725000e+00
     vertex -2.237500e+01 -1.002500e+00  4.725000e+00
   endloop
 endfacet
 facet normal  0.000000e+00  0.000000e+00  1.000000e+00
   outer loop
     vertex -2.227811e+01 -8.052640e-01  4.725000e+00
     vertex -2.237500e+01 -6.275000e-01  4.725000e+00
     vertex -2.237500e+01 -8.150000e-01  4.725000e+00
   endloop
 endfacet
 facet normal -0.000000e+00  0.000000e+00  1.000000e+00
   outer loop
     vertex -2.228144e+01 -1.188814e+00  4.725000e+00
     vertex -2.212012e+01 -1.191942e+00  4.725000e+00
     vertex -2.219622e+01 -1.000451e+00  4.725000e+00
   endloop
 endfacet
 facet normal  0.000000e+00  0.000000e+00  1.000000e+00
   outer loop
     vertex -2.222546e+01 -1.375280e+00  4.725000e+00
     vertex -2.203032e+01 -1.363783e+00  4.725000e+00
     vertex -2.212012e+01 -1.191942e+00  4.725000e+00
   endloop
 endfacet
 facet normal  0.000000e+00  0.000000e+00  1.000000e+00
   outer loop
     vertex -2.228144e+01 -1.188814e+00  4.725000e+00
     vertex -2.237500e+01 -1.190000e+00  4.725000e+00
     vertex -2.237500e+01 -1.377500e+00  4.725000e+00
   endloop
 endfacet
 facet normal  0.000000e+00  0.000000e+00  1.000000e+00
   outer loop
     vertex -2.212012e+01 -1.191942e+00  4.725000e+00
     vertex -2.228144e+01 -1.188814e+00  4.725000e+00
     vertex -2.222546e+01 -1.375280e+00  4.725000e+00
   endloop
 endfacet
 facet normal  0.000000e+00  0.000000e+00  1.000000e+00
   outer loop
     vertex -2.177063e+01 -1.385847e+00  4.725000e+00
     vertex -2.188975e+01 -1.422731e+00  4.725000e+00
     vertex -2.178125e+01 -1.565000e+00  4.725000e+00
   endloop
 endfacet
 facet normal  0.000000e+00  0.000000e+00  1.000000e+00
   outer loop
     vertex -2.237500e+01 -1.565000e+00  4.725000e+00
     vertex -2.217708e+01 -1.565000e+00  4.725000e+00
     vertex -2.222546e+01 -1.375280e+00  4.725000e+00
   endloop
 endfacet
 facet normal  0.000000e+00  0.000000e+00  1.000000e+00
   outer loop
     vertex -2.217708e+01 -1.565000e+00  4.725000e+00
     vertex -2.197917e+01 -1.565000e+00  4.725000e+00
     vertex -2.203032e+01 -1.363783e+00  4.725000e+00
   endloop
 endfacet
 facet normal  0.000000e+00  0.000000e+00  1.000000e+00
   outer loop
     vertex -2.222546e+01 -1.375280e+00  4.725000e+00
     vertex -2.237500e+01 -1.377500e+00  4.725000e+00
     vertex -2.237500e+01 -1.565000e+00  4.725000e+00
   endloop
 endfacet
 facet normal  0.000000e+00  0.000000e+00  1.000000e+00
   outer loop
     vertex -2.203032e+01 -1.363783e+00  4.725000e+00
     vertex -2.222546e+01 -1.375280e+00  4.725000e+00
     vertex -2.217708e+01 -1.565000e+00  4.725000e+00
   endloop
 endfacet
 facet normal  0.000000e+00  0.000000e+00  1.000000e+00
   outer loop
     vertex -2.228144e+01 -1.188814e+00  4.725000e+00
     vertex -2.237500e+01 -1.002500e+00  4.725000e+00
     vertex -2.237500e+01 -1.190000e+00  4.725000e+00
   endloop
 endfacet
 facet normal  0.000000e+00  0.000000e+00  1.000000e+00
   outer loop
     vertex -2.237500e+01 -1.377500e+00  4.725000e+00
     vertex -2.222546e+01 -1.375280e+00  4.725000e+00
     vertex -2.228144e+01 -1.188814e+00  4.725000e+00
   endloop
 endfacet
 facet normal  0.000000e+00  0.000000e+00  1.000000e+00
   outer loop
     vertex -2.219622e+01 -1.000451e+00  4.725000e+00
     vertex -2.227811e+01 -8.052640e-01  4.725000e+00
     vertex -2.237500e+01 -1.002500e+00  4.725000e+00
   endloop
 endfacet
 facet normal  0.000000e+00 -0.000000e+00  1.000000e+00
   outer loop
     vertex -2.228144e+01 -1.188814e+00  4.725000e+00
     vertex -2.219622e+01 -1.000451e+00  4.725000e+00
     vertex -2.237500e+01 -1.002500e+00  4.725000e+00
   endloop
 endfacet
 facet normal  0.000000e+00 -0.000000e+00  1.000000e+00
   outer loop
     vertex -1.980208e+01 -1.565000e+00  4.725000e+00
     vertex -1.973292e+01 -1.405538e+00  4.725000e+00
     vertex -1.987230e+01 -1.443754e+00  4.725000e+00
   endloop
 endfacet
 facet normal  0.000000e+00  0.000000e+00  1.000000e+00
   outer loop
     vertex -2.158333e+01 -1.565000e+00  4.725000e+00
     vertex -2.165850e+01 -1.441412e+00  4.725000e+00
     vertex -2.178125e+01 -1.565000e+00  4.725000e+00
   endloop
 endfacet
 facet normal -0.000000e+00  0.000000e+00  1.000000e+00
   outer loop
     vertex -1.849266e+01 -1.406751e+00  4.725000e+00
     vertex -1.834993e+01 -1.441762e+00  4.725000e+00
     vertex -1.838399e+01 -1.315725e+00  4.725000e+00
   endloop
 endfacet
 facet normal  0.000000e+00  0.000000e+00  1.000000e+00
   outer loop
     vertex -1.824336e+01 -1.359858e+00  4.725000e+00
     vertex -1.838399e+01 -1.315725e+00  4.725000e+00
     vertex -1.834993e+01 -1.441762e+00  4.725000e+00
   endloop
 endfacet
 facet normal  0.000000e+00  0.000000e+00  1.000000e+00
   outer loop
     vertex -2.199018e+01 -1.028076e+00  4.725000e+00
     vertex -2.219622e+01 -1.000451e+00  4.725000e+00
     vertex -2.212012e+01 -1.191942e+00  4.725000e+00
   endloop
 endfacet
 facet normal  0.000000e+00  0.000000e+00  1.000000e+00
   outer loop
     vertex -2.176928e+01 -9.950772e-01  4.725000e+00
     vertex -2.199018e+01 -1.028076e+00  4.725000e+00
     vertex -2.184972e+01 -1.224850e+00  4.725000e+00
   endloop
 endfacet
 facet normal -0.000000e+00  0.000000e+00  1.000000e+00
   outer loop
     vertex -2.212012e+01 -1.191942e+00  4.725000e+00
     vertex -2.199690e+01 -1.203467e+00  4.725000e+00
     vertex -2.199018e+01 -1.028076e+00  4.725000e+00
   endloop
 endfacet
 facet normal  0.000000e+00  0.000000e+00  1.000000e+00
   outer loop
     vertex -2.165991e+01 -1.141070e+00  4.725000e+00
     vertex -2.165409e+01 -1.296645e+00  4.725000e+00
     vertex -2.146392e+01 -1.196449e+00  4.725000e+00
   endloop
 endfacet
 facet normal  0.000000e+00  0.000000e+00  1.000000e+00
   outer loop
     vertex -2.155500e+01 -9.880261e-01  4.725000e+00
     vertex -2.176928e+01 -9.950772e-01  4.725000e+00
     vertex -2.165991e+01 -1.141070e+00  4.725000e+00
   endloop
 endfacet
 facet normal  0.000000e+00  0.000000e+00  1.000000e+00
   outer loop
     vertex -2.133406e+01 -9.930324e-01  4.725000e+00
     vertex -2.155500e+01 -9.880261e-01  4.725000e+00
     vertex -2.146392e+01 -1.196449e+00  4.725000e+00
   endloop
 endfacet
 facet normal -0.000000e+00  0.000000e+00  1.000000e+00
   outer loop
     vertex -2.165991e+01 -1.141070e+00  4.725000e+00
     vertex -2.146392e+01 -1.196449e+00  4.725000e+00
     vertex -2.155500e+01 -9.880261e-01  4.725000e+00
   endloop
 endfacet
 facet normal  0.000000e+00  0.000000e+00  1.000000e+00
   outer loop
     vertex -2.184972e+01 -1.224850e+00  4.725000e+00
     vertex -2.165991e+01 -1.141070e+00  4.725000e+00
     vertex -2.176928e+01 -9.950772e-01  4.725000e+00
   endloop
 endfacet
 facet normal -0.000000e+00  0.000000e+00  1.000000e+00
   outer loop
     vertex -1.999053e+01 -1.372788e+00  4.725000e+00
     vertex -1.987230e+01 -1.443754e+00  4.725000e+00
     vertex -1.984650e+01 -1.317851e+00  4.725000e+00
   endloop
 endfacet
 facet normal -0.000000e+00  0.000000e+00  1.000000e+00
   outer loop
     vertex -2.203032e+01 -1.363783e+00  4.725000e+00
     vertex -2.188975e+01 -1.422731e+00  4.725000e+00
     vertex -2.184972e+01 -1.224850e+00  4.725000e+00
   endloop
 endfacet
 facet normal  0.000000e+00 -0.000000e+00  1.000000e+00
   outer loop
     vertex -2.177063e+01 -1.385847e+00  4.725000e+00
     vertex -2.165409e+01 -1.296645e+00  4.725000e+00
     vertex -2.184972e+01 -1.224850e+00  4.725000e+00
   endloop
 endfacet
 facet normal  0.000000e+00  0.000000e+00  1.000000e+00
   outer loop
     vertex -2.209651e+01 -8.035507e-01  4.725000e+00
     vertex -2.227811e+01 -8.052640e-01  4.725000e+00
     vertex -2.219622e+01 -1.000451e+00  4.725000e+00
   endloop
 endfacet
 facet normal  0.000000e+00  0.000000e+00  1.000000e+00
   outer loop
     vertex -2.199116e+01 -6.040653e-01  4.725000e+00
     vertex -2.221341e+01 -5.836181e-01  4.725000e+00
     vertex -2.209651e+01 -8.035507e-01  4.725000e+00
   endloop
 endfacet
 facet normal  0.000000e+00  0.000000e+00  1.000000e+00
   outer loop
     vertex -2.226057e+01 -3.847530e-01  4.725000e+00
     vertex -2.237500e+01 -4.400000e-01  4.725000e+00
     vertex -2.221341e+01 -5.836181e-01  4.725000e+00
   endloop
 endfacet
 facet normal  0.000000e+00 -0.000000e+00  1.000000e+00
   outer loop
     vertex -2.227811e+01 -8.052640e-01  4.725000e+00
     vertex -2.221341e+01 -5.836181e-01  4.725000e+00
     vertex -2.237500e+01 -6.275000e-01  4.725000e+00
   endloop
 endfacet
 facet normal  0.000000e+00  0.000000e+00  1.000000e+00
   outer loop
     vertex -2.227811e+01 -8.052640e-01  4.725000e+00
     vertex -2.209651e+01 -8.035507e-01  4.725000e+00
     vertex -2.221341e+01 -5.836181e-01  4.725000e+00
   endloop
 endfacet
 facet normal  0.000000e+00  0.000000e+00  1.000000e+00
   outer loop
     vertex -2.226057e+01 -3.847530e-01  4.725000e+00
     vertex -2.237500e+01 -2.525000e-01  4.725000e+00
     vertex -2.237500e+01 -4.400000e-01  4.725000e+00
   endloop
 endfacet
 facet normal  0.000000e+00 -0.000000e+00  1.000000e+00
   outer loop
     vertex -2.226057e+01 -3.847530e-01  4.725000e+00
     vertex -2.222287e+01 -2.312898e-01  4.725000e+00
     vertex -2.237500e+01 -2.525000e-01  4.725000e+00
   endloop
 endfacet
 facet normal  0.000000e+00  0.000000e+00  1.000000e+00
   outer loop
     vertex -2.186796e+01 -4.212340e-01  4.725000e+00
     vertex -2.208152e+01 -3.899405e-01  4.725000e+00
     vertex -2.199116e+01 -6.040653e-01  4.725000e+00
   endloop
 endfacet
 facet normal  0.000000e+00  0.000000e+00  1.000000e+00
   outer loop
     vertex -2.206818e+01 -2.074606e-01  4.725000e+00
     vertex -2.222287e+01 -2.312898e-01  4.725000e+00
     vertex -2.208152e+01 -3.899405e-01  4.725000e+00
   endloop
 endfacet
 facet normal  0.000000e+00  0.000000e+00  1.000000e+00
   outer loop
     vertex -1.793190e+01 -2.074574e-01  4.725000e+00
     vertex -1.802083e+01 -6.500000e-02  4.725000e+00
     vertex -1.808029e+01 -2.428312e-01  4.725000e+00
   endloop
 endfacet
 facet normal  0.000000e+00  0.000000e+00  1.000000e+00
   outer loop
     vertex -2.186796e+01 -4.212340e-01  4.725000e+00
     vertex -2.191961e+01 -2.426220e-01  4.725000e+00
     vertex -2.208152e+01 -3.899405e-01  4.725000e+00
   endloop
 endfacet
 facet normal -0.000000e+00  0.000000e+00  1.000000e+00
   outer loop
     vertex -2.226057e+01 -3.847530e-01  4.725000e+00
     vertex -2.208152e+01 -3.899405e-01  4.725000e+00
     vertex -2.222287e+01 -2.312898e-01  4.725000e+00
   endloop
 endfacet
 facet normal -0.000000e+00  0.000000e+00  1.000000e+00
   outer loop
     vertex -2.221341e+01 -5.836181e-01  4.725000e+00
     vertex -2.199116e+01 -6.040653e-01  4.725000e+00
     vertex -2.208152e+01 -3.899405e-01  4.725000e+00
   endloop
 endfacet
 facet normal  0.000000e+00  0.000000e+00  1.000000e+00
   outer loop
     vertex -2.237500e+01 -6.275000e-01  4.725000e+00
     vertex -2.221341e+01 -5.836181e-01  4.725000e+00
     vertex -2.237500e+01 -4.400000e-01  4.725000e+00
   endloop
 endfacet
 facet normal  0.000000e+00  0.000000e+00  1.000000e+00
   outer loop
     vertex -2.208152e+01 -3.899405e-01  4.725000e+00
     vertex -2.226057e+01 -3.847530e-01  4.725000e+00
     vertex -2.221341e+01 -5.836181e-01  4.725000e+00
   endloop
 endfacet
 facet normal  0.000000e+00  0.000000e+00  1.000000e+00
   outer loop
     vertex -2.122055e+01 -7.998864e-01  4.725000e+00
     vertex -2.144294e+01 -7.993089e-01  4.725000e+00
     vertex -2.133406e+01 -9.930324e-01  4.725000e+00
   endloop
 endfacet
 facet normal  0.000000e+00  0.000000e+00  1.000000e+00
   outer loop
     vertex -2.133323e+01 -6.063188e-01  4.725000e+00
     vertex -2.155598e+01 -6.071224e-01  4.725000e+00
     vertex -2.144294e+01 -7.993089e-01  4.725000e+00
   endloop
 endfacet
 facet normal  0.000000e+00  0.000000e+00  1.000000e+00
   outer loop
     vertex -2.110905e+01 -6.082078e-01  4.725000e+00
     vertex -2.133323e+01 -6.063188e-01  4.725000e+00
     vertex -2.122055e+01 -7.998864e-01  4.725000e+00
   endloop
 endfacet
 facet normal -0.000000e+00  0.000000e+00  1.000000e+00
   outer loop
     vertex -2.144294e+01 -7.993089e-01  4.725000e+00
     vertex -2.122055e+01 -7.998864e-01  4.725000e+00
     vertex -2.133323e+01 -6.063188e-01  4.725000e+00
   endloop
 endfacet
 facet normal  0.000000e+00  0.000000e+00  1.000000e+00
   outer loop
     vertex -2.145696e+01 -3.999202e-01  4.725000e+00
     vertex -2.167206e+01 -4.257216e-01  4.725000e+00
     vertex -2.155598e+01 -6.071224e-01  4.725000e+00
   endloop
 endfacet
 facet normal  0.000000e+00  0.000000e+00  1.000000e+00
   outer loop
     vertex -1.796614e+01 -1.362994e+00  4.725000e+00
     vertex -1.812313e+01 -1.218557e+00  4.725000e+00
     vertex -1.810749e+01 -1.418541e+00  4.725000e+00
   endloop
 endfacet
 facet normal  0.000000e+00  0.000000e+00  1.000000e+00
   outer loop
     vertex -2.131006e+01 -2.333722e-01  4.725000e+00
     vertex -2.148173e+01 -2.119593e-01  4.725000e+00
     vertex -2.145696e+01 -3.999202e-01  4.725000e+00
   endloop
 endfacet
 facet normal  0.000000e+00  0.000000e+00  1.000000e+00
   outer loop
     vertex -2.148173e+01 -2.119593e-01  4.725000e+00
     vertex -2.160411e+01 -2.736763e-01  4.725000e+00
     vertex -2.145696e+01 -3.999202e-01  4.725000e+00
   endloop
 endfacet
 facet normal  0.000000e+00  0.000000e+00  1.000000e+00
   outer loop
     vertex -2.099728e+01 -4.201550e-01  4.725000e+00
     vertex -2.121826e+01 -4.174607e-01  4.725000e+00
     vertex -2.110905e+01 -6.082078e-01  4.725000e+00
   endloop
 endfacet
 facet normal  0.000000e+00  0.000000e+00  1.000000e+00
   outer loop
     vertex -2.110003e+01 -2.377816e-01  4.725000e+00
     vertex -2.131006e+01 -2.333722e-01  4.725000e+00
     vertex -2.121826e+01 -4.174607e-01  4.725000e+00
   endloop
 endfacet
 facet normal  0.000000e+00  0.000000e+00  1.000000e+00
   outer loop
     vertex -2.088875e+01 -2.380044e-01  4.725000e+00
     vertex -2.110003e+01 -2.377816e-01  4.725000e+00
     vertex -2.099728e+01 -4.201550e-01  4.725000e+00
   endloop
 endfacet
 facet normal -0.000000e+00  0.000000e+00  1.000000e+00
   outer loop
     vertex -2.121826e+01 -4.174607e-01  4.725000e+00
     vertex -2.099728e+01 -4.201550e-01  4.725000e+00
     vertex -2.110003e+01 -2.377816e-01  4.725000e+00
   endloop
 endfacet
 facet normal -0.000000e+00  0.000000e+00  1.000000e+00
   outer loop
     vertex -2.145696e+01 -3.999202e-01  4.725000e+00
     vertex -2.121826e+01 -4.174607e-01  4.725000e+00
     vertex -2.131006e+01 -2.333722e-01  4.725000e+00
   endloop
 endfacet
 facet normal -0.000000e+00  0.000000e+00  1.000000e+00
   outer loop
     vertex -2.133323e+01 -6.063188e-01  4.725000e+00
     vertex -2.110905e+01 -6.082078e-01  4.725000e+00
     vertex -2.121826e+01 -4.174607e-01  4.725000e+00
   endloop
 endfacet
 facet normal  0.000000e+00  0.000000e+00  1.000000e+00
   outer loop
     vertex -2.155598e+01 -6.071224e-01  4.725000e+00
     vertex -2.133323e+01 -6.063188e-01  4.725000e+00
     vertex -2.145696e+01 -3.999202e-01  4.725000e+00
   endloop
 endfacet
 facet normal  0.000000e+00  0.000000e+00  1.000000e+00
   outer loop
     vertex -2.121826e+01 -4.174607e-01  4.725000e+00
     vertex -2.145696e+01 -3.999202e-01  4.725000e+00
     vertex -2.133323e+01 -6.063188e-01  4.725000e+00
   endloop
 endfacet
 facet normal -0.000000e+00  0.000000e+00  1.000000e+00
   outer loop
     vertex -2.186796e+01 -4.212340e-01  4.725000e+00
     vertex -2.167206e+01 -4.257216e-01  4.725000e+00
     vertex -2.174783e+01 -2.465292e-01  4.725000e+00
   endloop
 endfacet
 facet normal  0.000000e+00  0.000000e+00  1.000000e+00
   outer loop
     vertex -2.177316e+01 -6.097205e-01  4.725000e+00
     vertex -2.155598e+01 -6.071224e-01  4.725000e+00
     vertex -2.167206e+01 -4.257216e-01  4.725000e+00
   endloop
 endfacet
 facet normal -0.000000e+00  0.000000e+00  1.000000e+00
   outer loop
     vertex -2.199116e+01 -6.040653e-01  4.725000e+00
     vertex -2.177316e+01 -6.097205e-01  4.725000e+00
     vertex -2.186796e+01 -4.212340e-01  4.725000e+00
   endloop
 endfacet
 facet normal  0.000000e+00  0.000000e+00  1.000000e+00
   outer loop
     vertex -2.167206e+01 -4.257216e-01  4.725000e+00
     vertex -2.186796e+01 -4.212340e-01  4.725000e+00
     vertex -2.177316e+01 -6.097205e-01  4.725000e+00
   endloop
 endfacet
 facet normal  0.000000e+00  0.000000e+00  1.000000e+00
   outer loop
     vertex -2.166348e+01 -8.002009e-01  4.725000e+00
     vertex -2.144294e+01 -7.993089e-01  4.725000e+00
     vertex -2.155598e+01 -6.071224e-01  4.725000e+00
   endloop
 endfacet
 facet normal -0.000000e+00  0.000000e+00  1.000000e+00
   outer loop
     vertex -2.155500e+01 -9.880261e-01  4.725000e+00
     vertex -2.133406e+01 -9.930324e-01  4.725000e+00
     vertex -2.144294e+01 -7.993089e-01  4.725000e+00
   endloop
 endfacet
 facet normal  0.000000e+00  0.000000e+00  1.000000e+00
   outer loop
     vertex -2.176928e+01 -9.950772e-01  4.725000e+00
     vertex -2.155500e+01 -9.880261e-01  4.725000e+00
     vertex -2.166348e+01 -8.002009e-01  4.725000e+00
   endloop
 endfacet
 facet normal  0.000000e+00  0.000000e+00  1.000000e+00
   outer loop
     vertex -2.144294e+01 -7.993089e-01  4.725000e+00
     vertex -2.166348e+01 -8.002009e-01  4.725000e+00
     vertex -2.155500e+01 -9.880261e-01  4.725000e+00
   endloop
 endfacet
 facet normal -0.000000e+00  0.000000e+00  1.000000e+00
   outer loop
     vertex -2.209651e+01 -8.035507e-01  4.725000e+00
     vertex -2.188224e+01 -8.052915e-01  4.725000e+00
     vertex -2.199116e+01 -6.040653e-01  4.725000e+00
   endloop
 endfacet
 facet normal  0.000000e+00  0.000000e+00  1.000000e+00
   outer loop
     vertex -2.199018e+01 -1.028076e+00  4.725000e+00
     vertex -2.176928e+01 -9.950772e-01  4.725000e+00
     vertex -2.188224e+01 -8.052915e-01  4.725000e+00
   endloop
 endfacet
 facet normal -0.000000e+00  0.000000e+00  1.000000e+00
   outer loop
     vertex -2.219622e+01 -1.000451e+00  4.725000e+00
     vertex -2.199018e+01 -1.028076e+00  4.725000e+00
     vertex -2.209651e+01 -8.035507e-01  4.725000e+00
   endloop
 endfacet
 facet normal  0.000000e+00  0.000000e+00  1.000000e+00
   outer loop
     vertex -2.188224e+01 -8.052915e-01  4.725000e+00
     vertex -2.209651e+01 -8.035507e-01  4.725000e+00
     vertex -2.199018e+01 -1.028076e+00  4.725000e+00
   endloop
 endfacet
 facet normal  0.000000e+00  0.000000e+00  1.000000e+00
   outer loop
     vertex -2.166348e+01 -8.002009e-01  4.725000e+00
     vertex -2.188224e+01 -8.052915e-01  4.725000e+00
     vertex -2.176928e+01 -9.950772e-01  4.725000e+00
   endloop
 endfacet
 facet normal  0.000000e+00  0.000000e+00  1.000000e+00
   outer loop
     vertex -2.177316e+01 -6.097205e-01  4.725000e+00
     vertex -2.199116e+01 -6.040653e-01  4.725000e+00
     vertex -2.188224e+01 -8.052915e-01  4.725000e+00
   endloop
 endfacet
 facet normal  0.000000e+00  0.000000e+00  1.000000e+00
   outer loop
     vertex -2.155598e+01 -6.071224e-01  4.725000e+00
     vertex -2.177316e+01 -6.097205e-01  4.725000e+00
     vertex -2.166348e+01 -8.002009e-01  4.725000e+00
   endloop
 endfacet
 facet normal  0.000000e+00  0.000000e+00  1.000000e+00
   outer loop
     vertex -2.188224e+01 -8.052915e-01  4.725000e+00
     vertex -2.166348e+01 -8.002009e-01  4.725000e+00
     vertex -2.177316e+01 -6.097205e-01  4.725000e+00
   endloop
 endfacet
 facet normal  0.000000e+00  0.000000e+00  1.000000e+00
   outer loop
     vertex -1.999053e+01 -1.372788e+00  4.725000e+00
     vertex -2.012710e+01 -1.439686e+00  4.725000e+00
     vertex -2.000000e+01 -1.565000e+00  4.725000e+00
   endloop
 endfacet
 facet normal  0.000000e+00  0.000000e+00  1.000000e+00
   outer loop
     vertex -1.980208e+01 -1.565000e+00  4.725000e+00
     vertex -1.987230e+01 -1.443754e+00  4.725000e+00
     vertex -2.000000e+01 -1.565000e+00  4.725000e+00
   endloop
 endfacet
 facet normal  0.000000e+00 -0.000000e+00  1.000000e+00
   outer loop
     vertex -2.026427e+01 -1.400598e+00  4.725000e+00
     vertex -2.012147e+01 -1.283608e+00  4.725000e+00
     vertex -2.031020e+01 -1.195306e+00  4.725000e+00
   endloop
 endfacet
 facet normal  0.000000e+00  0.000000e+00  1.000000e+00
   outer loop
     vertex -1.999053e+01 -1.372788e+00  4.725000e+00
     vertex -2.012147e+01 -1.283608e+00  4.725000e+00
     vertex -2.012710e+01 -1.439686e+00  4.725000e+00
   endloop
 endfacet
 facet normal  0.000000e+00  0.000000e+00  1.000000e+00
   outer loop
     vertex -2.021933e+01 -9.873018e-01  4.725000e+00
     vertex -2.044043e+01 -9.935100e-01  4.725000e+00
     vertex -2.031020e+01 -1.195306e+00  4.725000e+00
   endloop
 endfacet
 facet normal  0.000000e+00  0.000000e+00  1.000000e+00
   outer loop
     vertex -2.000551e+01 -9.868214e-01  4.725000e+00
     vertex -2.021933e+01 -9.873018e-01  4.725000e+00
     vertex -2.011409e+01 -1.134460e+00  4.725000e+00
   endloop
 endfacet
 facet normal  0.000000e+00  0.000000e+00  1.000000e+00
   outer loop
     vertex -2.031020e+01 -1.195306e+00  4.725000e+00
     vertex -2.011409e+01 -1.134460e+00  4.725000e+00
     vertex -2.021933e+01 -9.873018e-01  4.725000e+00
   endloop
 endfacet
 facet normal  0.000000e+00  0.000000e+00  1.000000e+00
   outer loop
     vertex -1.993094e+01 -1.183740e+00  4.725000e+00
     vertex -1.984650e+01 -1.317851e+00  4.725000e+00
     vertex -1.969016e+01 -1.204370e+00  4.725000e+00
   endloop
 endfacet
 facet normal  0.000000e+00  0.000000e+00  1.000000e+00
   outer loop
     vertex -1.978761e+01 -9.940984e-01  4.725000e+00
     vertex -2.000551e+01 -9.868214e-01  4.725000e+00
     vertex -1.993094e+01 -1.183740e+00  4.725000e+00
   endloop
 endfacet
 facet normal  0.000000e+00  0.000000e+00  1.000000e+00
   outer loop
     vertex -1.956005e+01 -9.944507e-01  4.725000e+00
     vertex -1.978761e+01 -9.940984e-01  4.725000e+00
     vertex -1.969016e+01 -1.204370e+00  4.725000e+00
   endloop
 endfacet
 facet normal -0.000000e+00  0.000000e+00  1.000000e+00
   outer loop
     vertex -1.993094e+01 -1.183740e+00  4.725000e+00
     vertex -1.969016e+01 -1.204370e+00  4.725000e+00
     vertex -1.978761e+01 -9.940984e-01  4.725000e+00
   endloop
 endfacet
 facet normal -0.000000e+00  0.000000e+00  1.000000e+00
   outer loop
     vertex -2.011409e+01 -1.134460e+00  4.725000e+00
     vertex -1.993094e+01 -1.183740e+00  4.725000e+00
     vertex -2.000551e+01 -9.868214e-01  4.725000e+00
   endloop
 endfacet
 facet normal -0.000000e+00  0.000000e+00  1.000000e+00
   outer loop
     vertex -2.026427e+01 -1.400598e+00  4.725000e+00
     vertex -2.012710e+01 -1.439686e+00  4.725000e+00
     vertex -2.012147e+01 -1.283608e+00  4.725000e+00
   endloop
 endfacet
 facet normal  0.000000e+00 -0.000000e+00  1.000000e+00
   outer loop
     vertex -2.158333e+01 -1.565000e+00  4.725000e+00
     vertex -2.151281e+01 -1.403205e+00  4.725000e+00
     vertex -2.165850e+01 -1.441412e+00  4.725000e+00
   endloop
 endfacet
 facet normal  0.000000e+00  0.000000e+00  1.000000e+00
   outer loop
     vertex -2.011409e+01 -1.134460e+00  4.725000e+00
     vertex -2.012147e+01 -1.283608e+00  4.725000e+00
     vertex -1.993094e+01 -1.183740e+00  4.725000e+00
   endloop
 endfacet
 facet normal  0.000000e+00  0.000000e+00  1.000000e+00
   outer loop
     vertex -2.033226e+01 -7.996321e-01  4.725000e+00
     vertex -2.055435e+01 -8.001841e-01  4.725000e+00
     vertex -2.044043e+01 -9.935100e-01  4.725000e+00
   endloop
 endfacet
 facet normal  0.000000e+00  0.000000e+00  1.000000e+00
   outer loop
     vertex -2.044478e+01 -6.085366e-01  4.725000e+00
     vertex -2.066616e+01 -6.085880e-01  4.725000e+00
     vertex -2.055435e+01 -8.001841e-01  4.725000e+00
   endloop
 endfacet
 facet normal  0.000000e+00  0.000000e+00  1.000000e+00
   outer loop
     vertex -2.022286e+01 -6.080981e-01  4.725000e+00
     vertex -2.044478e+01 -6.085366e-01  4.725000e+00
     vertex -2.033226e+01 -7.996321e-01  4.725000e+00
   endloop
 endfacet
 facet normal  0.000000e+00  0.000000e+00  1.000000e+00
   outer loop
     vertex -2.055435e+01 -8.001841e-01  4.725000e+00
     vertex -2.033226e+01 -7.996321e-01  4.725000e+00
     vertex -2.044478e+01 -6.085366e-01  4.725000e+00
   endloop
 endfacet
 facet normal  0.000000e+00  0.000000e+00  1.000000e+00
   outer loop
     vertex -2.055971e+01 -4.200878e-01  4.725000e+00
     vertex -2.077832e+01 -4.199766e-01  4.725000e+00
     vertex -2.066616e+01 -6.085880e-01  4.725000e+00
   endloop
 endfacet
 facet normal  0.000000e+00  0.000000e+00  1.000000e+00
   outer loop
     vertex -2.067772e+01 -2.386577e-01  4.725000e+00
     vertex -2.088875e+01 -2.380044e-01  4.725000e+00
     vertex -2.077832e+01 -4.199766e-01  4.725000e+00
   endloop
 endfacet
 facet normal  0.000000e+00  0.000000e+00  1.000000e+00
   outer loop
     vertex -2.046519e+01 -2.376520e-01  4.725000e+00
     vertex -2.067772e+01 -2.386577e-01  4.725000e+00
     vertex -2.055971e+01 -4.200878e-01  4.725000e+00
   endloop
 endfacet
 facet normal -0.000000e+00  0.000000e+00  1.000000e+00
   outer loop
     vertex -2.077832e+01 -4.199766e-01  4.725000e+00
     vertex -2.055971e+01 -4.200878e-01  4.725000e+00
     vertex -2.067772e+01 -2.386577e-01  4.725000e+00
   endloop
 endfacet
 facet normal  0.000000e+00  0.000000e+00  1.000000e+00
   outer loop
     vertex -2.011474e+01 -4.161250e-01  4.725000e+00
     vertex -2.033994e+01 -4.194739e-01  4.725000e+00
     vertex -2.022286e+01 -6.080981e-01  4.725000e+00
   endloop
 endfacet
 facet normal  0.000000e+00  0.000000e+00  1.000000e+00
   outer loop
     vertex -2.024921e+01 -2.349104e-01  4.725000e+00
     vertex -2.046519e+01 -2.376520e-01  4.725000e+00
     vertex -2.033994e+01 -4.194739e-01  4.725000e+00
   endloop
 endfacet
 facet normal  0.000000e+00  0.000000e+00  1.000000e+00
   outer loop
     vertex -1.999997e+01 -2.137340e-01  4.725000e+00
     vertex -2.024921e+01 -2.349104e-01  4.725000e+00
     vertex -2.011474e+01 -4.161250e-01  4.725000e+00
   endloop
 endfacet
 facet normal  0.000000e+00  0.000000e+00  1.000000e+00
   outer loop
     vertex -2.033994e+01 -4.194739e-01  4.725000e+00
     vertex -2.011474e+01 -4.161250e-01  4.725000e+00
     vertex -2.024921e+01 -2.349104e-01  4.725000e+00
   endloop
 endfacet
 facet normal  0.000000e+00  0.000000e+00  1.000000e+00
   outer loop
     vertex -2.055971e+01 -4.200878e-01  4.725000e+00
     vertex -2.033994e+01 -4.194739e-01  4.725000e+00
     vertex -2.046519e+01 -2.376520e-01  4.725000e+00
   endloop
 endfacet
 facet normal  0.000000e+00  0.000000e+00  1.000000e+00
   outer loop
     vertex -2.044478e+01 -6.085366e-01  4.725000e+00
     vertex -2.022286e+01 -6.080981e-01  4.725000e+00
     vertex -2.033994e+01 -4.194739e-01  4.725000e+00
   endloop
 endfacet
 facet normal  0.000000e+00  0.000000e+00  1.000000e+00
   outer loop
     vertex -2.066616e+01 -6.085880e-01  4.725000e+00
     vertex -2.044478e+01 -6.085366e-01  4.725000e+00
     vertex -2.055971e+01 -4.200878e-01  4.725000e+00
   endloop
 endfacet
 facet normal  0.000000e+00  0.000000e+00  1.000000e+00
   outer loop
     vertex -2.033994e+01 -4.194739e-01  4.725000e+00
     vertex -2.055971e+01 -4.200878e-01  4.725000e+00
     vertex -2.044478e+01 -6.085366e-01  4.725000e+00
   endloop
 endfacet
 facet normal  0.000000e+00  0.000000e+00  1.000000e+00
   outer loop
     vertex -1.944574e+01 -8.003176e-01  4.725000e+00
     vertex -1.966865e+01 -8.004904e-01  4.725000e+00
     vertex -1.956005e+01 -9.944507e-01  4.725000e+00
   endloop
 endfacet
 facet normal  0.000000e+00  0.000000e+00  1.000000e+00
   outer loop
     vertex -1.955536e+01 -6.086392e-01  4.725000e+00
     vertex -1.977722e+01 -6.081429e-01  4.725000e+00
     vertex -1.966865e+01 -8.004904e-01  4.725000e+00
   endloop
 endfacet
 facet normal  0.000000e+00  0.000000e+00  1.000000e+00
   outer loop
     vertex -1.933387e+01 -6.085750e-01  4.725000e+00
     vertex -1.955536e+01 -6.086392e-01  4.725000e+00
     vertex -1.944574e+01 -8.003176e-01  4.725000e+00
   endloop
 endfacet
 facet normal  0.000000e+00  0.000000e+00  1.000000e+00
   outer loop
     vertex -1.966865e+01 -8.004904e-01  4.725000e+00
     vertex -1.944574e+01 -8.003176e-01  4.725000e+00
     vertex -1.955536e+01 -6.086392e-01  4.725000e+00
   endloop
 endfacet
 facet normal  0.000000e+00  0.000000e+00  1.000000e+00
   outer loop
     vertex -1.966022e+01 -4.193313e-01  4.725000e+00
     vertex -1.988556e+01 -4.160093e-01  4.725000e+00
     vertex -1.977722e+01 -6.081429e-01  4.725000e+00
   endloop
 endfacet
 facet normal  0.000000e+00  0.000000e+00  1.000000e+00
   outer loop
     vertex -1.975084e+01 -2.348781e-01  4.725000e+00
     vertex -1.999997e+01 -2.137340e-01  4.725000e+00
     vertex -1.988556e+01 -4.160093e-01  4.725000e+00
   endloop
 endfacet
 facet normal  0.000000e+00  0.000000e+00  1.000000e+00
   outer loop
     vertex -1.953484e+01 -2.376490e-01  4.725000e+00
     vertex -1.975084e+01 -2.348781e-01  4.725000e+00
     vertex -1.966022e+01 -4.193313e-01  4.725000e+00
   endloop
 endfacet
 facet normal -0.000000e+00  0.000000e+00  1.000000e+00
   outer loop
     vertex -1.988556e+01 -4.160093e-01  4.725000e+00
     vertex -1.966022e+01 -4.193313e-01  4.725000e+00
     vertex -1.975084e+01 -2.348781e-01  4.725000e+00
   endloop
 endfacet
 facet normal  0.000000e+00  0.000000e+00  1.000000e+00
   outer loop
     vertex -1.922173e+01 -4.201413e-01  4.725000e+00
     vertex -1.944012e+01 -4.202357e-01  4.725000e+00
     vertex -1.933387e+01 -6.085750e-01  4.725000e+00
   endloop
 endfacet
 facet normal  0.000000e+00  0.000000e+00  1.000000e+00
   outer loop
     vertex -1.932227e+01 -2.386944e-01  4.725000e+00
     vertex -1.953484e+01 -2.376490e-01  4.725000e+00
     vertex -1.944012e+01 -4.202357e-01  4.725000e+00
   endloop
 endfacet
 facet normal  0.000000e+00  0.000000e+00  1.000000e+00
   outer loop
     vertex -1.911124e+01 -2.380082e-01  4.725000e+00
     vertex -1.932227e+01 -2.386944e-01  4.725000e+00
     vertex -1.922173e+01 -4.201413e-01  4.725000e+00
   endloop
 endfacet
 facet normal  0.000000e+00  0.000000e+00  1.000000e+00
   outer loop
     vertex -1.944012e+01 -4.202357e-01  4.725000e+00
     vertex -1.922173e+01 -4.201413e-01  4.725000e+00
     vertex -1.932227e+01 -2.386944e-01  4.725000e+00
   endloop
 endfacet
 facet normal -0.000000e+00  0.000000e+00  1.000000e+00
   outer loop
     vertex -1.966022e+01 -4.193313e-01  4.725000e+00
     vertex -1.944012e+01 -4.202357e-01  4.725000e+00
     vertex -1.953484e+01 -2.376490e-01  4.725000e+00
   endloop
 endfacet
 facet normal  0.000000e+00  0.000000e+00  1.000000e+00
   outer loop
     vertex -1.955536e+01 -6.086392e-01  4.725000e+00
     vertex -1.933387e+01 -6.085750e-01  4.725000e+00
     vertex -1.944012e+01 -4.202357e-01  4.725000e+00
   endloop
 endfacet
 facet normal -0.000000e+00  0.000000e+00  1.000000e+00
   outer loop
     vertex -1.977722e+01 -6.081429e-01  4.725000e+00
     vertex -1.955536e+01 -6.086392e-01  4.725000e+00
     vertex -1.966022e+01 -4.193313e-01  4.725000e+00
   endloop
 endfacet
 facet normal  0.000000e+00  0.000000e+00  1.000000e+00
   outer loop
     vertex -1.944012e+01 -4.202357e-01  4.725000e+00
     vertex -1.966022e+01 -4.193313e-01  4.725000e+00
     vertex -1.955536e+01 -6.086392e-01  4.725000e+00
   endloop
 endfacet
 facet normal  0.000000e+00  0.000000e+00  1.000000e+00
   outer loop
     vertex -2.011474e+01 -4.161250e-01  4.725000e+00
     vertex -1.988556e+01 -4.160093e-01  4.725000e+00
     vertex -1.999997e+01 -2.137340e-01  4.725000e+00
   endloop
 endfacet
 facet normal -0.000000e+00  0.000000e+00  1.000000e+00
   outer loop
     vertex -2.000010e+01 -6.078586e-01  4.725000e+00
     vertex -1.977722e+01 -6.081429e-01  4.725000e+00
     vertex -1.988556e+01 -4.160093e-01  4.725000e+00
   endloop
 endfacet
 facet normal  0.000000e+00  0.000000e+00  1.000000e+00
   outer loop
     vertex -2.022286e+01 -6.080981e-01  4.725000e+00
     vertex -2.000010e+01 -6.078586e-01  4.725000e+00
     vertex -2.011474e+01 -4.161250e-01  4.725000e+00
   endloop
 endfacet
 facet normal  0.000000e+00  0.000000e+00  1.000000e+00
   outer loop
     vertex -1.988556e+01 -4.160093e-01  4.725000e+00
     vertex -2.011474e+01 -4.161250e-01  4.725000e+00
     vertex -2.000010e+01 -6.078586e-01  4.725000e+00
   endloop
 endfacet
 facet normal -0.000000e+00  0.000000e+00  1.000000e+00
   outer loop
     vertex -1.989081e+01 -7.996315e-01  4.725000e+00
     vertex -1.966865e+01 -8.004904e-01  4.725000e+00
     vertex -1.977722e+01 -6.081429e-01  4.725000e+00
   endloop
 endfacet
 facet normal -0.000000e+00  0.000000e+00  1.000000e+00
   outer loop
     vertex -1.978761e+01 -9.940984e-01  4.725000e+00
     vertex -1.956005e+01 -9.944507e-01  4.725000e+00
     vertex -1.966865e+01 -8.004904e-01  4.725000e+00
   endloop
 endfacet
 facet normal -0.000000e+00  0.000000e+00  1.000000e+00
   outer loop
     vertex -2.000551e+01 -9.868214e-01  4.725000e+00
     vertex -1.978761e+01 -9.940984e-01  4.725000e+00
     vertex -1.989081e+01 -7.996315e-01  4.725000e+00
   endloop
 endfacet
 facet normal  0.000000e+00  0.000000e+00  1.000000e+00
   outer loop
     vertex -1.966865e+01 -8.004904e-01  4.725000e+00
     vertex -1.989081e+01 -7.996315e-01  4.725000e+00
     vertex -1.978761e+01 -9.940984e-01  4.725000e+00
   endloop
 endfacet
 facet normal  0.000000e+00  0.000000e+00  1.000000e+00
   outer loop
     vertex -2.033226e+01 -7.996321e-01  4.725000e+00
     vertex -2.011145e+01 -7.988062e-01  4.725000e+00
     vertex -2.022286e+01 -6.080981e-01  4.725000e+00
   endloop
 endfacet
 facet normal  0.000000e+00  0.000000e+00  1.000000e+00
   outer loop
     vertex -2.021933e+01 -9.873018e-01  4.725000e+00
     vertex -2.000551e+01 -9.868214e-01  4.725000e+00
     vertex -2.011145e+01 -7.988062e-01  4.725000e+00
   endloop
 endfacet
 facet normal  0.000000e+00  0.000000e+00  1.000000e+00
   outer loop
     vertex -2.044043e+01 -9.935100e-01  4.725000e+00
     vertex -2.021933e+01 -9.873018e-01  4.725000e+00
     vertex -2.033226e+01 -7.996321e-01  4.725000e+00
   endloop
 endfacet
 facet normal  0.000000e+00  0.000000e+00  1.000000e+00
   outer loop
     vertex -2.011145e+01 -7.988062e-01  4.725000e+00
     vertex -2.033226e+01 -7.996321e-01  4.725000e+00
     vertex -2.021933e+01 -9.873018e-01  4.725000e+00
   endloop
 endfacet
 facet normal  0.000000e+00  0.000000e+00  1.000000e+00
   outer loop
     vertex -1.989081e+01 -7.996315e-01  4.725000e+00
     vertex -2.011145e+01 -7.988062e-01  4.725000e+00
     vertex -2.000551e+01 -9.868214e-01  4.725000e+00
   endloop
 endfacet
 facet normal  0.000000e+00  0.000000e+00  1.000000e+00
   outer loop
     vertex -2.000010e+01 -6.078586e-01  4.725000e+00
     vertex -2.022286e+01 -6.080981e-01  4.725000e+00
     vertex -2.011145e+01 -7.988062e-01  4.725000e+00
   endloop
 endfacet
 facet normal  0.000000e+00  0.000000e+00  1.000000e+00
   outer loop
     vertex -1.977722e+01 -6.081429e-01  4.725000e+00
     vertex -2.000010e+01 -6.078586e-01  4.725000e+00
     vertex -1.989081e+01 -7.996315e-01  4.725000e+00
   endloop
 endfacet
 facet normal -0.000000e+00  0.000000e+00  1.000000e+00
   outer loop
     vertex -2.011145e+01 -7.988062e-01  4.725000e+00
     vertex -1.989081e+01 -7.996315e-01  4.725000e+00
     vertex -2.000010e+01 -6.078586e-01  4.725000e+00
   endloop
 endfacet
 facet normal  0.000000e+00  0.000000e+00  1.000000e+00
   outer loop
     vertex -1.932227e+01 -2.386944e-01  4.725000e+00
     vertex -1.940625e+01 -6.500000e-02  4.725000e+00
     vertex -1.953484e+01 -2.376490e-01  4.725000e+00
   endloop
 endfacet
 facet normal  0.000000e+00  0.000000e+00  1.000000e+00
   outer loop
     vertex -1.932227e+01 -2.386944e-01  4.725000e+00
     vertex -1.911124e+01 -2.380082e-01  4.725000e+00
     vertex -1.920833e+01 -6.500000e-02  4.725000e+00
   endloop
 endfacet
 facet normal  0.000000e+00 -0.000000e+00  1.000000e+00
   outer loop
     vertex -1.911124e+01 -2.380082e-01  4.725000e+00
     vertex -1.901042e+01 -6.500000e-02  4.725000e+00
     vertex -1.920833e+01 -6.500000e-02  4.725000e+00
   endloop
 endfacet
 facet normal -0.000000e+00  0.000000e+00  1.000000e+00
   outer loop
     vertex -1.960417e+01 -6.500000e-02  4.725000e+00
     vertex -1.953484e+01 -2.376490e-01  4.725000e+00
     vertex -1.940625e+01 -6.500000e-02  4.725000e+00
   endloop
 endfacet
 facet normal  0.000000e+00 -0.000000e+00  1.000000e+00
   outer loop
     vertex -1.932227e+01 -2.386944e-01  4.725000e+00
     vertex -1.920833e+01 -6.500000e-02  4.725000e+00
     vertex -1.940625e+01 -6.500000e-02  4.725000e+00
   endloop
 endfacet
 facet normal  0.000000e+00  0.000000e+00  1.000000e+00
   outer loop
     vertex -1.960417e+01 -6.500000e-02  4.725000e+00
     vertex -1.980208e+01 -6.500000e-02  4.725000e+00
     vertex -1.975084e+01 -2.348781e-01  4.725000e+00
   endloop
 endfacet
 facet normal  0.000000e+00  0.000000e+00  1.000000e+00
   outer loop
     vertex -1.980208e+01 -6.500000e-02  4.725000e+00
     vertex -2.000000e+01 -6.500000e-02  4.725000e+00
     vertex -1.999997e+01 -2.137340e-01  4.725000e+00
   endloop
 endfacet
 facet normal -0.000000e+00  0.000000e+00  1.000000e+00
   outer loop
     vertex -1.999997e+01 -2.137340e-01  4.725000e+00
     vertex -1.975084e+01 -2.348781e-01  4.725000e+00
     vertex -1.980208e+01 -6.500000e-02  4.725000e+00
   endloop
 endfacet
 facet normal -0.000000e+00  0.000000e+00  1.000000e+00
   outer loop
     vertex -1.975084e+01 -2.348781e-01  4.725000e+00
     vertex -1.953484e+01 -2.376490e-01  4.725000e+00
     vertex -1.960417e+01 -6.500000e-02  4.725000e+00
   endloop
 endfacet
 facet normal  0.000000e+00  0.000000e+00  1.000000e+00
   outer loop
     vertex -2.019792e+01 -1.565000e+00  4.725000e+00
     vertex -2.000000e+01 -1.565000e+00  4.725000e+00
     vertex -2.012710e+01 -1.439686e+00  4.725000e+00
   endloop
 endfacet
 facet normal  0.000000e+00  0.000000e+00  1.000000e+00
   outer loop
     vertex -2.026427e+01 -1.400598e+00  4.725000e+00
     vertex -2.019792e+01 -1.565000e+00  4.725000e+00
     vertex -2.012710e+01 -1.439686e+00  4.725000e+00
   endloop
 endfacet
 facet normal  0.000000e+00  0.000000e+00  1.000000e+00
   outer loop
     vertex -1.999053e+01 -1.372788e+00  4.725000e+00
     vertex -2.000000e+01 -1.565000e+00  4.725000e+00
     vertex -1.987230e+01 -1.443754e+00  4.725000e+00
   endloop
 endfacet
 facet normal  0.000000e+00  0.000000e+00  1.000000e+00
   outer loop
     vertex -1.973292e+01 -1.405538e+00  4.725000e+00
     vertex -1.984650e+01 -1.317851e+00  4.725000e+00
     vertex -1.987230e+01 -1.443754e+00  4.725000e+00
   endloop
 endfacet
 facet normal  0.000000e+00  0.000000e+00  1.000000e+00
   outer loop
     vertex -1.999997e+01 -2.137340e-01  4.725000e+00
     vertex -2.000000e+01 -6.500000e-02  4.725000e+00
     vertex -2.019792e+01 -6.500000e-02  4.725000e+00
   endloop
 endfacet
 facet normal  0.000000e+00 -0.000000e+00  1.000000e+00
   outer loop
     vertex -2.024921e+01 -2.349104e-01  4.725000e+00
     vertex -2.019792e+01 -6.500000e-02  4.725000e+00
     vertex -2.039583e+01 -6.500000e-02  4.725000e+00
   endloop
 endfacet
 facet normal  0.000000e+00  0.000000e+00  1.000000e+00
   outer loop
     vertex -2.177063e+01 -1.385847e+00  4.725000e+00
     vertex -2.184972e+01 -1.224850e+00  4.725000e+00
     vertex -2.188975e+01 -1.422731e+00  4.725000e+00
   endloop
 endfacet
 facet normal  0.000000e+00  0.000000e+00  1.000000e+00
   outer loop
     vertex -2.197917e+01 -1.565000e+00  4.725000e+00
     vertex -2.178125e+01 -1.565000e+00  4.725000e+00
     vertex -2.188975e+01 -1.422731e+00  4.725000e+00
   endloop
 endfacet
 facet normal  0.000000e+00  0.000000e+00  1.000000e+00
   outer loop
     vertex -2.039583e+01 -6.500000e-02  4.725000e+00
     vertex -2.046519e+01 -2.376520e-01  4.725000e+00
     vertex -2.024921e+01 -2.349104e-01  4.725000e+00
   endloop
 endfacet
 facet normal  0.000000e+00 -0.000000e+00  1.000000e+00
   outer loop
     vertex -1.802083e+01 -1.565000e+00  4.725000e+00
     vertex -1.796614e+01 -1.362994e+00  4.725000e+00
     vertex -1.810749e+01 -1.418541e+00  4.725000e+00
   endloop
 endfacet
 facet normal  0.000000e+00  0.000000e+00  1.000000e+00
   outer loop
     vertex -1.824336e+01 -1.359858e+00  4.725000e+00
     vertex -1.821875e+01 -1.565000e+00  4.725000e+00
     vertex -1.810749e+01 -1.418541e+00  4.725000e+00
   endloop
 endfacet
 facet normal  0.000000e+00  0.000000e+00  1.000000e+00
   outer loop
     vertex -2.167206e+01 -4.257216e-01  4.725000e+00
     vertex -2.145696e+01 -3.999202e-01  4.725000e+00
     vertex -2.160411e+01 -2.736763e-01  4.725000e+00
   endloop
 endfacet
 facet normal -0.000000e+00  0.000000e+00  1.000000e+00
   outer loop
     vertex -2.088875e+01 -2.380044e-01  4.725000e+00
     vertex -2.067772e+01 -2.386577e-01  4.725000e+00
     vertex -2.079167e+01 -6.500000e-02  4.725000e+00
   endloop
 endfacet
 facet normal  0.000000e+00 -0.000000e+00  1.000000e+00
   outer loop
     vertex -2.067772e+01 -2.386577e-01  4.725000e+00
     vertex -2.059375e+01 -6.500000e-02  4.725000e+00
     vertex -2.079167e+01 -6.500000e-02  4.725000e+00
   endloop
 endfacet
 facet normal  0.000000e+00  0.000000e+00  1.000000e+00
   outer loop
     vertex -2.174783e+01 -2.465292e-01  4.725000e+00
     vertex -2.167206e+01 -4.257216e-01  4.725000e+00
     vertex -2.160411e+01 -2.736763e-01  4.725000e+00
   endloop
 endfacet
 facet normal  0.000000e+00 -0.000000e+00  1.000000e+00
   outer loop
     vertex -1.832736e+01 -4.252538e-01  4.725000e+00
     vertex -1.825219e+01 -2.464876e-01  4.725000e+00
     vertex -1.839579e+01 -2.735524e-01  4.725000e+00
   endloop
 endfacet
 facet normal  0.000000e+00  0.000000e+00  1.000000e+00
   outer loop
     vertex -1.851825e+01 -2.119441e-01  4.725000e+00
     vertex -1.854304e+01 -3.997175e-01  4.725000e+00
     vertex -1.839579e+01 -2.735524e-01  4.725000e+00
   endloop
 endfacet
 facet normal  0.000000e+00  0.000000e+00  1.000000e+00
   outer loop
     vertex -2.067772e+01 -2.386577e-01  4.725000e+00
     vertex -2.046519e+01 -2.376520e-01  4.725000e+00
     vertex -2.059375e+01 -6.500000e-02  4.725000e+00
   endloop
 endfacet
 facet normal  0.000000e+00  0.000000e+00  1.000000e+00
   outer loop
     vertex -1.813164e+01 -4.221623e-01  4.725000e+00
     vertex -1.791836e+01 -3.905252e-01  4.725000e+00
     vertex -1.808029e+01 -2.428312e-01  4.725000e+00
   endloop
 endfacet
 facet normal -0.000000e+00  0.000000e+00  1.000000e+00
   outer loop
     vertex -2.059375e+01 -6.500000e-02  4.725000e+00
     vertex -2.046519e+01 -2.376520e-01  4.725000e+00
     vertex -2.039583e+01 -6.500000e-02  4.725000e+00
   endloop
 endfacet
 facet normal -0.000000e+00  0.000000e+00  1.000000e+00
   outer loop
     vertex -1.825219e+01 -2.464876e-01  4.725000e+00
     vertex -1.813164e+01 -4.221623e-01  4.725000e+00
     vertex -1.808029e+01 -2.428312e-01  4.725000e+00
   endloop
 endfacet
 facet normal  0.000000e+00 -0.000000e+00  1.000000e+00
   outer loop
     vertex -2.186796e+01 -4.212340e-01  4.725000e+00
     vertex -2.174783e+01 -2.465292e-01  4.725000e+00
     vertex -2.191961e+01 -2.426220e-01  4.725000e+00
   endloop
 endfacet
 facet normal  0.000000e+00  0.000000e+00  1.000000e+00
   outer loop
     vertex -2.206818e+01 -2.074606e-01  4.725000e+00
     vertex -2.208152e+01 -3.899405e-01  4.725000e+00
     vertex -2.191961e+01 -2.426220e-01  4.725000e+00
   endloop
 endfacet
 facet normal  0.000000e+00  0.000000e+00  1.000000e+00
   outer loop
     vertex -1.841667e+01 -1.565000e+00  4.725000e+00
     vertex -1.821875e+01 -1.565000e+00  4.725000e+00
     vertex -1.834993e+01 -1.441762e+00  4.725000e+00
   endloop
 endfacet
 facet normal  0.000000e+00  0.000000e+00  1.000000e+00
   outer loop
     vertex -1.849266e+01 -1.406751e+00  4.725000e+00
     vertex -1.841667e+01 -1.565000e+00  4.725000e+00
     vertex -1.834993e+01 -1.441762e+00  4.725000e+00
   endloop
 endfacet
 facet normal  0.000000e+00  0.000000e+00  1.000000e+00
   outer loop
     vertex -2.019792e+01 -6.500000e-02  4.725000e+00
     vertex -2.024921e+01 -2.349104e-01  4.725000e+00
     vertex -1.999997e+01 -2.137340e-01  4.725000e+00
   endloop
 endfacet
 facet normal  0.000000e+00  0.000000e+00  1.000000e+00
   outer loop
     vertex -2.177063e+01 -1.385847e+00  4.725000e+00
     vertex -2.178125e+01 -1.565000e+00  4.725000e+00
     vertex -2.165850e+01 -1.441412e+00  4.725000e+00
   endloop
 endfacet
 facet normal  0.000000e+00  0.000000e+00  1.000000e+00
   outer loop
     vertex -2.151281e+01 -1.403205e+00  4.725000e+00
     vertex -2.165409e+01 -1.296645e+00  4.725000e+00
     vertex -2.165850e+01 -1.441412e+00  4.725000e+00
   endloop
 endfacet
 facet normal  0.000000e+00  0.000000e+00  1.000000e+00
   outer loop
     vertex -2.011409e+01 -1.134460e+00  4.725000e+00
     vertex -2.031020e+01 -1.195306e+00  4.725000e+00
     vertex -2.012147e+01 -1.283608e+00  4.725000e+00
   endloop
 endfacet
 facet normal  0.000000e+00 -0.000000e+00  1.000000e+00
   outer loop
     vertex -1.999053e+01 -1.372788e+00  4.725000e+00
     vertex -1.993094e+01 -1.183740e+00  4.725000e+00
     vertex -2.012147e+01 -1.283608e+00  4.725000e+00
   endloop
 endfacet
 facet normal  0.000000e+00  0.000000e+00  1.000000e+00
   outer loop
     vertex -1.993094e+01 -1.183740e+00  4.725000e+00
     vertex -1.999053e+01 -1.372788e+00  4.725000e+00
     vertex -1.984650e+01 -1.317851e+00  4.725000e+00
   endloop
 endfacet
 facet normal  0.000000e+00 -0.000000e+00  1.000000e+00
   outer loop
     vertex -1.973292e+01 -1.405538e+00  4.725000e+00
     vertex -1.969016e+01 -1.204370e+00  4.725000e+00
     vertex -1.984650e+01 -1.317851e+00  4.725000e+00
   endloop
 endfacet
 facet normal  0.000000e+00  0.000000e+00  1.000000e+00
   outer loop
     vertex -2.165991e+01 -1.141070e+00  4.725000e+00
     vertex -2.184972e+01 -1.224850e+00  4.725000e+00
     vertex -2.165409e+01 -1.296645e+00  4.725000e+00
   endloop
 endfacet
 facet normal  0.000000e+00 -0.000000e+00  1.000000e+00
   outer loop
     vertex -2.151281e+01 -1.403205e+00  4.725000e+00
     vertex -2.146392e+01 -1.196449e+00  4.725000e+00
     vertex -2.165409e+01 -1.296645e+00  4.725000e+00
   endloop
 endfacet
 facet normal  0.000000e+00  0.000000e+00  1.000000e+00
   outer loop
     vertex -1.832466e+01 -1.179674e+00  4.725000e+00
     vertex -1.853877e+01 -1.203930e+00  4.725000e+00
     vertex -1.838399e+01 -1.315725e+00  4.725000e+00
   endloop
 endfacet
 facet normal  0.000000e+00  0.000000e+00  1.000000e+00
   outer loop
     vertex -1.824336e+01 -1.359858e+00  4.725000e+00
     vertex -1.832466e+01 -1.179674e+00  4.725000e+00
     vertex -1.838399e+01 -1.315725e+00  4.725000e+00
   endloop
 endfacet
 facet normal  0.000000e+00  0.000000e+00  1.000000e+00
   outer loop
     vertex -2.203032e+01 -1.363783e+00  4.725000e+00
     vertex -2.184972e+01 -1.224850e+00  4.725000e+00
     vertex -2.199690e+01 -1.203467e+00  4.725000e+00
   endloop
 endfacet
 facet normal  0.000000e+00  0.000000e+00  1.000000e+00
   outer loop
     vertex -2.212012e+01 -1.191942e+00  4.725000e+00
     vertex -2.203032e+01 -1.363783e+00  4.725000e+00
     vertex -2.199690e+01 -1.203467e+00  4.725000e+00
   endloop
 endfacet
 facet normal  0.000000e+00 -0.000000e+00  1.000000e+00
   outer loop
     vertex -1.796614e+01 -1.362994e+00  4.725000e+00
     vertex -1.787917e+01 -1.191752e+00  4.725000e+00
     vertex -1.799650e+01 -1.201962e+00  4.725000e+00
   endloop
 endfacet
 facet normal -0.000000e+00  0.000000e+00  1.000000e+00
   outer loop
     vertex -1.812313e+01 -1.218557e+00  4.725000e+00
     vertex -1.796614e+01 -1.362994e+00  4.725000e+00
     vertex -1.799650e+01 -1.201962e+00  4.725000e+00
   endloop
 endfacet
 facet normal  0.000000e+00  0.000000e+00  1.000000e+00
   outer loop
     vertex -1.787917e+01 -1.191752e+00  4.725000e+00
     vertex -1.800574e+01 -1.027732e+00  4.725000e+00
     vertex -1.799650e+01 -1.201962e+00  4.725000e+00
   endloop
 endfacet
endsolid
