solid
 facet normal  6.476460e-02  0.000000e+00  9.979006e-01
   outer loop
     vertex -1.775056e+01 -1.061126e+00  4.690000e+00
     vertex -1.763500e+01 -1.156667e+00  4.682500e+00
     vertex -1.763500e+01 -9.633333e-01  4.682500e+00
   endloop
 endfacet
 facet normal  4.770517e-02 -0.000000e+00  9.988615e-01
   outer loop
     vertex -1.763500e+01 -1.350000e+00  4.682500e+00
     vertex -1.763500e+01 -1.156667e+00  4.682500e+00
     vertex -1.779204e+01 -1.206638e+00  4.690000e+00
   endloop
 endfacet
 facet normal -0.000000e+00  0.000000e+00  1.000000e+00
   outer loop
     vertex -1.791413e+01 -7.105782e-01  4.690000e+00
     vertex -1.779935e+01 -8.838015e-01  4.690000e+00
     vertex -1.775242e+01 -6.950875e-01  4.690000e+00
   endloop
 endfacet
 facet normal  5.256524e-02  1.446282e-02  9.985128e-01
   outer loop
     vertex -1.775056e+01 -1.061126e+00  4.690000e+00
     vertex -1.763500e+01 -9.633333e-01  4.682500e+00
     vertex -1.779935e+01 -8.838015e-01  4.690000e+00
   endloop
 endfacet
 facet normal  6.374192e-02  0.000000e+00  9.979664e-01
   outer loop
     vertex -1.775242e+01 -6.950875e-01  4.690000e+00
     vertex -1.763500e+01 -7.700000e-01  4.682500e+00
     vertex -1.763500e+01 -5.766667e-01  4.682500e+00
   endloop
 endfacet
 facet normal  4.558686e-02 -0.000000e+00  9.989604e-01
   outer loop
     vertex -1.763500e+01 -9.633333e-01  4.682500e+00
     vertex -1.763500e+01 -7.700000e-01  4.682500e+00
     vertex -1.779935e+01 -8.838015e-01  4.690000e+00
   endloop
 endfacet
 facet normal  5.503761e-02 -1.368616e-02  9.983905e-01
   outer loop
     vertex -1.775242e+01 -6.950875e-01  4.690000e+00
     vertex -1.779935e+01 -8.838015e-01  4.690000e+00
     vertex -1.763500e+01 -7.700000e-01  4.682500e+00
   endloop
 endfacet
 facet normal -0.000000e+00  0.000000e+00  1.000000e+00
   outer loop
     vertex -1.801611e+01 -5.341352e-01  4.690000e+00
     vertex -1.791413e+01 -7.105782e-01  4.690000e+00
     vertex -1.780223e+01 -5.155011e-01  4.690000e+00
   endloop
 endfacet
 facet normal -0.000000e+00  0.000000e+00  1.000000e+00
   outer loop
     vertex -1.792425e+01 -3.547851e-01  4.690000e+00
     vertex -1.780223e+01 -5.155011e-01  4.690000e+00
     vertex -1.775977e+01 -3.301275e-01  4.690000e+00
   endloop
 endfacet
 facet normal -0.000000e+00  0.000000e+00  1.000000e+00
   outer loop
     vertex -1.812295e+01 -3.613673e-01  4.690000e+00
     vertex -1.801611e+01 -5.341352e-01  4.690000e+00
     vertex -1.792425e+01 -3.547851e-01  4.690000e+00
   endloop
 endfacet
 facet normal  0.000000e+00  0.000000e+00  1.000000e+00
   outer loop
     vertex -1.780223e+01 -5.155011e-01  4.690000e+00
     vertex -1.792425e+01 -3.547851e-01  4.690000e+00
     vertex -1.801611e+01 -5.341352e-01  4.690000e+00
   endloop
 endfacet
 facet normal -2.553358e-17  9.065283e-02  9.958826e-01
   outer loop
     vertex -1.783208e+01 -1.900000e-01  4.675000e+00
     vertex -1.802917e+01 -1.900000e-01  4.675000e+00
     vertex -1.792425e+01 -3.547851e-01  4.690000e+00
   endloop
 endfacet
 facet normal -3.837570e-17  8.719788e-02  9.961910e-01
   outer loop
     vertex -1.812295e+01 -3.613673e-01  4.690000e+00
     vertex -1.802917e+01 -1.900000e-01  4.675000e+00
     vertex -1.822625e+01 -1.900000e-01  4.675000e+00
   endloop
 endfacet
 facet normal -2.941543e-03  8.879490e-02  9.960456e-01
   outer loop
     vertex -1.812295e+01 -3.613673e-01  4.690000e+00
     vertex -1.792425e+01 -3.547851e-01  4.690000e+00
     vertex -1.802917e+01 -1.900000e-01  4.675000e+00
   endloop
 endfacet
 facet normal -1.482012e-02  9.886112e-02  9.949909e-01
   outer loop
     vertex -1.792425e+01 -3.547851e-01  4.690000e+00
     vertex -1.775977e+01 -3.301275e-01  4.690000e+00
     vertex -1.783208e+01 -1.900000e-01  4.675000e+00
   endloop
 endfacet
 facet normal -3.788321e-02  8.701225e-02  9.954867e-01
   outer loop
     vertex -1.763500e+01 -1.900000e-01  4.682500e+00
     vertex -1.783208e+01 -1.900000e-01  4.675000e+00
     vertex -1.775977e+01 -3.301275e-01  4.690000e+00
   endloop
 endfacet
 facet normal  4.480215e-02 -0.000000e+00  9.989959e-01
   outer loop
     vertex -1.763500e+01 -5.766667e-01  4.682500e+00
     vertex -1.763500e+01 -3.833333e-01  4.682500e+00
     vertex -1.780223e+01 -5.155011e-01  4.690000e+00
   endloop
 endfacet
 facet normal  0.000000e+00  0.000000e+00  1.000000e+00
   outer loop
     vertex -1.775242e+01 -6.950875e-01  4.690000e+00
     vertex -1.780223e+01 -5.155011e-01  4.690000e+00
     vertex -1.791413e+01 -7.105782e-01  4.690000e+00
   endloop
 endfacet
 facet normal  5.467528e-02 -1.252503e-02  9.984256e-01
   outer loop
     vertex -1.775977e+01 -3.301275e-01  4.690000e+00
     vertex -1.780223e+01 -5.155011e-01  4.690000e+00
     vertex -1.763500e+01 -3.833333e-01  4.682500e+00
   endloop
 endfacet
 facet normal  4.984365e-02  1.382513e-02  9.986613e-01
   outer loop
     vertex -1.775242e+01 -6.950875e-01  4.690000e+00
     vertex -1.763500e+01 -5.766667e-01  4.682500e+00
     vertex -1.780223e+01 -5.155011e-01  4.690000e+00
   endloop
 endfacet
 facet normal  6.000272e-02  0.000000e+00  9.981982e-01
   outer loop
     vertex -1.775977e+01 -3.301275e-01  4.690000e+00
     vertex -1.763500e+01 -3.833333e-01  4.682500e+00
     vertex -1.763500e+01 -1.900000e-01  4.682500e+00
   endloop
 endfacet
 facet normal  0.000000e+00  0.000000e+00  1.000000e+00
   outer loop
     vertex -1.917075e+01 -1.066578e+00  4.690000e+00
     vertex -1.908283e+01 -1.220794e+00  4.690000e+00
     vertex -1.896241e+01 -1.068205e+00  4.690000e+00
   endloop
 endfacet
 facet normal -2.434909e-04 -1.150798e-01  9.933562e-01
   outer loop
     vertex -1.928687e+01 -1.220363e+00  4.690000e+00
     vertex -1.921167e+01 -1.350000e+00  4.675000e+00
     vertex -1.908283e+01 -1.220794e+00  4.690000e+00
   endloop
 endfacet
 facet normal  0.000000e+00 -1.153194e-01  9.933285e-01
   outer loop
     vertex -1.908283e+01 -1.220794e+00  4.690000e+00
     vertex -1.921167e+01 -1.350000e+00  4.675000e+00
     vertex -1.901458e+01 -1.350000e+00  4.675000e+00
   endloop
 endfacet
 facet normal -0.000000e+00  0.000000e+00  1.000000e+00
   outer loop
     vertex -1.937733e+01 -1.068358e+00  4.690000e+00
     vertex -1.928687e+01 -1.220363e+00  4.690000e+00
     vertex -1.917075e+01 -1.066578e+00  4.690000e+00
   endloop
 endfacet
 facet normal  0.000000e+00  0.000000e+00  1.000000e+00
   outer loop
     vertex -1.908283e+01 -1.220794e+00  4.690000e+00
     vertex -1.917075e+01 -1.066578e+00  4.690000e+00
     vertex -1.928687e+01 -1.220363e+00  4.690000e+00
   endloop
 endfacet
 facet normal  0.000000e+00  0.000000e+00  1.000000e+00
   outer loop
     vertex -1.906107e+01 -8.955662e-01  4.690000e+00
     vertex -1.896241e+01 -1.068205e+00  4.690000e+00
     vertex -1.885210e+01 -8.961612e-01  4.690000e+00
   endloop
 endfacet
 facet normal  0.000000e+00  0.000000e+00  1.000000e+00
   outer loop
     vertex -1.895427e+01 -7.174606e-01  4.690000e+00
     vertex -1.885210e+01 -8.961612e-01  4.690000e+00
     vertex -1.874542e+01 -7.177814e-01  4.690000e+00
   endloop
 endfacet
 facet normal -0.000000e+00  0.000000e+00  1.000000e+00
   outer loop
     vertex -1.916280e+01 -7.178294e-01  4.690000e+00
     vertex -1.906107e+01 -8.955662e-01  4.690000e+00
     vertex -1.895427e+01 -7.174606e-01  4.690000e+00
   endloop
 endfacet
 facet normal  0.000000e+00  0.000000e+00  1.000000e+00
   outer loop
     vertex -1.885210e+01 -8.961612e-01  4.690000e+00
     vertex -1.895427e+01 -7.174606e-01  4.690000e+00
     vertex -1.906107e+01 -8.955662e-01  4.690000e+00
   endloop
 endfacet
 facet normal -0.000000e+00  0.000000e+00  1.000000e+00
   outer loop
     vertex -1.947806e+01 -8.959450e-01  4.690000e+00
     vertex -1.937733e+01 -1.068358e+00  4.690000e+00
     vertex -1.926968e+01 -8.954869e-01  4.690000e+00
   endloop
 endfacet
 facet normal  0.000000e+00  0.000000e+00  1.000000e+00
   outer loop
     vertex -1.937149e+01 -7.174230e-01  4.690000e+00
     vertex -1.926968e+01 -8.954869e-01  4.690000e+00
     vertex -1.916280e+01 -7.178294e-01  4.690000e+00
   endloop
 endfacet
 facet normal -0.000000e+00  0.000000e+00  1.000000e+00
   outer loop
     vertex -1.958024e+01 -7.176951e-01  4.690000e+00
     vertex -1.947806e+01 -8.959450e-01  4.690000e+00
     vertex -1.937149e+01 -7.174230e-01  4.690000e+00
   endloop
 endfacet
 facet normal  0.000000e+00  0.000000e+00  1.000000e+00
   outer loop
     vertex -1.926968e+01 -8.954869e-01  4.690000e+00
     vertex -1.937149e+01 -7.174230e-01  4.690000e+00
     vertex -1.947806e+01 -8.959450e-01  4.690000e+00
   endloop
 endfacet
 facet normal  0.000000e+00  0.000000e+00  1.000000e+00
   outer loop
     vertex -1.906107e+01 -8.955662e-01  4.690000e+00
     vertex -1.916280e+01 -7.178294e-01  4.690000e+00
     vertex -1.926968e+01 -8.954869e-01  4.690000e+00
   endloop
 endfacet
 facet normal  0.000000e+00  0.000000e+00  1.000000e+00
   outer loop
     vertex -1.917075e+01 -1.066578e+00  4.690000e+00
     vertex -1.926968e+01 -8.954869e-01  4.690000e+00
     vertex -1.937733e+01 -1.068358e+00  4.690000e+00
   endloop
 endfacet
 facet normal  0.000000e+00  0.000000e+00  1.000000e+00
   outer loop
     vertex -1.896241e+01 -1.068205e+00  4.690000e+00
     vertex -1.906107e+01 -8.955662e-01  4.690000e+00
     vertex -1.917075e+01 -1.066578e+00  4.690000e+00
   endloop
 endfacet
 facet normal  0.000000e+00  0.000000e+00  1.000000e+00
   outer loop
     vertex -1.926968e+01 -8.954869e-01  4.690000e+00
     vertex -1.917075e+01 -1.066578e+00  4.690000e+00
     vertex -1.906107e+01 -8.955662e-01  4.690000e+00
   endloop
 endfacet
 facet normal -0.000000e+00  0.000000e+00  1.000000e+00
   outer loop
     vertex -1.884601e+01 -5.386871e-01  4.690000e+00
     vertex -1.874542e+01 -7.177814e-01  4.690000e+00
     vertex -1.863868e+01 -5.386609e-01  4.690000e+00
   endloop
 endfacet
 facet normal -0.000000e+00  0.000000e+00  1.000000e+00
   outer loop
     vertex -1.873370e+01 -3.626164e-01  4.690000e+00
     vertex -1.863868e+01 -5.386609e-01  4.690000e+00
     vertex -1.853036e+01 -3.623158e-01  4.690000e+00
   endloop
 endfacet
 facet normal  0.000000e+00  0.000000e+00  1.000000e+00
   outer loop
     vertex -1.893812e+01 -3.623135e-01  4.690000e+00
     vertex -1.884601e+01 -5.386871e-01  4.690000e+00
     vertex -1.873370e+01 -3.626164e-01  4.690000e+00
   endloop
 endfacet
 facet normal  0.000000e+00  0.000000e+00  1.000000e+00
   outer loop
     vertex -1.863868e+01 -5.386609e-01  4.690000e+00
     vertex -1.873370e+01 -3.626164e-01  4.690000e+00
     vertex -1.884601e+01 -5.386871e-01  4.690000e+00
   endloop
 endfacet
 facet normal  1.531514e-05  8.671209e-02  9.962334e-01
   outer loop
     vertex -1.842333e+01 -1.900000e-01  4.675000e+00
     vertex -1.853036e+01 -3.623158e-01  4.690000e+00
     vertex -1.832649e+01 -3.623518e-01  4.690000e+00
   endloop
 endfacet
 facet normal -1.281128e-04  8.665508e-02  9.962384e-01
   outer loop
     vertex -1.853036e+01 -3.623158e-01  4.690000e+00
     vertex -1.862042e+01 -1.900000e-01  4.675000e+00
     vertex -1.873370e+01 -3.626164e-01  4.690000e+00
   endloop
 endfacet
 facet normal -3.663989e-17  8.672265e-02  9.962325e-01
   outer loop
     vertex -1.881750e+01 -1.900000e-01  4.675000e+00
     vertex -1.901458e+01 -1.900000e-01  4.675000e+00
     vertex -1.893812e+01 -3.623135e-01  4.690000e+00
   endloop
 endfacet
 facet normal -7.052101e-05  8.669160e-02  9.962352e-01
   outer loop
     vertex -1.893812e+01 -3.623135e-01  4.690000e+00
     vertex -1.901458e+01 -1.900000e-01  4.675000e+00
     vertex -1.914144e+01 -3.624789e-01  4.690000e+00
   endloop
 endfacet
 facet normal  0.000000e+00  0.000000e+00  1.000000e+00
   outer loop
     vertex -1.967698e+01 -5.379347e-01  4.690000e+00
     vertex -1.958024e+01 -7.176951e-01  4.690000e+00
     vertex -1.946858e+01 -5.385519e-01  4.690000e+00
   endloop
 endfacet
 facet normal -2.438406e-17  8.657164e-02  9.962456e-01
   outer loop
     vertex -1.862042e+01 -1.900000e-01  4.675000e+00
     vertex -1.881750e+01 -1.900000e-01  4.675000e+00
     vertex -1.873370e+01 -3.626164e-01  4.690000e+00
   endloop
 endfacet
 facet normal  1.283531e-04  8.663348e-02  9.962402e-01
   outer loop
     vertex -1.873370e+01 -3.626164e-01  4.690000e+00
     vertex -1.881750e+01 -1.900000e-01  4.675000e+00
     vertex -1.893812e+01 -3.623135e-01  4.690000e+00
   endloop
 endfacet
 facet normal  0.000000e+00  0.000000e+00  1.000000e+00
   outer loop
     vertex -1.954897e+01 -3.621321e-01  4.690000e+00
     vertex -1.946858e+01 -5.385519e-01  4.690000e+00
     vertex -1.934587e+01 -3.622977e-01  4.690000e+00
   endloop
 endfacet
 facet normal  0.000000e+00  0.000000e+00  1.000000e+00
   outer loop
     vertex -1.975921e+01 -3.589064e-01  4.690000e+00
     vertex -1.967698e+01 -5.379347e-01  4.690000e+00
     vertex -1.954897e+01 -3.621321e-01  4.690000e+00
   endloop
 endfacet
 facet normal  0.000000e+00  0.000000e+00  1.000000e+00
   outer loop
     vertex -1.946858e+01 -5.385519e-01  4.690000e+00
     vertex -1.954897e+01 -3.621321e-01  4.690000e+00
     vertex -1.967698e+01 -5.379347e-01  4.690000e+00
   endloop
 endfacet
 facet normal -2.442883e-17  8.673059e-02  9.962318e-01
   outer loop
     vertex -1.921167e+01 -1.900000e-01  4.675000e+00
     vertex -1.940875e+01 -1.900000e-01  4.675000e+00
     vertex -1.934587e+01 -3.622977e-01  4.690000e+00
   endloop
 endfacet
 facet normal  1.338694e-03  8.725219e-02  9.961854e-01
   outer loop
     vertex -1.960583e+01 -1.900000e-01  4.675000e+00
     vertex -1.975921e+01 -3.589064e-01  4.690000e+00
     vertex -1.954897e+01 -3.621321e-01  4.690000e+00
   endloop
 endfacet
 facet normal -2.595364e-17  8.845843e-02  9.960799e-01
   outer loop
     vertex -1.975921e+01 -3.589064e-01  4.690000e+00
     vertex -1.960583e+01 -1.900000e-01  4.675000e+00
     vertex -1.980292e+01 -1.900000e-01  4.675000e+00
   endloop
 endfacet
 facet normal -3.820648e-17  8.681339e-02  9.962246e-01
   outer loop
     vertex -1.954897e+01 -3.621321e-01  4.690000e+00
     vertex -1.940875e+01 -1.900000e-01  4.675000e+00
     vertex -1.960583e+01 -1.900000e-01  4.675000e+00
   endloop
 endfacet
 facet normal  7.072972e-05  8.675621e-02  9.962296e-01
   outer loop
     vertex -1.940875e+01 -1.900000e-01  4.675000e+00
     vertex -1.954897e+01 -3.621321e-01  4.690000e+00
     vertex -1.934587e+01 -3.622977e-01  4.690000e+00
   endloop
 endfacet
 facet normal  0.000000e+00  0.000000e+00  1.000000e+00
   outer loop
     vertex -1.926030e+01 -5.387920e-01  4.690000e+00
     vertex -1.934587e+01 -3.622977e-01  4.690000e+00
     vertex -1.946858e+01 -5.385519e-01  4.690000e+00
   endloop
 endfacet
 facet normal -3.660502e-17  8.664012e-02  9.962397e-01
   outer loop
     vertex -1.901458e+01 -1.900000e-01  4.675000e+00
     vertex -1.921167e+01 -1.900000e-01  4.675000e+00
     vertex -1.914144e+01 -3.624789e-01  4.690000e+00
   endloop
 endfacet
 facet normal  7.685465e-05  8.667118e-02  9.962370e-01
   outer loop
     vertex -1.914144e+01 -3.624789e-01  4.690000e+00
     vertex -1.921167e+01 -1.900000e-01  4.675000e+00
     vertex -1.934587e+01 -3.622977e-01  4.690000e+00
   endloop
 endfacet
 facet normal  0.000000e+00  0.000000e+00  1.000000e+00
   outer loop
     vertex -1.937149e+01 -7.174230e-01  4.690000e+00
     vertex -1.946858e+01 -5.385519e-01  4.690000e+00
     vertex -1.958024e+01 -7.176951e-01  4.690000e+00
   endloop
 endfacet
 facet normal  0.000000e+00  0.000000e+00  1.000000e+00
   outer loop
     vertex -1.916280e+01 -7.178294e-01  4.690000e+00
     vertex -1.926030e+01 -5.387920e-01  4.690000e+00
     vertex -1.937149e+01 -7.174230e-01  4.690000e+00
   endloop
 endfacet
 facet normal  0.000000e+00  0.000000e+00  1.000000e+00
   outer loop
     vertex -1.946858e+01 -5.385519e-01  4.690000e+00
     vertex -1.937149e+01 -7.174230e-01  4.690000e+00
     vertex -1.926030e+01 -5.387920e-01  4.690000e+00
   endloop
 endfacet
 facet normal  0.000000e+00  0.000000e+00  1.000000e+00
   outer loop
     vertex -1.884601e+01 -5.386871e-01  4.690000e+00
     vertex -1.893812e+01 -3.623135e-01  4.690000e+00
     vertex -1.905272e+01 -5.388975e-01  4.690000e+00
   endloop
 endfacet
 facet normal  0.000000e+00  0.000000e+00  1.000000e+00
   outer loop
     vertex -1.895427e+01 -7.174606e-01  4.690000e+00
     vertex -1.905272e+01 -5.388975e-01  4.690000e+00
     vertex -1.916280e+01 -7.178294e-01  4.690000e+00
   endloop
 endfacet
 facet normal  0.000000e+00  0.000000e+00  1.000000e+00
   outer loop
     vertex -1.874542e+01 -7.177814e-01  4.690000e+00
     vertex -1.884601e+01 -5.386871e-01  4.690000e+00
     vertex -1.895427e+01 -7.174606e-01  4.690000e+00
   endloop
 endfacet
 facet normal -0.000000e+00  0.000000e+00  1.000000e+00
   outer loop
     vertex -1.905272e+01 -5.388975e-01  4.690000e+00
     vertex -1.895427e+01 -7.174606e-01  4.690000e+00
     vertex -1.884601e+01 -5.386871e-01  4.690000e+00
   endloop
 endfacet
 facet normal  0.000000e+00  0.000000e+00  1.000000e+00
   outer loop
     vertex -1.926030e+01 -5.387920e-01  4.690000e+00
     vertex -1.916280e+01 -7.178294e-01  4.690000e+00
     vertex -1.905272e+01 -5.388975e-01  4.690000e+00
   endloop
 endfacet
 facet normal -0.000000e+00  0.000000e+00  1.000000e+00
   outer loop
     vertex -1.914144e+01 -3.624789e-01  4.690000e+00
     vertex -1.905272e+01 -5.388975e-01  4.690000e+00
     vertex -1.893812e+01 -3.623135e-01  4.690000e+00
   endloop
 endfacet
 facet normal  0.000000e+00  0.000000e+00  1.000000e+00
   outer loop
     vertex -1.934587e+01 -3.622977e-01  4.690000e+00
     vertex -1.926030e+01 -5.387920e-01  4.690000e+00
     vertex -1.914144e+01 -3.624789e-01  4.690000e+00
   endloop
 endfacet
 facet normal  0.000000e+00  0.000000e+00  1.000000e+00
   outer loop
     vertex -1.905272e+01 -5.388975e-01  4.690000e+00
     vertex -1.914144e+01 -3.624789e-01  4.690000e+00
     vertex -1.926030e+01 -5.387920e-01  4.690000e+00
   endloop
 endfacet
 facet normal -3.816606e-17  8.672153e-02  9.962326e-01
   outer loop
     vertex -1.853036e+01 -3.623158e-01  4.690000e+00
     vertex -1.842333e+01 -1.900000e-01  4.675000e+00
     vertex -1.862042e+01 -1.900000e-01  4.675000e+00
   endloop
 endfacet
 facet normal  0.000000e+00  0.000000e+00  1.000000e+00
   outer loop
     vertex -1.843102e+01 -5.387869e-01  4.690000e+00
     vertex -1.853036e+01 -3.623158e-01  4.690000e+00
     vertex -1.863868e+01 -5.386609e-01  4.690000e+00
   endloop
 endfacet
 facet normal -4.205364e-04  8.694629e-02  9.962129e-01
   outer loop
     vertex -1.812295e+01 -3.613673e-01  4.690000e+00
     vertex -1.822625e+01 -1.900000e-01  4.675000e+00
     vertex -1.832649e+01 -3.623518e-01  4.690000e+00
   endloop
 endfacet
 facet normal -2.543876e-17  8.670355e-02  9.962342e-01
   outer loop
     vertex -1.832649e+01 -3.623518e-01  4.690000e+00
     vertex -1.822625e+01 -1.900000e-01  4.675000e+00
     vertex -1.842333e+01 -1.900000e-01  4.675000e+00
   endloop
 endfacet
 facet normal  0.000000e+00  0.000000e+00  1.000000e+00
   outer loop
     vertex -1.853653e+01 -7.179510e-01  4.690000e+00
     vertex -1.863868e+01 -5.386609e-01  4.690000e+00
     vertex -1.874542e+01 -7.177814e-01  4.690000e+00
   endloop
 endfacet
 facet normal  0.000000e+00  0.000000e+00  1.000000e+00
   outer loop
     vertex -1.832781e+01 -7.177342e-01  4.690000e+00
     vertex -1.843102e+01 -5.387869e-01  4.690000e+00
     vertex -1.853653e+01 -7.179510e-01  4.690000e+00
   endloop
 endfacet
 facet normal  0.000000e+00  0.000000e+00  1.000000e+00
   outer loop
     vertex -1.863868e+01 -5.386609e-01  4.690000e+00
     vertex -1.853653e+01 -7.179510e-01  4.690000e+00
     vertex -1.843102e+01 -5.387869e-01  4.690000e+00
   endloop
 endfacet
 facet normal  0.000000e+00  0.000000e+00  1.000000e+00
   outer loop
     vertex -1.801611e+01 -5.341352e-01  4.690000e+00
     vertex -1.812295e+01 -3.613673e-01  4.690000e+00
     vertex -1.822369e+01 -5.382185e-01  4.690000e+00
   endloop
 endfacet
 facet normal  0.000000e+00  0.000000e+00  1.000000e+00
   outer loop
     vertex -1.811935e+01 -7.163700e-01  4.690000e+00
     vertex -1.822369e+01 -5.382185e-01  4.690000e+00
     vertex -1.832781e+01 -7.177342e-01  4.690000e+00
   endloop
 endfacet
 facet normal  0.000000e+00  0.000000e+00  1.000000e+00
   outer loop
     vertex -1.791413e+01 -7.105782e-01  4.690000e+00
     vertex -1.801611e+01 -5.341352e-01  4.690000e+00
     vertex -1.811935e+01 -7.163700e-01  4.690000e+00
   endloop
 endfacet
 facet normal -0.000000e+00  0.000000e+00  1.000000e+00
   outer loop
     vertex -1.822369e+01 -5.382185e-01  4.690000e+00
     vertex -1.811935e+01 -7.163700e-01  4.690000e+00
     vertex -1.801611e+01 -5.341352e-01  4.690000e+00
   endloop
 endfacet
 facet normal -0.000000e+00  0.000000e+00  1.000000e+00
   outer loop
     vertex -1.843102e+01 -5.387869e-01  4.690000e+00
     vertex -1.832781e+01 -7.177342e-01  4.690000e+00
     vertex -1.822369e+01 -5.382185e-01  4.690000e+00
   endloop
 endfacet
 facet normal -0.000000e+00  0.000000e+00  1.000000e+00
   outer loop
     vertex -1.832649e+01 -3.623518e-01  4.690000e+00
     vertex -1.822369e+01 -5.382185e-01  4.690000e+00
     vertex -1.812295e+01 -3.613673e-01  4.690000e+00
   endloop
 endfacet
 facet normal  0.000000e+00  0.000000e+00  1.000000e+00
   outer loop
     vertex -1.853036e+01 -3.623158e-01  4.690000e+00
     vertex -1.843102e+01 -5.387869e-01  4.690000e+00
     vertex -1.832649e+01 -3.623518e-01  4.690000e+00
   endloop
 endfacet
 facet normal  0.000000e+00  0.000000e+00  1.000000e+00
   outer loop
     vertex -1.822369e+01 -5.382185e-01  4.690000e+00
     vertex -1.832649e+01 -3.623518e-01  4.690000e+00
     vertex -1.843102e+01 -5.387869e-01  4.690000e+00
   endloop
 endfacet
 facet normal  0.000000e+00  0.000000e+00  1.000000e+00
   outer loop
     vertex -1.864338e+01 -8.961299e-01  4.690000e+00
     vertex -1.874542e+01 -7.177814e-01  4.690000e+00
     vertex -1.885210e+01 -8.961612e-01  4.690000e+00
   endloop
 endfacet
 facet normal  0.000000e+00  0.000000e+00  1.000000e+00
   outer loop
     vertex -1.875533e+01 -1.067469e+00  4.690000e+00
     vertex -1.885210e+01 -8.961612e-01  4.690000e+00
     vertex -1.896241e+01 -1.068205e+00  4.690000e+00
   endloop
 endfacet
 facet normal  0.000000e+00  0.000000e+00  1.000000e+00
   outer loop
     vertex -1.854612e+01 -1.068784e+00  4.690000e+00
     vertex -1.864338e+01 -8.961299e-01  4.690000e+00
     vertex -1.875533e+01 -1.067469e+00  4.690000e+00
   endloop
 endfacet
 facet normal -0.000000e+00  0.000000e+00  1.000000e+00
   outer loop
     vertex -1.885210e+01 -8.961612e-01  4.690000e+00
     vertex -1.875533e+01 -1.067469e+00  4.690000e+00
     vertex -1.864338e+01 -8.961299e-01  4.690000e+00
   endloop
 endfacet
 facet normal  0.000000e+00  0.000000e+00  1.000000e+00
   outer loop
     vertex -1.887958e+01 -1.219815e+00  4.690000e+00
     vertex -1.896241e+01 -1.068205e+00  4.690000e+00
     vertex -1.908283e+01 -1.220794e+00  4.690000e+00
   endloop
 endfacet
 facet normal  0.000000e+00 -1.144633e-01  9.934275e-01
   outer loop
     vertex -1.887958e+01 -1.219815e+00  4.690000e+00
     vertex -1.901458e+01 -1.350000e+00  4.675000e+00
     vertex -1.881750e+01 -1.350000e+00  4.675000e+00
   endloop
 endfacet
 facet normal  5.542905e-04 -1.150305e-01  9.933618e-01
   outer loop
     vertex -1.908283e+01 -1.220794e+00  4.690000e+00
     vertex -1.901458e+01 -1.350000e+00  4.675000e+00
     vertex -1.887958e+01 -1.219815e+00  4.690000e+00
   endloop
 endfacet
 facet normal -7.495901e-05 -1.144986e-01  9.934234e-01
   outer loop
     vertex -1.887958e+01 -1.219815e+00  4.690000e+00
     vertex -1.881750e+01 -1.350000e+00  4.675000e+00
     vertex -1.867535e+01 -1.219949e+00  4.690000e+00
   endloop
 endfacet
 facet normal  0.000000e+00  0.000000e+00  1.000000e+00
   outer loop
     vertex -1.846618e+01 -1.222635e+00  4.690000e+00
     vertex -1.854612e+01 -1.068784e+00  4.690000e+00
     vertex -1.867535e+01 -1.219949e+00  4.690000e+00
   endloop
 endfacet
 facet normal  0.000000e+00 -1.169632e-01  9.931363e-01
   outer loop
     vertex -1.846618e+01 -1.222635e+00  4.690000e+00
     vertex -1.862042e+01 -1.350000e+00  4.675000e+00
     vertex -1.842333e+01 -1.350000e+00  4.675000e+00
   endloop
 endfacet
 facet normal -1.479340e-03 -1.151959e-01  9.933417e-01
   outer loop
     vertex -1.867535e+01 -1.219949e+00  4.690000e+00
     vertex -1.862042e+01 -1.350000e+00  4.675000e+00
     vertex -1.846618e+01 -1.222635e+00  4.690000e+00
   endloop
 endfacet
 facet normal -7.876206e-03 -1.195727e-01  9.927942e-01
   outer loop
     vertex -1.846618e+01 -1.222635e+00  4.690000e+00
     vertex -1.842333e+01 -1.350000e+00  4.675000e+00
     vertex -1.822531e+01 -1.238501e+00  4.690000e+00
   endloop
 endfacet
 facet normal  0.000000e+00 -1.145794e-01  9.934141e-01
   outer loop
     vertex -1.867535e+01 -1.219949e+00  4.690000e+00
     vertex -1.881750e+01 -1.350000e+00  4.675000e+00
     vertex -1.862042e+01 -1.350000e+00  4.675000e+00
   endloop
 endfacet
 facet normal  0.000000e+00  0.000000e+00  1.000000e+00
   outer loop
     vertex -1.875533e+01 -1.067469e+00  4.690000e+00
     vertex -1.867535e+01 -1.219949e+00  4.690000e+00
     vertex -1.854612e+01 -1.068784e+00  4.690000e+00
   endloop
 endfacet
 facet normal -0.000000e+00  0.000000e+00  1.000000e+00
   outer loop
     vertex -1.896241e+01 -1.068205e+00  4.690000e+00
     vertex -1.887958e+01 -1.219815e+00  4.690000e+00
     vertex -1.875533e+01 -1.067469e+00  4.690000e+00
   endloop
 endfacet
 facet normal  0.000000e+00  0.000000e+00  1.000000e+00
   outer loop
     vertex -1.867535e+01 -1.219949e+00  4.690000e+00
     vertex -1.875533e+01 -1.067469e+00  4.690000e+00
     vertex -1.887958e+01 -1.219815e+00  4.690000e+00
   endloop
 endfacet
 facet normal  0.000000e+00  0.000000e+00  1.000000e+00
   outer loop
     vertex -1.779935e+01 -8.838015e-01  4.690000e+00
     vertex -1.791413e+01 -7.105782e-01  4.690000e+00
     vertex -1.801334e+01 -8.933058e-01  4.690000e+00
   endloop
 endfacet
 facet normal  0.000000e+00  0.000000e+00  1.000000e+00
   outer loop
     vertex -1.790974e+01 -1.062999e+00  4.690000e+00
     vertex -1.801334e+01 -8.933058e-01  4.690000e+00
     vertex -1.811559e+01 -1.070145e+00  4.690000e+00
   endloop
 endfacet
 facet normal  0.000000e+00  0.000000e+00  1.000000e+00
   outer loop
     vertex -1.775056e+01 -1.061126e+00  4.690000e+00
     vertex -1.779935e+01 -8.838015e-01  4.690000e+00
     vertex -1.790974e+01 -1.062999e+00  4.690000e+00
   endloop
 endfacet
 facet normal -0.000000e+00  0.000000e+00  1.000000e+00
   outer loop
     vertex -1.801334e+01 -8.933058e-01  4.690000e+00
     vertex -1.790974e+01 -1.062999e+00  4.690000e+00
     vertex -1.779935e+01 -8.838015e-01  4.690000e+00
   endloop
 endfacet
 facet normal  0.000000e+00  0.000000e+00  1.000000e+00
   outer loop
     vertex -1.798637e+01 -1.220111e+00  4.690000e+00
     vertex -1.811559e+01 -1.070145e+00  4.690000e+00
     vertex -1.822531e+01 -1.238501e+00  4.690000e+00
   endloop
 endfacet
 facet normal  0.000000e+00 -1.333293e-01  9.910718e-01
   outer loop
     vertex -1.822625e+01 -1.350000e+00  4.675000e+00
     vertex -1.802917e+01 -1.350000e+00  4.675000e+00
     vertex -1.822531e+01 -1.238501e+00  4.690000e+00
   endloop
 endfacet
 facet normal  9.055734e-03 -1.176600e-01  9.930126e-01
   outer loop
     vertex -1.798637e+01 -1.220111e+00  4.690000e+00
     vertex -1.822531e+01 -1.238501e+00  4.690000e+00
     vertex -1.802917e+01 -1.350000e+00  4.675000e+00
   endloop
 endfacet
 facet normal  0.000000e+00 -1.147209e-01  9.933978e-01
   outer loop
     vertex -1.798637e+01 -1.220111e+00  4.690000e+00
     vertex -1.802917e+01 -1.350000e+00  4.675000e+00
     vertex -1.783208e+01 -1.350000e+00  4.675000e+00
   endloop
 endfacet
 facet normal  5.244538e-02 -1.494869e-02  9.985119e-01
   outer loop
     vertex -1.775056e+01 -1.061126e+00  4.690000e+00
     vertex -1.779204e+01 -1.206638e+00  4.690000e+00
     vertex -1.763500e+01 -1.156667e+00  4.682500e+00
   endloop
 endfacet
 facet normal -3.786078e-02 -9.352042e-02  9.948972e-01
   outer loop
     vertex -1.779204e+01 -1.206638e+00  4.690000e+00
     vertex -1.783208e+01 -1.350000e+00  4.675000e+00
     vertex -1.763500e+01 -1.350000e+00  4.682500e+00
   endloop
 endfacet
 facet normal  7.355187e-03 -1.060916e-01  9.943292e-01
   outer loop
     vertex -1.779204e+01 -1.206638e+00  4.690000e+00
     vertex -1.798637e+01 -1.220111e+00  4.690000e+00
     vertex -1.783208e+01 -1.350000e+00  4.675000e+00
   endloop
 endfacet
 facet normal -0.000000e+00  0.000000e+00  1.000000e+00
   outer loop
     vertex -1.790974e+01 -1.062999e+00  4.690000e+00
     vertex -1.779204e+01 -1.206638e+00  4.690000e+00
     vertex -1.775056e+01 -1.061126e+00  4.690000e+00
   endloop
 endfacet
 facet normal -0.000000e+00  0.000000e+00  1.000000e+00
   outer loop
     vertex -1.811559e+01 -1.070145e+00  4.690000e+00
     vertex -1.798637e+01 -1.220111e+00  4.690000e+00
     vertex -1.790974e+01 -1.062999e+00  4.690000e+00
   endloop
 endfacet
 facet normal  0.000000e+00  0.000000e+00  1.000000e+00
   outer loop
     vertex -1.779204e+01 -1.206638e+00  4.690000e+00
     vertex -1.790974e+01 -1.062999e+00  4.690000e+00
     vertex -1.798637e+01 -1.220111e+00  4.690000e+00
   endloop
 endfacet
 facet normal  0.000000e+00 -1.333293e-01  9.910718e-01
   outer loop
     vertex -1.822531e+01 -1.238501e+00  4.690000e+00
     vertex -1.842333e+01 -1.350000e+00  4.675000e+00
     vertex -1.822625e+01 -1.350000e+00  4.675000e+00
   endloop
 endfacet
 facet normal  0.000000e+00  0.000000e+00  1.000000e+00
   outer loop
     vertex -1.833328e+01 -1.069485e+00  4.690000e+00
     vertex -1.822531e+01 -1.238501e+00  4.690000e+00
     vertex -1.811559e+01 -1.070145e+00  4.690000e+00
   endloop
 endfacet
 facet normal  0.000000e+00  0.000000e+00  1.000000e+00
   outer loop
     vertex -1.854612e+01 -1.068784e+00  4.690000e+00
     vertex -1.846618e+01 -1.222635e+00  4.690000e+00
     vertex -1.833328e+01 -1.069485e+00  4.690000e+00
   endloop
 endfacet
 facet normal  0.000000e+00  0.000000e+00  1.000000e+00
   outer loop
     vertex -1.822531e+01 -1.238501e+00  4.690000e+00
     vertex -1.833328e+01 -1.069485e+00  4.690000e+00
     vertex -1.846618e+01 -1.222635e+00  4.690000e+00
   endloop
 endfacet
 facet normal -0.000000e+00  0.000000e+00  1.000000e+00
   outer loop
     vertex -1.822356e+01 -8.956653e-01  4.690000e+00
     vertex -1.811559e+01 -1.070145e+00  4.690000e+00
     vertex -1.801334e+01 -8.933058e-01  4.690000e+00
   endloop
 endfacet
 facet normal -0.000000e+00  0.000000e+00  1.000000e+00
   outer loop
     vertex -1.811935e+01 -7.163700e-01  4.690000e+00
     vertex -1.801334e+01 -8.933058e-01  4.690000e+00
     vertex -1.791413e+01 -7.105782e-01  4.690000e+00
   endloop
 endfacet
 facet normal -0.000000e+00  0.000000e+00  1.000000e+00
   outer loop
     vertex -1.832781e+01 -7.177342e-01  4.690000e+00
     vertex -1.822356e+01 -8.956653e-01  4.690000e+00
     vertex -1.811935e+01 -7.163700e-01  4.690000e+00
   endloop
 endfacet
 facet normal  0.000000e+00  0.000000e+00  1.000000e+00
   outer loop
     vertex -1.801334e+01 -8.933058e-01  4.690000e+00
     vertex -1.811935e+01 -7.163700e-01  4.690000e+00
     vertex -1.822356e+01 -8.956653e-01  4.690000e+00
   endloop
 endfacet
 facet normal -0.000000e+00  0.000000e+00  1.000000e+00
   outer loop
     vertex -1.864338e+01 -8.961299e-01  4.690000e+00
     vertex -1.854612e+01 -1.068784e+00  4.690000e+00
     vertex -1.843422e+01 -8.957624e-01  4.690000e+00
   endloop
 endfacet
 facet normal -0.000000e+00  0.000000e+00  1.000000e+00
   outer loop
     vertex -1.853653e+01 -7.179510e-01  4.690000e+00
     vertex -1.843422e+01 -8.957624e-01  4.690000e+00
     vertex -1.832781e+01 -7.177342e-01  4.690000e+00
   endloop
 endfacet
 facet normal  0.000000e+00  0.000000e+00  1.000000e+00
   outer loop
     vertex -1.874542e+01 -7.177814e-01  4.690000e+00
     vertex -1.864338e+01 -8.961299e-01  4.690000e+00
     vertex -1.853653e+01 -7.179510e-01  4.690000e+00
   endloop
 endfacet
 facet normal  0.000000e+00  0.000000e+00  1.000000e+00
   outer loop
     vertex -1.843422e+01 -8.957624e-01  4.690000e+00
     vertex -1.853653e+01 -7.179510e-01  4.690000e+00
     vertex -1.864338e+01 -8.961299e-01  4.690000e+00
   endloop
 endfacet
 facet normal  0.000000e+00  0.000000e+00  1.000000e+00
   outer loop
     vertex -1.822356e+01 -8.956653e-01  4.690000e+00
     vertex -1.832781e+01 -7.177342e-01  4.690000e+00
     vertex -1.843422e+01 -8.957624e-01  4.690000e+00
   endloop
 endfacet
 facet normal  0.000000e+00  0.000000e+00  1.000000e+00
   outer loop
     vertex -1.833328e+01 -1.069485e+00  4.690000e+00
     vertex -1.843422e+01 -8.957624e-01  4.690000e+00
     vertex -1.854612e+01 -1.068784e+00  4.690000e+00
   endloop
 endfacet
 facet normal  0.000000e+00  0.000000e+00  1.000000e+00
   outer loop
     vertex -1.811559e+01 -1.070145e+00  4.690000e+00
     vertex -1.822356e+01 -8.956653e-01  4.690000e+00
     vertex -1.833328e+01 -1.069485e+00  4.690000e+00
   endloop
 endfacet
 facet normal -0.000000e+00  0.000000e+00  1.000000e+00
   outer loop
     vertex -1.843422e+01 -8.957624e-01  4.690000e+00
     vertex -1.833328e+01 -1.069485e+00  4.690000e+00
     vertex -1.822356e+01 -8.956653e-01  4.690000e+00
   endloop
 endfacet
 facet normal  0.000000e+00  0.000000e+00  1.000000e+00
   outer loop
     vertex -2.082926e+01 -1.066578e+00  4.690000e+00
     vertex -2.071341e+01 -1.220791e+00  4.690000e+00
     vertex -2.062261e+01 -1.068198e+00  4.690000e+00
   endloop
 endfacet
 facet normal -2.417934e-04 -1.151785e-01  9.933448e-01
   outer loop
     vertex -2.091700e+01 -1.220364e+00  4.690000e+00
     vertex -2.078833e+01 -1.350000e+00  4.675000e+00
     vertex -2.071341e+01 -1.220791e+00  4.690000e+00
   endloop
 endfacet
 facet normal  0.000000e+00 -1.153169e-01  9.933288e-01
   outer loop
     vertex -2.071341e+01 -1.220791e+00  4.690000e+00
     vertex -2.078833e+01 -1.350000e+00  4.675000e+00
     vertex -2.059125e+01 -1.350000e+00  4.675000e+00
   endloop
 endfacet
 facet normal -0.000000e+00  0.000000e+00  1.000000e+00
   outer loop
     vertex -2.103769e+01 -1.068363e+00  4.690000e+00
     vertex -2.091700e+01 -1.220364e+00  4.690000e+00
     vertex -2.082926e+01 -1.066578e+00  4.690000e+00
   endloop
 endfacet
 facet normal  0.000000e+00  0.000000e+00  1.000000e+00
   outer loop
     vertex -2.071341e+01 -1.220791e+00  4.690000e+00
     vertex -2.082926e+01 -1.066578e+00  4.690000e+00
     vertex -2.091700e+01 -1.220364e+00  4.690000e+00
   endloop
 endfacet
 facet normal  0.000000e+00  0.000000e+00  1.000000e+00
   outer loop
     vertex -2.073040e+01 -8.955634e-01  4.690000e+00
     vertex -2.062261e+01 -1.068198e+00  4.690000e+00
     vertex -2.052202e+01 -8.961425e-01  4.690000e+00
   endloop
 endfacet
 facet normal  0.000000e+00  0.000000e+00  1.000000e+00
   outer loop
     vertex -2.062849e+01 -7.174460e-01  4.690000e+00
     vertex -2.052202e+01 -8.961425e-01  4.690000e+00
     vertex -2.041975e+01 -7.176930e-01  4.690000e+00
   endloop
 endfacet
 facet normal -0.000000e+00  0.000000e+00  1.000000e+00
   outer loop
     vertex -2.083720e+01 -7.178296e-01  4.690000e+00
     vertex -2.073040e+01 -8.955634e-01  4.690000e+00
     vertex -2.062849e+01 -7.174460e-01  4.690000e+00
   endloop
 endfacet
 facet normal  0.000000e+00  0.000000e+00  1.000000e+00
   outer loop
     vertex -2.052202e+01 -8.961425e-01  4.690000e+00
     vertex -2.062849e+01 -7.174460e-01  4.690000e+00
     vertex -2.073040e+01 -8.955634e-01  4.690000e+00
   endloop
 endfacet
 facet normal -0.000000e+00  0.000000e+00  1.000000e+00
   outer loop
     vertex -2.114781e+01 -8.959631e-01  4.690000e+00
     vertex -2.103769e+01 -1.068363e+00  4.690000e+00
     vertex -2.093893e+01 -8.954884e-01  4.690000e+00
   endloop
 endfacet
 facet normal  0.000000e+00  0.000000e+00  1.000000e+00
   outer loop
     vertex -2.104574e+01 -7.174402e-01  4.690000e+00
     vertex -2.093893e+01 -8.954884e-01  4.690000e+00
     vertex -2.083720e+01 -7.178296e-01  4.690000e+00
   endloop
 endfacet
 facet normal -0.000000e+00  0.000000e+00  1.000000e+00
   outer loop
     vertex -2.125458e+01 -7.177864e-01  4.690000e+00
     vertex -2.114781e+01 -8.959631e-01  4.690000e+00
     vertex -2.104574e+01 -7.174402e-01  4.690000e+00
   endloop
 endfacet
 facet normal  0.000000e+00  0.000000e+00  1.000000e+00
   outer loop
     vertex -2.093893e+01 -8.954884e-01  4.690000e+00
     vertex -2.104574e+01 -7.174402e-01  4.690000e+00
     vertex -2.114781e+01 -8.959631e-01  4.690000e+00
   endloop
 endfacet
 facet normal  0.000000e+00  0.000000e+00  1.000000e+00
   outer loop
     vertex -2.073040e+01 -8.955634e-01  4.690000e+00
     vertex -2.083720e+01 -7.178296e-01  4.690000e+00
     vertex -2.093893e+01 -8.954884e-01  4.690000e+00
   endloop
 endfacet
 facet normal  0.000000e+00  0.000000e+00  1.000000e+00
   outer loop
     vertex -2.082926e+01 -1.066578e+00  4.690000e+00
     vertex -2.093893e+01 -8.954884e-01  4.690000e+00
     vertex -2.103769e+01 -1.068363e+00  4.690000e+00
   endloop
 endfacet
 facet normal  0.000000e+00  0.000000e+00  1.000000e+00
   outer loop
     vertex -2.062261e+01 -1.068198e+00  4.690000e+00
     vertex -2.073040e+01 -8.955634e-01  4.690000e+00
     vertex -2.082926e+01 -1.066578e+00  4.690000e+00
   endloop
 endfacet
 facet normal  0.000000e+00  0.000000e+00  1.000000e+00
   outer loop
     vertex -2.093893e+01 -8.954884e-01  4.690000e+00
     vertex -2.082926e+01 -1.066578e+00  4.690000e+00
     vertex -2.073040e+01 -8.955634e-01  4.690000e+00
   endloop
 endfacet
 facet normal -0.000000e+00  0.000000e+00  1.000000e+00
   outer loop
     vertex -2.053167e+01 -5.385728e-01  4.690000e+00
     vertex -2.041975e+01 -7.176930e-01  4.690000e+00
     vertex -2.032275e+01 -5.378841e-01  4.690000e+00
   endloop
 endfacet
 facet normal -0.000000e+00  0.000000e+00  1.000000e+00
   outer loop
     vertex -2.045102e+01 -3.621284e-01  4.690000e+00
     vertex -2.032275e+01 -5.378841e-01  4.690000e+00
     vertex -2.024081e+01 -3.589082e-01  4.690000e+00
   endloop
 endfacet
 facet normal -0.000000e+00  0.000000e+00  1.000000e+00
   outer loop
     vertex -2.065410e+01 -3.622914e-01  4.690000e+00
     vertex -2.053167e+01 -5.385728e-01  4.690000e+00
     vertex -2.045102e+01 -3.621284e-01  4.690000e+00
   endloop
 endfacet
 facet normal  0.000000e+00  0.000000e+00  1.000000e+00
   outer loop
     vertex -2.032275e+01 -5.378841e-01  4.690000e+00
     vertex -2.045102e+01 -3.621284e-01  4.690000e+00
     vertex -2.053167e+01 -5.385728e-01  4.690000e+00
   endloop
 endfacet
 facet normal -7.777245e-03  9.045225e-02  9.958704e-01
   outer loop
     vertex -2.000000e+01 -3.382027e-01  4.690000e+00
     vertex -2.019708e+01 -1.900000e-01  4.675000e+00
     vertex -2.024081e+01 -3.589082e-01  4.690000e+00
   endloop
 endfacet
 facet normal -6.966461e-05  8.675892e-02  9.962293e-01
   outer loop
     vertex -2.045102e+01 -3.621284e-01  4.690000e+00
     vertex -2.059125e+01 -1.900000e-01  4.675000e+00
     vertex -2.065410e+01 -3.622914e-01  4.690000e+00
   endloop
 endfacet
 facet normal -3.667901e-17  8.681525e-02  9.962244e-01
   outer loop
     vertex -2.059125e+01 -1.900000e-01  4.675000e+00
     vertex -2.045102e+01 -3.621284e-01  4.690000e+00
     vertex -2.039417e+01 -1.900000e-01  4.675000e+00
   endloop
 endfacet
 facet normal -2.491524e-17  8.845750e-02  9.960800e-01
   outer loop
     vertex -2.039417e+01 -1.900000e-01  4.675000e+00
     vertex -2.024081e+01 -3.589082e-01  4.690000e+00
     vertex -2.019708e+01 -1.900000e-01  4.675000e+00
   endloop
 endfacet
 facet normal -0.000000e+00  0.000000e+00  1.000000e+00
   outer loop
     vertex -2.136146e+01 -5.387125e-01  4.690000e+00
     vertex -2.125458e+01 -7.177864e-01  4.690000e+00
     vertex -2.115393e+01 -5.386339e-01  4.690000e+00
   endloop
 endfacet
 facet normal -1.336580e-03  8.725333e-02  9.961853e-01
   outer loop
     vertex -2.024081e+01 -3.589082e-01  4.690000e+00
     vertex -2.039417e+01 -1.900000e-01  4.675000e+00
     vertex -2.045102e+01 -3.621284e-01  4.690000e+00
   endloop
 endfacet
 facet normal -0.000000e+00  0.000000e+00  1.000000e+00
   outer loop
     vertex -2.126631e+01 -3.626164e-01  4.690000e+00
     vertex -2.115393e+01 -5.386339e-01  4.690000e+00
     vertex -2.106190e+01 -3.623221e-01  4.690000e+00
   endloop
 endfacet
 facet normal  0.000000e+00  0.000000e+00  1.000000e+00
   outer loop
     vertex -2.146963e+01 -3.623091e-01  4.690000e+00
     vertex -2.136146e+01 -5.387125e-01  4.690000e+00
     vertex -2.126631e+01 -3.626164e-01  4.690000e+00
   endloop
 endfacet
 facet normal  0.000000e+00  0.000000e+00  1.000000e+00
   outer loop
     vertex -2.115393e+01 -5.386339e-01  4.690000e+00
     vertex -2.126631e+01 -3.626164e-01  4.690000e+00
     vertex -2.136146e+01 -5.387125e-01  4.690000e+00
   endloop
 endfacet
 facet normal -3.660499e-17  8.664004e-02  9.962397e-01
   outer loop
     vertex -2.078833e+01 -1.900000e-01  4.675000e+00
     vertex -2.098542e+01 -1.900000e-01  4.675000e+00
     vertex -2.085856e+01 -3.624791e-01  4.690000e+00
   endloop
 endfacet
 facet normal -3.657608e-17  8.657163e-02  9.962456e-01
   outer loop
     vertex -2.118250e+01 -1.900000e-01  4.675000e+00
     vertex -2.137958e+01 -1.900000e-01  4.675000e+00
     vertex -2.126631e+01 -3.626164e-01  4.690000e+00
   endloop
 endfacet
 facet normal -3.816753e-17  8.672489e-02  9.962323e-01
   outer loop
     vertex -2.146963e+01 -3.623091e-01  4.690000e+00
     vertex -2.137958e+01 -1.900000e-01  4.675000e+00
     vertex -2.157667e+01 -1.900000e-01  4.675000e+00
   endloop
 endfacet
 facet normal  1.310010e-04  8.665694e-02  9.962382e-01
   outer loop
     vertex -2.146963e+01 -3.623091e-01  4.690000e+00
     vertex -2.126631e+01 -3.626164e-01  4.690000e+00
     vertex -2.137958e+01 -1.900000e-01  4.675000e+00
   endloop
 endfacet
 facet normal -1.247330e-04  8.663173e-02  9.962404e-01
   outer loop
     vertex -2.126631e+01 -3.626164e-01  4.690000e+00
     vertex -2.106190e+01 -3.623221e-01  4.690000e+00
     vertex -2.118250e+01 -1.900000e-01  4.675000e+00
   endloop
 endfacet
 facet normal -2.442539e-17  8.671837e-02  9.962329e-01
   outer loop
     vertex -2.098542e+01 -1.900000e-01  4.675000e+00
     vertex -2.118250e+01 -1.900000e-01  4.675000e+00
     vertex -2.106190e+01 -3.623221e-01  4.690000e+00
   endloop
 endfacet
 facet normal  6.691850e-05  8.668889e-02  9.962354e-01
   outer loop
     vertex -2.106190e+01 -3.623221e-01  4.690000e+00
     vertex -2.085856e+01 -3.624791e-01  4.690000e+00
     vertex -2.098542e+01 -1.900000e-01  4.675000e+00
   endloop
 endfacet
 facet normal -7.954715e-05  8.667219e-02  9.962369e-01
   outer loop
     vertex -2.085856e+01 -3.624791e-01  4.690000e+00
     vertex -2.065410e+01 -3.622914e-01  4.690000e+00
     vertex -2.078833e+01 -1.900000e-01  4.675000e+00
   endloop
 endfacet
 facet normal  0.000000e+00  0.000000e+00  1.000000e+00
   outer loop
     vertex -2.094691e+01 -5.388044e-01  4.690000e+00
     vertex -2.106190e+01 -3.623221e-01  4.690000e+00
     vertex -2.115393e+01 -5.386339e-01  4.690000e+00
   endloop
 endfacet
 facet normal -2.442970e-17  8.673370e-02  9.962315e-01
   outer loop
     vertex -2.059125e+01 -1.900000e-01  4.675000e+00
     vertex -2.078833e+01 -1.900000e-01  4.675000e+00
     vertex -2.065410e+01 -3.622914e-01  4.690000e+00
   endloop
 endfacet
 facet normal  0.000000e+00  0.000000e+00  1.000000e+00
   outer loop
     vertex -2.104574e+01 -7.174402e-01  4.690000e+00
     vertex -2.115393e+01 -5.386339e-01  4.690000e+00
     vertex -2.125458e+01 -7.177864e-01  4.690000e+00
   endloop
 endfacet
 facet normal  0.000000e+00  0.000000e+00  1.000000e+00
   outer loop
     vertex -2.083720e+01 -7.178296e-01  4.690000e+00
     vertex -2.094691e+01 -5.388044e-01  4.690000e+00
     vertex -2.104574e+01 -7.174402e-01  4.690000e+00
   endloop
 endfacet
 facet normal  0.000000e+00  0.000000e+00  1.000000e+00
   outer loop
     vertex -2.115393e+01 -5.386339e-01  4.690000e+00
     vertex -2.104574e+01 -7.174402e-01  4.690000e+00
     vertex -2.094691e+01 -5.388044e-01  4.690000e+00
   endloop
 endfacet
 facet normal  0.000000e+00  0.000000e+00  1.000000e+00
   outer loop
     vertex -2.053167e+01 -5.385728e-01  4.690000e+00
     vertex -2.065410e+01 -3.622914e-01  4.690000e+00
     vertex -2.074000e+01 -5.388833e-01  4.690000e+00
   endloop
 endfacet
 facet normal  0.000000e+00  0.000000e+00  1.000000e+00
   outer loop
     vertex -2.062849e+01 -7.174460e-01  4.690000e+00
     vertex -2.074000e+01 -5.388833e-01  4.690000e+00
     vertex -2.083720e+01 -7.178296e-01  4.690000e+00
   endloop
 endfacet
 facet normal  0.000000e+00  0.000000e+00  1.000000e+00
   outer loop
     vertex -2.041975e+01 -7.176930e-01  4.690000e+00
     vertex -2.053167e+01 -5.385728e-01  4.690000e+00
     vertex -2.062849e+01 -7.174460e-01  4.690000e+00
   endloop
 endfacet
 facet normal -0.000000e+00  0.000000e+00  1.000000e+00
   outer loop
     vertex -2.074000e+01 -5.388833e-01  4.690000e+00
     vertex -2.062849e+01 -7.174460e-01  4.690000e+00
     vertex -2.053167e+01 -5.385728e-01  4.690000e+00
   endloop
 endfacet
 facet normal  0.000000e+00  0.000000e+00  1.000000e+00
   outer loop
     vertex -2.094691e+01 -5.388044e-01  4.690000e+00
     vertex -2.083720e+01 -7.178296e-01  4.690000e+00
     vertex -2.074000e+01 -5.388833e-01  4.690000e+00
   endloop
 endfacet
 facet normal -0.000000e+00  0.000000e+00  1.000000e+00
   outer loop
     vertex -2.085856e+01 -3.624791e-01  4.690000e+00
     vertex -2.074000e+01 -5.388833e-01  4.690000e+00
     vertex -2.065410e+01 -3.622914e-01  4.690000e+00
   endloop
 endfacet
 facet normal  0.000000e+00  0.000000e+00  1.000000e+00
   outer loop
     vertex -2.106190e+01 -3.623221e-01  4.690000e+00
     vertex -2.094691e+01 -5.388044e-01  4.690000e+00
     vertex -2.085856e+01 -3.624791e-01  4.690000e+00
   endloop
 endfacet
 facet normal  0.000000e+00  0.000000e+00  1.000000e+00
   outer loop
     vertex -2.074000e+01 -5.388833e-01  4.690000e+00
     vertex -2.085856e+01 -3.624791e-01  4.690000e+00
     vertex -2.094691e+01 -5.388044e-01  4.690000e+00
   endloop
 endfacet
 facet normal -5.243447e-02 -1.497606e-02  9.985121e-01
   outer loop
     vertex -2.224949e+01 -1.061038e+00  4.690000e+00
     vertex -2.236500e+01 -1.156667e+00  4.682500e+00
     vertex -2.220772e+01 -1.207273e+00  4.690000e+00
   endloop
 endfacet
 facet normal  0.000000e+00  0.000000e+00  1.000000e+00
   outer loop
     vertex -2.224759e+01 -6.950914e-01  4.690000e+00
     vertex -2.220066e+01 -8.837892e-01  4.690000e+00
     vertex -2.208588e+01 -7.105627e-01  4.690000e+00
   endloop
 endfacet
 facet normal -4.558904e-02  0.000000e+00  9.989603e-01
   outer loop
     vertex -2.236500e+01 -7.700000e-01  4.682500e+00
     vertex -2.236500e+01 -9.633333e-01  4.682500e+00
     vertex -2.220066e+01 -8.837892e-01  4.690000e+00
   endloop
 endfacet
 facet normal -5.257990e-02  1.448575e-02  9.985117e-01
   outer loop
     vertex -2.220066e+01 -8.837892e-01  4.690000e+00
     vertex -2.236500e+01 -9.633333e-01  4.682500e+00
     vertex -2.224949e+01 -1.061038e+00  4.690000e+00
   endloop
 endfacet
 facet normal -6.479299e-02  0.000000e+00  9.978987e-01
   outer loop
     vertex -2.224949e+01 -1.061038e+00  4.690000e+00
     vertex -2.236500e+01 -9.633333e-01  4.682500e+00
     vertex -2.236500e+01 -1.156667e+00  4.682500e+00
   endloop
 endfacet
 facet normal -5.504107e-02 -1.368885e-02  9.983903e-01
   outer loop
     vertex -2.224759e+01 -6.950914e-01  4.690000e+00
     vertex -2.236500e+01 -7.700000e-01  4.682500e+00
     vertex -2.220066e+01 -8.837892e-01  4.690000e+00
   endloop
 endfacet
 facet normal  0.000000e+00  0.000000e+00  1.000000e+00
   outer loop
     vertex -2.219771e+01 -5.154311e-01  4.690000e+00
     vertex -2.208588e+01 -7.105627e-01  4.690000e+00
     vertex -2.198424e+01 -5.345131e-01  4.690000e+00
   endloop
 endfacet
 facet normal  0.000000e+00  0.000000e+00  1.000000e+00
   outer loop
     vertex -2.207578e+01 -3.548287e-01  4.690000e+00
     vertex -2.198424e+01 -5.345131e-01  4.690000e+00
     vertex -2.187706e+01 -3.613529e-01  4.690000e+00
   endloop
 endfacet
 facet normal  0.000000e+00  0.000000e+00  1.000000e+00
   outer loop
     vertex -2.224024e+01 -3.301407e-01  4.690000e+00
     vertex -2.219771e+01 -5.154311e-01  4.690000e+00
     vertex -2.207578e+01 -3.548287e-01  4.690000e+00
   endloop
 endfacet
 facet normal  0.000000e+00  0.000000e+00  1.000000e+00
   outer loop
     vertex -2.198424e+01 -5.345131e-01  4.690000e+00
     vertex -2.207578e+01 -3.548287e-01  4.690000e+00
     vertex -2.219771e+01 -5.154311e-01  4.690000e+00
   endloop
 endfacet
 facet normal  2.915009e-03  8.878784e-02  9.960463e-01
   outer loop
     vertex -2.187706e+01 -3.613529e-01  4.690000e+00
     vertex -2.197083e+01 -1.900000e-01  4.675000e+00
     vertex -2.207578e+01 -3.548287e-01  4.690000e+00
   endloop
 endfacet
 facet normal  3.788325e-02  8.700195e-02  9.954876e-01
   outer loop
     vertex -2.216792e+01 -1.900000e-01  4.675000e+00
     vertex -2.236500e+01 -1.900000e-01  4.682500e+00
     vertex -2.224024e+01 -3.301407e-01  4.690000e+00
   endloop
 endfacet
 facet normal -6.000654e-02  0.000000e+00  9.981980e-01
   outer loop
     vertex -2.224024e+01 -3.301407e-01  4.690000e+00
     vertex -2.236500e+01 -1.900000e-01  4.682500e+00
     vertex -2.236500e+01 -3.833333e-01  4.682500e+00
   endloop
 endfacet
 facet normal -2.552689e-17  9.062909e-02  9.958847e-01
   outer loop
     vertex -2.197083e+01 -1.900000e-01  4.675000e+00
     vertex -2.216792e+01 -1.900000e-01  4.675000e+00
     vertex -2.207578e+01 -3.548287e-01  4.690000e+00
   endloop
 endfacet
 facet normal  1.483763e-02  9.884208e-02  9.949925e-01
   outer loop
     vertex -2.207578e+01 -3.548287e-01  4.690000e+00
     vertex -2.216792e+01 -1.900000e-01  4.675000e+00
     vertex -2.224024e+01 -3.301407e-01  4.690000e+00
   endloop
 endfacet
 facet normal -4.478728e-02  0.000000e+00  9.989965e-01
   outer loop
     vertex -2.236500e+01 -5.766667e-01  4.682500e+00
     vertex -2.219771e+01 -5.154311e-01  4.690000e+00
     vertex -2.236500e+01 -3.833333e-01  4.682500e+00
   endloop
 endfacet
 facet normal  0.000000e+00  0.000000e+00  1.000000e+00
   outer loop
     vertex -2.208588e+01 -7.105627e-01  4.690000e+00
     vertex -2.219771e+01 -5.154311e-01  4.690000e+00
     vertex -2.224759e+01 -6.950914e-01  4.690000e+00
   endloop
 endfacet
 facet normal -4.983677e-02  1.383578e-02  9.986615e-01
   outer loop
     vertex -2.219771e+01 -5.154311e-01  4.690000e+00
     vertex -2.236500e+01 -5.766667e-01  4.682500e+00
     vertex -2.224759e+01 -6.950914e-01  4.690000e+00
   endloop
 endfacet
 facet normal -6.374739e-02  0.000000e+00  9.979661e-01
   outer loop
     vertex -2.224759e+01 -6.950914e-01  4.690000e+00
     vertex -2.236500e+01 -5.766667e-01  4.682500e+00
     vertex -2.236500e+01 -7.700000e-01  4.682500e+00
   endloop
 endfacet
 facet normal -5.467020e-02 -1.254827e-02  9.984256e-01
   outer loop
     vertex -2.224024e+01 -3.301407e-01  4.690000e+00
     vertex -2.236500e+01 -3.833333e-01  4.682500e+00
     vertex -2.219771e+01 -5.154311e-01  4.690000e+00
   endloop
 endfacet
 facet normal -1.988650e-05  8.671262e-02  9.962334e-01
   outer loop
     vertex -2.167351e+01 -3.623558e-01  4.690000e+00
     vertex -2.146963e+01 -3.623091e-01  4.690000e+00
     vertex -2.157667e+01 -1.900000e-01  4.675000e+00
   endloop
 endfacet
 facet normal  4.284370e-04  8.694882e-02  9.962127e-01
   outer loop
     vertex -2.167351e+01 -3.623558e-01  4.690000e+00
     vertex -2.177375e+01 -1.900000e-01  4.675000e+00
     vertex -2.187706e+01 -3.613529e-01  4.690000e+00
   endloop
 endfacet
 facet normal -3.837891e-17  8.720517e-02  9.961904e-01
   outer loop
     vertex -2.187706e+01 -3.613529e-01  4.690000e+00
     vertex -2.177375e+01 -1.900000e-01  4.675000e+00
     vertex -2.197083e+01 -1.900000e-01  4.675000e+00
   endloop
 endfacet
 facet normal  0.000000e+00  0.000000e+00  1.000000e+00
   outer loop
     vertex -2.177629e+01 -5.381890e-01  4.690000e+00
     vertex -2.187706e+01 -3.613529e-01  4.690000e+00
     vertex -2.198424e+01 -5.345131e-01  4.690000e+00
   endloop
 endfacet
 facet normal -2.543817e-17  8.670153e-02  9.962343e-01
   outer loop
     vertex -2.167351e+01 -3.623558e-01  4.690000e+00
     vertex -2.157667e+01 -1.900000e-01  4.675000e+00
     vertex -2.177375e+01 -1.900000e-01  4.675000e+00
   endloop
 endfacet
 facet normal  0.000000e+00  0.000000e+00  1.000000e+00
   outer loop
     vertex -2.188069e+01 -7.164216e-01  4.690000e+00
     vertex -2.198424e+01 -5.345131e-01  4.690000e+00
     vertex -2.208588e+01 -7.105627e-01  4.690000e+00
   endloop
 endfacet
 facet normal  0.000000e+00  0.000000e+00  1.000000e+00
   outer loop
     vertex -2.167220e+01 -7.177477e-01  4.690000e+00
     vertex -2.177629e+01 -5.381890e-01  4.690000e+00
     vertex -2.188069e+01 -7.164216e-01  4.690000e+00
   endloop
 endfacet
 facet normal  0.000000e+00  0.000000e+00  1.000000e+00
   outer loop
     vertex -2.198424e+01 -5.345131e-01  4.690000e+00
     vertex -2.188069e+01 -7.164216e-01  4.690000e+00
     vertex -2.177629e+01 -5.381890e-01  4.690000e+00
   endloop
 endfacet
 facet normal  0.000000e+00  0.000000e+00  1.000000e+00
   outer loop
     vertex -2.136146e+01 -5.387125e-01  4.690000e+00
     vertex -2.146963e+01 -3.623091e-01  4.690000e+00
     vertex -2.156896e+01 -5.388442e-01  4.690000e+00
   endloop
 endfacet
 facet normal  0.000000e+00  0.000000e+00  1.000000e+00
   outer loop
     vertex -2.146349e+01 -7.179642e-01  4.690000e+00
     vertex -2.156896e+01 -5.388442e-01  4.690000e+00
     vertex -2.167220e+01 -7.177477e-01  4.690000e+00
   endloop
 endfacet
 facet normal  0.000000e+00  0.000000e+00  1.000000e+00
   outer loop
     vertex -2.125458e+01 -7.177864e-01  4.690000e+00
     vertex -2.136146e+01 -5.387125e-01  4.690000e+00
     vertex -2.146349e+01 -7.179642e-01  4.690000e+00
   endloop
 endfacet
 facet normal -0.000000e+00  0.000000e+00  1.000000e+00
   outer loop
     vertex -2.156896e+01 -5.388442e-01  4.690000e+00
     vertex -2.146349e+01 -7.179642e-01  4.690000e+00
     vertex -2.136146e+01 -5.387125e-01  4.690000e+00
   endloop
 endfacet
 facet normal  0.000000e+00  0.000000e+00  1.000000e+00
   outer loop
     vertex -2.177629e+01 -5.381890e-01  4.690000e+00
     vertex -2.167220e+01 -7.177477e-01  4.690000e+00
     vertex -2.156896e+01 -5.388442e-01  4.690000e+00
   endloop
 endfacet
 facet normal -0.000000e+00  0.000000e+00  1.000000e+00
   outer loop
     vertex -2.167351e+01 -3.623558e-01  4.690000e+00
     vertex -2.156896e+01 -5.388442e-01  4.690000e+00
     vertex -2.146963e+01 -3.623091e-01  4.690000e+00
   endloop
 endfacet
 facet normal  0.000000e+00  0.000000e+00  1.000000e+00
   outer loop
     vertex -2.187706e+01 -3.613529e-01  4.690000e+00
     vertex -2.177629e+01 -5.381890e-01  4.690000e+00
     vertex -2.167351e+01 -3.623558e-01  4.690000e+00
   endloop
 endfacet
 facet normal  0.000000e+00  0.000000e+00  1.000000e+00
   outer loop
     vertex -2.156896e+01 -5.388442e-01  4.690000e+00
     vertex -2.167351e+01 -3.623558e-01  4.690000e+00
     vertex -2.177629e+01 -5.381890e-01  4.690000e+00
   endloop
 endfacet
 facet normal  0.000000e+00  0.000000e+00  1.000000e+00
   outer loop
     vertex -2.198665e+01 -8.933142e-01  4.690000e+00
     vertex -2.208588e+01 -7.105627e-01  4.690000e+00
     vertex -2.220066e+01 -8.837892e-01  4.690000e+00
   endloop
 endfacet
 facet normal  0.000000e+00  0.000000e+00  1.000000e+00
   outer loop
     vertex -2.209026e+01 -1.062960e+00  4.690000e+00
     vertex -2.220066e+01 -8.837892e-01  4.690000e+00
     vertex -2.224949e+01 -1.061038e+00  4.690000e+00
   endloop
 endfacet
 facet normal  0.000000e+00  0.000000e+00  1.000000e+00
   outer loop
     vertex -2.188432e+01 -1.070187e+00  4.690000e+00
     vertex -2.198665e+01 -8.933142e-01  4.690000e+00
     vertex -2.209026e+01 -1.062960e+00  4.690000e+00
   endloop
 endfacet
 facet normal  0.000000e+00  0.000000e+00  1.000000e+00
   outer loop
     vertex -2.220066e+01 -8.837892e-01  4.690000e+00
     vertex -2.209026e+01 -1.062960e+00  4.690000e+00
     vertex -2.198665e+01 -8.933142e-01  4.690000e+00
   endloop
 endfacet
 facet normal  3.785908e-02 -9.399561e-02  9.948525e-01
   outer loop
     vertex -2.220772e+01 -1.207273e+00  4.690000e+00
     vertex -2.236500e+01 -1.350000e+00  4.682500e+00
     vertex -2.216792e+01 -1.350000e+00  4.675000e+00
   endloop
 endfacet
 facet normal -4.763254e-02  0.000000e+00  9.988649e-01
   outer loop
     vertex -2.236500e+01 -1.156667e+00  4.682500e+00
     vertex -2.236500e+01 -1.350000e+00  4.682500e+00
     vertex -2.220772e+01 -1.207273e+00  4.690000e+00
   endloop
 endfacet
 facet normal -6.870339e-03 -1.064124e-01  9.942983e-01
   outer loop
     vertex -2.220772e+01 -1.207273e+00  4.690000e+00
     vertex -2.216792e+01 -1.350000e+00  4.675000e+00
     vertex -2.201363e+01 -1.219804e+00  4.690000e+00
   endloop
 endfacet
 facet normal  0.000000e+00  0.000000e+00  1.000000e+00
   outer loop
     vertex -2.177524e+01 -1.238388e+00  4.690000e+00
     vertex -2.188432e+01 -1.070187e+00  4.690000e+00
     vertex -2.201363e+01 -1.219804e+00  4.690000e+00
   endloop
 endfacet
 facet normal  0.000000e+00 -1.331970e-01  9.910896e-01
   outer loop
     vertex -2.177524e+01 -1.238388e+00  4.690000e+00
     vertex -2.197083e+01 -1.350000e+00  4.675000e+00
     vertex -2.177375e+01 -1.350000e+00  4.675000e+00
   endloop
 endfacet
 facet normal -9.153502e-03 -1.174179e-01  9.930404e-01
   outer loop
     vertex -2.201363e+01 -1.219804e+00  4.690000e+00
     vertex -2.197083e+01 -1.350000e+00  4.675000e+00
     vertex -2.177524e+01 -1.238388e+00  4.690000e+00
   endloop
 endfacet
 facet normal  7.695999e-03 -1.197317e-01  9.927765e-01
   outer loop
     vertex -2.153435e+01 -1.222905e+00  4.690000e+00
     vertex -2.177524e+01 -1.238388e+00  4.690000e+00
     vertex -2.157667e+01 -1.350000e+00  4.675000e+00
   endloop
 endfacet
 facet normal  0.000000e+00 -1.144536e-01  9.934286e-01
   outer loop
     vertex -2.201363e+01 -1.219804e+00  4.690000e+00
     vertex -2.216792e+01 -1.350000e+00  4.675000e+00
     vertex -2.197083e+01 -1.350000e+00  4.675000e+00
   endloop
 endfacet
 facet normal  0.000000e+00  0.000000e+00  1.000000e+00
   outer loop
     vertex -2.209026e+01 -1.062960e+00  4.690000e+00
     vertex -2.201363e+01 -1.219804e+00  4.690000e+00
     vertex -2.188432e+01 -1.070187e+00  4.690000e+00
   endloop
 endfacet
 facet normal  0.000000e+00  0.000000e+00  1.000000e+00
   outer loop
     vertex -2.224949e+01 -1.061038e+00  4.690000e+00
     vertex -2.220772e+01 -1.207273e+00  4.690000e+00
     vertex -2.209026e+01 -1.062960e+00  4.690000e+00
   endloop
 endfacet
 facet normal  0.000000e+00  0.000000e+00  1.000000e+00
   outer loop
     vertex -2.201363e+01 -1.219804e+00  4.690000e+00
     vertex -2.209026e+01 -1.062960e+00  4.690000e+00
     vertex -2.220772e+01 -1.207273e+00  4.690000e+00
   endloop
 endfacet
 facet normal  0.000000e+00  0.000000e+00  1.000000e+00
   outer loop
     vertex -2.114781e+01 -8.959631e-01  4.690000e+00
     vertex -2.125458e+01 -7.177864e-01  4.690000e+00
     vertex -2.135662e+01 -8.961149e-01  4.690000e+00
   endloop
 endfacet
 facet normal  0.000000e+00  0.000000e+00  1.000000e+00
   outer loop
     vertex -2.124473e+01 -1.067531e+00  4.690000e+00
     vertex -2.135662e+01 -8.961149e-01  4.690000e+00
     vertex -2.145387e+01 -1.068775e+00  4.690000e+00
   endloop
 endfacet
 facet normal  0.000000e+00  0.000000e+00  1.000000e+00
   outer loop
     vertex -2.103769e+01 -1.068363e+00  4.690000e+00
     vertex -2.114781e+01 -8.959631e-01  4.690000e+00
     vertex -2.124473e+01 -1.067531e+00  4.690000e+00
   endloop
 endfacet
 facet normal -0.000000e+00  0.000000e+00  1.000000e+00
   outer loop
     vertex -2.135662e+01 -8.961149e-01  4.690000e+00
     vertex -2.124473e+01 -1.067531e+00  4.690000e+00
     vertex -2.114781e+01 -8.959631e-01  4.690000e+00
   endloop
 endfacet
 facet normal  0.000000e+00  0.000000e+00  1.000000e+00
   outer loop
     vertex -2.132478e+01 -1.220171e+00  4.690000e+00
     vertex -2.145387e+01 -1.068775e+00  4.690000e+00
     vertex -2.153435e+01 -1.222905e+00  4.690000e+00
   endloop
 endfacet
 facet normal  0.000000e+00 -1.172083e-01  9.931073e-01
   outer loop
     vertex -2.157667e+01 -1.350000e+00  4.675000e+00
     vertex -2.137958e+01 -1.350000e+00  4.675000e+00
     vertex -2.153435e+01 -1.222905e+00  4.690000e+00
   endloop
 endfacet
 facet normal  1.505608e-03 -1.153998e-01  9.933180e-01
   outer loop
     vertex -2.132478e+01 -1.220171e+00  4.690000e+00
     vertex -2.153435e+01 -1.222905e+00  4.690000e+00
     vertex -2.137958e+01 -1.350000e+00  4.675000e+00
   endloop
 endfacet
 facet normal  0.000000e+00 -1.147727e-01  9.933918e-01
   outer loop
     vertex -2.132478e+01 -1.220171e+00  4.690000e+00
     vertex -2.137958e+01 -1.350000e+00  4.675000e+00
     vertex -2.118250e+01 -1.350000e+00  4.675000e+00
   endloop
 endfacet
 facet normal  0.000000e+00  0.000000e+00  1.000000e+00
   outer loop
     vertex -2.091700e+01 -1.220364e+00  4.690000e+00
     vertex -2.103769e+01 -1.068363e+00  4.690000e+00
     vertex -2.111990e+01 -1.219146e+00  4.690000e+00
   endloop
 endfacet
 facet normal -6.878036e-04 -1.145835e-01  9.934134e-01
   outer loop
     vertex -2.091700e+01 -1.220364e+00  4.690000e+00
     vertex -2.111990e+01 -1.219146e+00  4.690000e+00
     vertex -2.098542e+01 -1.350000e+00  4.675000e+00
   endloop
 endfacet
 facet normal  0.000000e+00 -1.138858e-01  9.934938e-01
   outer loop
     vertex -2.111990e+01 -1.219146e+00  4.690000e+00
     vertex -2.118250e+01 -1.350000e+00  4.675000e+00
     vertex -2.098542e+01 -1.350000e+00  4.675000e+00
   endloop
 endfacet
 facet normal  0.000000e+00 -1.149417e-01  9.933722e-01
   outer loop
     vertex -2.091700e+01 -1.220364e+00  4.690000e+00
     vertex -2.098542e+01 -1.350000e+00  4.675000e+00
     vertex -2.078833e+01 -1.350000e+00  4.675000e+00
   endloop
 endfacet
 facet normal  5.708425e-04 -1.141554e-01  9.934627e-01
   outer loop
     vertex -2.111990e+01 -1.219146e+00  4.690000e+00
     vertex -2.132478e+01 -1.220171e+00  4.690000e+00
     vertex -2.118250e+01 -1.350000e+00  4.675000e+00
   endloop
 endfacet
 facet normal  0.000000e+00  0.000000e+00  1.000000e+00
   outer loop
     vertex -2.124473e+01 -1.067531e+00  4.690000e+00
     vertex -2.111990e+01 -1.219146e+00  4.690000e+00
     vertex -2.103769e+01 -1.068363e+00  4.690000e+00
   endloop
 endfacet
 facet normal -0.000000e+00  0.000000e+00  1.000000e+00
   outer loop
     vertex -2.145387e+01 -1.068775e+00  4.690000e+00
     vertex -2.132478e+01 -1.220171e+00  4.690000e+00
     vertex -2.124473e+01 -1.067531e+00  4.690000e+00
   endloop
 endfacet
 facet normal  0.000000e+00  0.000000e+00  1.000000e+00
   outer loop
     vertex -2.111990e+01 -1.219146e+00  4.690000e+00
     vertex -2.124473e+01 -1.067531e+00  4.690000e+00
     vertex -2.132478e+01 -1.220171e+00  4.690000e+00
   endloop
 endfacet
 facet normal  0.000000e+00 -1.331970e-01  9.910896e-01
   outer loop
     vertex -2.177375e+01 -1.350000e+00  4.675000e+00
     vertex -2.157667e+01 -1.350000e+00  4.675000e+00
     vertex -2.177524e+01 -1.238388e+00  4.690000e+00
   endloop
 endfacet
 facet normal -0.000000e+00  0.000000e+00  1.000000e+00
   outer loop
     vertex -2.166687e+01 -1.069515e+00  4.690000e+00
     vertex -2.153435e+01 -1.222905e+00  4.690000e+00
     vertex -2.145387e+01 -1.068775e+00  4.690000e+00
   endloop
 endfacet
 facet normal -0.000000e+00  0.000000e+00  1.000000e+00
   outer loop
     vertex -2.188432e+01 -1.070187e+00  4.690000e+00
     vertex -2.177524e+01 -1.238388e+00  4.690000e+00
     vertex -2.166687e+01 -1.069515e+00  4.690000e+00
   endloop
 endfacet
 facet normal  0.000000e+00  0.000000e+00  1.000000e+00
   outer loop
     vertex -2.153435e+01 -1.222905e+00  4.690000e+00
     vertex -2.166687e+01 -1.069515e+00  4.690000e+00
     vertex -2.177524e+01 -1.238388e+00  4.690000e+00
   endloop
 endfacet
 facet normal  0.000000e+00  0.000000e+00  1.000000e+00
   outer loop
     vertex -2.156583e+01 -8.959869e-01  4.690000e+00
     vertex -2.145387e+01 -1.068775e+00  4.690000e+00
     vertex -2.135662e+01 -8.961149e-01  4.690000e+00
   endloop
 endfacet
 facet normal -0.000000e+00  0.000000e+00  1.000000e+00
   outer loop
     vertex -2.146349e+01 -7.179642e-01  4.690000e+00
     vertex -2.135662e+01 -8.961149e-01  4.690000e+00
     vertex -2.125458e+01 -7.177864e-01  4.690000e+00
   endloop
 endfacet
 facet normal  0.000000e+00  0.000000e+00  1.000000e+00
   outer loop
     vertex -2.167220e+01 -7.177477e-01  4.690000e+00
     vertex -2.156583e+01 -8.959869e-01  4.690000e+00
     vertex -2.146349e+01 -7.179642e-01  4.690000e+00
   endloop
 endfacet
 facet normal  0.000000e+00  0.000000e+00  1.000000e+00
   outer loop
     vertex -2.135662e+01 -8.961149e-01  4.690000e+00
     vertex -2.146349e+01 -7.179642e-01  4.690000e+00
     vertex -2.156583e+01 -8.959869e-01  4.690000e+00
   endloop
 endfacet
 facet normal  0.000000e+00  0.000000e+00  1.000000e+00
   outer loop
     vertex -2.198665e+01 -8.933142e-01  4.690000e+00
     vertex -2.188432e+01 -1.070187e+00  4.690000e+00
     vertex -2.177633e+01 -8.954916e-01  4.690000e+00
   endloop
 endfacet
 facet normal  0.000000e+00  0.000000e+00  1.000000e+00
   outer loop
     vertex -2.188069e+01 -7.164216e-01  4.690000e+00
     vertex -2.177633e+01 -8.954916e-01  4.690000e+00
     vertex -2.167220e+01 -7.177477e-01  4.690000e+00
   endloop
 endfacet
 facet normal  0.000000e+00  0.000000e+00  1.000000e+00
   outer loop
     vertex -2.208588e+01 -7.105627e-01  4.690000e+00
     vertex -2.198665e+01 -8.933142e-01  4.690000e+00
     vertex -2.188069e+01 -7.164216e-01  4.690000e+00
   endloop
 endfacet
 facet normal  0.000000e+00  0.000000e+00  1.000000e+00
   outer loop
     vertex -2.177633e+01 -8.954916e-01  4.690000e+00
     vertex -2.188069e+01 -7.164216e-01  4.690000e+00
     vertex -2.198665e+01 -8.933142e-01  4.690000e+00
   endloop
 endfacet
 facet normal  0.000000e+00  0.000000e+00  1.000000e+00
   outer loop
     vertex -2.156583e+01 -8.959869e-01  4.690000e+00
     vertex -2.167220e+01 -7.177477e-01  4.690000e+00
     vertex -2.177633e+01 -8.954916e-01  4.690000e+00
   endloop
 endfacet
 facet normal  0.000000e+00  0.000000e+00  1.000000e+00
   outer loop
     vertex -2.166687e+01 -1.069515e+00  4.690000e+00
     vertex -2.177633e+01 -8.954916e-01  4.690000e+00
     vertex -2.188432e+01 -1.070187e+00  4.690000e+00
   endloop
 endfacet
 facet normal  0.000000e+00  0.000000e+00  1.000000e+00
   outer loop
     vertex -2.145387e+01 -1.068775e+00  4.690000e+00
     vertex -2.156583e+01 -8.959869e-01  4.690000e+00
     vertex -2.166687e+01 -1.069515e+00  4.690000e+00
   endloop
 endfacet
 facet normal  0.000000e+00  0.000000e+00  1.000000e+00
   outer loop
     vertex -2.177633e+01 -8.954916e-01  4.690000e+00
     vertex -2.166687e+01 -1.069515e+00  4.690000e+00
     vertex -2.156583e+01 -8.959869e-01  4.690000e+00
   endloop
 endfacet
 facet normal -4.254452e-17  1.006983e-01  9.949170e-01
   outer loop
     vertex -2.019708e+01 -1.900000e-01  4.675000e+00
     vertex -2.000000e+01 -3.382027e-01  4.690000e+00
     vertex -2.000000e+01 -1.900000e-01  4.675000e+00
   endloop
 endfacet
 facet normal -4.431721e-17  1.006983e-01  9.949170e-01
   outer loop
     vertex -2.000000e+01 -3.382027e-01  4.690000e+00
     vertex -1.980292e+01 -1.900000e-01  4.675000e+00
     vertex -2.000000e+01 -1.900000e-01  4.675000e+00
   endloop
 endfacet
 facet normal  0.000000e+00  0.000000e+00  1.000000e+00
   outer loop
     vertex -2.010946e+01 -5.346946e-01  4.690000e+00
     vertex -2.024081e+01 -3.589082e-01  4.690000e+00
     vertex -2.032275e+01 -5.378841e-01  4.690000e+00
   endloop
 endfacet
 facet normal  7.777434e-03  9.045235e-02  9.958704e-01
   outer loop
     vertex -1.980292e+01 -1.900000e-01  4.675000e+00
     vertex -2.000000e+01 -3.382027e-01  4.690000e+00
     vertex -1.975921e+01 -3.589064e-01  4.690000e+00
   endloop
 endfacet
 facet normal  0.000000e+00  0.000000e+00  1.000000e+00
   outer loop
     vertex -2.021082e+01 -7.172862e-01  4.690000e+00
     vertex -2.032275e+01 -5.378841e-01  4.690000e+00
     vertex -2.041975e+01 -7.176930e-01  4.690000e+00
   endloop
 endfacet
 facet normal  0.000000e+00  0.000000e+00  1.000000e+00
   outer loop
     vertex -1.999999e+01 -7.170867e-01  4.690000e+00
     vertex -2.010946e+01 -5.346946e-01  4.690000e+00
     vertex -2.021082e+01 -7.172862e-01  4.690000e+00
   endloop
 endfacet
 facet normal -0.000000e+00  0.000000e+00  1.000000e+00
   outer loop
     vertex -2.032275e+01 -5.378841e-01  4.690000e+00
     vertex -2.021082e+01 -7.172862e-01  4.690000e+00
     vertex -2.010946e+01 -5.346946e-01  4.690000e+00
   endloop
 endfacet
 facet normal  0.000000e+00  0.000000e+00  1.000000e+00
   outer loop
     vertex -1.967698e+01 -5.379347e-01  4.690000e+00
     vertex -1.975921e+01 -3.589064e-01  4.690000e+00
     vertex -1.989072e+01 -5.346301e-01  4.690000e+00
   endloop
 endfacet
 facet normal  0.000000e+00  0.000000e+00  1.000000e+00
   outer loop
     vertex -1.978917e+01 -7.172820e-01  4.690000e+00
     vertex -1.989072e+01 -5.346301e-01  4.690000e+00
     vertex -1.999999e+01 -7.170867e-01  4.690000e+00
   endloop
 endfacet
 facet normal  0.000000e+00  0.000000e+00  1.000000e+00
   outer loop
     vertex -1.958024e+01 -7.176951e-01  4.690000e+00
     vertex -1.967698e+01 -5.379347e-01  4.690000e+00
     vertex -1.978917e+01 -7.172820e-01  4.690000e+00
   endloop
 endfacet
 facet normal  0.000000e+00  0.000000e+00  1.000000e+00
   outer loop
     vertex -1.989072e+01 -5.346301e-01  4.690000e+00
     vertex -1.978917e+01 -7.172820e-01  4.690000e+00
     vertex -1.967698e+01 -5.379347e-01  4.690000e+00
   endloop
 endfacet
 facet normal -0.000000e+00  0.000000e+00  1.000000e+00
   outer loop
     vertex -2.010946e+01 -5.346946e-01  4.690000e+00
     vertex -1.999999e+01 -7.170867e-01  4.690000e+00
     vertex -1.989072e+01 -5.346301e-01  4.690000e+00
   endloop
 endfacet
 facet normal  0.000000e+00  0.000000e+00  1.000000e+00
   outer loop
     vertex -2.000000e+01 -3.382027e-01  4.690000e+00
     vertex -1.989072e+01 -5.346301e-01  4.690000e+00
     vertex -1.975921e+01 -3.589064e-01  4.690000e+00
   endloop
 endfacet
 facet normal -0.000000e+00  0.000000e+00  1.000000e+00
   outer loop
     vertex -2.024081e+01 -3.589082e-01  4.690000e+00
     vertex -2.010946e+01 -5.346946e-01  4.690000e+00
     vertex -2.000000e+01 -3.382027e-01  4.690000e+00
   endloop
 endfacet
 facet normal  0.000000e+00  0.000000e+00  1.000000e+00
   outer loop
     vertex -1.989072e+01 -5.346301e-01  4.690000e+00
     vertex -2.000000e+01 -3.382027e-01  4.690000e+00
     vertex -2.010946e+01 -5.346946e-01  4.690000e+00
   endloop
 endfacet
 facet normal  0.000000e+00  0.000000e+00  1.000000e+00
   outer loop
     vertex -2.031342e+01 -8.959647e-01  4.690000e+00
     vertex -2.041975e+01 -7.176930e-01  4.690000e+00
     vertex -2.052202e+01 -8.961425e-01  4.690000e+00
   endloop
 endfacet
 facet normal  0.000000e+00  0.000000e+00  1.000000e+00
   outer loop
     vertex -2.041493e+01 -1.067366e+00  4.690000e+00
     vertex -2.052202e+01 -8.961425e-01  4.690000e+00
     vertex -2.062261e+01 -1.068198e+00  4.690000e+00
   endloop
 endfacet
 facet normal  0.000000e+00  0.000000e+00  1.000000e+00
   outer loop
     vertex -2.020754e+01 -1.068248e+00  4.690000e+00
     vertex -2.031342e+01 -8.959647e-01  4.690000e+00
     vertex -2.041493e+01 -1.067366e+00  4.690000e+00
   endloop
 endfacet
 facet normal -0.000000e+00  0.000000e+00  1.000000e+00
   outer loop
     vertex -2.052202e+01 -8.961425e-01  4.690000e+00
     vertex -2.041493e+01 -1.067366e+00  4.690000e+00
     vertex -2.031342e+01 -8.959647e-01  4.690000e+00
   endloop
 endfacet
 facet normal  0.000000e+00  0.000000e+00  1.000000e+00
   outer loop
     vertex -2.050919e+01 -1.219779e+00  4.690000e+00
     vertex -2.062261e+01 -1.068198e+00  4.690000e+00
     vertex -2.071341e+01 -1.220791e+00  4.690000e+00
   endloop
 endfacet
 facet normal  0.000000e+00  0.000000e+00  1.000000e+00
   outer loop
     vertex -2.010175e+01 -1.220093e+00  4.690000e+00
     vertex -2.020754e+01 -1.068248e+00  4.690000e+00
     vertex -2.030544e+01 -1.219625e+00  4.690000e+00
   endloop
 endfacet
 facet normal  5.691859e-04 -1.147858e-01  9.933901e-01
   outer loop
     vertex -2.071341e+01 -1.220791e+00  4.690000e+00
     vertex -2.059125e+01 -1.350000e+00  4.675000e+00
     vertex -2.050919e+01 -1.219779e+00  4.690000e+00
   endloop
 endfacet
 facet normal  0.000000e+00 -1.144319e-01  9.934311e-01
   outer loop
     vertex -2.050919e+01 -1.219779e+00  4.690000e+00
     vertex -2.059125e+01 -1.350000e+00  4.675000e+00
     vertex -2.039417e+01 -1.350000e+00  4.675000e+00
   endloop
 endfacet
 facet normal  0.000000e+00  0.000000e+00  1.000000e+00
   outer loop
     vertex -2.041493e+01 -1.067366e+00  4.690000e+00
     vertex -2.030544e+01 -1.219625e+00  4.690000e+00
     vertex -2.020754e+01 -1.068248e+00  4.690000e+00
   endloop
 endfacet
 facet normal -2.627309e-04 -1.145146e-01  9.934215e-01
   outer loop
     vertex -2.030544e+01 -1.219625e+00  4.690000e+00
     vertex -2.019708e+01 -1.350000e+00  4.675000e+00
     vertex -2.010175e+01 -1.220093e+00  4.690000e+00
   endloop
 endfacet
 facet normal  0.000000e+00 -1.147048e-01  9.933996e-01
   outer loop
     vertex -2.010175e+01 -1.220093e+00  4.690000e+00
     vertex -2.019708e+01 -1.350000e+00  4.675000e+00
     vertex -2.000000e+01 -1.350000e+00  4.675000e+00
   endloop
 endfacet
 facet normal  8.606984e-05 -1.143569e-01  9.934397e-01
   outer loop
     vertex -2.050919e+01 -1.219779e+00  4.690000e+00
     vertex -2.039417e+01 -1.350000e+00  4.675000e+00
     vertex -2.030544e+01 -1.219625e+00  4.690000e+00
   endloop
 endfacet
 facet normal  0.000000e+00 -1.142991e-01  9.934464e-01
   outer loop
     vertex -2.030544e+01 -1.219625e+00  4.690000e+00
     vertex -2.039417e+01 -1.350000e+00  4.675000e+00
     vertex -2.019708e+01 -1.350000e+00  4.675000e+00
   endloop
 endfacet
 facet normal -0.000000e+00  0.000000e+00  1.000000e+00
   outer loop
     vertex -2.062261e+01 -1.068198e+00  4.690000e+00
     vertex -2.050919e+01 -1.219779e+00  4.690000e+00
     vertex -2.041493e+01 -1.067366e+00  4.690000e+00
   endloop
 endfacet
 facet normal  0.000000e+00  0.000000e+00  1.000000e+00
   outer loop
     vertex -2.030544e+01 -1.219625e+00  4.690000e+00
     vertex -2.041493e+01 -1.067366e+00  4.690000e+00
     vertex -2.050919e+01 -1.219779e+00  4.690000e+00
   endloop
 endfacet
 facet normal  0.000000e+00  0.000000e+00  1.000000e+00
   outer loop
     vertex -1.947806e+01 -8.959450e-01  4.690000e+00
     vertex -1.958024e+01 -7.176951e-01  4.690000e+00
     vertex -1.968659e+01 -8.959517e-01  4.690000e+00
   endloop
 endfacet
 facet normal  0.000000e+00  0.000000e+00  1.000000e+00
   outer loop
     vertex -1.958509e+01 -1.067441e+00  4.690000e+00
     vertex -1.968659e+01 -8.959517e-01  4.690000e+00
     vertex -1.979249e+01 -1.068272e+00  4.690000e+00
   endloop
 endfacet
 facet normal  0.000000e+00  0.000000e+00  1.000000e+00
   outer loop
     vertex -1.937733e+01 -1.068358e+00  4.690000e+00
     vertex -1.947806e+01 -8.959450e-01  4.690000e+00
     vertex -1.958509e+01 -1.067441e+00  4.690000e+00
   endloop
 endfacet
 facet normal -0.000000e+00  0.000000e+00  1.000000e+00
   outer loop
     vertex -1.968659e+01 -8.959517e-01  4.690000e+00
     vertex -1.958509e+01 -1.067441e+00  4.690000e+00
     vertex -1.947806e+01 -8.959450e-01  4.690000e+00
   endloop
 endfacet
 facet normal  0.000000e+00  0.000000e+00  1.000000e+00
   outer loop
     vertex -1.969437e+01 -1.219789e+00  4.690000e+00
     vertex -1.979249e+01 -1.068272e+00  4.690000e+00
     vertex -1.989806e+01 -1.220186e+00  4.690000e+00
   endloop
 endfacet
 facet normal  0.000000e+00  0.000000e+00  1.000000e+00
   outer loop
     vertex -1.928687e+01 -1.220363e+00  4.690000e+00
     vertex -1.937733e+01 -1.068358e+00  4.690000e+00
     vertex -1.949096e+01 -1.219095e+00  4.690000e+00
   endloop
 endfacet
 facet normal  2.234704e-04 -1.146245e-01  9.934089e-01
   outer loop
     vertex -1.989806e+01 -1.220186e+00  4.690000e+00
     vertex -1.980292e+01 -1.350000e+00  4.675000e+00
     vertex -1.969437e+01 -1.219789e+00  4.690000e+00
   endloop
 endfacet
 facet normal  0.000000e+00 -1.144406e-01  9.934301e-01
   outer loop
     vertex -1.969437e+01 -1.219789e+00  4.690000e+00
     vertex -1.980292e+01 -1.350000e+00  4.675000e+00
     vertex -1.960583e+01 -1.350000e+00  4.675000e+00
   endloop
 endfacet
 facet normal  0.000000e+00  0.000000e+00  1.000000e+00
   outer loop
     vertex -1.958509e+01 -1.067441e+00  4.690000e+00
     vertex -1.949096e+01 -1.219095e+00  4.690000e+00
     vertex -1.937733e+01 -1.068358e+00  4.690000e+00
   endloop
 endfacet
 facet normal -7.100157e-04 -1.142817e-01  9.934481e-01
   outer loop
     vertex -1.949096e+01 -1.219095e+00  4.690000e+00
     vertex -1.940875e+01 -1.350000e+00  4.675000e+00
     vertex -1.928687e+01 -1.220363e+00  4.690000e+00
   endloop
 endfacet
 facet normal  0.000000e+00 -1.149404e-01  9.933724e-01
   outer loop
     vertex -1.928687e+01 -1.220363e+00  4.690000e+00
     vertex -1.940875e+01 -1.350000e+00  4.675000e+00
     vertex -1.921167e+01 -1.350000e+00  4.675000e+00
   endloop
 endfacet
 facet normal  3.897161e-04 -1.141791e-01  9.934601e-01
   outer loop
     vertex -1.969437e+01 -1.219789e+00  4.690000e+00
     vertex -1.960583e+01 -1.350000e+00  4.675000e+00
     vertex -1.949096e+01 -1.219095e+00  4.690000e+00
   endloop
 endfacet
 facet normal  0.000000e+00 -1.138416e-01  9.934989e-01
   outer loop
     vertex -1.949096e+01 -1.219095e+00  4.690000e+00
     vertex -1.960583e+01 -1.350000e+00  4.675000e+00
     vertex -1.940875e+01 -1.350000e+00  4.675000e+00
   endloop
 endfacet
 facet normal -0.000000e+00  0.000000e+00  1.000000e+00
   outer loop
     vertex -1.979249e+01 -1.068272e+00  4.690000e+00
     vertex -1.969437e+01 -1.219789e+00  4.690000e+00
     vertex -1.958509e+01 -1.067441e+00  4.690000e+00
   endloop
 endfacet
 facet normal  0.000000e+00  0.000000e+00  1.000000e+00
   outer loop
     vertex -1.949096e+01 -1.219095e+00  4.690000e+00
     vertex -1.958509e+01 -1.067441e+00  4.690000e+00
     vertex -1.969437e+01 -1.219789e+00  4.690000e+00
   endloop
 endfacet
 facet normal  0.000000e+00  0.000000e+00  1.000000e+00
   outer loop
     vertex -1.999998e+01 -1.066459e+00  4.690000e+00
     vertex -1.989806e+01 -1.220186e+00  4.690000e+00
     vertex -1.979249e+01 -1.068272e+00  4.690000e+00
   endloop
 endfacet
 facet normal -5.250635e-05 -1.147454e-01  9.933949e-01
   outer loop
     vertex -2.010175e+01 -1.220093e+00  4.690000e+00
     vertex -2.000000e+01 -1.350000e+00  4.675000e+00
     vertex -1.989806e+01 -1.220186e+00  4.690000e+00
   endloop
 endfacet
 facet normal  0.000000e+00 -1.147861e-01  9.933902e-01
   outer loop
     vertex -1.989806e+01 -1.220186e+00  4.690000e+00
     vertex -2.000000e+01 -1.350000e+00  4.675000e+00
     vertex -1.980292e+01 -1.350000e+00  4.675000e+00
   endloop
 endfacet
 facet normal -0.000000e+00  0.000000e+00  1.000000e+00
   outer loop
     vertex -2.020754e+01 -1.068248e+00  4.690000e+00
     vertex -2.010175e+01 -1.220093e+00  4.690000e+00
     vertex -1.999998e+01 -1.066459e+00  4.690000e+00
   endloop
 endfacet
 facet normal  0.000000e+00  0.000000e+00  1.000000e+00
   outer loop
     vertex -1.989806e+01 -1.220186e+00  4.690000e+00
     vertex -1.999998e+01 -1.066459e+00  4.690000e+00
     vertex -2.010175e+01 -1.220093e+00  4.690000e+00
   endloop
 endfacet
 facet normal  0.000000e+00  0.000000e+00  1.000000e+00
   outer loop
     vertex -1.989547e+01 -8.953994e-01  4.690000e+00
     vertex -1.979249e+01 -1.068272e+00  4.690000e+00
     vertex -1.968659e+01 -8.959517e-01  4.690000e+00
   endloop
 endfacet
 facet normal  0.000000e+00  0.000000e+00  1.000000e+00
   outer loop
     vertex -1.978917e+01 -7.172820e-01  4.690000e+00
     vertex -1.968659e+01 -8.959517e-01  4.690000e+00
     vertex -1.958024e+01 -7.176951e-01  4.690000e+00
   endloop
 endfacet
 facet normal  0.000000e+00  0.000000e+00  1.000000e+00
   outer loop
     vertex -1.999999e+01 -7.170867e-01  4.690000e+00
     vertex -1.989547e+01 -8.953994e-01  4.690000e+00
     vertex -1.978917e+01 -7.172820e-01  4.690000e+00
   endloop
 endfacet
 facet normal  0.000000e+00  0.000000e+00  1.000000e+00
   outer loop
     vertex -1.968659e+01 -8.959517e-01  4.690000e+00
     vertex -1.978917e+01 -7.172820e-01  4.690000e+00
     vertex -1.989547e+01 -8.953994e-01  4.690000e+00
   endloop
 endfacet
 facet normal -0.000000e+00  0.000000e+00  1.000000e+00
   outer loop
     vertex -2.031342e+01 -8.959647e-01  4.690000e+00
     vertex -2.020754e+01 -1.068248e+00  4.690000e+00
     vertex -2.010452e+01 -8.951661e-01  4.690000e+00
   endloop
 endfacet
 facet normal -0.000000e+00  0.000000e+00  1.000000e+00
   outer loop
     vertex -2.021082e+01 -7.172862e-01  4.690000e+00
     vertex -2.010452e+01 -8.951661e-01  4.690000e+00
     vertex -1.999999e+01 -7.170867e-01  4.690000e+00
   endloop
 endfacet
 facet normal -0.000000e+00  0.000000e+00  1.000000e+00
   outer loop
     vertex -2.041975e+01 -7.176930e-01  4.690000e+00
     vertex -2.031342e+01 -8.959647e-01  4.690000e+00
     vertex -2.021082e+01 -7.172862e-01  4.690000e+00
   endloop
 endfacet
 facet normal  0.000000e+00  0.000000e+00  1.000000e+00
   outer loop
     vertex -2.010452e+01 -8.951661e-01  4.690000e+00
     vertex -2.021082e+01 -7.172862e-01  4.690000e+00
     vertex -2.031342e+01 -8.959647e-01  4.690000e+00
   endloop
 endfacet
 facet normal  0.000000e+00  0.000000e+00  1.000000e+00
   outer loop
     vertex -1.989547e+01 -8.953994e-01  4.690000e+00
     vertex -1.999999e+01 -7.170867e-01  4.690000e+00
     vertex -2.010452e+01 -8.951661e-01  4.690000e+00
   endloop
 endfacet
 facet normal  0.000000e+00  0.000000e+00  1.000000e+00
   outer loop
     vertex -1.999998e+01 -1.066459e+00  4.690000e+00
     vertex -2.010452e+01 -8.951661e-01  4.690000e+00
     vertex -2.020754e+01 -1.068248e+00  4.690000e+00
   endloop
 endfacet
 facet normal  0.000000e+00  0.000000e+00  1.000000e+00
   outer loop
     vertex -1.979249e+01 -1.068272e+00  4.690000e+00
     vertex -1.989547e+01 -8.953994e-01  4.690000e+00
     vertex -1.999998e+01 -1.066459e+00  4.690000e+00
   endloop
 endfacet
 facet normal  0.000000e+00  0.000000e+00  1.000000e+00
   outer loop
     vertex -2.010452e+01 -8.951661e-01  4.690000e+00
     vertex -1.999998e+01 -1.066459e+00  4.690000e+00
     vertex -1.989547e+01 -8.953994e-01  4.690000e+00
   endloop
 endfacet
endsolid
