solid pipeInternal -  facet normal -0.000000e+00  3.610920e-01  9.325302e-01 (repaired)
 facet normal -0.206587 0.483296 0.850733
  outer loop
   vertex -18.275560 -0.278418 8.260001
   vertex -18.316561 -0.266099 8.243047
   vertex -18.325220 -0.305261 8.263191
  endloop
 endfacet
 facet normal 0.000000 0.118012 0.993012
  outer loop
   vertex -18.325220 -0.305261 8.263191
   vertex -18.275330 -0.305261 8.263191
   vertex -18.275560 -0.278418 8.260001
  endloop
 endfacet
 facet normal 0.000000 0.442278 0.896878
  outer loop
   vertex -18.424999 -0.305261 8.263191
   vertex -18.375111 -0.305261 8.263191
   vertex -18.392370 -0.266389 8.244022
  endloop
 endfacet
 facet normal 0.000000 0.202992 0.979180
  outer loop
   vertex -18.325220 -0.305261 8.263191
   vertex -18.353041 -0.274379 8.256789
   vertex -18.375111 -0.305261 8.263191
  endloop
 endfacet
 facet normal -0.224440 0.349017 0.909843
  outer loop
   vertex -18.353041 -0.274379 8.256789
   vertex -18.392370 -0.266389 8.244022
   vertex -18.375111 -0.305261 8.263191
  endloop
 endfacet
 facet normal 0.028953 0.422438 0.905929
  outer loop
   vertex -18.392370 -0.266389 8.244022
   vertex -18.424999 -0.266809 8.245261
   vertex -18.424999 -0.305261 8.263191
  endloop
 endfacet
 facet normal -0.224429 -0.852187 0.472661
  outer loop
   vertex -18.353041 -0.324802 8.238438
   vertex -18.375111 -0.305261 8.263191
   vertex -18.392370 -0.322717 8.223522
  endloop
 endfacet
 facet normal 0.000000 -0.784892 0.619633
  outer loop
   vertex -18.375111 -0.305261 8.263191
   vertex -18.353041 -0.324802 8.238438
   vertex -18.325220 -0.305261 8.263191
  endloop
 endfacet
 facet normal 0.241955 -0.875170 0.418969
  outer loop
   vertex -18.353041 -0.324802 8.238438
   vertex -18.316570 -0.322310 8.222583
   vertex -18.325220 -0.305261 8.263191
  endloop
 endfacet
 facet normal 0.000000 -0.915294 0.402785
  outer loop
   vertex -18.392370 -0.322717 8.223522
   vertex -18.375111 -0.305261 8.263191
   vertex -18.424999 -0.305261 8.263191
  endloop
 endfacet
 facet normal 0.028899 -0.905932 0.422436
  outer loop
   vertex -18.424999 -0.305261 8.263191
   vertex -18.424999 -0.323191 8.224739
   vertex -18.392370 -0.322717 8.223522
  endloop
 endfacet
 facet normal -0.027658 -0.422454 -0.905963
  outer loop
   vertex -18.392370 -0.322717 8.223522
   vertex -18.424999 -0.323191 8.224739
   vertex -18.424999 -0.284739 8.206809
  endloop
 endfacet
 facet normal -0.000019 -0.402809 -0.915284
  outer loop
   vertex -18.424999 -0.284739 8.206809
   vertex -18.384689 -0.284741 8.206809
   vertex -18.392370 -0.322717 8.223522
  endloop
 endfacet
 facet normal 0.000042 0.896867 -0.442300
  outer loop
   vertex -18.392370 -0.266389 8.244022
   vertex -18.384689 -0.284741 8.206809
   vertex -18.424999 -0.284739 8.206809
  endloop
 endfacet
 facet normal 0.147331 -0.849152 -0.507183
  outer loop
   vertex -18.353380 -0.306180 8.207161
   vertex -18.353041 -0.324802 8.238438
   vertex -18.392370 -0.322717 8.223522
  endloop
 endfacet
 facet normal -0.027712 0.905963 -0.422450
  outer loop
   vertex -18.424999 -0.284739 8.206809
   vertex -18.424999 -0.266809 8.245261
   vertex -18.392370 -0.266389 8.244022
  endloop
 endfacet
 facet normal -0.206596 -0.917074 0.341018
  outer loop
   vertex -18.325220 -0.305261 8.263191
   vertex -18.316570 -0.322310 8.222583
   vertex -18.275560 -0.323773 8.243492
  endloop
 endfacet
 facet normal 0.209224 -0.382852 -0.899805
  outer loop
   vertex -18.315660 -0.284740 8.206809
   vertex -18.316570 -0.322310 8.222583
   vertex -18.353380 -0.306180 8.207161
  endloop
 endfacet
 facet normal -0.160929 -0.848800 -0.503627
  outer loop
   vertex -18.353041 -0.324802 8.238438
   vertex -18.353380 -0.306180 8.207161
   vertex -18.316570 -0.322310 8.222583
  endloop
 endfacet
 facet normal 0.147007 0.976400 0.158214
  outer loop
   vertex -18.353041 -0.274379 8.256789
   vertex -18.353300 -0.268524 8.220894
   vertex -18.392370 -0.266389 8.244022
  endloop
 endfacet
 facet normal 0.209687 0.871589 -0.443129
  outer loop
   vertex -18.316561 -0.266099 8.243047
   vertex -18.315660 -0.284740 8.206809
   vertex -18.353300 -0.268524 8.220894
  endloop
 endfacet
 facet normal 0.241831 0.401032 0.883567
  outer loop
   vertex -18.353041 -0.274379 8.256789
   vertex -18.325220 -0.305261 8.263191
   vertex -18.316561 -0.266099 8.243047
  endloop
 endfacet
 facet normal -0.160759 0.973933 0.160036
  outer loop
   vertex -18.353300 -0.268524 8.220894
   vertex -18.353041 -0.274379 8.256789
   vertex -18.316561 -0.266099 8.243047
  endloop
 endfacet
 facet normal -0.199627 0.336093 -0.920429
  outer loop
   vertex -18.353380 -0.306180 8.207161
   vertex -18.353300 -0.268524 8.220894
   vertex -18.315660 -0.284740 8.206809
  endloop
 endfacet
 facet normal -0.230591 0.852974 -0.468256
  outer loop
   vertex -18.384689 -0.284741 8.206809
   vertex -18.392370 -0.266389 8.244022
   vertex -18.353300 -0.268524 8.220894
  endloop
 endfacet
 facet normal -0.231095 -0.352374 -0.906878
  outer loop
   vertex -18.392370 -0.322717 8.223522
   vertex -18.384689 -0.284741 8.206809
   vertex -18.353380 -0.306180 8.207161
  endloop
 endfacet
 facet normal 0.237826 0.332338 -0.912683
  outer loop
   vertex -18.353300 -0.268524 8.220894
   vertex -18.353380 -0.306180 8.207161
   vertex -18.384689 -0.284741 8.206809
  endloop
 endfacet
 facet normal 0.000000 -0.728715 0.684817
  outer loop
   vertex -18.275560 -0.323773 8.243492
   vertex -18.275330 -0.305261 8.263191
   vertex -18.325220 -0.305261 8.263191
  endloop
 endfacet
 facet normal 0.203377 -0.916681 0.343998
  outer loop
   vertex -18.275560 -0.323773 8.243492
   vertex -18.234529 -0.322422 8.222834
   vertex -18.225439 -0.305261 8.263191
  endloop
 endfacet
 facet normal 0.158834 -0.864907 -0.476138
  outer loop
   vertex -18.195900 -0.306855 8.207442
   vertex -18.197309 -0.324682 8.239355
   vertex -18.234529 -0.322422 8.222834
  endloop
 endfacet
 facet normal 0.000000 -0.876596 0.481228
  outer loop
   vertex -18.125669 -0.305261 8.263191
   vertex -18.175560 -0.305261 8.263191
   vertex -18.154261 -0.324292 8.228523
  endloop
 endfacet
 facet normal 0.240369 -0.459629 -0.854964
  outer loop
   vertex -18.155840 -0.284733 8.206812
   vertex -18.154261 -0.324292 8.228523
   vertex -18.195900 -0.306855 8.207442
  endloop
 endfacet
 facet normal -0.115035 -0.865052 -0.488315
  outer loop
   vertex -18.197309 -0.324682 8.239355
   vertex -18.195900 -0.306855 8.207442
   vertex -18.154261 -0.324292 8.228523
  endloop
 endfacet
 facet normal -0.241754 -0.872153 0.425328
  outer loop
   vertex -18.197309 -0.324682 8.239355
   vertex -18.225439 -0.305261 8.263191
   vertex -18.234529 -0.322422 8.222834
  endloop
 endfacet
 facet normal 0.000000 -0.775242 0.631665
  outer loop
   vertex -18.225439 -0.305261 8.263191
   vertex -18.197309 -0.324682 8.239355
   vertex -18.175560 -0.305261 8.263191
  endloop
 endfacet
 facet normal 0.144059 -0.827446 0.542753
  outer loop
   vertex -18.197309 -0.324682 8.239355
   vertex -18.154261 -0.324292 8.228523
   vertex -18.175560 -0.305261 8.263191
  endloop
 endfacet
 facet normal 0.000000 -0.728715 0.684817
  outer loop
   vertex -18.225439 -0.305261 8.263191
   vertex -18.275330 -0.305261 8.263191
   vertex -18.275560 -0.323773 8.243492
  endloop
 endfacet
 facet normal -0.241524 0.394809 0.886449
  outer loop
   vertex -18.225439 -0.305261 8.263191
   vertex -18.197290 -0.275050 8.257405
   vertex -18.234529 -0.266172 8.243305
  endloop
 endfacet
 facet normal 0.158074 0.968522 0.192298
  outer loop
   vertex -18.197290 -0.275050 8.257405
   vertex -18.195890 -0.268166 8.221585
   vertex -18.234529 -0.266172 8.243305
  endloop
 endfacet
 facet normal 0.203395 0.481126 0.852730
  outer loop
   vertex -18.234529 -0.266172 8.243305
   vertex -18.275560 -0.278418 8.260001
   vertex -18.225439 -0.305261 8.263191
  endloop
 endfacet
 facet normal 0.240600 0.901801 -0.358981
  outer loop
   vertex -18.154261 -0.268406 8.248884
   vertex -18.155840 -0.284733 8.206812
   vertex -18.195890 -0.268166 8.221585
  endloop
 endfacet
 facet normal 0.143695 0.284868 0.947735
  outer loop
   vertex -18.197290 -0.275050 8.257405
   vertex -18.175560 -0.305261 8.263191
   vertex -18.154261 -0.268406 8.248884
  endloop
 endfacet
 facet normal -0.114480 0.976395 0.183159
  outer loop
   vertex -18.195890 -0.268166 8.221585
   vertex -18.197290 -0.275050 8.257405
   vertex -18.154261 -0.268406 8.248884
  endloop
 endfacet
 facet normal 0.000000 0.361892 0.932220
  outer loop
   vertex -18.154261 -0.268406 8.248884
   vertex -18.175560 -0.305261 8.263191
   vertex -18.125669 -0.305261 8.263191
  endloop
 endfacet
 facet normal 0.000000 0.118012 0.993012
  outer loop
   vertex -18.275560 -0.278418 8.260001
   vertex -18.275330 -0.305261 8.263191
   vertex -18.225439 -0.305261 8.263191
  endloop
 endfacet
 facet normal -0.200265 0.336424 -0.920170
  outer loop
   vertex -18.195900 -0.306855 8.207442
   vertex -18.195890 -0.268166 8.221585
   vertex -18.155840 -0.284733 8.206812
  endloop
 endfacet
 facet normal 0.000000 0.188100 0.982150
  outer loop
   vertex -18.175560 -0.305261 8.263191
   vertex -18.197290 -0.275050 8.257405
   vertex -18.225439 -0.305261 8.263191
  endloop
 endfacet
 facet normal -0.201690 0.875473 -0.439168
  outer loop
   vertex -18.235609 -0.284727 8.206814
   vertex -18.234529 -0.266172 8.243305
   vertex -18.195890 -0.268166 8.221585
  endloop
 endfacet
 facet normal -0.201963 -0.387957 -0.899278
  outer loop
   vertex -18.234529 -0.322422 8.222834
   vertex -18.235609 -0.284727 8.206814
   vertex -18.195900 -0.306855 8.207442
  endloop
 endfacet
 facet normal 0.201924 0.336220 -0.919882
  outer loop
   vertex -18.195890 -0.268166 8.221585
   vertex -18.195900 -0.306855 8.207442
   vertex -18.235609 -0.284727 8.206814
  endloop
 endfacet
 facet normal -0.182392 0.951086 0.249336
  outer loop
   vertex -18.275730 -0.268307 8.221308
   vertex -18.275560 -0.278418 8.260001
   vertex -18.234529 -0.266172 8.243305
  endloop
 endfacet
 facet normal -0.193891 0.870407 -0.452547
  outer loop
   vertex -18.315660 -0.284740 8.206809
   vertex -18.316561 -0.266099 8.243047
   vertex -18.275730 -0.268307 8.221308
  endloop
 endfacet
 facet normal 0.183355 0.951305 0.247789
  outer loop
   vertex -18.275560 -0.278418 8.260001
   vertex -18.275730 -0.268307 8.221308
   vertex -18.316561 -0.266099 8.243047
  endloop
 endfacet
 facet normal -0.182207 -0.889034 -0.420022
  outer loop
   vertex -18.275560 -0.323773 8.243492
   vertex -18.275721 -0.306671 8.207363
   vertex -18.234529 -0.322422 8.222834
  endloop
 endfacet
 facet normal -0.193775 -0.375786 -0.906221
  outer loop
   vertex -18.316570 -0.322310 8.222583
   vertex -18.315660 -0.284740 8.206809
   vertex -18.275721 -0.306671 8.207363
  endloop
 endfacet
 facet normal 0.183095 -0.888259 -0.421275
  outer loop
   vertex -18.275721 -0.306671 8.207363
   vertex -18.275560 -0.323773 8.243492
   vertex -18.316570 -0.322310 8.222583
  endloop
 endfacet
 facet normal 0.196723 0.334980 -0.921460
  outer loop
   vertex -18.275730 -0.268307 8.221308
   vertex -18.275721 -0.306671 8.207363
   vertex -18.315660 -0.284740 8.206809
  endloop
 endfacet
 facet normal 0.194897 -0.378890 -0.904687
  outer loop
   vertex -18.235609 -0.284727 8.206814
   vertex -18.234529 -0.322422 8.222834
   vertex -18.275721 -0.306671 8.207363
  endloop
 endfacet
 facet normal 0.194624 0.872010 -0.449132
  outer loop
   vertex -18.234529 -0.266172 8.243305
   vertex -18.235609 -0.284727 8.206814
   vertex -18.275730 -0.268307 8.221308
  endloop
 endfacet
 facet normal -0.195870 0.334952 -0.921652
  outer loop
   vertex -18.275721 -0.306671 8.207363
   vertex -18.275730 -0.268307 8.221308
   vertex -18.235609 -0.284727 8.206814
  endloop
 endfacet
 facet normal 0.000000 -0.876515 0.481374
  outer loop
   vertex -17.976000 -0.305261 8.263191
   vertex -18.025890 -0.305261 8.263191
   vertex -17.999020 -0.324295 8.228533
  endloop
 endfacet
 facet normal 0.000000 -0.775222 0.631689
  outer loop
   vertex -17.976000 -0.305261 8.263191
   vertex -17.955740 -0.324682 8.239357
   vertex -17.926109 -0.305261 8.263191
  endloop
 endfacet
 facet normal 0.240981 -0.877224 0.415219
  outer loop
   vertex -17.955740 -0.324682 8.239357
   vertex -17.919041 -0.322422 8.222833
   vertex -17.926109 -0.305261 8.263191
  endloop
 endfacet
 facet normal 0.181294 -0.887780 -0.423060
  outer loop
   vertex -17.878130 -0.306702 8.207376
   vertex -17.877270 -0.323759 8.243539
   vertex -17.919041 -0.322422 8.222833
  endloop
 endfacet
 facet normal 0.193547 -0.376086 -0.906145
  outer loop
   vertex -17.838079 -0.284732 8.206812
   vertex -17.836550 -0.322394 8.222770
   vertex -17.878130 -0.306702 8.207376
  endloop
 endfacet
 facet normal -0.182263 -0.890955 -0.415909
  outer loop
   vertex -17.877270 -0.323759 8.243539
   vertex -17.878130 -0.306702 8.207376
   vertex -17.836550 -0.322394 8.222770
  endloop
 endfacet
 facet normal -0.204023 -0.913262 0.352602
  outer loop
   vertex -17.926109 -0.305261 8.263191
   vertex -17.919041 -0.322422 8.222833
   vertex -17.877270 -0.323759 8.243539
  endloop
 endfacet
 facet normal 0.203254 -0.918899 0.338100
  outer loop
   vertex -17.877270 -0.323759 8.243539
   vertex -17.836550 -0.322394 8.222770
   vertex -17.826330 -0.305261 8.263191
  endloop
 endfacet
 facet normal 0.000000 -0.728162 0.685405
  outer loop
   vertex -17.877270 -0.323759 8.243539
   vertex -17.876221 -0.305261 8.263191
   vertex -17.926109 -0.305261 8.263191
  endloop
 endfacet
 facet normal 0.145385 0.264332 0.953411
  outer loop
   vertex -17.999010 -0.268400 8.248873
   vertex -18.042690 -0.275003 8.257364
   vertex -18.025890 -0.305261 8.263191
  endloop
 endfacet
 facet normal 0.241014 0.405158 0.881907
  outer loop
   vertex -17.955740 -0.275061 8.257415
   vertex -17.926109 -0.305261 8.263191
   vertex -17.919041 -0.266171 8.243301
  endloop
 endfacet
 facet normal 0.000000 0.187868 0.982194
  outer loop
   vertex -17.926109 -0.305261 8.263191
   vertex -17.955740 -0.275061 8.257415
   vertex -17.976000 -0.305261 8.263191
  endloop
 endfacet
 facet normal -0.144554 0.278585 0.949471
  outer loop
   vertex -17.976000 -0.305261 8.263191
   vertex -17.955740 -0.275061 8.257415
   vertex -17.999010 -0.268400 8.248873
  endloop
 endfacet
 facet normal 0.180806 0.951963 0.247137
  outer loop
   vertex -17.877260 -0.278447 8.260020
   vertex -17.878130 -0.268257 8.221405
   vertex -17.919041 -0.266171 8.243301
  endloop
 endfacet
 facet normal -0.204003 0.473015 0.857111
  outer loop
   vertex -17.877260 -0.278447 8.260020
   vertex -17.919041 -0.266171 8.243301
   vertex -17.926109 -0.305261 8.263191
  endloop
 endfacet
 facet normal 0.000000 0.117441 0.993080
  outer loop
   vertex -17.926109 -0.305261 8.263191
   vertex -17.876221 -0.305261 8.263191
   vertex -17.877260 -0.278447 8.260020
  endloop
 endfacet
 facet normal 0.193541 0.870803 -0.451934
  outer loop
   vertex -17.836550 -0.266158 8.243256
   vertex -17.838079 -0.284732 8.206812
   vertex -17.878130 -0.268257 8.221405
  endloop
 endfacet
 facet normal -0.181797 0.949771 0.254726
  outer loop
   vertex -17.878130 -0.268257 8.221405
   vertex -17.877260 -0.278447 8.260020
   vertex -17.836550 -0.266158 8.243256
  endloop
 endfacet
 facet normal 0.203146 0.486357 0.849817
  outer loop
   vertex -17.826330 -0.305261 8.263191
   vertex -17.836550 -0.266158 8.243256
   vertex -17.877260 -0.278447 8.260020
  endloop
 endfacet
 facet normal 0.000000 0.117441 0.993080
  outer loop
   vertex -17.877260 -0.278447 8.260020
   vertex -17.876221 -0.305261 8.263191
   vertex -17.826330 -0.305261 8.263191
  endloop
 endfacet
 facet normal -0.197312 0.336075 -0.920935
  outer loop
   vertex -17.878130 -0.306702 8.207376
   vertex -17.878130 -0.268257 8.221405
   vertex -17.838079 -0.284732 8.206812
  endloop
 endfacet
 facet normal -0.194936 0.872853 -0.447356
  outer loop
   vertex -17.918421 -0.284735 8.206811
   vertex -17.919041 -0.266171 8.243301
   vertex -17.878130 -0.268257 8.221405
  endloop
 endfacet
 facet normal -0.195060 -0.381006 -0.903762
  outer loop
   vertex -17.919041 -0.322422 8.222833
   vertex -17.918421 -0.284735 8.206811
   vertex -17.878130 -0.306702 8.207376
  endloop
 endfacet
 facet normal 0.196178 0.336153 -0.921149
  outer loop
   vertex -17.878130 -0.268257 8.221405
   vertex -17.878130 -0.306702 8.207376
   vertex -17.918421 -0.284735 8.206811
  endloop
 endfacet
 facet normal -0.159452 0.967767 0.194940
  outer loop
   vertex -17.958040 -0.268207 8.221505
   vertex -17.955740 -0.275061 8.257415
   vertex -17.919041 -0.266171 8.243301
  endloop
 endfacet
 facet normal 0.000000 0.362092 0.932142
  outer loop
   vertex -17.999010 -0.268400 8.248873
   vertex -18.025890 -0.305261 8.263191
   vertex -17.976000 -0.305261 8.263191
  endloop
 endfacet
 facet normal -0.241625 0.902973 -0.355327
  outer loop
   vertex -17.998220 -0.284742 8.206808
   vertex -17.999010 -0.268400 8.248873
   vertex -17.958040 -0.268207 8.221505
  endloop
 endfacet
 facet normal 0.115041 0.977076 0.179134
  outer loop
   vertex -17.955740 -0.275061 8.257415
   vertex -17.958040 -0.268207 8.221505
   vertex -17.999010 -0.268400 8.248873
  endloop
 endfacet
 facet normal -0.159256 -0.866947 -0.472272
  outer loop
   vertex -17.955740 -0.324682 8.239357
   vertex -17.958040 -0.306879 8.207452
   vertex -17.919041 -0.322422 8.222833
  endloop
 endfacet
 facet normal -0.241647 -0.463395 -0.852568
  outer loop
   vertex -17.999020 -0.324295 8.228533
   vertex -17.998220 -0.284742 8.206808
   vertex -17.958040 -0.306879 8.207452
  endloop
 endfacet
 facet normal -0.144508 -0.823677 0.548337
  outer loop
   vertex -17.999020 -0.324295 8.228533
   vertex -17.955740 -0.324682 8.239357
   vertex -17.976000 -0.305261 8.263191
  endloop
 endfacet
 facet normal 0.114906 -0.863918 -0.490349
  outer loop
   vertex -17.958040 -0.306879 8.207452
   vertex -17.955740 -0.324682 8.239357
   vertex -17.999020 -0.324295 8.228533
  endloop
 endfacet
 facet normal 0.199159 0.334701 -0.921038
  outer loop
   vertex -17.958040 -0.268207 8.221505
   vertex -17.958040 -0.306879 8.207452
   vertex -17.998220 -0.284742 8.206808
  endloop
 endfacet
 facet normal 0.201202 -0.386041 -0.900272
  outer loop
   vertex -17.918421 -0.284735 8.206811
   vertex -17.919041 -0.322422 8.222833
   vertex -17.958040 -0.306879 8.207452
  endloop
 endfacet
 facet normal 0.201084 0.874465 -0.441448
  outer loop
   vertex -17.919041 -0.266171 8.243301
   vertex -17.918421 -0.284735 8.206811
   vertex -17.958040 -0.268207 8.221505
  endloop
 endfacet
 facet normal -0.201854 0.334512 -0.920520
  outer loop
   vertex -17.958040 -0.306879 8.207452
   vertex -17.958040 -0.268207 8.221505
   vertex -17.918421 -0.284735 8.206811
  endloop
 endfacet
 facet normal 0.251755 0.452312 0.855590
  outer loop
   vertex -18.076799 -0.266017 8.242744
   vertex -18.110340 -0.275006 8.257366
   vertex -18.075781 -0.305261 8.263191
  endloop
 endfacet
 facet normal 0.000000 0.189106 0.981957
  outer loop
   vertex -18.025890 -0.305261 8.263191
   vertex -18.042690 -0.275003 8.257364
   vertex -18.075781 -0.305261 8.263191
  endloop
 endfacet
 facet normal -0.168403 0.963885 0.206317
  outer loop
   vertex -18.115511 -0.268226 8.221467
   vertex -18.110340 -0.275006 8.257366
   vertex -18.076799 -0.266017 8.242744
  endloop
 endfacet
 facet normal -0.145729 0.257742 0.955161
  outer loop
   vertex -18.125669 -0.305261 8.263191
   vertex -18.110340 -0.275006 8.257366
   vertex -18.154261 -0.268406 8.248884
  endloop
 endfacet
 facet normal -0.246587 0.906565 -0.342542
  outer loop
   vertex -18.155840 -0.284733 8.206812
   vertex -18.154261 -0.268406 8.248884
   vertex -18.115511 -0.268226 8.221467
  endloop
 endfacet
 facet normal 0.114601 0.979032 0.168415
  outer loop
   vertex -18.110340 -0.275006 8.257366
   vertex -18.115511 -0.268226 8.221467
   vertex -18.154261 -0.268406 8.248884
  endloop
 endfacet
 facet normal -0.252511 0.441927 0.860778
  outer loop
   vertex -18.075781 -0.305261 8.263191
   vertex -18.042690 -0.275003 8.257364
   vertex -18.076799 -0.266017 8.242744
  endloop
 endfacet
 facet normal 0.000000 0.189064 0.981965
  outer loop
   vertex -18.110340 -0.275006 8.257366
   vertex -18.125669 -0.305261 8.263191
   vertex -18.075781 -0.305261 8.263191
  endloop
 endfacet
 facet normal 0.000000 -0.776245 0.630431
  outer loop
   vertex -18.075781 -0.305261 8.263191
   vertex -18.125669 -0.305261 8.263191
   vertex -18.110279 -0.324696 8.239261
  endloop
 endfacet
 facet normal 0.000000 -0.776063 0.630655
  outer loop
   vertex -18.025890 -0.305261 8.263191
   vertex -18.075781 -0.305261 8.263191
   vertex -18.042700 -0.324693 8.239278
  endloop
 endfacet
 facet normal -0.252664 -0.891840 0.375211
  outer loop
   vertex -18.076799 -0.322177 8.222296
   vertex -18.042700 -0.324693 8.239278
   vertex -18.075781 -0.305261 8.263191
  endloop
 endfacet
 facet normal -0.167897 -0.871522 -0.460718
  outer loop
   vertex -18.110279 -0.324696 8.239261
   vertex -18.115520 -0.306868 8.207447
   vertex -18.076799 -0.322177 8.222296
  endloop
 endfacet
 facet normal -0.246802 -0.473797 -0.845343
  outer loop
   vertex -18.154261 -0.324292 8.228523
   vertex -18.155840 -0.284733 8.206812
   vertex -18.115520 -0.306868 8.207447
  endloop
 endfacet
 facet normal 0.114168 -0.858523 -0.499905
  outer loop
   vertex -18.115520 -0.306868 8.207447
   vertex -18.110279 -0.324696 8.239261
   vertex -18.154261 -0.324292 8.228523
  endloop
 endfacet
 facet normal 0.252145 -0.896405 0.364527
  outer loop
   vertex -18.075781 -0.305261 8.263191
   vertex -18.110279 -0.324696 8.239261
   vertex -18.076799 -0.322177 8.222296
  endloop
 endfacet
 facet normal -0.145538 -0.811712 0.565635
  outer loop
   vertex -18.154261 -0.324292 8.228523
   vertex -18.110279 -0.324696 8.239261
   vertex -18.125669 -0.305261 8.263191
  endloop
 endfacet
 facet normal 0.198027 0.334260 -0.921442
  outer loop
   vertex -18.115511 -0.268226 8.221467
   vertex -18.115520 -0.306868 8.207447
   vertex -18.155840 -0.284733 8.206812
  endloop
 endfacet
 facet normal 0.199449 -0.374019 -0.905720
  outer loop
   vertex -18.076950 -0.284748 8.206806
   vertex -18.076799 -0.322177 8.222296
   vertex -18.115520 -0.306868 8.207447
  endloop
 endfacet
 facet normal 0.199726 0.868563 -0.453549
  outer loop
   vertex -18.076799 -0.266017 8.242744
   vertex -18.076950 -0.284748 8.206806
   vertex -18.115511 -0.268226 8.221467
  endloop
 endfacet
 facet normal -0.206679 0.333739 -0.919729
  outer loop
   vertex -18.115520 -0.306868 8.207447
   vertex -18.115511 -0.268226 8.221467
   vertex -18.076950 -0.284748 8.206806
  endloop
 endfacet
 facet normal 0.167666 -0.869061 -0.465425
  outer loop
   vertex -18.038401 -0.306802 8.207419
   vertex -18.042700 -0.324693 8.239278
   vertex -18.076799 -0.322177 8.222296
  endloop
 endfacet
 facet normal 0.145307 -0.815349 0.560439
  outer loop
   vertex -18.025890 -0.305261 8.263191
   vertex -18.042700 -0.324693 8.239278
   vertex -17.999020 -0.324295 8.228533
  endloop
 endfacet
 facet normal 0.245427 -0.470499 -0.847583
  outer loop
   vertex -17.998220 -0.284742 8.206808
   vertex -17.999020 -0.324295 8.228533
   vertex -18.038401 -0.306802 8.207419
  endloop
 endfacet
 facet normal -0.114695 -0.859475 -0.498145
  outer loop
   vertex -18.042700 -0.324693 8.239278
   vertex -18.038401 -0.306802 8.207419
   vertex -17.999020 -0.324295 8.228533
  endloop
 endfacet
 facet normal 0.167532 0.964896 0.202257
  outer loop
   vertex -18.042690 -0.275003 8.257364
   vertex -18.038429 -0.268221 8.221477
   vertex -18.076799 -0.266017 8.242744
  endloop
 endfacet
 facet normal 0.245320 0.905193 -0.347049
  outer loop
   vertex -17.999010 -0.268400 8.248873
   vertex -17.998220 -0.284742 8.206808
   vertex -18.038429 -0.268221 8.221477
  endloop
 endfacet
 facet normal -0.114620 0.978523 0.171332
  outer loop
   vertex -18.038429 -0.268221 8.221477
   vertex -18.042690 -0.275003 8.257364
   vertex -17.999010 -0.268400 8.248873
  endloop
 endfacet
 facet normal -0.198169 0.335416 -0.920992
  outer loop
   vertex -18.038401 -0.306802 8.207419
   vertex -18.038429 -0.268221 8.221477
   vertex -17.998220 -0.284742 8.206808
  endloop
 endfacet
 facet normal -0.200692 0.869077 -0.452138
  outer loop
   vertex -18.076950 -0.284748 8.206806
   vertex -18.076799 -0.266017 8.242744
   vertex -18.038429 -0.268221 8.221477
  endloop
 endfacet
 facet normal -0.200325 -0.375325 -0.904987
  outer loop
   vertex -18.076799 -0.322177 8.222296
   vertex -18.076950 -0.284748 8.206806
   vertex -18.038401 -0.306802 8.207419
  endloop
 endfacet
 facet normal 0.206334 0.335103 -0.919311
  outer loop
   vertex -18.038429 -0.268221 8.221477
   vertex -18.038401 -0.306802 8.207419
   vertex -18.076950 -0.284748 8.206806
  endloop
 endfacet
 facet normal 0.204965 -0.909804 0.360895
  outer loop
   vertex -17.325060 -0.323765 8.243521
   vertex -17.282619 -0.322415 8.222818
   vertex -17.277559 -0.305261 8.263191
  endloop
 endfacet
 facet normal -0.204129 -0.923098 0.325915
  outer loop
   vertex -17.377331 -0.305261 8.263191
   vertex -17.364941 -0.322325 8.222618
   vertex -17.325060 -0.323765 8.243521
  endloop
 endfacet
 facet normal 0.000000 -0.728375 0.685178
  outer loop
   vertex -17.325060 -0.323765 8.243521
   vertex -17.327440 -0.305261 8.263191
   vertex -17.377331 -0.305261 8.263191
  endloop
 endfacet
 facet normal 0.000000 -0.728375 0.685178
  outer loop
   vertex -17.277559 -0.305261 8.263191
   vertex -17.327440 -0.305261 8.263191
   vertex -17.325060 -0.323765 8.243521
  endloop
 endfacet
 facet normal -0.204163 0.497690 0.842984
  outer loop
   vertex -17.325060 -0.278442 8.260017
   vertex -17.364941 -0.266107 8.243076
   vertex -17.377331 -0.305261 8.263191
  endloop
 endfacet
 facet normal 0.205051 0.465102 0.861182
  outer loop
   vertex -17.282631 -0.266167 8.243285
   vertex -17.325060 -0.278442 8.260017
   vertex -17.277559 -0.305261 8.263191
  endloop
 endfacet
 facet normal 0.000000 0.117525 0.993070
  outer loop
   vertex -17.325060 -0.278442 8.260017
   vertex -17.327440 -0.305261 8.263191
   vertex -17.277559 -0.305261 8.263191
  endloop
 endfacet
 facet normal -0.180738 0.953493 0.241216
  outer loop
   vertex -17.323111 -0.268289 8.221343
   vertex -17.325060 -0.278442 8.260017
   vertex -17.282631 -0.266167 8.243285
  endloop
 endfacet
 facet normal -0.192436 0.868129 -0.457516
  outer loop
   vertex -17.362770 -0.284740 8.206809
   vertex -17.364941 -0.266107 8.243076
   vertex -17.323111 -0.268289 8.221343
  endloop
 endfacet
 facet normal 0.183643 0.948460 0.258261
  outer loop
   vertex -17.325060 -0.278442 8.260017
   vertex -17.323111 -0.268289 8.221343
   vertex -17.364941 -0.266107 8.243076
  endloop
 endfacet
 facet normal -0.180479 -0.885717 -0.427707
  outer loop
   vertex -17.325060 -0.323765 8.243521
   vertex -17.323139 -0.306702 8.207376
   vertex -17.282619 -0.322415 8.222818
  endloop
 endfacet
 facet normal -0.192599 -0.370981 -0.908448
  outer loop
   vertex -17.364941 -0.322325 8.222618
   vertex -17.362770 -0.284740 8.206809
   vertex -17.323139 -0.306702 8.207376
  endloop
 endfacet
 facet normal 0.183545 -0.892670 -0.411645
  outer loop
   vertex -17.323139 -0.306702 8.207376
   vertex -17.325060 -0.323765 8.243521
   vertex -17.364941 -0.322325 8.222618
  endloop
 endfacet
 facet normal 0.198690 0.334782 -0.921110
  outer loop
   vertex -17.323111 -0.268289 8.221343
   vertex -17.323139 -0.306702 8.207376
   vertex -17.362770 -0.284740 8.206809
  endloop
 endfacet
 facet normal 0.195549 -0.383001 -0.902813
  outer loop
   vertex -17.282709 -0.284731 8.206812
   vertex -17.282619 -0.322415 8.222818
   vertex -17.323139 -0.306702 8.207376
  endloop
 endfacet
 facet normal 0.195501 0.873839 -0.445180
  outer loop
   vertex -17.282631 -0.266167 8.243285
   vertex -17.282709 -0.284731 8.206812
   vertex -17.323111 -0.268289 8.221343
  endloop
 endfacet
 facet normal -0.195057 0.335291 -0.921701
  outer loop
   vertex -17.323139 -0.306702 8.207376
   vertex -17.323111 -0.268289 8.221343
   vertex -17.282709 -0.284731 8.206812
  endloop
 endfacet
 facet normal 0.000000 0.117525 0.993070
  outer loop
   vertex -17.377331 -0.305261 8.263191
   vertex -17.327440 -0.305261 8.263191
   vertex -17.325060 -0.278442 8.260017
  endloop
 endfacet
 facet normal 0.204360 0.493990 0.845110
  outer loop
   vertex -17.427219 -0.305261 8.263191
   vertex -17.438850 -0.266122 8.243126
   vertex -17.478920 -0.278441 8.260016
  endloop
 endfacet
 facet normal 0.000000 0.206086 0.978534
  outer loop
   vertex -17.377331 -0.305261 8.263191
   vertex -17.401970 -0.274242 8.256659
   vertex -17.427219 -0.305261 8.263191
  endloop
 endfacet
 facet normal -0.242129 0.384690 0.890723
  outer loop
   vertex -17.401970 -0.274242 8.256659
   vertex -17.438850 -0.266122 8.243126
   vertex -17.427219 -0.305261 8.263191
  endloop
 endfacet
 facet normal -0.183730 0.948975 0.256299
  outer loop
   vertex -17.480440 -0.268290 8.221341
   vertex -17.478920 -0.278441 8.260016
   vertex -17.438850 -0.266122 8.243126
  endloop
 endfacet
 facet normal -0.195065 0.873105 -0.446809
  outer loop
   vertex -17.520809 -0.284747 8.206807
   vertex -17.521021 -0.266152 8.243235
   vertex -17.480440 -0.268290 8.221341
  endloop
 endfacet
 facet normal 0.181291 0.952937 0.242991
  outer loop
   vertex -17.478920 -0.278441 8.260016
   vertex -17.480440 -0.268290 8.221341
   vertex -17.521021 -0.266152 8.243235
  endloop
 endfacet
 facet normal -0.242168 -0.867222 0.435064
  outer loop
   vertex -17.401970 -0.324823 8.238251
   vertex -17.427219 -0.305261 8.263191
   vertex -17.438850 -0.322345 8.222662
  endloop
 endfacet
 facet normal -0.205228 0.469572 0.858711
  outer loop
   vertex -17.478920 -0.278441 8.260016
   vertex -17.521021 -0.266152 8.243235
   vertex -17.527000 -0.305261 8.263191
  endloop
 endfacet
 facet normal 0.000000 0.117555 0.993066
  outer loop
   vertex -17.478920 -0.278441 8.260016
   vertex -17.477110 -0.305261 8.263191
   vertex -17.427219 -0.305261 8.263191
  endloop
 endfacet
 facet normal 0.000000 -0.786828 0.617172
  outer loop
   vertex -17.427219 -0.305261 8.263191
   vertex -17.401970 -0.324823 8.238251
   vertex -17.377331 -0.305261 8.263191
  endloop
 endfacet
 facet normal 0.243387 -0.865272 0.438255
  outer loop
   vertex -17.401970 -0.324823 8.238251
   vertex -17.364941 -0.322325 8.222618
   vertex -17.377331 -0.305261 8.263191
  endloop
 endfacet
 facet normal -0.183238 -0.892103 -0.413010
  outer loop
   vertex -17.478901 -0.323769 8.243506
   vertex -17.480440 -0.306732 8.207389
   vertex -17.438850 -0.322345 8.222662
  endloop
 endfacet
 facet normal 0.204430 -0.921637 0.329838
  outer loop
   vertex -17.478901 -0.323769 8.243506
   vertex -17.438850 -0.322345 8.222662
   vertex -17.427219 -0.305261 8.263191
  endloop
 endfacet
 facet normal -0.195087 -0.382123 -0.903285
  outer loop
   vertex -17.521021 -0.322399 8.222781
   vertex -17.520809 -0.284747 8.206807
   vertex -17.480440 -0.306732 8.207389
  endloop
 endfacet
 facet normal 0.180730 -0.886538 -0.425896
  outer loop
   vertex -17.480440 -0.306732 8.207389
   vertex -17.478901 -0.323769 8.243506
   vertex -17.521021 -0.322399 8.222781
  endloop
 endfacet
 facet normal 0.000000 -0.728541 0.685002
  outer loop
   vertex -17.478901 -0.323769 8.243506
   vertex -17.477110 -0.305261 8.263191
   vertex -17.527000 -0.305261 8.263191
  endloop
 endfacet
 facet normal 0.000000 -0.728541 0.685002
  outer loop
   vertex -17.427219 -0.305261 8.263191
   vertex -17.477110 -0.305261 8.263191
   vertex -17.478901 -0.323769 8.243506
  endloop
 endfacet
 facet normal 0.195500 0.334586 -0.921863
  outer loop
   vertex -17.480440 -0.268290 8.221341
   vertex -17.480440 -0.306732 8.207389
   vertex -17.520809 -0.284747 8.206807
  endloop
 endfacet
 facet normal -0.204967 -0.911613 0.356300
  outer loop
   vertex -17.527000 -0.305261 8.263191
   vertex -17.521021 -0.322399 8.222781
   vertex -17.478901 -0.323769 8.243506
  endloop
 endfacet
 facet normal 0.192870 -0.373736 -0.907261
  outer loop
   vertex -17.440580 -0.284747 8.206806
   vertex -17.438850 -0.322345 8.222662
   vertex -17.480440 -0.306732 8.207389
  endloop
 endfacet
 facet normal 0.193006 0.869321 -0.455006
  outer loop
   vertex -17.438850 -0.266122 8.243126
   vertex -17.440580 -0.284747 8.206806
   vertex -17.480440 -0.268290 8.221341
  endloop
 endfacet
 facet normal -0.197918 0.334420 -0.921407
  outer loop
   vertex -17.480440 -0.306732 8.207389
   vertex -17.480440 -0.268290 8.221341
   vertex -17.440580 -0.284747 8.206806
  endloop
 endfacet
 facet normal 0.158497 -0.845785 -0.509437
  outer loop
   vertex -17.401770 -0.306022 8.207098
   vertex -17.401970 -0.324823 8.238251
   vertex -17.438850 -0.322345 8.222662
  endloop
 endfacet
 facet normal 0.205891 -0.389484 -0.897726
  outer loop
   vertex -17.362770 -0.284740 8.206809
   vertex -17.364941 -0.322325 8.222618
   vertex -17.401770 -0.306022 8.207098
  endloop
 endfacet
 facet normal -0.158701 -0.844855 -0.510915
  outer loop
   vertex -17.401970 -0.324823 8.238251
   vertex -17.401770 -0.306022 8.207098
   vertex -17.364941 -0.322325 8.222618
  endloop
 endfacet
 facet normal 0.158162 0.975295 0.154225
  outer loop
   vertex -17.401970 -0.274242 8.256659
   vertex -17.401770 -0.268597 8.220756
   vertex -17.438850 -0.266122 8.243126
  endloop
 endfacet
 facet normal 0.205908 0.875377 -0.437399
  outer loop
   vertex -17.364941 -0.266107 8.243076
   vertex -17.362770 -0.284740 8.206809
   vertex -17.401770 -0.268597 8.220756
  endloop
 endfacet
 facet normal 0.243400 0.381180 0.891885
  outer loop
   vertex -17.401970 -0.274242 8.256659
   vertex -17.377331 -0.305261 8.263191
   vertex -17.364941 -0.266107 8.243076
  endloop
 endfacet
 facet normal -0.158378 0.975531 0.152496
  outer loop
   vertex -17.401770 -0.268597 8.220756
   vertex -17.401970 -0.274242 8.256659
   vertex -17.364941 -0.266107 8.243076
  endloop
 endfacet
 facet normal -0.190487 0.336545 -0.922200
  outer loop
   vertex -17.401770 -0.306022 8.207098
   vertex -17.401770 -0.268597 8.220756
   vertex -17.362770 -0.284740 8.206809
  endloop
 endfacet
 facet normal -0.206270 0.874634 -0.438712
  outer loop
   vertex -17.440580 -0.284747 8.206806
   vertex -17.438850 -0.266122 8.243126
   vertex -17.401770 -0.268597 8.220756
  endloop
 endfacet
 facet normal -0.206083 -0.388274 -0.898206
  outer loop
   vertex -17.438850 -0.322345 8.222662
   vertex -17.440580 -0.284747 8.206806
   vertex -17.401770 -0.306022 8.207098
  endloop
 endfacet
 facet normal 0.191381 0.336486 -0.922036
  outer loop
   vertex -17.401770 -0.268597 8.220756
   vertex -17.401770 -0.306022 8.207098
   vertex -17.440580 -0.284747 8.206806
  endloop
 endfacet
 facet normal 0.251326 0.458340 0.852502
  outer loop
   vertex -17.678711 -0.266001 8.242685
   vertex -17.712120 -0.275035 8.257392
   vertex -17.676670 -0.305261 8.263191
  endloop
 endfacet
 facet normal 0.000000 0.361221 0.932480
  outer loop
   vertex -17.756229 -0.268426 8.248922
   vertex -17.776440 -0.305261 8.263191
   vertex -17.726561 -0.305261 8.263191
  endloop
 endfacet
 facet normal -0.114964 0.976121 0.184312
  outer loop
   vertex -17.798149 -0.268192 8.221535
   vertex -17.799030 -0.275072 8.257425
   vertex -17.756229 -0.268426 8.248922
  endloop
 endfacet
 facet normal -0.201388 0.876099 -0.438057
  outer loop
   vertex -17.838079 -0.284732 8.206812
   vertex -17.836550 -0.266158 8.243256
   vertex -17.798149 -0.268192 8.221535
  endloop
 endfacet
 facet normal 0.158587 0.968959 0.189655
  outer loop
   vertex -17.799030 -0.275072 8.257425
   vertex -17.798149 -0.268192 8.221535
   vertex -17.836550 -0.266158 8.243256
  endloop
 endfacet
 facet normal 0.143354 0.288115 0.946805
  outer loop
   vertex -17.799030 -0.275072 8.257425
   vertex -17.776440 -0.305261 8.263191
   vertex -17.756229 -0.268426 8.248922
  endloop
 endfacet
 facet normal 0.000000 0.187608 0.982244
  outer loop
   vertex -17.776440 -0.305261 8.263191
   vertex -17.799030 -0.275072 8.257425
   vertex -17.826330 -0.305261 8.263191
  endloop
 endfacet
 facet normal -0.242998 0.389437 0.888421
  outer loop
   vertex -17.799030 -0.275072 8.257425
   vertex -17.836550 -0.266158 8.243256
   vertex -17.826330 -0.305261 8.263191
  endloop
 endfacet
 facet normal -0.145713 0.253120 0.956398
  outer loop
   vertex -17.726561 -0.305261 8.263191
   vertex -17.712120 -0.275035 8.257392
   vertex -17.756229 -0.268426 8.248922
  endloop
 endfacet
 facet normal -0.114732 -0.866610 -0.485617
  outer loop
   vertex -17.798981 -0.324683 8.239353
   vertex -17.798140 -0.306930 8.207474
   vertex -17.756229 -0.324305 8.228579
  endloop
 endfacet
 facet normal -0.254407 -0.889443 0.379695
  outer loop
   vertex -17.678720 -0.322154 8.222245
   vertex -17.644421 -0.324693 8.239278
   vertex -17.676670 -0.305261 8.263191
  endloop
 endfacet
 facet normal 0.000000 -0.876140 0.482058
  outer loop
   vertex -17.726561 -0.305261 8.263191
   vertex -17.776440 -0.305261 8.263191
   vertex -17.756229 -0.324305 8.228579
  endloop
 endfacet
 facet normal -0.145807 -0.808665 0.569913
  outer loop
   vertex -17.756229 -0.324305 8.228579
   vertex -17.712120 -0.324687 8.239321
   vertex -17.726561 -0.305261 8.263191
  endloop
 endfacet
 facet normal -0.201340 -0.389071 -0.898936
  outer loop
   vertex -17.836550 -0.322394 8.222770
   vertex -17.838079 -0.284732 8.206812
   vertex -17.798140 -0.306930 8.207474
  endloop
 endfacet
 facet normal -0.242768 -0.869593 0.429967
  outer loop
   vertex -17.798981 -0.324683 8.239353
   vertex -17.826330 -0.305261 8.263191
   vertex -17.836550 -0.322394 8.222770
  endloop
 endfacet
 facet normal 0.157990 -0.864463 -0.477225
  outer loop
   vertex -17.798140 -0.306930 8.207474
   vertex -17.798981 -0.324683 8.239353
   vertex -17.836550 -0.322394 8.222770
  endloop
 endfacet
 facet normal 0.000000 -0.728162 0.685405
  outer loop
   vertex -17.826330 -0.305261 8.263191
   vertex -17.876221 -0.305261 8.263191
   vertex -17.877270 -0.323759 8.243539
  endloop
 endfacet
 facet normal 0.000000 -0.775262 0.631640
  outer loop
   vertex -17.826330 -0.305261 8.263191
   vertex -17.798981 -0.324683 8.239353
   vertex -17.776440 -0.305261 8.263191
  endloop
 endfacet
 facet normal 0.143438 -0.829320 0.540050
  outer loop
   vertex -17.798981 -0.324683 8.239353
   vertex -17.756229 -0.324305 8.228579
   vertex -17.776440 -0.305261 8.263191
  endloop
 endfacet
 facet normal 0.000000 -0.775607 0.631216
  outer loop
   vertex -17.676670 -0.305261 8.263191
   vertex -17.726561 -0.305261 8.263191
   vertex -17.712120 -0.324687 8.239321
  endloop
 endfacet
 facet normal 0.201040 0.334273 -0.920785
  outer loop
   vertex -17.798149 -0.268192 8.221535
   vertex -17.798140 -0.306930 8.207474
   vertex -17.838079 -0.284732 8.206812
  endloop
 endfacet
 facet normal 0.240056 -0.459592 -0.855072
  outer loop
   vertex -17.758051 -0.284748 8.206806
   vertex -17.756229 -0.324305 8.228579
   vertex -17.798140 -0.306930 8.207474
  endloop
 endfacet
 facet normal 0.240112 0.901601 -0.359808
  outer loop
   vertex -17.756229 -0.268426 8.248922
   vertex -17.758051 -0.284748 8.206806
   vertex -17.798149 -0.268192 8.221535
  endloop
 endfacet
 facet normal -0.200273 0.334239 -0.920964
  outer loop
   vertex -17.798140 -0.306930 8.207474
   vertex -17.798149 -0.268192 8.221535
   vertex -17.758051 -0.284748 8.206806
  endloop
 endfacet
 facet normal 0.114444 -0.858148 -0.500484
  outer loop
   vertex -17.717779 -0.306848 8.207439
   vertex -17.712120 -0.324687 8.239321
   vertex -17.756229 -0.324305 8.228579
  endloop
 endfacet
 facet normal 0.251410 -0.899099 0.358350
  outer loop
   vertex -17.676670 -0.305261 8.263191
   vertex -17.712120 -0.324687 8.239321
   vertex -17.678720 -0.322154 8.222245
  endloop
 endfacet
 facet normal 0.198837 -0.370331 -0.907369
  outer loop
   vertex -17.679480 -0.284740 8.206809
   vertex -17.678720 -0.322154 8.222245
   vertex -17.717779 -0.306848 8.207439
  endloop
 endfacet
 facet normal -0.168179 -0.872667 -0.458441
  outer loop
   vertex -17.712120 -0.324687 8.239321
   vertex -17.717779 -0.306848 8.207439
   vertex -17.678720 -0.322154 8.222245
  endloop
 endfacet
 facet normal 0.114320 0.979027 0.168631
  outer loop
   vertex -17.712120 -0.275035 8.257392
   vertex -17.717710 -0.268203 8.221513
   vertex -17.756229 -0.268426 8.248922
  endloop
 endfacet
 facet normal 0.199189 0.866852 -0.457047
  outer loop
   vertex -17.678711 -0.266001 8.242685
   vertex -17.679480 -0.284740 8.206809
   vertex -17.717710 -0.268203 8.221513
  endloop
 endfacet
 facet normal -0.254436 0.437307 0.862569
  outer loop
   vertex -17.676670 -0.305261 8.263191
   vertex -17.644421 -0.275004 8.257364
   vertex -17.678711 -0.266001 8.242685
  endloop
 endfacet
 facet normal -0.168187 0.963206 0.209636
  outer loop
   vertex -17.717710 -0.268203 8.221513
   vertex -17.712120 -0.275035 8.257392
   vertex -17.678711 -0.266001 8.242685
  endloop
 endfacet
 facet normal -0.208494 0.334989 -0.918865
  outer loop
   vertex -17.717779 -0.306848 8.207439
   vertex -17.717710 -0.268203 8.221513
   vertex -17.679480 -0.284740 8.206809
  endloop
 endfacet
 facet normal -0.247745 0.906917 -0.340769
  outer loop
   vertex -17.758051 -0.284748 8.206806
   vertex -17.756229 -0.268426 8.248922
   vertex -17.717710 -0.268203 8.221513
  endloop
 endfacet
 facet normal -0.247881 -0.475885 -0.843853
  outer loop
   vertex -17.756229 -0.324305 8.228579
   vertex -17.758051 -0.284748 8.206806
   vertex -17.717779 -0.306848 8.207439
  endloop
 endfacet
 facet normal 0.198359 0.335071 -0.921076
  outer loop
   vertex -17.717710 -0.268203 8.221513
   vertex -17.717779 -0.306848 8.207439
   vertex -17.758051 -0.284748 8.206806
  endloop
 endfacet
 facet normal 0.000000 -0.776065 0.630653
  outer loop
   vertex -17.644421 -0.324693 8.239278
   vertex -17.626780 -0.305261 8.263191
   vertex -17.676670 -0.305261 8.263191
  endloop
 endfacet
 facet normal 0.000000 -0.876022 0.482271
  outer loop
   vertex -17.576891 -0.305261 8.263191
   vertex -17.626780 -0.305261 8.263191
   vertex -17.600920 -0.324308 8.228593
  endloop
 endfacet
 facet normal -0.144020 -0.821227 0.552127
  outer loop
   vertex -17.600920 -0.324308 8.228593
   vertex -17.557480 -0.324680 8.239370
   vertex -17.576891 -0.305261 8.263191
  endloop
 endfacet
 facet normal 0.114544 -0.863313 -0.491497
  outer loop
   vertex -17.560289 -0.306882 8.207453
   vertex -17.557480 -0.324680 8.239370
   vertex -17.600920 -0.324308 8.228593
  endloop
 endfacet
 facet normal 0.200322 -0.383595 -0.901513
  outer loop
   vertex -17.520809 -0.284747 8.206807
   vertex -17.521021 -0.322399 8.222781
   vertex -17.560289 -0.306882 8.207453
  endloop
 endfacet
 facet normal -0.159564 -0.868103 -0.470040
  outer loop
   vertex -17.557480 -0.324680 8.239370
   vertex -17.560289 -0.306882 8.207453
   vertex -17.521021 -0.322399 8.222781
  endloop
 endfacet
 facet normal 0.000000 -0.775079 0.631865
  outer loop
   vertex -17.576891 -0.305261 8.263191
   vertex -17.557480 -0.324680 8.239370
   vertex -17.527000 -0.305261 8.263191
  endloop
 endfacet
 facet normal 0.241138 -0.880119 0.408953
  outer loop
   vertex -17.557480 -0.324680 8.239370
   vertex -17.521021 -0.322399 8.222781
   vertex -17.527000 -0.305261 8.263191
  endloop
 endfacet
 facet normal 0.144251 -0.817352 0.557788
  outer loop
   vertex -17.626780 -0.305261 8.263191
   vertex -17.644421 -0.324693 8.239278
   vertex -17.600920 -0.324308 8.228593
  endloop
 endfacet
 facet normal -0.143888 0.274390 0.950792
  outer loop
   vertex -17.576891 -0.305261 8.263191
   vertex -17.557470 -0.275061 8.257415
   vertex -17.600920 -0.268428 8.248925
  endloop
 endfacet
 facet normal 0.114211 0.977205 0.178961
  outer loop
   vertex -17.557470 -0.275061 8.257415
   vertex -17.560301 -0.268168 8.221582
   vertex -17.600920 -0.268428 8.248925
  endloop
 endfacet
 facet normal 0.000000 0.189107 0.981957
  outer loop
   vertex -17.644421 -0.275004 8.257364
   vertex -17.676670 -0.305261 8.263191
   vertex -17.626780 -0.305261 8.263191
  endloop
 endfacet
 facet normal 0.000000 0.361174 0.932499
  outer loop
   vertex -17.600920 -0.268428 8.248925
   vertex -17.626780 -0.305261 8.263191
   vertex -17.576891 -0.305261 8.263191
  endloop
 endfacet
 facet normal 0.200233 0.873107 -0.444513
  outer loop
   vertex -17.521021 -0.266152 8.243235
   vertex -17.520809 -0.284747 8.206807
   vertex -17.560301 -0.268168 8.221582
  endloop
 endfacet
 facet normal 0.241316 0.411573 0.878848
  outer loop
   vertex -17.557470 -0.275061 8.257415
   vertex -17.527000 -0.305261 8.263191
   vertex -17.521021 -0.266152 8.243235
  endloop
 endfacet
 facet normal -0.159092 0.967081 0.198603
  outer loop
   vertex -17.560301 -0.268168 8.221582
   vertex -17.557470 -0.275061 8.257415
   vertex -17.521021 -0.266152 8.243235
  endloop
 endfacet
 facet normal 0.000000 0.117555 0.993066
  outer loop
   vertex -17.527000 -0.305261 8.263191
   vertex -17.477110 -0.305261 8.263191
   vertex -17.478920 -0.278441 8.260016
  endloop
 endfacet
 facet normal 0.144355 0.267628 0.952647
  outer loop
   vertex -17.600920 -0.268428 8.248925
   vertex -17.644421 -0.275004 8.257364
   vertex -17.626780 -0.305261 8.263191
  endloop
 endfacet
 facet normal -0.203224 0.335647 -0.919805
  outer loop
   vertex -17.560289 -0.306882 8.207453
   vertex -17.560301 -0.268168 8.221582
   vertex -17.520809 -0.284747 8.206807
  endloop
 endfacet
 facet normal 0.000000 0.187867 0.982195
  outer loop
   vertex -17.527000 -0.305261 8.263191
   vertex -17.557470 -0.275061 8.257415
   vertex -17.576891 -0.305261 8.263191
  endloop
 endfacet
 facet normal -0.242850 0.903882 -0.352166
  outer loop
   vertex -17.600531 -0.284731 8.206812
   vertex -17.600920 -0.268428 8.248925
   vertex -17.560301 -0.268168 8.221582
  endloop
 endfacet
 facet normal -0.242889 -0.465881 -0.850858
  outer loop
   vertex -17.600920 -0.324308 8.228593
   vertex -17.600531 -0.284731 8.206812
   vertex -17.560289 -0.306882 8.207453
  endloop
 endfacet
 facet normal 0.199610 0.336006 -0.920465
  outer loop
   vertex -17.560301 -0.268168 8.221582
   vertex -17.560289 -0.306882 8.207453
   vertex -17.600531 -0.284731 8.206812
  endloop
 endfacet
 facet normal -0.114419 0.978335 0.172535
  outer loop
   vertex -17.640650 -0.268230 8.221458
   vertex -17.644421 -0.275004 8.257364
   vertex -17.600920 -0.268428 8.248925
  endloop
 endfacet
 facet normal 0.000000 0.188432 0.982086
  outer loop
   vertex -17.712120 -0.275035 8.257392
   vertex -17.726561 -0.305261 8.263191
   vertex -17.676670 -0.305261 8.263191
  endloop
 endfacet
 facet normal -0.200128 0.870193 -0.450237
  outer loop
   vertex -17.679480 -0.284740 8.206809
   vertex -17.678711 -0.266001 8.242685
   vertex -17.640650 -0.268230 8.221458
  endloop
 endfacet
 facet normal 0.167940 0.965350 0.199739
  outer loop
   vertex -17.644421 -0.275004 8.257364
   vertex -17.640650 -0.268230 8.221458
   vertex -17.678711 -0.266001 8.242685
  endloop
 endfacet
 facet normal -0.114292 -0.860564 -0.496355
  outer loop
   vertex -17.644421 -0.324693 8.239278
   vertex -17.640659 -0.306823 8.207428
   vertex -17.600920 -0.324308 8.228593
  endloop
 endfacet
 facet normal -0.200119 -0.377148 -0.904274
  outer loop
   vertex -17.678720 -0.322154 8.222245
   vertex -17.679480 -0.284740 8.206809
   vertex -17.640659 -0.306823 8.207428
  endloop
 endfacet
 facet normal 0.167754 -0.868062 -0.467254
  outer loop
   vertex -17.640659 -0.306823 8.207428
   vertex -17.644421 -0.324693 8.239278
   vertex -17.678720 -0.322154 8.222245
  endloop
 endfacet
 facet normal 0.204877 0.334385 -0.919898
  outer loop
   vertex -17.640650 -0.268230 8.221458
   vertex -17.640659 -0.306823 8.207428
   vertex -17.679480 -0.284740 8.206809
  endloop
 endfacet
 facet normal 0.245316 -0.469271 -0.848295
  outer loop
   vertex -17.600531 -0.284731 8.206812
   vertex -17.600920 -0.324308 8.228593
   vertex -17.640659 -0.306823 8.207428
  endloop
 endfacet
 facet normal 0.245108 0.904871 -0.348040
  outer loop
   vertex -17.600920 -0.268428 8.248925
   vertex -17.600531 -0.284731 8.206812
   vertex -17.640650 -0.268230 8.221458
  endloop
 endfacet
 facet normal -0.198519 0.334921 -0.921096
  outer loop
   vertex -17.640659 -0.306823 8.207428
   vertex -17.640650 -0.268230 8.221458
   vertex -17.600531 -0.284731 8.206812
  endloop
 endfacet
endsolid pipeInternal -  facet normal -0.000000e+00  3.610920e-01  9.325302e-01 (repaired)
