solid Created by Gmsh
facet normal 0 -0 1
  outer loop
    vertex -283.708 322.269 2850
    vertex -178.017 779.942 2850
    vertex -498.792 625.465 2850
  endloop
endfacet
facet normal 0 0 1
  outer loop
    vertex 178.017 779.942 2850
    vertex 135.524 504.006 2850
    vertex 498.792 625.465 2850
  endloop
endfacet
facet normal -0 0 1
  outer loop
    vertex -178.017 779.942 2850
    vertex 135.524 504.006 2850
    vertex 178.017 779.942 2850
  endloop
endfacet
facet normal 0 0 1
  outer loop
    vertex 135.524 504.006 2850
    vertex -178.017 779.942 2850
    vertex -283.708 322.269 2850
  endloop
endfacet
facet normal 0 0 1
  outer loop
    vertex 135.524 504.006 2850
    vertex -283.708 322.269 2850
    vertex 57.1959 182.45 2850
  endloop
endfacet
facet normal 0 -0 1
  outer loop
    vertex -178.017 -779.942 2850
    vertex -120.062 -471.066 2850
    vertex -498.792 -625.465 2850
  endloop
endfacet
facet normal 0 0 1
  outer loop
    vertex 178.017 -779.942 2850
    vertex -120.062 -471.066 2850
    vertex -178.017 -779.942 2850
  endloop
endfacet
facet normal 0 0 1
  outer loop
    vertex 241.852 -446.225 2850
    vertex 178.017 -779.942 2850
    vertex 498.792 -625.465 2850
  endloop
endfacet
facet normal 0 0 1
  outer loop
    vertex 241.852 -446.225 2850
    vertex 162.789 -117.079 2850
    vertex -120.062 -471.066 2850
  endloop
endfacet
facet normal 0 -0 1
  outer loop
    vertex 178.017 -779.942 2850
    vertex 241.852 -446.225 2850
    vertex -120.062 -471.066 2850
  endloop
endfacet
facet normal 0 0 1
  outer loop
    vertex -444.108 -347.704 2850
    vertex -720.775 -347.107 2850
    vertex -498.792 -625.465 2850
  endloop
endfacet
facet normal 0 0 1
  outer loop
    vertex -120.062 -471.066 2850
    vertex -444.108 -347.704 2850
    vertex -498.792 -625.465 2850
  endloop
endfacet
facet normal 0 0 1
  outer loop
    vertex -120.062 -471.066 2850
    vertex -195.247 -92.7221 2850
    vertex -444.108 -347.704 2850
  endloop
endfacet
facet normal 0 -0 1
  outer loop
    vertex -720.775 -347.107 2850
    vertex -527.436 -19.6928 2850
    vertex -800 9.79685e-14 2850
  endloop
endfacet
facet normal 0 0 1
  outer loop
    vertex -527.436 -19.6928 2850
    vertex -720.775 -347.107 2850
    vertex -444.108 -347.704 2850
  endloop
endfacet
facet normal 0 -0 1
  outer loop
    vertex -444.108 -347.704 2850
    vertex -195.247 -92.7221 2850
    vertex -527.436 -19.6928 2850
  endloop
endfacet
facet normal 0 0 1
  outer loop
    vertex 720.775 347.107 2850
    vertex 498.792 625.465 2850
    vertex 408.285 190.918 2850
  endloop
endfacet
facet normal -0 0 1
  outer loop
    vertex 135.524 504.006 2850
    vertex 408.285 190.918 2850
    vertex 498.792 625.465 2850
  endloop
endfacet
facet normal 0 0 1
  outer loop
    vertex 135.524 504.006 2850
    vertex 57.1959 182.45 2850
    vertex 408.285 190.918 2850
  endloop
endfacet
facet normal 0 0 1
  outer loop
    vertex 482.918 -205.522 2850
    vertex 498.792 -625.465 2850
    vertex 720.775 -347.107 2850
  endloop
endfacet
facet normal 0 0 1
  outer loop
    vertex 498.792 -625.465 2850
    vertex 482.918 -205.522 2850
    vertex 241.852 -446.225 2850
  endloop
endfacet
facet normal 0 0 1
  outer loop
    vertex 482.918 -205.522 2850
    vertex 162.789 -117.079 2850
    vertex 241.852 -446.225 2850
  endloop
endfacet
facet normal -0 0 1
  outer loop
    vertex 408.285 190.918 2850
    vertex 800 0 2850
    vertex 720.775 347.107 2850
  endloop
endfacet
facet normal 0 0 1
  outer loop
    vertex 408.285 190.918 2850
    vertex 57.1959 182.45 2850
    vertex 162.789 -117.079 2850
  endloop
endfacet
facet normal 0 0 1
  outer loop
    vertex 800 0 2850
    vertex 482.918 -205.522 2850
    vertex 720.775 -347.107 2850
  endloop
endfacet
facet normal 0 -0 1
  outer loop
    vertex 482.918 -205.522 2850
    vertex 800 0 2850
    vertex 408.285 190.918 2850
  endloop
endfacet
facet normal -0 0 1
  outer loop
    vertex 162.789 -117.079 2850
    vertex 482.918 -205.522 2850
    vertex 408.285 190.918 2850
  endloop
endfacet
facet normal 0 0 1
  outer loop
    vertex 57.1959 182.45 2850
    vertex -195.247 -92.7221 2850
    vertex 162.789 -117.079 2850
  endloop
endfacet
facet normal 0 0 1
  outer loop
    vertex -195.247 -92.7221 2850
    vertex -120.062 -471.066 2850
    vertex 162.789 -117.079 2850
  endloop
endfacet
facet normal 0 -0 1
  outer loop
    vertex -195.247 -92.7221 2850
    vertex 57.1959 182.45 2850
    vertex -283.708 322.269 2850
  endloop
endfacet
facet normal 0 0 1
  outer loop
    vertex -498.792 625.465 2850
    vertex -720.775 347.107 2850
    vertex -283.708 322.269 2850
  endloop
endfacet
facet normal 0 0 1
  outer loop
    vertex -527.436 -19.6928 2850
    vertex -720.775 347.107 2850
    vertex -800 9.79685e-14 2850
  endloop
endfacet
facet normal 0 0 1
  outer loop
    vertex -720.775 347.107 2850
    vertex -527.436 -19.6928 2850
    vertex -283.708 322.269 2850
  endloop
endfacet
facet normal -0 0 1
  outer loop
    vertex -527.436 -19.6928 2850
    vertex -195.247 -92.7221 2850
    vertex -283.708 322.269 2850
  endloop
endfacet
endsolid Created by Gmsh
