solid
 facet normal -0.000000e+00  0.000000e+00  1.000000e+00
   outer loop
     vertex -1.910000e+01 -1.500000e-01  1.069000e+01
     vertex -1.891000e+01 -1.500000e-01  1.069000e+01
     vertex -1.891000e+01 -7.000000e-02  1.069000e+01
   endloop
 endfacet
 facet normal  0.000000e+00  0.000000e+00  1.000000e+00
   outer loop
     vertex -1.891000e+01 -7.000000e-02  1.069000e+01
     vertex -1.910000e+01 -7.000000e-02  1.069000e+01
     vertex -1.910000e+01 -1.500000e-01  1.069000e+01
   endloop
 endfacet
 facet normal  0.000000e+00  0.000000e+00  1.000000e+00
   outer loop
     vertex -1.929000e+01 -7.000000e-02  1.069000e+01
     vertex -1.948000e+01 -7.000000e-02  1.069000e+01
     vertex -1.948000e+01 -1.500000e-01  1.069000e+01
   endloop
 endfacet
 facet normal  0.000000e+00 -0.000000e+00  1.000000e+00
   outer loop
     vertex -1.967000e+01 -1.500000e-01  1.069000e+01
     vertex -1.967000e+01 -7.000000e-02  1.069000e+01
     vertex -1.986000e+01 -7.000000e-02  1.069000e+01
   endloop
 endfacet
 facet normal  0.000000e+00  0.000000e+00  1.000000e+00
   outer loop
     vertex -1.967000e+01 -1.500000e-01  1.069000e+01
     vertex -1.986000e+01 -7.000000e-02  1.069000e+01
     vertex -1.986000e+01 -1.500000e-01  1.069000e+01
   endloop
 endfacet
 facet normal  0.000000e+00 -0.000000e+00  1.000000e+00
   outer loop
     vertex -1.948000e+01 -1.500000e-01  1.069000e+01
     vertex -1.948000e+01 -7.000000e-02  1.069000e+01
     vertex -1.967000e+01 -1.500000e-01  1.069000e+01
   endloop
 endfacet
 facet normal  0.000000e+00  0.000000e+00  1.000000e+00
   outer loop
     vertex -1.948000e+01 -7.000000e-02  1.069000e+01
     vertex -1.967000e+01 -7.000000e-02  1.069000e+01
     vertex -1.967000e+01 -1.500000e-01  1.069000e+01
   endloop
 endfacet
 facet normal  0.000000e+00  0.000000e+00  1.000000e+00
   outer loop
     vertex -1.929000e+01 -1.500000e-01  1.069000e+01
     vertex -1.910000e+01 -1.500000e-01  1.069000e+01
     vertex -1.910000e+01 -7.000000e-02  1.069000e+01
   endloop
 endfacet
 facet normal  0.000000e+00  0.000000e+00  1.000000e+00
   outer loop
     vertex -1.948000e+01 -1.500000e-01  1.069000e+01
     vertex -1.929000e+01 -1.500000e-01  1.069000e+01
     vertex -1.929000e+01 -7.000000e-02  1.069000e+01
   endloop
 endfacet
 facet normal  0.000000e+00  0.000000e+00  1.000000e+00
   outer loop
     vertex -1.910000e+01 -7.000000e-02  1.069000e+01
     vertex -1.929000e+01 -7.000000e-02  1.069000e+01
     vertex -1.929000e+01 -1.500000e-01  1.069000e+01
   endloop
 endfacet
 facet normal  0.000000e+00  0.000000e+00  1.000000e+00
   outer loop
     vertex -2.024000e+01 -1.500000e-01  1.069000e+01
     vertex -2.043000e+01 -7.000000e-02  1.069000e+01
     vertex -2.043000e+01 -1.500000e-01  1.069000e+01
   endloop
 endfacet
 facet normal  0.000000e+00  0.000000e+00  1.000000e+00
   outer loop
     vertex -2.062000e+01 -1.500000e-01  1.069000e+01
     vertex -2.043000e+01 -1.500000e-01  1.069000e+01
     vertex -2.043000e+01 -7.000000e-02  1.069000e+01
   endloop
 endfacet
 facet normal  0.000000e+00 -0.000000e+00  1.000000e+00
   outer loop
     vertex -2.005000e+01 -1.500000e-01  1.069000e+01
     vertex -2.005000e+01 -7.000000e-02  1.069000e+01
     vertex -2.024000e+01 -1.500000e-01  1.069000e+01
   endloop
 endfacet
 facet normal  0.000000e+00 -0.000000e+00  1.000000e+00
   outer loop
     vertex -2.024000e+01 -1.500000e-01  1.069000e+01
     vertex -2.024000e+01 -7.000000e-02  1.069000e+01
     vertex -2.043000e+01 -7.000000e-02  1.069000e+01
   endloop
 endfacet
 facet normal  0.000000e+00  0.000000e+00  1.000000e+00
   outer loop
     vertex -2.062000e+01 -7.000000e-02  1.069000e+01
     vertex -2.081000e+01 -7.000000e-02  1.069000e+01
     vertex -2.081000e+01 -1.500000e-01  1.069000e+01
   endloop
 endfacet
 facet normal  0.000000e+00  0.000000e+00  1.000000e+00
   outer loop
     vertex -2.100000e+01 -1.500000e-01  1.069000e+01
     vertex -2.081000e+01 -1.500000e-01  1.069000e+01
     vertex -2.081000e+01 -7.000000e-02  1.069000e+01
   endloop
 endfacet
 facet normal  0.000000e+00  0.000000e+00  1.000000e+00
   outer loop
     vertex -2.081000e+01 -7.000000e-02  1.069000e+01
     vertex -2.100000e+01 -7.000000e-02  1.069000e+01
     vertex -2.100000e+01 -1.500000e-01  1.069000e+01
   endloop
 endfacet
 facet normal  0.000000e+00  0.000000e+00  1.000000e+00
   outer loop
     vertex -2.081000e+01 -1.500000e-01  1.069000e+01
     vertex -2.062000e+01 -1.500000e-01  1.069000e+01
     vertex -2.062000e+01 -7.000000e-02  1.069000e+01
   endloop
 endfacet
 facet normal  0.000000e+00  0.000000e+00  1.000000e+00
   outer loop
     vertex -2.043000e+01 -7.000000e-02  1.069000e+01
     vertex -2.062000e+01 -7.000000e-02  1.069000e+01
     vertex -2.062000e+01 -1.500000e-01  1.069000e+01
   endloop
 endfacet
 facet normal  0.000000e+00  0.000000e+00  1.000000e+00
   outer loop
     vertex -2.005000e+01 -7.000000e-02  1.069000e+01
     vertex -2.024000e+01 -7.000000e-02  1.069000e+01
     vertex -2.024000e+01 -1.500000e-01  1.069000e+01
   endloop
 endfacet
 facet normal  0.000000e+00  0.000000e+00  1.000000e+00
   outer loop
     vertex -2.005000e+01 -1.500000e-01  1.069000e+01
     vertex -1.986000e+01 -1.500000e-01  1.069000e+01
     vertex -1.986000e+01 -7.000000e-02  1.069000e+01
   endloop
 endfacet
 facet normal  0.000000e+00  0.000000e+00  1.000000e+00
   outer loop
     vertex -1.986000e+01 -7.000000e-02  1.069000e+01
     vertex -2.005000e+01 -7.000000e-02  1.069000e+01
     vertex -2.005000e+01 -1.500000e-01  1.069000e+01
   endloop
 endfacet
 facet normal  0.000000e+00  1.000000e+00  0.000000e+00
   outer loop
     vertex -2.081000e+01 -7.000000e-02  1.049000e+01
     vertex -2.100000e+01 -7.000000e-02  1.049000e+01
     vertex -2.086457e+01 -7.000000e-02  1.058650e+01
   endloop
 endfacet
 facet normal -0.000000e+00  1.000000e+00  0.000000e+00
   outer loop
     vertex -2.100000e+01 -7.000000e-02  1.069000e+01
     vertex -2.081000e+01 -7.000000e-02  1.069000e+01
     vertex -2.086457e+01 -7.000000e-02  1.058650e+01
   endloop
 endfacet
 facet normal -0.000000e+00  1.000000e+00  0.000000e+00
   outer loop
     vertex -2.086457e+01 -7.000000e-02  1.058650e+01
     vertex -2.081000e+01 -7.000000e-02  1.069000e+01
     vertex -2.070565e+01 -7.000000e-02  1.058597e+01
   endloop
 endfacet
 facet normal  0.000000e+00  1.000000e+00  0.000000e+00
   outer loop
     vertex -2.100000e+01 -7.000000e-02  1.049000e+01
     vertex -2.100000e+01 -7.000000e-02  1.069000e+01
     vertex -2.086457e+01 -7.000000e-02  1.058650e+01
   endloop
 endfacet
 facet normal  0.000000e+00  1.000000e+00  0.000000e+00
   outer loop
     vertex -2.033253e+01 -7.000000e-02  1.058576e+01
     vertex -2.043000e+01 -7.000000e-02  1.049000e+01
     vertex -2.052056e+01 -7.000000e-02  1.058529e+01
   endloop
 endfacet
 facet normal  0.000000e+00  1.000000e+00  0.000000e+00
   outer loop
     vertex -2.014364e+01 -7.000000e-02  1.058526e+01
     vertex -2.024000e+01 -7.000000e-02  1.049000e+01
     vertex -2.033253e+01 -7.000000e-02  1.058576e+01
   endloop
 endfacet
 facet normal  0.000000e+00  1.000000e+00  0.000000e+00
   outer loop
     vertex -2.033253e+01 -7.000000e-02  1.058576e+01
     vertex -2.024000e+01 -7.000000e-02  1.049000e+01
     vertex -2.043000e+01 -7.000000e-02  1.049000e+01
   endloop
 endfacet
 facet normal -0.000000e+00  1.000000e+00  0.000000e+00
   outer loop
     vertex -2.062000e+01 -7.000000e-02  1.069000e+01
     vertex -2.043000e+01 -7.000000e-02  1.069000e+01
     vertex -2.052056e+01 -7.000000e-02  1.058529e+01
   endloop
 endfacet
 facet normal -0.000000e+00  1.000000e+00  0.000000e+00
   outer loop
     vertex -2.043000e+01 -7.000000e-02  1.069000e+01
     vertex -2.024000e+01 -7.000000e-02  1.069000e+01
     vertex -2.033253e+01 -7.000000e-02  1.058576e+01
   endloop
 endfacet
 facet normal -0.000000e+00  1.000000e+00  0.000000e+00
   outer loop
     vertex -2.033253e+01 -7.000000e-02  1.058576e+01
     vertex -2.024000e+01 -7.000000e-02  1.069000e+01
     vertex -2.014364e+01 -7.000000e-02  1.058526e+01
   endloop
 endfacet
 facet normal  0.000000e+00  1.000000e+00 -0.000000e+00
   outer loop
     vertex -2.014364e+01 -7.000000e-02  1.058526e+01
     vertex -2.024000e+01 -7.000000e-02  1.069000e+01
     vertex -2.005000e+01 -7.000000e-02  1.069000e+01
   endloop
 endfacet
 facet normal  0.000000e+00  1.000000e+00  0.000000e+00
   outer loop
     vertex -2.052056e+01 -7.000000e-02  1.058529e+01
     vertex -2.043000e+01 -7.000000e-02  1.069000e+01
     vertex -2.033253e+01 -7.000000e-02  1.058576e+01
   endloop
 endfacet
 facet normal -0.000000e+00  1.000000e+00  0.000000e+00
   outer loop
     vertex -2.081000e+01 -7.000000e-02  1.069000e+01
     vertex -2.062000e+01 -7.000000e-02  1.069000e+01
     vertex -2.070565e+01 -7.000000e-02  1.058597e+01
   endloop
 endfacet
 facet normal -0.000000e+00  1.000000e+00  0.000000e+00
   outer loop
     vertex -2.070565e+01 -7.000000e-02  1.058597e+01
     vertex -2.062000e+01 -7.000000e-02  1.069000e+01
     vertex -2.052056e+01 -7.000000e-02  1.058529e+01
   endloop
 endfacet
 facet normal  0.000000e+00  1.000000e+00  0.000000e+00
   outer loop
     vertex -2.070565e+01 -7.000000e-02  1.058597e+01
     vertex -2.081000e+01 -7.000000e-02  1.049000e+01
     vertex -2.086457e+01 -7.000000e-02  1.058650e+01
   endloop
 endfacet
 facet normal  0.000000e+00  1.000000e+00  0.000000e+00
   outer loop
     vertex -2.062000e+01 -7.000000e-02  1.049000e+01
     vertex -2.081000e+01 -7.000000e-02  1.049000e+01
     vertex -2.070565e+01 -7.000000e-02  1.058597e+01
   endloop
 endfacet
 facet normal  0.000000e+00  1.000000e+00  0.000000e+00
   outer loop
     vertex -2.052056e+01 -7.000000e-02  1.058529e+01
     vertex -2.062000e+01 -7.000000e-02  1.049000e+01
     vertex -2.070565e+01 -7.000000e-02  1.058597e+01
   endloop
 endfacet
 facet normal  0.000000e+00  1.000000e+00  0.000000e+00
   outer loop
     vertex -2.043000e+01 -7.000000e-02  1.049000e+01
     vertex -2.062000e+01 -7.000000e-02  1.049000e+01
     vertex -2.052056e+01 -7.000000e-02  1.058529e+01
   endloop
 endfacet
 facet normal  0.000000e+00  1.000000e+00  0.000000e+00
   outer loop
     vertex -1.957747e+01 -7.000000e-02  1.058576e+01
     vertex -1.967000e+01 -7.000000e-02  1.049000e+01
     vertex -1.976636e+01 -7.000000e-02  1.058526e+01
   endloop
 endfacet
 facet normal  0.000000e+00  1.000000e+00  0.000000e+00
   outer loop
     vertex -1.976636e+01 -7.000000e-02  1.058526e+01
     vertex -1.967000e+01 -7.000000e-02  1.049000e+01
     vertex -1.986000e+01 -7.000000e-02  1.049000e+01
   endloop
 endfacet
 facet normal  0.000000e+00  1.000000e+00  0.000000e+00
   outer loop
     vertex -1.938944e+01 -7.000000e-02  1.058529e+01
     vertex -1.948000e+01 -7.000000e-02  1.049000e+01
     vertex -1.957747e+01 -7.000000e-02  1.058576e+01
   endloop
 endfacet
 facet normal  0.000000e+00  1.000000e+00  0.000000e+00
   outer loop
     vertex -1.957747e+01 -7.000000e-02  1.058576e+01
     vertex -1.948000e+01 -7.000000e-02  1.049000e+01
     vertex -1.967000e+01 -7.000000e-02  1.049000e+01
   endloop
 endfacet
 facet normal -0.000000e+00  1.000000e+00  0.000000e+00
   outer loop
     vertex -1.957747e+01 -7.000000e-02  1.058576e+01
     vertex -1.948000e+01 -7.000000e-02  1.069000e+01
     vertex -1.938944e+01 -7.000000e-02  1.058529e+01
   endloop
 endfacet
 facet normal -0.000000e+00  1.000000e+00  0.000000e+00
   outer loop
     vertex -1.967000e+01 -7.000000e-02  1.069000e+01
     vertex -1.948000e+01 -7.000000e-02  1.069000e+01
     vertex -1.957747e+01 -7.000000e-02  1.058576e+01
   endloop
 endfacet
 facet normal  0.000000e+00  1.000000e+00  0.000000e+00
   outer loop
     vertex -1.976636e+01 -7.000000e-02  1.058526e+01
     vertex -1.967000e+01 -7.000000e-02  1.069000e+01
     vertex -1.957747e+01 -7.000000e-02  1.058576e+01
   endloop
 endfacet
 facet normal  0.000000e+00  1.000000e+00  0.000000e+00
   outer loop
     vertex -1.891000e+01 -7.000000e-02  1.069000e+01
     vertex -1.891000e+01 -7.000000e-02  1.049000e+01
     vertex -1.904543e+01 -7.000000e-02  1.058650e+01
   endloop
 endfacet
 facet normal -0.000000e+00  1.000000e+00  0.000000e+00
   outer loop
     vertex -1.929000e+01 -7.000000e-02  1.069000e+01
     vertex -1.910000e+01 -7.000000e-02  1.069000e+01
     vertex -1.920435e+01 -7.000000e-02  1.058597e+01
   endloop
 endfacet
 facet normal -0.000000e+00  1.000000e+00  0.000000e+00
   outer loop
     vertex -1.910000e+01 -7.000000e-02  1.069000e+01
     vertex -1.891000e+01 -7.000000e-02  1.069000e+01
     vertex -1.904543e+01 -7.000000e-02  1.058650e+01
   endloop
 endfacet
 facet normal  0.000000e+00  1.000000e+00  0.000000e+00
   outer loop
     vertex -1.904543e+01 -7.000000e-02  1.058650e+01
     vertex -1.920435e+01 -7.000000e-02  1.058597e+01
     vertex -1.910000e+01 -7.000000e-02  1.069000e+01
   endloop
 endfacet
 facet normal  0.000000e+00  1.000000e+00  0.000000e+00
   outer loop
     vertex -1.938944e+01 -7.000000e-02  1.058529e+01
     vertex -1.929000e+01 -7.000000e-02  1.069000e+01
     vertex -1.920435e+01 -7.000000e-02  1.058597e+01
   endloop
 endfacet
 facet normal  0.000000e+00  1.000000e+00  0.000000e+00
   outer loop
     vertex -1.891000e+01 -7.000000e-02  1.049000e+01
     vertex -1.910000e+01 -7.000000e-02  1.049000e+01
     vertex -1.904543e+01 -7.000000e-02  1.058650e+01
   endloop
 endfacet
 facet normal  0.000000e+00  1.000000e+00  0.000000e+00
   outer loop
     vertex -1.929000e+01 -7.000000e-02  1.069000e+01
     vertex -1.938944e+01 -7.000000e-02  1.058529e+01
     vertex -1.948000e+01 -7.000000e-02  1.069000e+01
   endloop
 endfacet
 facet normal  0.000000e+00  1.000000e+00  0.000000e+00
   outer loop
     vertex -1.929000e+01 -7.000000e-02  1.049000e+01
     vertex -1.948000e+01 -7.000000e-02  1.049000e+01
     vertex -1.938944e+01 -7.000000e-02  1.058529e+01
   endloop
 endfacet
 facet normal  0.000000e+00  1.000000e+00  0.000000e+00
   outer loop
     vertex -1.910000e+01 -7.000000e-02  1.049000e+01
     vertex -1.929000e+01 -7.000000e-02  1.049000e+01
     vertex -1.920435e+01 -7.000000e-02  1.058597e+01
   endloop
 endfacet
 facet normal  0.000000e+00  1.000000e+00  0.000000e+00
   outer loop
     vertex -1.920435e+01 -7.000000e-02  1.058597e+01
     vertex -1.929000e+01 -7.000000e-02  1.049000e+01
     vertex -1.938944e+01 -7.000000e-02  1.058529e+01
   endloop
 endfacet
 facet normal  0.000000e+00  1.000000e+00  0.000000e+00
   outer loop
     vertex -1.904543e+01 -7.000000e-02  1.058650e+01
     vertex -1.910000e+01 -7.000000e-02  1.049000e+01
     vertex -1.920435e+01 -7.000000e-02  1.058597e+01
   endloop
 endfacet
 facet normal -0.000000e+00  1.000000e+00  0.000000e+00
   outer loop
     vertex -1.995500e+01 -7.000000e-02  1.058576e+01
     vertex -1.986000e+01 -7.000000e-02  1.069000e+01
     vertex -1.976636e+01 -7.000000e-02  1.058526e+01
   endloop
 endfacet
 facet normal  0.000000e+00  1.000000e+00 -0.000000e+00
   outer loop
     vertex -1.976636e+01 -7.000000e-02  1.058526e+01
     vertex -1.986000e+01 -7.000000e-02  1.069000e+01
     vertex -1.967000e+01 -7.000000e-02  1.069000e+01
   endloop
 endfacet
 facet normal  0.000000e+00  1.000000e+00  0.000000e+00
   outer loop
     vertex -2.014364e+01 -7.000000e-02  1.058526e+01
     vertex -2.005000e+01 -7.000000e-02  1.069000e+01
     vertex -1.995500e+01 -7.000000e-02  1.058576e+01
   endloop
 endfacet
 facet normal  0.000000e+00  1.000000e+00 -0.000000e+00
   outer loop
     vertex -1.995500e+01 -7.000000e-02  1.058576e+01
     vertex -2.005000e+01 -7.000000e-02  1.069000e+01
     vertex -1.986000e+01 -7.000000e-02  1.069000e+01
   endloop
 endfacet
 facet normal  0.000000e+00  1.000000e+00  0.000000e+00
   outer loop
     vertex -1.995500e+01 -7.000000e-02  1.058576e+01
     vertex -2.005000e+01 -7.000000e-02  1.049000e+01
     vertex -2.014364e+01 -7.000000e-02  1.058526e+01
   endloop
 endfacet
 facet normal  0.000000e+00  1.000000e+00  0.000000e+00
   outer loop
     vertex -2.014364e+01 -7.000000e-02  1.058526e+01
     vertex -2.005000e+01 -7.000000e-02  1.049000e+01
     vertex -2.024000e+01 -7.000000e-02  1.049000e+01
   endloop
 endfacet
 facet normal  0.000000e+00  1.000000e+00  0.000000e+00
   outer loop
     vertex -1.976636e+01 -7.000000e-02  1.058526e+01
     vertex -1.986000e+01 -7.000000e-02  1.049000e+01
     vertex -1.995500e+01 -7.000000e-02  1.058576e+01
   endloop
 endfacet
 facet normal  0.000000e+00  1.000000e+00  0.000000e+00
   outer loop
     vertex -1.995500e+01 -7.000000e-02  1.058576e+01
     vertex -1.986000e+01 -7.000000e-02  1.049000e+01
     vertex -2.005000e+01 -7.000000e-02  1.049000e+01
   endloop
 endfacet
 facet normal -1.000000e+00  0.000000e+00  0.000000e+00
   outer loop
     vertex -2.100000e+01 -7.000000e-02  1.049000e+01
     vertex -2.100000e+01 -1.500000e-01  1.049000e+01
     vertex -2.100000e+01 -1.101762e-01  1.052478e+01
   endloop
 endfacet
 facet normal -1.000000e+00  0.000000e+00  0.000000e+00
   outer loop
     vertex -2.100000e+01 -1.102043e-01  1.058335e+01
     vertex -2.100000e+01 -1.500000e-01  1.069000e+01
     vertex -2.100000e+01 -7.000000e-02  1.069000e+01
   endloop
 endfacet
 facet normal -1.000000e+00  0.000000e+00 -0.000000e+00
   outer loop
     vertex -2.100000e+01 -7.000000e-02  1.069000e+01
     vertex -2.100000e+01 -7.000000e-02  1.049000e+01
     vertex -2.100000e+01 -1.102043e-01  1.058335e+01
   endloop
 endfacet
 facet normal -1.000000e+00  0.000000e+00 -0.000000e+00
   outer loop
     vertex -2.100000e+01 -1.102043e-01  1.058335e+01
     vertex -2.100000e+01 -1.101762e-01  1.052478e+01
     vertex -2.100000e+01 -1.500000e-01  1.049000e+01
   endloop
 endfacet
 facet normal -1.000000e+00 -0.000000e+00  0.000000e+00
   outer loop
     vertex -2.100000e+01 -1.102043e-01  1.058335e+01
     vertex -2.100000e+01 -1.500000e-01  1.049000e+01
     vertex -2.100000e+01 -1.500000e-01  1.069000e+01
   endloop
 endfacet
 facet normal -1.000000e+00  0.000000e+00  0.000000e+00
   outer loop
     vertex -2.100000e+01 -1.101762e-01  1.052478e+01
     vertex -2.100000e+01 -1.102043e-01  1.058335e+01
     vertex -2.100000e+01 -7.000000e-02  1.049000e+01
   endloop
 endfacet
 facet normal -2.191230e-15 -1.000000e+00  1.239191e-15
   outer loop
     vertex -1.910000e+01 -1.500000e-01  1.049000e+01
     vertex -1.891000e+01 -1.500000e-01  1.049000e+01
     vertex -1.904543e+01 -1.500000e-01  1.058650e+01
   endloop
 endfacet
 facet normal -2.191230e-15 -1.000000e+00 -1.155444e-15
   outer loop
     vertex -1.891000e+01 -1.500000e-01  1.069000e+01
     vertex -1.910000e+01 -1.500000e-01  1.069000e+01
     vertex -1.904543e+01 -1.500000e-01  1.058650e+01
   endloop
 endfacet
 facet normal  1.743349e-16 -1.000000e+00  9.192750e-17
   outer loop
     vertex -1.904543e+01 -1.500000e-01  1.058650e+01
     vertex -1.910000e+01 -1.500000e-01  1.069000e+01
     vertex -1.920435e+01 -1.500000e-01  1.058597e+01
   endloop
 endfacet
 facet normal -3.074264e-15 -1.000000e+00  0.000000e+00
   outer loop
     vertex -1.891000e+01 -1.500000e-01  1.049000e+01
     vertex -1.891000e+01 -1.500000e-01  1.069000e+01
     vertex -1.904543e+01 -1.500000e-01  1.058650e+01
   endloop
 endfacet
 facet normal  1.472654e-16 -1.000000e+00 -1.399572e-16
   outer loop
     vertex -1.957747e+01 -1.500000e-01  1.058576e+01
     vertex -1.948000e+01 -1.500000e-01  1.049000e+01
     vertex -1.938944e+01 -1.500000e-01  1.058529e+01
   endloop
 endfacet
 facet normal  2.938662e-16 -1.000000e+00  5.880027e-18
   outer loop
     vertex -1.976636e+01 -1.500000e-01  1.058526e+01
     vertex -1.967000e+01 -1.500000e-01  1.049000e+01
     vertex -1.957747e+01 -1.500000e-01  1.058576e+01
   endloop
 endfacet
 facet normal  2.921640e-16 -1.000000e+00  7.524919e-18
   outer loop
     vertex -1.957747e+01 -1.500000e-01  1.058576e+01
     vertex -1.967000e+01 -1.500000e-01  1.049000e+01
     vertex -1.948000e+01 -1.500000e-01  1.049000e+01
   endloop
 endfacet
 facet normal  1.460820e-16 -1.000000e+00  1.263398e-16
   outer loop
     vertex -1.929000e+01 -1.500000e-01  1.069000e+01
     vertex -1.948000e+01 -1.500000e-01  1.069000e+01
     vertex -1.938944e+01 -1.500000e-01  1.058529e+01
   endloop
 endfacet
 facet normal  2.921640e-16 -1.000000e+00 -6.912612e-18
   outer loop
     vertex -1.948000e+01 -1.500000e-01  1.069000e+01
     vertex -1.967000e+01 -1.500000e-01  1.069000e+01
     vertex -1.957747e+01 -1.500000e-01  1.058576e+01
   endloop
 endfacet
 facet normal  2.938959e-16 -1.000000e+00 -5.375182e-18
   outer loop
     vertex -1.957747e+01 -1.500000e-01  1.058576e+01
     vertex -1.967000e+01 -1.500000e-01  1.069000e+01
     vertex -1.976636e+01 -1.500000e-01  1.058526e+01
   endloop
 endfacet
 facet normal  1.460820e-16 -1.000000e+00  1.306067e-16
   outer loop
     vertex -1.976636e+01 -1.500000e-01  1.058526e+01
     vertex -1.967000e+01 -1.500000e-01  1.069000e+01
     vertex -1.986000e+01 -1.500000e-01  1.069000e+01
   endloop
 endfacet
 facet normal  1.479352e-16 -1.000000e+00  1.279426e-16
   outer loop
     vertex -1.938944e+01 -1.500000e-01  1.058529e+01
     vertex -1.948000e+01 -1.500000e-01  1.069000e+01
     vertex -1.957747e+01 -1.500000e-01  1.058576e+01
   endloop
 endfacet
 facet normal  2.921640e-16 -1.000000e+00 -2.626088e-17
   outer loop
     vertex -1.910000e+01 -1.500000e-01  1.069000e+01
     vertex -1.929000e+01 -1.500000e-01  1.069000e+01
     vertex -1.920435e+01 -1.500000e-01  1.058597e+01
   endloop
 endfacet
 facet normal  2.999885e-16 -1.000000e+00 -1.981905e-17
   outer loop
     vertex -1.920435e+01 -1.500000e-01  1.058597e+01
     vertex -1.929000e+01 -1.500000e-01  1.069000e+01
     vertex -1.938944e+01 -1.500000e-01  1.058529e+01
   endloop
 endfacet
 facet normal  1.749792e-16 -1.000000e+00 -9.895479e-17
   outer loop
     vertex -1.920435e+01 -1.500000e-01  1.058597e+01
     vertex -1.910000e+01 -1.500000e-01  1.049000e+01
     vertex -1.904543e+01 -1.500000e-01  1.058650e+01
   endloop
 endfacet
 facet normal  2.921640e-16 -1.000000e+00  2.846851e-17
   outer loop
     vertex -1.929000e+01 -1.500000e-01  1.049000e+01
     vertex -1.910000e+01 -1.500000e-01  1.049000e+01
     vertex -1.920435e+01 -1.500000e-01  1.058597e+01
   endloop
 endfacet
 facet normal  2.998369e-16 -1.000000e+00  2.162051e-17
   outer loop
     vertex -1.938944e+01 -1.500000e-01  1.058529e+01
     vertex -1.929000e+01 -1.500000e-01  1.049000e+01
     vertex -1.920435e+01 -1.500000e-01  1.058597e+01
   endloop
 endfacet
 facet normal  1.460820e-16 -1.000000e+00 -1.388325e-16
   outer loop
     vertex -1.948000e+01 -1.500000e-01  1.049000e+01
     vertex -1.929000e+01 -1.500000e-01  1.049000e+01
     vertex -1.938944e+01 -1.500000e-01  1.058529e+01
   endloop
 endfacet
 facet normal  2.938662e-16 -1.000000e+00 -5.880027e-18
   outer loop
     vertex -2.033253e+01 -1.500000e-01  1.058576e+01
     vertex -2.024000e+01 -1.500000e-01  1.049000e+01
     vertex -2.014364e+01 -1.500000e-01  1.058526e+01
   endloop
 endfacet
 facet normal  1.460820e-16 -1.000000e+00  1.436040e-16
   outer loop
     vertex -2.014364e+01 -1.500000e-01  1.058526e+01
     vertex -2.024000e+01 -1.500000e-01  1.049000e+01
     vertex -2.005000e+01 -1.500000e-01  1.049000e+01
   endloop
 endfacet
 facet normal  1.472654e-16 -1.000000e+00  1.399572e-16
   outer loop
     vertex -2.052056e+01 -1.500000e-01  1.058529e+01
     vertex -2.043000e+01 -1.500000e-01  1.049000e+01
     vertex -2.033253e+01 -1.500000e-01  1.058576e+01
   endloop
 endfacet
 facet normal  2.921640e-16 -1.000000e+00 -7.524919e-18
   outer loop
     vertex -2.033253e+01 -1.500000e-01  1.058576e+01
     vertex -2.043000e+01 -1.500000e-01  1.049000e+01
     vertex -2.024000e+01 -1.500000e-01  1.049000e+01
   endloop
 endfacet
 facet normal  1.479352e-16 -1.000000e+00 -1.279426e-16
   outer loop
     vertex -2.033253e+01 -1.500000e-01  1.058576e+01
     vertex -2.043000e+01 -1.500000e-01  1.069000e+01
     vertex -2.052056e+01 -1.500000e-01  1.058529e+01
   endloop
 endfacet
 facet normal  2.921640e-16 -1.000000e+00  6.912612e-18
   outer loop
     vertex -2.024000e+01 -1.500000e-01  1.069000e+01
     vertex -2.043000e+01 -1.500000e-01  1.069000e+01
     vertex -2.033253e+01 -1.500000e-01  1.058576e+01
   endloop
 endfacet
 facet normal  2.938959e-16 -1.000000e+00  5.375182e-18
   outer loop
     vertex -2.014364e+01 -1.500000e-01  1.058526e+01
     vertex -2.024000e+01 -1.500000e-01  1.069000e+01
     vertex -2.033253e+01 -1.500000e-01  1.058576e+01
   endloop
 endfacet
 facet normal  2.049509e-16 -1.000000e+00  0.000000e+00
   outer loop
     vertex -2.100000e+01 -1.500000e-01  1.069000e+01
     vertex -2.100000e+01 -1.500000e-01  1.049000e+01
     vertex -2.086457e+01 -1.500000e-01  1.058650e+01
   endloop
 endfacet
 facet normal  2.921640e-16 -1.000000e+00  2.626088e-17
   outer loop
     vertex -2.062000e+01 -1.500000e-01  1.069000e+01
     vertex -2.081000e+01 -1.500000e-01  1.069000e+01
     vertex -2.070565e+01 -1.500000e-01  1.058597e+01
   endloop
 endfacet
 facet normal  1.460820e-16 -1.000000e+00 -7.702962e-17
   outer loop
     vertex -2.081000e+01 -1.500000e-01  1.069000e+01
     vertex -2.100000e+01 -1.500000e-01  1.069000e+01
     vertex -2.086457e+01 -1.500000e-01  1.058650e+01
   endloop
 endfacet
 facet normal  1.743349e-16 -1.000000e+00 -9.192750e-17
   outer loop
     vertex -2.086457e+01 -1.500000e-01  1.058650e+01
     vertex -2.070565e+01 -1.500000e-01  1.058597e+01
     vertex -2.081000e+01 -1.500000e-01  1.069000e+01
   endloop
 endfacet
 facet normal  2.999885e-16 -1.000000e+00  1.981905e-17
   outer loop
     vertex -2.052056e+01 -1.500000e-01  1.058529e+01
     vertex -2.062000e+01 -1.500000e-01  1.069000e+01
     vertex -2.070565e+01 -1.500000e-01  1.058597e+01
   endloop
 endfacet
 facet normal  1.460820e-16 -1.000000e+00  8.261273e-17
   outer loop
     vertex -2.100000e+01 -1.500000e-01  1.049000e+01
     vertex -2.081000e+01 -1.500000e-01  1.049000e+01
     vertex -2.086457e+01 -1.500000e-01  1.058650e+01
   endloop
 endfacet
 facet normal  1.460820e-16 -1.000000e+00 -1.263398e-16
   outer loop
     vertex -2.062000e+01 -1.500000e-01  1.069000e+01
     vertex -2.052056e+01 -1.500000e-01  1.058529e+01
     vertex -2.043000e+01 -1.500000e-01  1.069000e+01
   endloop
 endfacet
 facet normal  1.460820e-16 -1.000000e+00  1.388325e-16
   outer loop
     vertex -2.062000e+01 -1.500000e-01  1.049000e+01
     vertex -2.043000e+01 -1.500000e-01  1.049000e+01
     vertex -2.052056e+01 -1.500000e-01  1.058529e+01
   endloop
 endfacet
 facet normal  2.921640e-16 -1.000000e+00 -2.846851e-17
   outer loop
     vertex -2.081000e+01 -1.500000e-01  1.049000e+01
     vertex -2.062000e+01 -1.500000e-01  1.049000e+01
     vertex -2.070565e+01 -1.500000e-01  1.058597e+01
   endloop
 endfacet
 facet normal  2.998369e-16 -1.000000e+00 -2.162051e-17
   outer loop
     vertex -2.070565e+01 -1.500000e-01  1.058597e+01
     vertex -2.062000e+01 -1.500000e-01  1.049000e+01
     vertex -2.052056e+01 -1.500000e-01  1.058529e+01
   endloop
 endfacet
 facet normal  1.749792e-16 -1.000000e+00  9.895479e-17
   outer loop
     vertex -2.086457e+01 -1.500000e-01  1.058650e+01
     vertex -2.081000e+01 -1.500000e-01  1.049000e+01
     vertex -2.070565e+01 -1.500000e-01  1.058597e+01
   endloop
 endfacet
 facet normal  1.474784e-16 -1.000000e+00 -1.318552e-16
   outer loop
     vertex -1.995500e+01 -1.500000e-01  1.058576e+01
     vertex -2.005000e+01 -1.500000e-01  1.069000e+01
     vertex -2.014364e+01 -1.500000e-01  1.058526e+01
   endloop
 endfacet
 facet normal  1.460820e-16 -1.000000e+00 -1.306067e-16
   outer loop
     vertex -2.014364e+01 -1.500000e-01  1.058526e+01
     vertex -2.005000e+01 -1.500000e-01  1.069000e+01
     vertex -2.024000e+01 -1.500000e-01  1.069000e+01
   endloop
 endfacet
 facet normal  1.474784e-16 -1.000000e+00  1.318552e-16
   outer loop
     vertex -1.976636e+01 -1.500000e-01  1.058526e+01
     vertex -1.986000e+01 -1.500000e-01  1.069000e+01
     vertex -1.995500e+01 -1.500000e-01  1.058576e+01
   endloop
 endfacet
 facet normal  2.921640e-16 -1.000000e+00  0.000000e+00
   outer loop
     vertex -1.995500e+01 -1.500000e-01  1.058576e+01
     vertex -1.986000e+01 -1.500000e-01  1.069000e+01
     vertex -2.005000e+01 -1.500000e-01  1.069000e+01
   endloop
 endfacet
 facet normal  1.467528e-16 -1.000000e+00 -1.442634e-16
   outer loop
     vertex -1.995500e+01 -1.500000e-01  1.058576e+01
     vertex -1.986000e+01 -1.500000e-01  1.049000e+01
     vertex -1.976636e+01 -1.500000e-01  1.058526e+01
   endloop
 endfacet
 facet normal  1.460820e-16 -1.000000e+00 -1.436040e-16
   outer loop
     vertex -1.976636e+01 -1.500000e-01  1.058526e+01
     vertex -1.986000e+01 -1.500000e-01  1.049000e+01
     vertex -1.967000e+01 -1.500000e-01  1.049000e+01
   endloop
 endfacet
 facet normal  1.467528e-16 -1.000000e+00  1.442634e-16
   outer loop
     vertex -2.014364e+01 -1.500000e-01  1.058526e+01
     vertex -2.005000e+01 -1.500000e-01  1.049000e+01
     vertex -1.995500e+01 -1.500000e-01  1.058576e+01
   endloop
 endfacet
 facet normal  2.921640e-16 -1.000000e+00  0.000000e+00
   outer loop
     vertex -1.995500e+01 -1.500000e-01  1.058576e+01
     vertex -2.005000e+01 -1.500000e-01  1.049000e+01
     vertex -1.986000e+01 -1.500000e-01  1.049000e+01
   endloop
 endfacet
 facet normal  1.000000e+00  0.000000e+00  0.000000e+00
   outer loop
     vertex -1.891000e+01 -1.500000e-01  1.049000e+01
     vertex -1.891000e+01 -7.000000e-02  1.049000e+01
     vertex -1.891000e+01 -1.100000e-01  1.052540e+01
   endloop
 endfacet
 facet normal  1.000000e+00  0.000000e+00 -0.000000e+00
   outer loop
     vertex -1.891000e+01 -1.100000e-01  1.058407e+01
     vertex -1.891000e+01 -7.000000e-02  1.069000e+01
     vertex -1.891000e+01 -1.500000e-01  1.069000e+01
   endloop
 endfacet
 facet normal  1.000000e+00  0.000000e+00  0.000000e+00
   outer loop
     vertex -1.891000e+01 -1.500000e-01  1.069000e+01
     vertex -1.891000e+01 -1.500000e-01  1.049000e+01
     vertex -1.891000e+01 -1.100000e-01  1.058407e+01
   endloop
 endfacet
 facet normal  1.000000e+00  0.000000e+00  0.000000e+00
   outer loop
     vertex -1.891000e+01 -7.000000e-02  1.069000e+01
     vertex -1.891000e+01 -1.100000e-01  1.058407e+01
     vertex -1.891000e+01 -7.000000e-02  1.049000e+01
   endloop
 endfacet
 facet normal  1.000000e+00 -0.000000e+00  0.000000e+00
   outer loop
     vertex -1.891000e+01 -1.100000e-01  1.052540e+01
     vertex -1.891000e+01 -7.000000e-02  1.049000e+01
     vertex -1.891000e+01 -1.100000e-01  1.058407e+01
   endloop
 endfacet
 facet normal  1.000000e+00  0.000000e+00 -0.000000e+00
   outer loop
     vertex -1.891000e+01 -1.100000e-01  1.052540e+01
     vertex -1.891000e+01 -1.100000e-01  1.058407e+01
     vertex -1.891000e+01 -1.500000e-01  1.049000e+01
   endloop
 endfacet
 facet normal  0.000000e+00  0.000000e+00 -1.000000e+00
   outer loop
     vertex -1.910000e+01 -1.500000e-01  1.049000e+01
     vertex -1.891000e+01 -7.000000e-02  1.049000e+01
     vertex -1.891000e+01 -1.500000e-01  1.049000e+01
   endloop
 endfacet
 facet normal -0.000000e+00  0.000000e+00 -1.000000e+00
   outer loop
     vertex -1.891000e+01 -7.000000e-02  1.049000e+01
     vertex -1.910000e+01 -1.500000e-01  1.049000e+01
     vertex -1.910000e+01 -7.000000e-02  1.049000e+01
   endloop
 endfacet
 facet normal -0.000000e+00  0.000000e+00 -1.000000e+00
   outer loop
     vertex -1.929000e+01 -7.000000e-02  1.049000e+01
     vertex -1.948000e+01 -1.500000e-01  1.049000e+01
     vertex -1.948000e+01 -7.000000e-02  1.049000e+01
   endloop
 endfacet
 facet normal  0.000000e+00  0.000000e+00 -1.000000e+00
   outer loop
     vertex -1.967000e+01 -1.500000e-01  1.049000e+01
     vertex -1.986000e+01 -7.000000e-02  1.049000e+01
     vertex -1.967000e+01 -7.000000e-02  1.049000e+01
   endloop
 endfacet
 facet normal -0.000000e+00  0.000000e+00 -1.000000e+00
   outer loop
     vertex -1.967000e+01 -1.500000e-01  1.049000e+01
     vertex -1.986000e+01 -1.500000e-01  1.049000e+01
     vertex -1.986000e+01 -7.000000e-02  1.049000e+01
   endloop
 endfacet
 facet normal -0.000000e+00  0.000000e+00 -1.000000e+00
   outer loop
     vertex -1.948000e+01 -1.500000e-01  1.049000e+01
     vertex -1.967000e+01 -1.500000e-01  1.049000e+01
     vertex -1.948000e+01 -7.000000e-02  1.049000e+01
   endloop
 endfacet
 facet normal -0.000000e+00  0.000000e+00 -1.000000e+00
   outer loop
     vertex -1.948000e+01 -7.000000e-02  1.049000e+01
     vertex -1.967000e+01 -1.500000e-01  1.049000e+01
     vertex -1.967000e+01 -7.000000e-02  1.049000e+01
   endloop
 endfacet
 facet normal  0.000000e+00  0.000000e+00 -1.000000e+00
   outer loop
     vertex -1.929000e+01 -1.500000e-01  1.049000e+01
     vertex -1.910000e+01 -7.000000e-02  1.049000e+01
     vertex -1.910000e+01 -1.500000e-01  1.049000e+01
   endloop
 endfacet
 facet normal  0.000000e+00  0.000000e+00 -1.000000e+00
   outer loop
     vertex -1.948000e+01 -1.500000e-01  1.049000e+01
     vertex -1.929000e+01 -7.000000e-02  1.049000e+01
     vertex -1.929000e+01 -1.500000e-01  1.049000e+01
   endloop
 endfacet
 facet normal -0.000000e+00  0.000000e+00 -1.000000e+00
   outer loop
     vertex -1.910000e+01 -7.000000e-02  1.049000e+01
     vertex -1.929000e+01 -1.500000e-01  1.049000e+01
     vertex -1.929000e+01 -7.000000e-02  1.049000e+01
   endloop
 endfacet
 facet normal -0.000000e+00  0.000000e+00 -1.000000e+00
   outer loop
     vertex -2.024000e+01 -1.500000e-01  1.049000e+01
     vertex -2.043000e+01 -1.500000e-01  1.049000e+01
     vertex -2.043000e+01 -7.000000e-02  1.049000e+01
   endloop
 endfacet
 facet normal  0.000000e+00  0.000000e+00 -1.000000e+00
   outer loop
     vertex -2.062000e+01 -1.500000e-01  1.049000e+01
     vertex -2.043000e+01 -7.000000e-02  1.049000e+01
     vertex -2.043000e+01 -1.500000e-01  1.049000e+01
   endloop
 endfacet
 facet normal -0.000000e+00  0.000000e+00 -1.000000e+00
   outer loop
     vertex -2.005000e+01 -1.500000e-01  1.049000e+01
     vertex -2.024000e+01 -1.500000e-01  1.049000e+01
     vertex -2.005000e+01 -7.000000e-02  1.049000e+01
   endloop
 endfacet
 facet normal  0.000000e+00  0.000000e+00 -1.000000e+00
   outer loop
     vertex -2.024000e+01 -1.500000e-01  1.049000e+01
     vertex -2.043000e+01 -7.000000e-02  1.049000e+01
     vertex -2.024000e+01 -7.000000e-02  1.049000e+01
   endloop
 endfacet
 facet normal -0.000000e+00  0.000000e+00 -1.000000e+00
   outer loop
     vertex -2.062000e+01 -7.000000e-02  1.049000e+01
     vertex -2.081000e+01 -1.500000e-01  1.049000e+01
     vertex -2.081000e+01 -7.000000e-02  1.049000e+01
   endloop
 endfacet
 facet normal  0.000000e+00  0.000000e+00 -1.000000e+00
   outer loop
     vertex -2.100000e+01 -1.500000e-01  1.049000e+01
     vertex -2.081000e+01 -7.000000e-02  1.049000e+01
     vertex -2.081000e+01 -1.500000e-01  1.049000e+01
   endloop
 endfacet
 facet normal -0.000000e+00  0.000000e+00 -1.000000e+00
   outer loop
     vertex -2.081000e+01 -7.000000e-02  1.049000e+01
     vertex -2.100000e+01 -1.500000e-01  1.049000e+01
     vertex -2.100000e+01 -7.000000e-02  1.049000e+01
   endloop
 endfacet
 facet normal  0.000000e+00  0.000000e+00 -1.000000e+00
   outer loop
     vertex -2.081000e+01 -1.500000e-01  1.049000e+01
     vertex -2.062000e+01 -7.000000e-02  1.049000e+01
     vertex -2.062000e+01 -1.500000e-01  1.049000e+01
   endloop
 endfacet
 facet normal -0.000000e+00  0.000000e+00 -1.000000e+00
   outer loop
     vertex -2.043000e+01 -7.000000e-02  1.049000e+01
     vertex -2.062000e+01 -1.500000e-01  1.049000e+01
     vertex -2.062000e+01 -7.000000e-02  1.049000e+01
   endloop
 endfacet
 facet normal -0.000000e+00  0.000000e+00 -1.000000e+00
   outer loop
     vertex -2.005000e+01 -7.000000e-02  1.049000e+01
     vertex -2.024000e+01 -1.500000e-01  1.049000e+01
     vertex -2.024000e+01 -7.000000e-02  1.049000e+01
   endloop
 endfacet
 facet normal  0.000000e+00  0.000000e+00 -1.000000e+00
   outer loop
     vertex -2.005000e+01 -1.500000e-01  1.049000e+01
     vertex -1.986000e+01 -7.000000e-02  1.049000e+01
     vertex -1.986000e+01 -1.500000e-01  1.049000e+01
   endloop
 endfacet
 facet normal -0.000000e+00  0.000000e+00 -1.000000e+00
   outer loop
     vertex -1.986000e+01 -7.000000e-02  1.049000e+01
     vertex -2.005000e+01 -1.500000e-01  1.049000e+01
     vertex -2.005000e+01 -7.000000e-02  1.049000e+01
   endloop
 endfacet
endsolid
