solid
 facet normal  0.000000e+00  0.000000e+00 -1.000000e+00
   outer loop
     vertex -3.738100e-01  6.080670e-01  1.500000e+00
     vertex  1.009520e-01  5.613070e-01  1.500000e+00
     vertex -3.104108e-02  3.182787e-01  1.500000e+00
   endloop
 endfacet
 facet normal -0.000000e+00  0.000000e+00 -1.000000e+00
   outer loop
     vertex  1.572379e-01  5.783315e-02  1.500000e+00
     vertex -1.553513e-01  3.380814e-02  1.500000e+00
     vertex -3.104108e-02  3.182787e-01  1.500000e+00
   endloop
 endfacet
 facet normal  0.000000e+00 -0.000000e+00 -1.000000e+00
   outer loop
     vertex -2.397995e-01  2.992297e-01  1.500000e+00
     vertex -1.553513e-01  3.380814e-02  1.500000e+00
     vertex -3.738100e-01  2.026890e-01  1.500000e+00
   endloop
 endfacet
 facet normal  0.000000e+00  0.000000e+00 -1.000000e+00
   outer loop
     vertex -2.397995e-01  2.992297e-01  1.500000e+00
     vertex -3.104108e-02  3.182787e-01  1.500000e+00
     vertex -1.553513e-01  3.380814e-02  1.500000e+00
   endloop
 endfacet
 facet normal  0.000000e+00  0.000000e+00 -1.000000e+00
   outer loop
     vertex -3.738100e-01  6.080670e-01  1.500000e+00
     vertex -2.397995e-01  2.992297e-01  1.500000e+00
     vertex -3.738100e-01  2.026890e-01  1.500000e+00
   endloop
 endfacet
 facet normal -0.000000e+00  0.000000e+00 -1.000000e+00
   outer loop
     vertex -3.104108e-02  3.182787e-01  1.500000e+00
     vertex -2.397995e-01  2.992297e-01  1.500000e+00
     vertex -3.738100e-01  6.080670e-01  1.500000e+00
   endloop
 endfacet
 facet normal -0.000000e+00  0.000000e+00 -1.000000e+00
   outer loop
     vertex  2.998075e-01 -1.850393e-01  1.500000e+00
     vertex  2.210336e-02 -1.996185e-01  1.500000e+00
     vertex  1.572379e-01  5.783315e-02  1.500000e+00
   endloop
 endfacet
 facet normal -0.000000e+00  0.000000e+00 -1.000000e+00
   outer loop
     vertex  1.441054e-01 -3.663167e-01  1.500000e+00
     vertex -7.443380e-02 -4.143634e-01  1.500000e+00
     vertex  2.210336e-02 -1.996185e-01  1.500000e+00
   endloop
 endfacet
 facet normal  0.000000e+00  0.000000e+00 -1.000000e+00
   outer loop
     vertex  3.576979e-01 -3.845625e-01  1.500000e+00
     vertex  1.441054e-01 -3.663167e-01  1.500000e+00
     vertex  2.998075e-01 -1.850393e-01  1.500000e+00
   endloop
 endfacet
 facet normal  0.000000e+00  0.000000e+00 -1.000000e+00
   outer loop
     vertex  2.210336e-02 -1.996185e-01  1.500000e+00
     vertex  2.998075e-01 -1.850393e-01  1.500000e+00
     vertex  1.441054e-01 -3.663167e-01  1.500000e+00
   endloop
 endfacet
 facet normal  0.000000e+00 -0.000000e+00 -1.000000e+00
   outer loop
     vertex  3.576979e-01 -3.845625e-01  1.500000e+00
     vertex  5.757140e-01 -5.145470e-01  1.500000e+00
     vertex  1.009520e-01 -5.613070e-01  1.500000e+00
   endloop
 endfacet
 facet normal  0.000000e+00  0.000000e+00 -1.000000e+00
   outer loop
     vertex -7.443380e-02 -4.143634e-01  1.500000e+00
     vertex  1.441054e-01 -3.663167e-01  1.500000e+00
     vertex  1.009520e-01 -5.613070e-01  1.500000e+00
   endloop
 endfacet
 facet normal  0.000000e+00  0.000000e+00 -1.000000e+00
   outer loop
     vertex -3.738100e-01 -6.080670e-01  1.500000e+00
     vertex -7.443380e-02 -4.143634e-01  1.500000e+00
     vertex  1.009520e-01 -5.613070e-01  1.500000e+00
   endloop
 endfacet
 facet normal  0.000000e+00 -0.000000e+00 -1.000000e+00
   outer loop
     vertex -2.039669e-01 -2.756153e-01  1.500000e+00
     vertex -7.443380e-02 -4.143634e-01  1.500000e+00
     vertex -3.738100e-01 -6.080670e-01  1.500000e+00
   endloop
 endfacet
 facet normal  0.000000e+00  0.000000e+00 -1.000000e+00
   outer loop
     vertex -2.039669e-01 -2.756153e-01  1.500000e+00
     vertex  2.210336e-02 -1.996185e-01  1.500000e+00
     vertex -7.443380e-02 -4.143634e-01  1.500000e+00
   endloop
 endfacet
 facet normal  0.000000e+00  0.000000e+00 -1.000000e+00
   outer loop
     vertex -1.553513e-01  3.380814e-02  1.500000e+00
     vertex  1.572379e-01  5.783315e-02  1.500000e+00
     vertex  2.210336e-02 -1.996185e-01  1.500000e+00
   endloop
 endfacet
 facet normal  0.000000e+00  0.000000e+00 -1.000000e+00
   outer loop
     vertex -2.039669e-01 -2.756153e-01  1.500000e+00
     vertex -3.738100e-01 -2.026890e-01  1.500000e+00
     vertex -1.553513e-01  3.380814e-02  1.500000e+00
   endloop
 endfacet
 facet normal -0.000000e+00  0.000000e+00 -1.000000e+00
   outer loop
     vertex  2.210336e-02 -1.996185e-01  1.500000e+00
     vertex -2.039669e-01 -2.756153e-01  1.500000e+00
     vertex -1.553513e-01  3.380814e-02  1.500000e+00
   endloop
 endfacet
 facet normal  0.000000e+00  0.000000e+00 -1.000000e+00
   outer loop
     vertex -3.738100e-01  2.026890e-01  1.500000e+00
     vertex -1.553513e-01  3.380814e-02  1.500000e+00
     vertex -3.738100e-01 -2.026890e-01  1.500000e+00
   endloop
 endfacet
 facet normal  0.000000e+00  0.000000e+00 -1.000000e+00
   outer loop
     vertex -3.738100e-01 -6.080670e-01  1.500000e+00
     vertex -3.738100e-01 -2.026890e-01  1.500000e+00
     vertex -2.039669e-01 -2.756153e-01  1.500000e+00
   endloop
 endfacet
 facet normal  0.000000e+00  0.000000e+00 -1.000000e+00
   outer loop
     vertex  1.525238e+00  4.210270e-01  1.500000e+00
     vertex  2.000000e+00  3.742670e-01  1.500000e+00
     vertex  1.796601e+00  2.258144e-01  1.500000e+00
   endloop
 endfacet
 facet normal  0.000000e+00  0.000000e+00 -1.000000e+00
   outer loop
     vertex  1.743907e+00  4.327106e-02  1.500000e+00
     vertex  1.461160e+00  9.599461e-02  1.500000e+00
     vertex  1.641685e+00  2.151770e-01  1.500000e+00
   endloop
 endfacet
 facet normal  0.000000e+00  0.000000e+00 -1.000000e+00
   outer loop
     vertex  1.641685e+00  2.151770e-01  1.500000e+00
     vertex  1.796601e+00  2.258144e-01  1.500000e+00
     vertex  1.743907e+00  4.327106e-02  1.500000e+00
   endloop
 endfacet
 facet normal  0.000000e+00  0.000000e+00 -1.000000e+00
   outer loop
     vertex  2.000000e+00  0.000000e+00  1.500000e+00
     vertex  1.796601e+00  2.258144e-01  1.500000e+00
     vertex  2.000000e+00  3.742670e-01  1.500000e+00
   endloop
 endfacet
 facet normal -0.000000e+00  0.000000e+00 -1.000000e+00
   outer loop
     vertex  1.648243e+00 -1.683230e-01  1.500000e+00
     vertex  1.289467e+00 -1.893101e-01  1.500000e+00
     vertex  1.461160e+00  9.599461e-02  1.500000e+00
   endloop
 endfacet
 facet normal  0.000000e+00  0.000000e+00 -1.000000e+00
   outer loop
     vertex  1.648243e+00 -1.683230e-01  1.500000e+00
     vertex  1.525238e+00 -4.210270e-01  1.500000e+00
     vertex  1.289467e+00 -1.893101e-01  1.500000e+00
   endloop
 endfacet
 facet normal  0.000000e+00  0.000000e+00 -1.000000e+00
   outer loop
     vertex  1.050476e+00 -4.677870e-01  1.500000e+00
     vertex  1.289467e+00 -1.893101e-01  1.500000e+00
     vertex  1.525238e+00 -4.210270e-01  1.500000e+00
   endloop
 endfacet
 facet normal  0.000000e+00 -0.000000e+00 -1.000000e+00
   outer loop
     vertex  1.856178e+00 -1.312320e-01  1.500000e+00
     vertex  2.000000e+00 -3.742670e-01  1.500000e+00
     vertex  1.648243e+00 -1.683230e-01  1.500000e+00
   endloop
 endfacet
 facet normal  0.000000e+00  0.000000e+00 -1.000000e+00
   outer loop
     vertex  1.461160e+00  9.599461e-02  1.500000e+00
     vertex  1.743907e+00  4.327106e-02  1.500000e+00
     vertex  1.648243e+00 -1.683230e-01  1.500000e+00
   endloop
 endfacet
 facet normal  0.000000e+00  0.000000e+00 -1.000000e+00
   outer loop
     vertex  1.743907e+00  4.327106e-02  1.500000e+00
     vertex  1.796601e+00  2.258144e-01  1.500000e+00
     vertex  2.000000e+00  0.000000e+00  1.500000e+00
   endloop
 endfacet
 facet normal  0.000000e+00  0.000000e+00 -1.000000e+00
   outer loop
     vertex  1.856178e+00 -1.312320e-01  1.500000e+00
     vertex  1.743907e+00  4.327106e-02  1.500000e+00
     vertex  2.000000e+00  0.000000e+00  1.500000e+00
   endloop
 endfacet
 facet normal -0.000000e+00  0.000000e+00 -1.000000e+00
   outer loop
     vertex  1.856178e+00 -1.312320e-01  1.500000e+00
     vertex  1.648243e+00 -1.683230e-01  1.500000e+00
     vertex  1.743907e+00  4.327106e-02  1.500000e+00
   endloop
 endfacet
 facet normal  0.000000e+00  0.000000e+00 -1.000000e+00
   outer loop
     vertex  2.000000e+00 -3.742670e-01  1.500000e+00
     vertex  1.856178e+00 -1.312320e-01  1.500000e+00
     vertex  2.000000e+00  0.000000e+00  1.500000e+00
   endloop
 endfacet
 facet normal  0.000000e+00  0.000000e+00 -1.000000e+00
   outer loop
     vertex  1.525238e+00 -4.210270e-01  1.500000e+00
     vertex  1.648243e+00 -1.683230e-01  1.500000e+00
     vertex  2.000000e+00 -3.742670e-01  1.500000e+00
   endloop
 endfacet
 facet normal  0.000000e+00  0.000000e+00 -1.000000e+00
   outer loop
     vertex  3.576979e-01 -3.845625e-01  1.500000e+00
     vertex  5.804890e-01 -2.026674e-01  1.500000e+00
     vertex  5.757140e-01 -5.145470e-01  1.500000e+00
   endloop
 endfacet
 facet normal  0.000000e+00  0.000000e+00 -1.000000e+00
   outer loop
     vertex  1.009520e-01 -5.613070e-01  1.500000e+00
     vertex  1.441054e-01 -3.663167e-01  1.500000e+00
     vertex  3.576979e-01 -3.845625e-01  1.500000e+00
   endloop
 endfacet
 facet normal  0.000000e+00  0.000000e+00 -1.000000e+00
   outer loop
     vertex  1.107572e+00  5.563842e-02  1.500000e+00
     vertex  1.461160e+00  9.599461e-02  1.500000e+00
     vertex  1.289467e+00 -1.893101e-01  1.500000e+00
   endloop
 endfacet
 facet normal  0.000000e+00  0.000000e+00 -1.000000e+00
   outer loop
     vertex  7.836420e-01  4.711541e-02  1.500000e+00
     vertex  1.107572e+00  5.563842e-02  1.500000e+00
     vertex  9.105687e-01 -2.121776e-01  1.500000e+00
   endloop
 endfacet
 facet normal -0.000000e+00  0.000000e+00 -1.000000e+00
   outer loop
     vertex  1.289467e+00 -1.893101e-01  1.500000e+00
     vertex  9.105687e-01 -2.121776e-01  1.500000e+00
     vertex  1.107572e+00  5.563842e-02  1.500000e+00
   endloop
 endfacet
 facet normal  0.000000e+00  0.000000e+00 -1.000000e+00
   outer loop
     vertex  2.998075e-01 -1.850393e-01  1.500000e+00
     vertex  5.804890e-01 -2.026674e-01  1.500000e+00
     vertex  3.576979e-01 -3.845625e-01  1.500000e+00
   endloop
 endfacet
 facet normal  0.000000e+00  0.000000e+00 -1.000000e+00
   outer loop
     vertex  4.690663e-01  5.242540e-02  1.500000e+00
     vertex  7.836420e-01  4.711541e-02  1.500000e+00
     vertex  5.804890e-01 -2.026674e-01  1.500000e+00
   endloop
 endfacet
 facet normal  0.000000e+00  0.000000e+00 -1.000000e+00
   outer loop
     vertex  1.572379e-01  5.783315e-02  1.500000e+00
     vertex  4.690663e-01  5.242540e-02  1.500000e+00
     vertex  2.998075e-01 -1.850393e-01  1.500000e+00
   endloop
 endfacet
 facet normal  0.000000e+00  0.000000e+00 -1.000000e+00
   outer loop
     vertex  5.804890e-01 -2.026674e-01  1.500000e+00
     vertex  2.998075e-01 -1.850393e-01  1.500000e+00
     vertex  4.690663e-01  5.242540e-02  1.500000e+00
   endloop
 endfacet
 facet normal  0.000000e+00  0.000000e+00 -1.000000e+00
   outer loop
     vertex  9.105687e-01 -2.121776e-01  1.500000e+00
     vertex  5.804890e-01 -2.026674e-01  1.500000e+00
     vertex  7.836420e-01  4.711541e-02  1.500000e+00
   endloop
 endfacet
 facet normal  0.000000e+00 -0.000000e+00 -1.000000e+00
   outer loop
     vertex  9.105687e-01 -2.121776e-01  1.500000e+00
     vertex  1.050476e+00 -4.677870e-01  1.500000e+00
     vertex  5.757140e-01 -5.145470e-01  1.500000e+00
   endloop
 endfacet
 facet normal  0.000000e+00  0.000000e+00 -1.000000e+00
   outer loop
     vertex  5.757140e-01 -5.145470e-01  1.500000e+00
     vertex  5.804890e-01 -2.026674e-01  1.500000e+00
     vertex  9.105687e-01 -2.121776e-01  1.500000e+00
   endloop
 endfacet
 facet normal  0.000000e+00  0.000000e+00 -1.000000e+00
   outer loop
     vertex  9.105687e-01 -2.121776e-01  1.500000e+00
     vertex  1.289467e+00 -1.893101e-01  1.500000e+00
     vertex  1.050476e+00 -4.677870e-01  1.500000e+00
   endloop
 endfacet
 facet normal  0.000000e+00  0.000000e+00 -1.000000e+00
   outer loop
     vertex  1.221483e+00  2.736554e-01  1.500000e+00
     vertex  1.525238e+00  4.210270e-01  1.500000e+00
     vertex  1.461160e+00  9.599461e-02  1.500000e+00
   endloop
 endfacet
 facet normal -0.000000e+00  0.000000e+00 -1.000000e+00
   outer loop
     vertex  1.796601e+00  2.258144e-01  1.500000e+00
     vertex  1.641685e+00  2.151770e-01  1.500000e+00
     vertex  1.525238e+00  4.210270e-01  1.500000e+00
   endloop
 endfacet
 facet normal -0.000000e+00  0.000000e+00 -1.000000e+00
   outer loop
     vertex  1.641685e+00  2.151770e-01  1.500000e+00
     vertex  1.461160e+00  9.599461e-02  1.500000e+00
     vertex  1.525238e+00  4.210270e-01  1.500000e+00
   endloop
 endfacet
 facet normal  0.000000e+00  0.000000e+00 -1.000000e+00
   outer loop
     vertex -3.104108e-02  3.182787e-01  1.500000e+00
     vertex  3.194382e-01  3.024105e-01  1.500000e+00
     vertex  1.572379e-01  5.783315e-02  1.500000e+00
   endloop
 endfacet
 facet normal  0.000000e+00  0.000000e+00 -1.000000e+00
   outer loop
     vertex -3.104108e-02  3.182787e-01  1.500000e+00
     vertex  1.009520e-01  5.613070e-01  1.500000e+00
     vertex  3.194382e-01  3.024105e-01  1.500000e+00
   endloop
 endfacet
 facet normal -0.000000e+00  0.000000e+00 -1.000000e+00
   outer loop
     vertex  5.757140e-01  5.145470e-01  1.500000e+00
     vertex  3.194382e-01  3.024105e-01  1.500000e+00
     vertex  1.009520e-01  5.613070e-01  1.500000e+00
   endloop
 endfacet
 facet normal  0.000000e+00  0.000000e+00 -1.000000e+00
   outer loop
     vertex  4.690663e-01  5.242540e-02  1.500000e+00
     vertex  1.572379e-01  5.783315e-02  1.500000e+00
     vertex  3.194382e-01  3.024105e-01  1.500000e+00
   endloop
 endfacet
 facet normal  0.000000e+00  0.000000e+00 -1.000000e+00
   outer loop
     vertex  7.836420e-01  4.711541e-02  1.500000e+00
     vertex  4.690663e-01  5.242540e-02  1.500000e+00
     vertex  6.199820e-01  2.538275e-01  1.500000e+00
   endloop
 endfacet
 facet normal  0.000000e+00  0.000000e+00 -1.000000e+00
   outer loop
     vertex  3.194382e-01  3.024105e-01  1.500000e+00
     vertex  6.199820e-01  2.538275e-01  1.500000e+00
     vertex  4.690663e-01  5.242540e-02  1.500000e+00
   endloop
 endfacet
 facet normal -0.000000e+00  0.000000e+00 -1.000000e+00
   outer loop
     vertex  1.107572e+00  5.563842e-02  1.500000e+00
     vertex  7.836420e-01  4.711541e-02  1.500000e+00
     vertex  9.041141e-01  2.795821e-01  1.500000e+00
   endloop
 endfacet
 facet normal  0.000000e+00  0.000000e+00 -1.000000e+00
   outer loop
     vertex  1.221483e+00  2.736554e-01  1.500000e+00
     vertex  9.041141e-01  2.795821e-01  1.500000e+00
     vertex  1.050476e+00  4.677870e-01  1.500000e+00
   endloop
 endfacet
 facet normal -0.000000e+00  0.000000e+00 -1.000000e+00
   outer loop
     vertex  1.525238e+00  4.210270e-01  1.500000e+00
     vertex  1.221483e+00  2.736554e-01  1.500000e+00
     vertex  1.050476e+00  4.677870e-01  1.500000e+00
   endloop
 endfacet
 facet normal -0.000000e+00  0.000000e+00 -1.000000e+00
   outer loop
     vertex  1.461160e+00  9.599461e-02  1.500000e+00
     vertex  1.107572e+00  5.563842e-02  1.500000e+00
     vertex  1.221483e+00  2.736554e-01  1.500000e+00
   endloop
 endfacet
 facet normal  0.000000e+00  0.000000e+00 -1.000000e+00
   outer loop
     vertex  9.041141e-01  2.795821e-01  1.500000e+00
     vertex  1.221483e+00  2.736554e-01  1.500000e+00
     vertex  1.107572e+00  5.563842e-02  1.500000e+00
   endloop
 endfacet
 facet normal  0.000000e+00  0.000000e+00 -1.000000e+00
   outer loop
     vertex  6.199820e-01  2.538275e-01  1.500000e+00
     vertex  9.041141e-01  2.795821e-01  1.500000e+00
     vertex  7.836420e-01  4.711541e-02  1.500000e+00
   endloop
 endfacet
 facet normal  0.000000e+00  0.000000e+00 -1.000000e+00
   outer loop
     vertex  5.757140e-01  5.145470e-01  1.500000e+00
     vertex  1.050476e+00  4.677870e-01  1.500000e+00
     vertex  9.041141e-01  2.795821e-01  1.500000e+00
   endloop
 endfacet
 facet normal -0.000000e+00  0.000000e+00 -1.000000e+00
   outer loop
     vertex  9.041141e-01  2.795821e-01  1.500000e+00
     vertex  6.199820e-01  2.538275e-01  1.500000e+00
     vertex  5.757140e-01  5.145470e-01  1.500000e+00
   endloop
 endfacet
 facet normal  0.000000e+00  0.000000e+00 -1.000000e+00
   outer loop
     vertex  6.199820e-01  2.538275e-01  1.500000e+00
     vertex  3.194382e-01  3.024105e-01  1.500000e+00
     vertex  5.757140e-01  5.145470e-01  1.500000e+00
   endloop
 endfacet
endsolid
