solid
 facet normal -1.481927e-16  7.216663e-01  6.922411e-01
   outer loop
     vertex -2.954333e-03 -7.665732e-04  2.096919e-02
     vertex -2.945387e-03 -1.493236e-04  2.032570e-02
     vertex -3.750000e-03 -3.798298e-04  2.056600e-02
   endloop
 endfacet
 facet normal -1.430386e-15  7.216663e-01  6.922411e-01
   outer loop
     vertex -2.146439e-03 -4.722277e-04  2.066233e-02
     vertex -2.221310e-03  6.977907e-06  2.016275e-02
     vertex -2.945387e-03 -1.493236e-04  2.032570e-02
   endloop
 endfacet
 facet normal  1.050585e-15  7.216663e-01  6.922411e-01
   outer loop
     vertex -2.132677e-03 -1.114868e-03  2.133229e-02
     vertex -2.146439e-03 -4.722277e-04  2.066233e-02
     vertex -2.954333e-03 -7.665732e-04  2.096919e-02
   endloop
 endfacet
 facet normal  3.693955e-16  7.216663e-01  6.922411e-01
   outer loop
     vertex -2.945387e-03 -1.493236e-04  2.032570e-02
     vertex -2.954333e-03 -7.665732e-04  2.096919e-02
     vertex -2.146439e-03 -4.722277e-04  2.066233e-02
   endloop
 endfacet
 facet normal  0.000000e+00  7.216663e-01  6.922411e-01
   outer loop
     vertex -2.812500e-03  3.124113e-04  1.984434e-02
     vertex -3.750000e-03  3.124113e-04  1.984434e-02
     vertex -2.945387e-03 -1.493236e-04  2.032570e-02
   endloop
 endfacet
 facet normal -4.382746e-16  7.216663e-01  6.922411e-01
   outer loop
     vertex -2.945387e-03 -1.493236e-04  2.032570e-02
     vertex -2.221310e-03  6.977907e-06  2.016275e-02
     vertex -2.812500e-03  3.124113e-04  1.984434e-02
   endloop
 endfacet
 facet normal -2.395253e-15  7.216663e-01  6.922411e-01
   outer loop
     vertex -3.750000e-03 -3.798298e-04  2.056600e-02
     vertex -3.750000e-03 -1.072071e-03  2.128767e-02
     vertex -2.954333e-03 -7.665732e-04  2.096919e-02
   endloop
 endfacet
 facet normal  1.677775e-15  7.216663e-01  6.922411e-01
   outer loop
     vertex -3.750000e-03 -3.798298e-04  2.056600e-02
     vertex -2.945387e-03 -1.493236e-04  2.032570e-02
     vertex -3.750000e-03  3.124113e-04  1.984434e-02
   endloop
 endfacet
 facet normal -1.762686e-15  7.216663e-01  6.922411e-01
   outer loop
     vertex -2.127926e-03 -1.796605e-03  2.204300e-02
     vertex -2.132677e-03 -1.114868e-03  2.133229e-02
     vertex -2.953791e-03 -1.442436e-03  2.167378e-02
   endloop
 endfacet
 facet normal  1.540202e-15  7.216663e-01  6.922411e-01
   outer loop
     vertex -2.953435e-03 -2.129615e-03  2.239017e-02
     vertex -2.953791e-03 -1.442436e-03  2.167378e-02
     vertex -3.750000e-03 -1.764312e-03  2.200934e-02
   endloop
 endfacet
 facet normal  6.981398e-16  7.216663e-01  6.922411e-01
   outer loop
     vertex -2.953791e-03 -1.442436e-03  2.167378e-02
     vertex -3.750000e-03 -1.072071e-03  2.128767e-02
     vertex -3.750000e-03 -1.764312e-03  2.200934e-02
   endloop
 endfacet
 facet normal -1.292997e-16  7.216663e-01  6.922411e-01
   outer loop
     vertex -2.129809e-03 -2.484035e-03  2.275965e-02
     vertex -2.127926e-03 -1.796605e-03  2.204300e-02
     vertex -2.953435e-03 -2.129615e-03  2.239017e-02
   endloop
 endfacet
 facet normal -1.291770e-15  7.216663e-01  6.922411e-01
   outer loop
     vertex -2.953791e-03 -1.442436e-03  2.167378e-02
     vertex -2.953435e-03 -2.129615e-03  2.239017e-02
     vertex -2.127926e-03 -1.796605e-03  2.204300e-02
   endloop
 endfacet
 facet normal  1.228771e-15  7.216663e-01  6.922411e-01
   outer loop
     vertex -2.127436e-03 -3.171118e-03  2.347594e-02
     vertex -2.129809e-03 -2.484035e-03  2.275965e-02
     vertex -2.953381e-03 -2.818672e-03  2.310851e-02
   endloop
 endfacet
 facet normal  6.673695e-17  7.216663e-01  6.922411e-01
   outer loop
     vertex -2.953390e-03 -3.507995e-03  2.382714e-02
     vertex -2.953381e-03 -2.818672e-03  2.310851e-02
     vertex -3.750000e-03 -3.148794e-03  2.345267e-02
   endloop
 endfacet
 facet normal  6.645534e-17  7.216663e-01  6.922411e-01
   outer loop
     vertex -2.953381e-03 -2.818672e-03  2.310851e-02
     vertex -3.750000e-03 -2.456553e-03  2.273100e-02
     vertex -3.750000e-03 -3.148794e-03  2.345267e-02
   endloop
 endfacet
 facet normal  7.746594e-16  7.216663e-01  6.922411e-01
   outer loop
     vertex -2.129606e-03 -3.859313e-03  2.419339e-02
     vertex -2.127436e-03 -3.171118e-03  2.347594e-02
     vertex -2.953390e-03 -3.507995e-03  2.382714e-02
   endloop
 endfacet
 facet normal  1.287332e-15  7.216663e-01  6.922411e-01
   outer loop
     vertex -2.953381e-03 -2.818672e-03  2.310851e-02
     vertex -2.953390e-03 -3.507995e-03  2.382714e-02
     vertex -2.127436e-03 -3.171118e-03  2.347594e-02
   endloop
 endfacet
 facet normal  7.749050e-16  7.216663e-01  6.922411e-01
   outer loop
     vertex -2.953435e-03 -2.129615e-03  2.239017e-02
     vertex -2.953381e-03 -2.818672e-03  2.310851e-02
     vertex -2.129809e-03 -2.484035e-03  2.275965e-02
   endloop
 endfacet
 facet normal -9.241968e-16  7.216663e-01  6.922411e-01
   outer loop
     vertex -2.954333e-03 -7.665732e-04  2.096919e-02
     vertex -2.953791e-03 -1.442436e-03  2.167378e-02
     vertex -2.132677e-03 -1.114868e-03  2.133229e-02
   endloop
 endfacet
 facet normal  4.673541e-16  7.216663e-01  6.922411e-01
   outer loop
     vertex -2.953381e-03 -2.818672e-03  2.310851e-02
     vertex -2.953435e-03 -2.129615e-03  2.239017e-02
     vertex -3.750000e-03 -2.456553e-03  2.273100e-02
   endloop
 endfacet
 facet normal  8.972077e-16  7.216663e-01  6.922411e-01
   outer loop
     vertex -2.953435e-03 -2.129615e-03  2.239017e-02
     vertex -3.750000e-03 -1.764312e-03  2.200934e-02
     vertex -3.750000e-03 -2.456553e-03  2.273100e-02
   endloop
 endfacet
 facet normal -1.703153e-15  7.216663e-01  6.922411e-01
   outer loop
     vertex -2.953791e-03 -1.442436e-03  2.167378e-02
     vertex -2.954333e-03 -7.665732e-04  2.096919e-02
     vertex -3.750000e-03 -1.072071e-03  2.128767e-02
   endloop
 endfacet
 facet normal  0.000000e+00  7.216663e-01  6.922411e-01
   outer loop
     vertex  2.216878e-03 -1.555286e-04  2.033217e-02
     vertex  2.812500e-03  3.124113e-04  1.984434e-02
     vertex  1.875000e-03  3.124113e-04  1.984434e-02
   endloop
 endfacet
 facet normal -5.746292e-16  7.216663e-01  6.922411e-01
   outer loop
     vertex  1.348557e-03  6.985618e-06  2.016275e-02
     vertex  2.216878e-03 -1.555286e-04  2.033217e-02
     vertex  1.875000e-03  3.124113e-04  1.984434e-02
   endloop
 endfacet
 facet normal -9.858637e-16  7.216663e-01  6.922411e-01
   outer loop
     vertex  2.986716e-03 -5.843343e-04  2.077920e-02
     vertex  3.095688e-03 -6.560037e-05  2.023842e-02
     vertex  2.216878e-03 -1.555286e-04  2.033217e-02
   endloop
 endfacet
 facet normal -6.147660e-16  7.216663e-01  6.922411e-01
   outer loop
     vertex  2.216878e-03 -1.555286e-04  2.033217e-02
     vertex  3.095688e-03 -6.560037e-05  2.023842e-02
     vertex  2.812500e-03  3.124113e-04  1.984434e-02
   endloop
 endfacet
 facet normal -8.090874e-17  7.216663e-01  6.922411e-01
   outer loop
     vertex  3.750000e-03 -3.798298e-04  2.056600e-02
     vertex  3.750000e-03  3.124113e-04  1.984434e-02
     vertex  3.095688e-03 -6.560037e-05  2.023842e-02
   endloop
 endfacet
 facet normal  1.127882e-15  7.216663e-01  6.922411e-01
   outer loop
     vertex  3.095688e-03 -6.560037e-05  2.023842e-02
     vertex  2.986716e-03 -5.843343e-04  2.077920e-02
     vertex  3.750000e-03 -3.798298e-04  2.056600e-02
   endloop
 endfacet
 facet normal -0.000000e+00  7.216663e-01  6.922411e-01
   outer loop
     vertex  2.812500e-03  3.124113e-04  1.984434e-02
     vertex  3.095688e-03 -6.560037e-05  2.023842e-02
     vertex  3.750000e-03  3.124113e-04  1.984434e-02
   endloop
 endfacet
 facet normal -0.000000e+00  7.216663e-01  6.922411e-01
   outer loop
     vertex  9.375000e-04  3.124113e-04  1.984434e-02
     vertex  1.348557e-03  6.985618e-06  2.016275e-02
     vertex  1.875000e-03  3.124113e-04  1.984434e-02
   endloop
 endfacet
 facet normal -1.381763e-15  7.216663e-01  6.922411e-01
   outer loop
     vertex -1.280757e-03 -4.204874e-03  2.455364e-02
     vertex -1.280419e-03 -3.517632e-03  2.383718e-02
     vertex -2.129606e-03 -3.859313e-03  2.419339e-02
   endloop
 endfacet
 facet normal  4.984655e-16  7.216663e-01  6.922411e-01
   outer loop
     vertex -4.240016e-04 -3.861950e-03  2.419614e-02
     vertex -4.244947e-04 -3.174988e-03  2.347998e-02
     vertex -1.280419e-03 -3.517632e-03  2.383718e-02
   endloop
 endfacet
 facet normal -6.849502e-16  7.216663e-01  6.922411e-01
   outer loop
     vertex -4.244272e-04 -4.549054e-03  2.491245e-02
     vertex -4.240016e-04 -3.861950e-03  2.419614e-02
     vertex -1.280757e-03 -4.204874e-03  2.455364e-02
   endloop
 endfacet
 facet normal -5.602724e-16  7.216663e-01  6.922411e-01
   outer loop
     vertex -1.280419e-03 -3.517632e-03  2.383718e-02
     vertex -1.280757e-03 -4.204874e-03  2.455364e-02
     vertex -4.240016e-04 -3.861950e-03  2.419614e-02
   endloop
 endfacet
 facet normal  1.055964e-15  7.216663e-01  6.922411e-01
   outer loop
     vertex  4.341518e-04 -3.520138e-03  2.383980e-02
     vertex  4.341199e-04 -2.833021e-03  2.312347e-02
     vertex -4.244947e-04 -3.174988e-03  2.347998e-02
   endloop
 endfacet
 facet normal -1.181964e-15  7.216663e-01  6.922411e-01
   outer loop
     vertex  1.290846e-03 -3.183638e-03  2.348899e-02
     vertex  1.291009e-03 -2.496091e-03  2.277222e-02
     vertex  4.341199e-04 -2.833021e-03  2.312347e-02
   endloop
 endfacet
 facet normal -5.608568e-16  7.216663e-01  6.922411e-01
   outer loop
     vertex  1.291136e-03 -3.869964e-03  2.420449e-02
     vertex  1.290846e-03 -3.183638e-03  2.348899e-02
     vertex  4.341518e-04 -3.520138e-03  2.383980e-02
   endloop
 endfacet
 facet normal -8.715673e-16  7.216663e-01  6.922411e-01
   outer loop
     vertex  4.341199e-04 -2.833021e-03  2.312347e-02
     vertex  4.341518e-04 -3.520138e-03  2.383980e-02
     vertex  1.290846e-03 -3.183638e-03  2.348899e-02
   endloop
 endfacet
 facet normal  3.106658e-16  7.216663e-01  6.922411e-01
   outer loop
     vertex  4.340211e-04 -4.894221e-03  2.527229e-02
     vertex  4.341525e-04 -4.207205e-03  2.455607e-02
     vertex -4.244272e-04 -4.549054e-03  2.491245e-02
   endloop
 endfacet
 facet normal  7.459292e-16  7.216663e-01  6.922411e-01
   outer loop
     vertex  1.290667e-03 -4.558085e-03  2.492186e-02
     vertex  1.291136e-03 -3.869964e-03  2.420449e-02
     vertex  4.341525e-04 -4.207205e-03  2.455607e-02
   endloop
 endfacet
 facet normal  5.612216e-16  7.216663e-01  6.922411e-01
   outer loop
     vertex  1.290423e-03 -5.244213e-03  2.563716e-02
     vertex  1.290667e-03 -4.558085e-03  2.492186e-02
     vertex  4.340211e-04 -4.894221e-03  2.527229e-02
   endloop
 endfacet
 facet normal  1.307740e-15  7.216663e-01  6.922411e-01
   outer loop
     vertex  4.341525e-04 -4.207205e-03  2.455607e-02
     vertex  4.340211e-04 -4.894221e-03  2.527229e-02
     vertex  1.290667e-03 -4.558085e-03  2.492186e-02
   endloop
 endfacet
 facet normal -6.223943e-17  7.216663e-01  6.922411e-01
   outer loop
     vertex  4.341518e-04 -3.520138e-03  2.383980e-02
     vertex  4.341525e-04 -4.207205e-03  2.455607e-02
     vertex  1.291136e-03 -3.869964e-03  2.420449e-02
   endloop
 endfacet
 facet normal  8.699015e-16  7.216663e-01  6.922411e-01
   outer loop
     vertex -4.240016e-04 -3.861950e-03  2.419614e-02
     vertex -4.244272e-04 -4.549054e-03  2.491245e-02
     vertex  4.341525e-04 -4.207205e-03  2.455607e-02
   endloop
 endfacet
 facet normal  1.491514e-15  7.216663e-01  6.922411e-01
   outer loop
     vertex -4.244947e-04 -3.174988e-03  2.347998e-02
     vertex -4.240016e-04 -3.861950e-03  2.419614e-02
     vertex  4.341518e-04 -3.520138e-03  2.383980e-02
   endloop
 endfacet
 facet normal  1.616020e-15  7.216663e-01  6.922411e-01
   outer loop
     vertex  4.341525e-04 -4.207205e-03  2.455607e-02
     vertex  4.341518e-04 -3.520138e-03  2.383980e-02
     vertex -4.240016e-04 -3.861950e-03  2.419614e-02
   endloop
 endfacet
 facet normal  5.025254e-16  7.216663e-01  6.922411e-01
   outer loop
     vertex  2.137058e-03 -2.874423e-03  2.316663e-02
     vertex  2.137814e-03 -2.185197e-03  2.244811e-02
     vertex  1.291009e-03 -2.496091e-03  2.277222e-02
   endloop
 endfacet
 facet normal -1.795791e-15  7.216663e-01  6.922411e-01
   outer loop
     vertex  2.957721e-03 -2.630334e-03  2.291217e-02
     vertex  2.960488e-03 -1.934929e-03  2.218721e-02
     vertex  2.137814e-03 -2.185197e-03  2.244811e-02
   endloop
 endfacet
 facet normal -6.534353e-17  7.216663e-01  6.922411e-01
   outer loop
     vertex  2.960238e-03 -3.312978e-03  2.362383e-02
     vertex  2.957721e-03 -2.630334e-03  2.291217e-02
     vertex  2.137058e-03 -2.874423e-03  2.316663e-02
   endloop
 endfacet
 facet normal -7.777395e-16  7.216663e-01  6.922411e-01
   outer loop
     vertex  2.137814e-03 -2.185197e-03  2.244811e-02
     vertex  2.137058e-03 -2.874423e-03  2.316663e-02
     vertex  2.957721e-03 -2.630334e-03  2.291217e-02
   endloop
 endfacet
 facet normal  1.950912e-15  7.216663e-01  6.922411e-01
   outer loop
     vertex  3.750000e-03 -1.764312e-03  2.200934e-02
     vertex  3.750000e-03 -1.072071e-03  2.128767e-02
     vertex  2.963062e-03 -1.252487e-03  2.147576e-02
   endloop
 endfacet
 facet normal  2.672775e-16  7.216663e-01  6.922411e-01
   outer loop
     vertex  3.750000e-03 -3.148794e-03  2.345267e-02
     vertex  3.750000e-03 -2.456553e-03  2.273100e-02
     vertex  2.957721e-03 -2.630334e-03  2.291217e-02
   endloop
 endfacet
 facet normal  3.396133e-16  7.216663e-01  6.922411e-01
   outer loop
     vertex  2.957721e-03 -2.630334e-03  2.291217e-02
     vertex  2.960238e-03 -3.312978e-03  2.362383e-02
     vertex  3.750000e-03 -3.148794e-03  2.345267e-02
   endloop
 endfacet
 facet normal  1.331469e-16  7.216663e-01  6.922411e-01
   outer loop
     vertex  2.960488e-03 -1.934929e-03  2.218721e-02
     vertex  2.957721e-03 -2.630334e-03  2.291217e-02
     vertex  3.750000e-03 -2.456553e-03  2.273100e-02
   endloop
 endfacet
 facet normal  9.512324e-16  7.216663e-01  6.922411e-01
   outer loop
     vertex  2.132172e-03 -5.620336e-03  2.602927e-02
     vertex  2.136958e-03 -4.935945e-03  2.531579e-02
     vertex  1.290423e-03 -5.244213e-03  2.563716e-02
   endloop
 endfacet
 facet normal -3.352677e-16  7.216663e-01  6.922411e-01
   outer loop
     vertex  3.750000e-03 -2.456553e-03  2.273100e-02
     vertex  3.750000e-03 -1.764312e-03  2.200934e-02
     vertex  2.960488e-03 -1.934929e-03  2.218721e-02
   endloop
 endfacet
 facet normal  6.435733e-16  7.216663e-01  6.922411e-01
   outer loop
     vertex  2.954535e-03 -5.385062e-03  2.578399e-02
     vertex  2.960010e-03 -4.691586e-03  2.506104e-02
     vertex  2.136958e-03 -4.935945e-03  2.531579e-02
   endloop
 endfacet
 facet normal  6.070785e-16  7.216663e-01  6.922411e-01
   outer loop
     vertex  2.938163e-03 -6.050396e-03  2.647761e-02
     vertex  2.954535e-03 -5.385062e-03  2.578399e-02
     vertex  2.132172e-03 -5.620336e-03  2.602927e-02
   endloop
 endfacet
 facet normal  1.370119e-15  7.216663e-01  6.922411e-01
   outer loop
     vertex  2.136958e-03 -4.935945e-03  2.531579e-02
     vertex  2.132172e-03 -5.620336e-03  2.602927e-02
     vertex  2.954535e-03 -5.385062e-03  2.578399e-02
   endloop
 endfacet
 facet normal -6.691684e-17  7.216663e-01  6.922411e-01
   outer loop
     vertex  3.750000e-03 -4.533277e-03  2.489600e-02
     vertex  3.750000e-03 -3.841035e-03  2.417433e-02
     vertex  2.958875e-03 -4.005807e-03  2.434611e-02
   endloop
 endfacet
 facet normal -2.462415e-15  7.216663e-01  6.922411e-01
   outer loop
     vertex  3.750000e-03 -5.917759e-03  2.633933e-02
     vertex  3.750000e-03 -5.225518e-03  2.561767e-02
     vertex  2.954535e-03 -5.385062e-03  2.578399e-02
   endloop
 endfacet
 facet normal -4.087237e-16  7.216663e-01  6.922411e-01
   outer loop
     vertex  2.954535e-03 -5.385062e-03  2.578399e-02
     vertex  2.938163e-03 -6.050396e-03  2.647761e-02
     vertex  3.750000e-03 -5.917759e-03  2.633933e-02
   endloop
 endfacet
 facet normal -2.328852e-15  7.216663e-01  6.922411e-01
   outer loop
     vertex  2.960010e-03 -4.691586e-03  2.506104e-02
     vertex  2.954535e-03 -5.385062e-03  2.578399e-02
     vertex  3.750000e-03 -5.225518e-03  2.561767e-02
   endloop
 endfacet
 facet normal  4.690908e-16  7.216663e-01  6.922411e-01
   outer loop
     vertex  3.750000e-03 -5.225518e-03  2.561767e-02
     vertex  3.750000e-03 -4.533277e-03  2.489600e-02
     vertex  2.960010e-03 -4.691586e-03  2.506104e-02
   endloop
 endfacet
 facet normal  8.790858e-16  7.216663e-01  6.922411e-01
   outer loop
     vertex  2.958875e-03 -4.005807e-03  2.434611e-02
     vertex  2.960010e-03 -4.691586e-03  2.506104e-02
     vertex  3.750000e-03 -4.533277e-03  2.489600e-02
   endloop
 endfacet
 facet normal  6.688744e-17  7.216663e-01  6.922411e-01
   outer loop
     vertex  2.960238e-03 -3.312978e-03  2.362383e-02
     vertex  2.958875e-03 -4.005807e-03  2.434611e-02
     vertex  3.750000e-03 -3.841035e-03  2.417433e-02
   endloop
 endfacet
 facet normal  1.953306e-16  7.216663e-01  6.922411e-01
   outer loop
     vertex  2.136006e-03 -4.252377e-03  2.460316e-02
     vertex  2.136958e-03 -4.935945e-03  2.531579e-02
     vertex  2.960010e-03 -4.691586e-03  2.506104e-02
   endloop
 endfacet
 facet normal  4.021939e-16  7.216663e-01  6.922411e-01
   outer loop
     vertex  3.750000e-03 -3.841035e-03  2.417433e-02
     vertex  3.750000e-03 -3.148794e-03  2.345267e-02
     vertex  2.960238e-03 -3.312978e-03  2.362383e-02
   endloop
 endfacet
 facet normal  6.310216e-17  7.216663e-01  6.922411e-01
   outer loop
     vertex  1.290667e-03 -4.558085e-03  2.492186e-02
     vertex  1.290423e-03 -5.244213e-03  2.563716e-02
     vertex  2.136958e-03 -4.935945e-03  2.531579e-02
   endloop
 endfacet
 facet normal -7.561883e-16  7.216663e-01  6.922411e-01
   outer loop
     vertex  1.291136e-03 -3.869964e-03  2.420449e-02
     vertex  1.290667e-03 -4.558085e-03  2.492186e-02
     vertex  2.136006e-03 -4.252377e-03  2.460316e-02
   endloop
 endfacet
 facet normal -1.077595e-15  7.216663e-01  6.922411e-01
   outer loop
     vertex  2.136958e-03 -4.935945e-03  2.531579e-02
     vertex  2.136006e-03 -4.252377e-03  2.460316e-02
     vertex  1.290667e-03 -4.558085e-03  2.492186e-02
   endloop
 endfacet
 facet normal -2.568315e-16  7.216663e-01  6.922411e-01
   outer loop
     vertex  2.137058e-03 -2.874423e-03  2.316663e-02
     vertex  2.135258e-03 -3.566818e-03  2.388846e-02
     vertex  2.960238e-03 -3.312978e-03  2.362383e-02
   endloop
 endfacet
 facet normal -6.324648e-17  7.216663e-01  6.922411e-01
   outer loop
     vertex  1.290846e-03 -3.183638e-03  2.348899e-02
     vertex  1.291136e-03 -3.869964e-03  2.420449e-02
     vertex  2.135258e-03 -3.566818e-03  2.388846e-02
   endloop
 endfacet
 facet normal -5.669383e-16  7.216663e-01  6.922411e-01
   outer loop
     vertex  1.291009e-03 -2.496091e-03  2.277222e-02
     vertex  1.290846e-03 -3.183638e-03  2.348899e-02
     vertex  2.137058e-03 -2.874423e-03  2.316663e-02
   endloop
 endfacet
 facet normal -3.756374e-16  7.216663e-01  6.922411e-01
   outer loop
     vertex  2.135258e-03 -3.566818e-03  2.388846e-02
     vertex  2.137058e-03 -2.874423e-03  2.316663e-02
     vertex  1.290846e-03 -3.183638e-03  2.348899e-02
   endloop
 endfacet
 facet normal -2.532080e-16  7.216663e-01  6.922411e-01
   outer loop
     vertex  2.136006e-03 -4.252377e-03  2.460316e-02
     vertex  2.135258e-03 -3.566818e-03  2.388846e-02
     vertex  1.291136e-03 -3.869964e-03  2.420449e-02
   endloop
 endfacet
 facet normal -1.924652e-16  7.216663e-01  6.922411e-01
   outer loop
     vertex  2.958875e-03 -4.005807e-03  2.434611e-02
     vertex  2.960238e-03 -3.312978e-03  2.362383e-02
     vertex  2.135258e-03 -3.566818e-03  2.388846e-02
   endloop
 endfacet
 facet normal  6.490936e-16  7.216663e-01  6.922411e-01
   outer loop
     vertex  2.960010e-03 -4.691586e-03  2.506104e-02
     vertex  2.958875e-03 -4.005807e-03  2.434611e-02
     vertex  2.136006e-03 -4.252377e-03  2.460316e-02
   endloop
 endfacet
 facet normal  7.143526e-16  7.216663e-01  6.922411e-01
   outer loop
     vertex  2.135258e-03 -3.566818e-03  2.388846e-02
     vertex  2.136006e-03 -4.252377e-03  2.460316e-02
     vertex  2.958875e-03 -4.005807e-03  2.434611e-02
   endloop
 endfacet
 facet normal -2.722875e-16  7.216663e-01  6.922411e-01
   outer loop
     vertex  2.963062e-03 -1.252487e-03  2.147576e-02
     vertex  2.960488e-03 -1.934929e-03  2.218721e-02
     vertex  3.750000e-03 -1.764312e-03  2.200934e-02
   endloop
 endfacet
 facet normal  2.459397e-15  7.216663e-01  6.922411e-01
   outer loop
     vertex  2.986716e-03 -5.843343e-04  2.077920e-02
     vertex  2.963062e-03 -1.252487e-03  2.147576e-02
     vertex  3.750000e-03 -1.072071e-03  2.128767e-02
   endloop
 endfacet
 facet normal -1.696455e-15  7.216663e-01  6.922411e-01
   outer loop
     vertex  2.138127e-03 -1.502385e-03  2.173628e-02
     vertex  2.137814e-03 -2.185197e-03  2.244811e-02
     vertex  2.960488e-03 -1.934929e-03  2.218721e-02
   endloop
 endfacet
 facet normal  1.387152e-15  7.216663e-01  6.922411e-01
   outer loop
     vertex  3.750000e-03 -1.072071e-03  2.128767e-02
     vertex  3.750000e-03 -3.798298e-04  2.056600e-02
     vertex  2.986716e-03 -5.843343e-04  2.077920e-02
   endloop
 endfacet
 facet normal  1.013106e-15  7.216663e-01  6.922411e-01
   outer loop
     vertex  1.290217e-03 -1.812911e-03  2.206000e-02
     vertex  1.291009e-03 -2.496091e-03  2.277222e-02
     vertex  2.137814e-03 -2.185197e-03  2.244811e-02
   endloop
 endfacet
 facet normal  5.672479e-16  7.216663e-01  6.922411e-01
   outer loop
     vertex  1.294194e-03 -1.125717e-03  2.134360e-02
     vertex  1.290217e-03 -1.812911e-03  2.206000e-02
     vertex  2.138127e-03 -1.502385e-03  2.173628e-02
   endloop
 endfacet
 facet normal  5.697736e-16  7.216663e-01  6.922411e-01
   outer loop
     vertex  2.137814e-03 -2.185197e-03  2.244811e-02
     vertex  2.138127e-03 -1.502385e-03  2.173628e-02
     vertex  1.290217e-03 -1.812911e-03  2.206000e-02
   endloop
 endfacet
 facet normal -2.018660e-16  7.216663e-01  6.922411e-01
   outer loop
     vertex  2.216878e-03 -1.555286e-04  2.033217e-02
     vertex  2.151153e-03 -8.263702e-04  2.103153e-02
     vertex  2.986716e-03 -5.843343e-04  2.077920e-02
   endloop
 endfacet
 facet normal -6.690600e-16  7.216663e-01  6.922411e-01
   outer loop
     vertex  1.310876e-03 -4.807250e-04  2.067119e-02
     vertex  1.294194e-03 -1.125717e-03  2.134360e-02
     vertex  2.151153e-03 -8.263702e-04  2.103153e-02
   endloop
 endfacet
 facet normal  5.118134e-16  7.216663e-01  6.922411e-01
   outer loop
     vertex  1.348557e-03  6.985618e-06  2.016275e-02
     vertex  1.310876e-03 -4.807250e-04  2.067119e-02
     vertex  2.216878e-03 -1.555286e-04  2.033217e-02
   endloop
 endfacet
 facet normal  3.749625e-16  7.216663e-01  6.922411e-01
   outer loop
     vertex  2.151153e-03 -8.263702e-04  2.103153e-02
     vertex  2.216878e-03 -1.555286e-04  2.033217e-02
     vertex  1.310876e-03 -4.807250e-04  2.067119e-02
   endloop
 endfacet
 facet normal -1.273752e-16  7.216663e-01  6.922411e-01
   outer loop
     vertex  2.138127e-03 -1.502385e-03  2.173628e-02
     vertex  2.151153e-03 -8.263702e-04  2.103153e-02
     vertex  1.294194e-03 -1.125717e-03  2.134360e-02
   endloop
 endfacet
 facet normal  1.326444e-16  7.216663e-01  6.922411e-01
   outer loop
     vertex  2.963062e-03 -1.252487e-03  2.147576e-02
     vertex  2.986716e-03 -5.843343e-04  2.077920e-02
     vertex  2.151153e-03 -8.263702e-04  2.103153e-02
   endloop
 endfacet
 facet normal -1.694425e-15  7.216663e-01  6.922411e-01
   outer loop
     vertex  2.960488e-03 -1.934929e-03  2.218721e-02
     vertex  2.963062e-03 -1.252487e-03  2.147576e-02
     vertex  2.138127e-03 -1.502385e-03  2.173628e-02
   endloop
 endfacet
 facet normal -1.388108e-15  7.216663e-01  6.922411e-01
   outer loop
     vertex  2.151153e-03 -8.263702e-04  2.103153e-02
     vertex  2.138127e-03 -1.502385e-03  2.173628e-02
     vertex  2.963062e-03 -1.252487e-03  2.147576e-02
   endloop
 endfacet
 facet normal -9.347878e-16  7.216663e-01  6.922411e-01
   outer loop
     vertex  4.339029e-04 -2.146842e-03  2.240813e-02
     vertex  4.341199e-04 -2.833021e-03  2.312347e-02
     vertex  1.291009e-03 -2.496091e-03  2.277222e-02
   endloop
 endfacet
 facet normal  9.944021e-16  7.216663e-01  6.922411e-01
   outer loop
     vertex -4.245828e-04 -2.488276e-03  2.276407e-02
     vertex -4.244947e-04 -3.174988e-03  2.347998e-02
     vertex  4.341199e-04 -2.833021e-03  2.312347e-02
   endloop
 endfacet
 facet normal  6.213546e-17  7.216663e-01  6.922411e-01
   outer loop
     vertex -4.246191e-04 -1.801277e-03  2.204787e-02
     vertex -4.245828e-04 -2.488276e-03  2.276407e-02
     vertex  4.339029e-04 -2.146842e-03  2.240813e-02
   endloop
 endfacet
 facet normal  4.354226e-16  7.216663e-01  6.922411e-01
   outer loop
     vertex  4.341199e-04 -2.833021e-03  2.312347e-02
     vertex  4.339029e-04 -2.146842e-03  2.240813e-02
     vertex -4.245828e-04 -2.488276e-03  2.276407e-02
   endloop
 endfacet
 facet normal  7.477565e-16  7.216663e-01  6.922411e-01
   outer loop
     vertex -1.280226e-03 -2.830449e-03  2.312079e-02
     vertex -1.280419e-03 -3.517632e-03  2.383718e-02
     vertex -4.244947e-04 -3.174988e-03  2.347998e-02
   endloop
 endfacet
 facet normal -2.071995e-15  7.216663e-01  6.922411e-01
   outer loop
     vertex -2.127436e-03 -3.171118e-03  2.347594e-02
     vertex -2.129606e-03 -3.859313e-03  2.419339e-02
     vertex -1.280419e-03 -3.517632e-03  2.383718e-02
   endloop
 endfacet
 facet normal -1.257374e-15  7.216663e-01  6.922411e-01
   outer loop
     vertex -2.129809e-03 -2.484035e-03  2.275965e-02
     vertex -2.127436e-03 -3.171118e-03  2.347594e-02
     vertex -1.280226e-03 -2.830449e-03  2.312079e-02
   endloop
 endfacet
 facet normal -1.951574e-15  7.216663e-01  6.922411e-01
   outer loop
     vertex -1.280419e-03 -3.517632e-03  2.383718e-02
     vertex -1.280226e-03 -2.830449e-03  2.312079e-02
     vertex -2.127436e-03 -3.171118e-03  2.347594e-02
   endloop
 endfacet
 facet normal  1.248408e-16  7.216663e-01  6.922411e-01
   outer loop
     vertex -1.281459e-03 -1.457821e-03  2.168982e-02
     vertex -1.280348e-03 -2.143457e-03  2.240460e-02
     vertex -4.246191e-04 -1.801277e-03  2.204787e-02
   endloop
 endfacet
 facet normal  1.193705e-15  7.216663e-01  6.922411e-01
   outer loop
     vertex -2.127926e-03 -1.796605e-03  2.204300e-02
     vertex -2.129809e-03 -2.484035e-03  2.275965e-02
     vertex -1.280348e-03 -2.143457e-03  2.240460e-02
   endloop
 endfacet
 facet normal  7.599455e-16  7.216663e-01  6.922411e-01
   outer loop
     vertex -2.132677e-03 -1.114868e-03  2.133229e-02
     vertex -2.127926e-03 -1.796605e-03  2.204300e-02
     vertex -1.281459e-03 -1.457821e-03  2.168982e-02
   endloop
 endfacet
 facet normal  1.325172e-15  7.216663e-01  6.922411e-01
   outer loop
     vertex -1.280348e-03 -2.143457e-03  2.240460e-02
     vertex -1.281459e-03 -1.457821e-03  2.168982e-02
     vertex -2.127926e-03 -1.796605e-03  2.204300e-02
   endloop
 endfacet
 facet normal -3.139656e-16  7.216663e-01  6.922411e-01
   outer loop
     vertex -1.280226e-03 -2.830449e-03  2.312079e-02
     vertex -1.280348e-03 -2.143457e-03  2.240460e-02
     vertex -2.129809e-03 -2.484035e-03  2.275965e-02
   endloop
 endfacet
 facet normal -6.233561e-16  7.216663e-01  6.922411e-01
   outer loop
     vertex -4.245828e-04 -2.488276e-03  2.276407e-02
     vertex -4.246191e-04 -1.801277e-03  2.204787e-02
     vertex -1.280348e-03 -2.143457e-03  2.240460e-02
   endloop
 endfacet
 facet normal  5.612937e-16  7.216663e-01  6.922411e-01
   outer loop
     vertex -4.244947e-04 -3.174988e-03  2.347998e-02
     vertex -4.245828e-04 -2.488276e-03  2.276407e-02
     vertex -1.280226e-03 -2.830449e-03  2.312079e-02
   endloop
 endfacet
 facet normal  6.233941e-17  7.216663e-01  6.922411e-01
   outer loop
     vertex -1.280348e-03 -2.143457e-03  2.240460e-02
     vertex -1.280226e-03 -2.830449e-03  2.312079e-02
     vertex -4.245828e-04 -2.488276e-03  2.276407e-02
   endloop
 endfacet
 facet normal  9.547923e-16  7.216663e-01  6.922411e-01
   outer loop
     vertex -4.468693e-04  6.888514e-06  2.016285e-02
     vertex -4.321812e-04 -4.668950e-04  2.065677e-02
     vertex  4.486495e-04 -1.346444e-04  2.031040e-02
   endloop
 endfacet
 facet normal  8.527080e-16  7.216663e-01  6.922411e-01
   outer loop
     vertex  4.486495e-04 -1.346444e-04  2.031040e-02
     vertex  1.348557e-03  6.985618e-06  2.016275e-02
     vertex  9.375000e-04  3.124113e-04  1.984434e-02
   endloop
 endfacet
 facet normal -0.000000e+00  7.216663e-01  6.922411e-01
   outer loop
     vertex -9.375000e-04  3.124113e-04  1.984434e-02
     vertex -4.468693e-04  6.888514e-06  2.016285e-02
     vertex  0.000000e+00  3.124113e-04  1.984434e-02
   endloop
 endfacet
 facet normal -1.515944e-15  7.216663e-01  6.922411e-01
   outer loop
     vertex -1.330950e-03 -1.367494e-04  2.031259e-02
     vertex -1.289765e-03 -7.839615e-04  2.098731e-02
     vertex -4.321812e-04 -4.668950e-04  2.065677e-02
   endloop
 endfacet
 facet normal  0.000000e+00  7.216663e-01  6.922411e-01
   outer loop
     vertex  4.486495e-04 -1.346444e-04  2.031040e-02
     vertex  9.375000e-04  3.124113e-04  1.984434e-02
     vertex  0.000000e+00  3.124113e-04  1.984434e-02
   endloop
 endfacet
 facet normal  5.983651e-16  7.216663e-01  6.922411e-01
   outer loop
     vertex -4.468693e-04  6.888514e-06  2.016285e-02
     vertex  4.486495e-04 -1.346444e-04  2.031040e-02
     vertex  0.000000e+00  3.124113e-04  1.984434e-02
   endloop
 endfacet
 facet normal  1.777861e-15  7.216663e-01  6.922411e-01
   outer loop
     vertex -2.146439e-03 -4.722277e-04  2.066233e-02
     vertex -2.132677e-03 -1.114868e-03  2.133229e-02
     vertex -1.289765e-03 -7.839615e-04  2.098731e-02
   endloop
 endfacet
 facet normal -3.417284e-16  7.216663e-01  6.922411e-01
   outer loop
     vertex -1.875000e-03  3.124113e-04  1.984434e-02
     vertex -2.221310e-03  6.977907e-06  2.016275e-02
     vertex -1.330950e-03 -1.367494e-04  2.031259e-02
   endloop
 endfacet
 facet normal  6.089657e-16  7.216663e-01  6.922411e-01
   outer loop
     vertex -1.289765e-03 -7.839615e-04  2.098731e-02
     vertex -1.330950e-03 -1.367494e-04  2.031259e-02
     vertex -2.146439e-03 -4.722277e-04  2.066233e-02
   endloop
 endfacet
 facet normal  0.000000e+00  7.216663e-01  6.922411e-01
   outer loop
     vertex -1.330950e-03 -1.367494e-04  2.031259e-02
     vertex -9.375000e-04  3.124113e-04  1.984434e-02
     vertex -1.875000e-03  3.124113e-04  1.984434e-02
   endloop
 endfacet
 facet normal -0.000000e+00  7.216663e-01  6.922411e-01
   outer loop
     vertex -2.812500e-03  3.124113e-04  1.984434e-02
     vertex -2.221310e-03  6.977907e-06  2.016275e-02
     vertex -1.875000e-03  3.124113e-04  1.984434e-02
   endloop
 endfacet
 facet normal  2.643415e-16  7.216663e-01  6.922411e-01
   outer loop
     vertex -2.146439e-03 -4.722277e-04  2.066233e-02
     vertex -1.330950e-03 -1.367494e-04  2.031259e-02
     vertex -2.221310e-03  6.977907e-06  2.016275e-02
   endloop
 endfacet
 facet normal -1.218743e-15  7.216663e-01  6.922411e-01
   outer loop
     vertex -4.321812e-04 -4.668950e-04  2.065677e-02
     vertex -4.468693e-04  6.888514e-06  2.016285e-02
     vertex -1.330950e-03 -1.367494e-04  2.031259e-02
   endloop
 endfacet
 facet normal  1.797828e-15  7.216663e-01  6.922411e-01
   outer loop
     vertex -1.281459e-03 -1.457821e-03  2.168982e-02
     vertex -1.289765e-03 -7.839615e-04  2.098731e-02
     vertex -2.132677e-03 -1.114868e-03  2.133229e-02
   endloop
 endfacet
 facet normal -8.070120e-16  7.216663e-01  6.922411e-01
   outer loop
     vertex -1.330950e-03 -1.367494e-04  2.031259e-02
     vertex -4.468693e-04  6.888514e-06  2.016285e-02
     vertex -9.375000e-04  3.124113e-04  1.984434e-02
   endloop
 endfacet
 facet normal -2.019037e-15  7.216663e-01  6.922411e-01
   outer loop
     vertex -4.257863e-04 -1.120643e-03  2.133831e-02
     vertex -4.321812e-04 -4.668950e-04  2.065677e-02
     vertex -1.289765e-03 -7.839615e-04  2.098731e-02
   endloop
 endfacet
 facet normal  1.886447e-16  7.216663e-01  6.922411e-01
   outer loop
     vertex -4.246191e-04 -1.801277e-03  2.204787e-02
     vertex -4.257863e-04 -1.120643e-03  2.133831e-02
     vertex -1.281459e-03 -1.457821e-03  2.168982e-02
   endloop
 endfacet
 facet normal -1.264988e-15  7.216663e-01  6.922411e-01
   outer loop
     vertex -1.289765e-03 -7.839615e-04  2.098731e-02
     vertex -1.281459e-03 -1.457821e-03  2.168982e-02
     vertex -4.257863e-04 -1.120643e-03  2.133831e-02
   endloop
 endfacet
 facet normal  9.602359e-16  7.216663e-01  6.922411e-01
   outer loop
     vertex  4.374862e-04 -7.887733e-04  2.099233e-02
     vertex  4.486495e-04 -1.346444e-04  2.031040e-02
     vertex -4.321812e-04 -4.668950e-04  2.065677e-02
   endloop
 endfacet
 facet normal -4.226306e-17  7.216663e-01  6.922411e-01
   outer loop
     vertex  1.310876e-03 -4.807250e-04  2.067119e-02
     vertex  1.348557e-03  6.985618e-06  2.016275e-02
     vertex  4.486495e-04 -1.346444e-04  2.031040e-02
   endloop
 endfacet
 facet normal -7.550098e-16  7.216663e-01  6.922411e-01
   outer loop
     vertex  1.294194e-03 -1.125717e-03  2.134360e-02
     vertex  1.310876e-03 -4.807250e-04  2.067119e-02
     vertex  4.374862e-04 -7.887733e-04  2.099233e-02
   endloop
 endfacet
 facet normal -7.744070e-16  7.216663e-01  6.922411e-01
   outer loop
     vertex  4.486495e-04 -1.346444e-04  2.031040e-02
     vertex  4.374862e-04 -7.887733e-04  2.099233e-02
     vertex  1.310876e-03 -4.807250e-04  2.067119e-02
   endloop
 endfacet
 facet normal -1.871728e-16  7.216663e-01  6.922411e-01
   outer loop
     vertex  4.339029e-04 -2.146842e-03  2.240813e-02
     vertex  4.344062e-04 -1.462874e-03  2.169508e-02
     vertex -4.246191e-04 -1.801277e-03  2.204787e-02
   endloop
 endfacet
 facet normal -1.243322e-16  7.216663e-01  6.922411e-01
   outer loop
     vertex  1.290217e-03 -1.812911e-03  2.206000e-02
     vertex  1.294194e-03 -1.125717e-03  2.134360e-02
     vertex  4.344062e-04 -1.462874e-03  2.169508e-02
   endloop
 endfacet
 facet normal -4.383001e-16  7.216663e-01  6.922411e-01
   outer loop
     vertex  1.291009e-03 -2.496091e-03  2.277222e-02
     vertex  1.290217e-03 -1.812911e-03  2.206000e-02
     vertex  4.339029e-04 -2.146842e-03  2.240813e-02
   endloop
 endfacet
 facet normal -1.251766e-16  7.216663e-01  6.922411e-01
   outer loop
     vertex  4.344062e-04 -1.462874e-03  2.169508e-02
     vertex  4.339029e-04 -2.146842e-03  2.240813e-02
     vertex  1.290217e-03 -1.812911e-03  2.206000e-02
   endloop
 endfacet
 facet normal -4.434030e-16  7.216663e-01  6.922411e-01
   outer loop
     vertex  4.374862e-04 -7.887733e-04  2.099233e-02
     vertex  4.344062e-04 -1.462874e-03  2.169508e-02
     vertex  1.294194e-03 -1.125717e-03  2.134360e-02
   endloop
 endfacet
 facet normal  3.131809e-16  7.216663e-01  6.922411e-01
   outer loop
     vertex -4.257863e-04 -1.120643e-03  2.133831e-02
     vertex -4.246191e-04 -1.801277e-03  2.204787e-02
     vertex  4.344062e-04 -1.462874e-03  2.169508e-02
   endloop
 endfacet
 facet normal  1.099760e-15  7.216663e-01  6.922411e-01
   outer loop
     vertex -4.321812e-04 -4.668950e-04  2.065677e-02
     vertex -4.257863e-04 -1.120643e-03  2.133831e-02
     vertex  4.374862e-04 -7.887733e-04  2.099233e-02
   endloop
 endfacet
 facet normal  1.072452e-15  7.216663e-01  6.922411e-01
   outer loop
     vertex  4.344062e-04 -1.462874e-03  2.169508e-02
     vertex  4.374862e-04 -7.887733e-04  2.099233e-02
     vertex -4.257863e-04 -1.120643e-03  2.133831e-02
   endloop
 endfacet
 facet normal  2.451189e-15  7.216663e-01  6.922411e-01
   outer loop
     vertex -2.127564e-03 -1.004885e-02  3.064602e-02
     vertex -2.129570e-03 -9.360701e-03  2.992863e-02
     vertex -2.954136e-03 -9.711817e-03  3.029467e-02
   endloop
 endfacet
 facet normal -8.345024e-16  7.216663e-01  6.922411e-01
   outer loop
     vertex -2.953490e-03 -1.040126e-02  3.101341e-02
     vertex -2.954136e-03 -9.711817e-03  3.029467e-02
     vertex -3.750000e-03 -1.007121e-02  3.066933e-02
   endloop
 endfacet
 facet normal -7.982204e-16  7.216663e-01  6.922411e-01
   outer loop
     vertex -2.954136e-03 -9.711817e-03  3.029467e-02
     vertex -3.750000e-03 -9.378965e-03  2.994767e-02
     vertex -3.750000e-03 -1.007121e-02  3.066933e-02
   endloop
 endfacet
 facet normal -6.466467e-17  7.216663e-01  6.922411e-01
   outer loop
     vertex -2.129817e-03 -1.073597e-02  3.136236e-02
     vertex -2.127564e-03 -1.004885e-02  3.064602e-02
     vertex -2.953490e-03 -1.040126e-02  3.101341e-02
   endloop
 endfacet
 facet normal  1.415297e-15  7.216663e-01  6.922411e-01
   outer loop
     vertex -2.954136e-03 -9.711817e-03  3.029467e-02
     vertex -2.953490e-03 -1.040126e-02  3.101341e-02
     vertex -2.127564e-03 -1.004885e-02  3.064602e-02
   endloop
 endfacet
 facet normal  1.357479e-15  7.216663e-01  6.922411e-01
   outer loop
     vertex -2.127704e-03 -1.142344e-02  3.207904e-02
     vertex -2.129817e-03 -1.073597e-02  3.136236e-02
     vertex -2.953385e-03 -1.109045e-02  3.173190e-02
   endloop
 endfacet
 facet normal  3.011256e-16  7.216663e-01  6.922411e-01
   outer loop
     vertex -2.953427e-03 -1.177794e-02  3.244861e-02
     vertex -2.953385e-03 -1.109045e-02  3.173190e-02
     vertex -3.750000e-03 -1.145569e-02  3.211266e-02
   endloop
 endfacet
 facet normal  9.968344e-16  7.216663e-01  6.922411e-01
   outer loop
     vertex -2.953385e-03 -1.109045e-02  3.173190e-02
     vertex -3.750000e-03 -1.076345e-02  3.139100e-02
     vertex -3.750000e-03 -1.145569e-02  3.211266e-02
   endloop
 endfacet
 facet normal -1.958370e-16  7.216663e-01  6.922411e-01
   outer loop
     vertex -2.131533e-03 -1.210496e-02  3.278953e-02
     vertex -2.127704e-03 -1.142344e-02  3.207904e-02
     vertex -2.953427e-03 -1.177794e-02  3.244861e-02
   endloop
 endfacet
 facet normal  2.130406e-15  7.216663e-01  6.922411e-01
   outer loop
     vertex -2.953385e-03 -1.109045e-02  3.173190e-02
     vertex -2.953427e-03 -1.177794e-02  3.244861e-02
     vertex -2.127704e-03 -1.142344e-02  3.207904e-02
   endloop
 endfacet
 facet normal -5.164893e-16  7.216663e-01  6.922411e-01
   outer loop
     vertex -2.953490e-03 -1.040126e-02  3.101341e-02
     vertex -2.953385e-03 -1.109045e-02  3.173190e-02
     vertex -2.129817e-03 -1.073597e-02  3.136236e-02
   endloop
 endfacet
 facet normal  2.636788e-15  7.216663e-01  6.922411e-01
   outer loop
     vertex -2.953385e-03 -1.109045e-02  3.173190e-02
     vertex -2.953490e-03 -1.040126e-02  3.101341e-02
     vertex -3.750000e-03 -1.076345e-02  3.139100e-02
   endloop
 endfacet
 facet normal  1.329289e-15  7.216663e-01  6.922411e-01
   outer loop
     vertex -2.953490e-03 -1.040126e-02  3.101341e-02
     vertex -3.750000e-03 -1.007121e-02  3.066933e-02
     vertex -3.750000e-03 -1.076345e-02  3.139100e-02
   endloop
 endfacet
 facet normal -1.049474e-16  7.216663e-01  6.922411e-01
   outer loop
     vertex -2.142795e-03 -1.274768e-02  3.345957e-02
     vertex -2.131533e-03 -1.210496e-02  3.278953e-02
     vertex -2.952622e-03 -1.245486e-02  3.315431e-02
   endloop
 endfacet
 facet normal -4.387541e-15  7.216663e-01  6.922411e-01
   outer loop
     vertex -2.215248e-03 -1.322642e-02  3.395866e-02
     vertex -2.142795e-03 -1.274768e-02  3.345957e-02
     vertex -2.941832e-03 -1.307031e-02  3.379592e-02
   endloop
 endfacet
 facet normal -6.289803e-16  7.216663e-01  6.922411e-01
   outer loop
     vertex -2.952622e-03 -1.245486e-02  3.315431e-02
     vertex -2.941832e-03 -1.307031e-02  3.379592e-02
     vertex -2.142795e-03 -1.274768e-02  3.345957e-02
   endloop
 endfacet
 facet normal  0.000000e+00  7.216663e-01  6.922411e-01
   outer loop
     vertex -1.875000e-03 -1.353241e-02  3.427766e-02
     vertex -2.215248e-03 -1.322642e-02  3.395866e-02
     vertex -2.812500e-03 -1.353241e-02  3.427766e-02
   endloop
 endfacet
 facet normal  0.000000e+00  7.216663e-01  6.922411e-01
   outer loop
     vertex -2.941832e-03 -1.307031e-02  3.379592e-02
     vertex -3.750000e-03 -1.353241e-02  3.427766e-02
     vertex -2.812500e-03 -1.353241e-02  3.427766e-02
   endloop
 endfacet
 facet normal -6.401682e-15  7.216663e-01  6.922411e-01
   outer loop
     vertex -2.215248e-03 -1.322642e-02  3.395866e-02
     vertex -2.941832e-03 -1.307031e-02  3.379592e-02
     vertex -2.812500e-03 -1.353241e-02  3.427766e-02
   endloop
 endfacet
 facet normal  2.882247e-15  7.216663e-01  6.922411e-01
   outer loop
     vertex -3.750000e-03 -1.353241e-02  3.427766e-02
     vertex -2.941832e-03 -1.307031e-02  3.379592e-02
     vertex -3.750000e-03 -1.284017e-02  3.355600e-02
   endloop
 endfacet
 facet normal  3.776512e-15  7.216663e-01  6.922411e-01
   outer loop
     vertex -2.941832e-03 -1.307031e-02  3.379592e-02
     vertex -2.952622e-03 -1.245486e-02  3.315431e-02
     vertex -3.750000e-03 -1.284017e-02  3.355600e-02
   endloop
 endfacet
 facet normal -1.021454e-15  7.216663e-01  6.922411e-01
   outer loop
     vertex -2.953427e-03 -1.177794e-02  3.244861e-02
     vertex -2.952622e-03 -1.245486e-02  3.315431e-02
     vertex -2.131533e-03 -1.210496e-02  3.278953e-02
   endloop
 endfacet
 facet normal  1.991763e-15  7.216663e-01  6.922411e-01
   outer loop
     vertex -3.750000e-03 -1.284017e-02  3.355600e-02
     vertex -2.952622e-03 -1.245486e-02  3.315431e-02
     vertex -3.750000e-03 -1.214793e-02  3.283433e-02
   endloop
 endfacet
 facet normal  1.901910e-15  7.216663e-01  6.922411e-01
   outer loop
     vertex -2.952622e-03 -1.245486e-02  3.315431e-02
     vertex -2.953427e-03 -1.177794e-02  3.244861e-02
     vertex -3.750000e-03 -1.214793e-02  3.283433e-02
   endloop
 endfacet
 facet normal  1.761167e-15  7.216663e-01  6.922411e-01
   outer loop
     vertex -2.953427e-03 -1.177794e-02  3.244861e-02
     vertex -3.750000e-03 -1.145569e-02  3.211266e-02
     vertex -3.750000e-03 -1.214793e-02  3.283433e-02
   endloop
 endfacet
 facet normal -2.700754e-15  7.216663e-01  6.922411e-01
   outer loop
     vertex -1.280290e-03 -9.702388e-03  3.028484e-02
     vertex -1.281013e-03 -9.015076e-03  2.956831e-02
     vertex -2.129570e-03 -9.360701e-03  2.992863e-02
   endloop
 endfacet
 facet normal  7.469990e-16  7.216663e-01  6.922411e-01
   outer loop
     vertex -4.240154e-04 -9.358046e-03  2.992586e-02
     vertex -4.244156e-04 -8.670945e-03  2.920955e-02
     vertex -1.281013e-03 -9.015076e-03  2.956831e-02
   endloop
 endfacet
 facet normal  3.739104e-16  7.216663e-01  6.922411e-01
   outer loop
     vertex -4.245094e-04 -1.004501e-02  3.064202e-02
     vertex -4.240154e-04 -9.358046e-03  2.992586e-02
     vertex -1.280290e-03 -9.702388e-03  3.028484e-02
   endloop
 endfacet
 facet normal  1.244850e-15  7.216663e-01  6.922411e-01
   outer loop
     vertex -1.281013e-03 -9.015076e-03  2.956831e-02
     vertex -1.280290e-03 -9.702388e-03  3.028484e-02
     vertex -4.240154e-04 -9.358046e-03  2.992586e-02
   endloop
 endfacet
 facet normal  3.107075e-16  7.216663e-01  6.922411e-01
   outer loop
     vertex  4.341512e-04 -9.012820e-03  2.956596e-02
     vertex  4.340627e-04 -8.325903e-03  2.884984e-02
     vertex -4.244156e-04 -8.670945e-03  2.920955e-02
   endloop
 endfacet
 facet normal -3.740383e-16  7.216663e-01  6.922411e-01
   outer loop
     vertex  1.290762e-03 -8.662109e-03  2.920034e-02
     vertex  1.290459e-03 -7.975800e-03  2.848486e-02
     vertex  4.340627e-04 -8.325903e-03  2.884984e-02
   endloop
 endfacet
 facet normal  7.460995e-16  7.216663e-01  6.922411e-01
   outer loop
     vertex  1.291137e-03 -9.350035e-03  2.991751e-02
     vertex  1.290762e-03 -8.662109e-03  2.920034e-02
     vertex  4.341512e-04 -9.012820e-03  2.956596e-02
   endloop
 endfacet
 facet normal -1.245538e-16  7.216663e-01  6.922411e-01
   outer loop
     vertex  4.340627e-04 -8.325903e-03  2.884984e-02
     vertex  4.341512e-04 -9.012820e-03  2.956596e-02
     vertex  1.290762e-03 -8.662109e-03  2.920034e-02
   endloop
 endfacet
 facet normal  6.212509e-17  7.216663e-01  6.922411e-01
   outer loop
     vertex  4.340835e-04 -1.038685e-02  3.099839e-02
     vertex  4.341472e-04 -9.699834e-03  3.028217e-02
     vertex -4.245094e-04 -1.004501e-02  3.064202e-02
   endloop
 endfacet
 facet normal  1.309107e-15  7.216663e-01  6.922411e-01
   outer loop
     vertex  1.290770e-03 -1.003616e-02  3.063279e-02
     vertex  1.291137e-03 -9.350035e-03  2.991751e-02
     vertex  4.341472e-04 -9.699834e-03  3.028217e-02
   endloop
 endfacet
 facet normal -1.865822e-16  7.216663e-01  6.922411e-01
   outer loop
     vertex  1.290998e-03 -1.072387e-02  3.134974e-02
     vertex  1.290770e-03 -1.003616e-02  3.063279e-02
     vertex  4.340835e-04 -1.038685e-02  3.099839e-02
   endloop
 endfacet
 facet normal  4.981439e-16  7.216663e-01  6.922411e-01
   outer loop
     vertex  4.341472e-04 -9.699834e-03  3.028217e-02
     vertex  4.340835e-04 -1.038685e-02  3.099839e-02
     vertex  1.290770e-03 -1.003616e-02  3.063279e-02
   endloop
 endfacet
 facet normal  1.867318e-15  7.216663e-01  6.922411e-01
   outer loop
     vertex  4.341512e-04 -9.012820e-03  2.956596e-02
     vertex  4.341472e-04 -9.699834e-03  3.028217e-02
     vertex  1.291137e-03 -9.350035e-03  2.991751e-02
   endloop
 endfacet
 facet normal -6.214549e-16  7.216663e-01  6.922411e-01
   outer loop
     vertex -4.240154e-04 -9.358046e-03  2.992586e-02
     vertex -4.245094e-04 -1.004501e-02  3.064202e-02
     vertex  4.341472e-04 -9.699834e-03  3.028217e-02
   endloop
 endfacet
 facet normal -3.106803e-16  7.216663e-01  6.922411e-01
   outer loop
     vertex -4.244156e-04 -8.670945e-03  2.920955e-02
     vertex -4.240154e-04 -9.358046e-03  2.992586e-02
     vertex  4.341512e-04 -9.012820e-03  2.956596e-02
   endloop
 endfacet
 facet normal -1.118855e-15  7.216663e-01  6.922411e-01
   outer loop
     vertex  4.341472e-04 -9.699834e-03  3.028217e-02
     vertex  4.341512e-04 -9.012820e-03  2.956596e-02
     vertex -4.240154e-04 -9.358046e-03  2.992586e-02
   endloop
 endfacet
 facet normal  3.182465e-17  7.216663e-01  6.922411e-01
   outer loop
     vertex  2.136311e-03 -8.283043e-03  2.880516e-02
     vertex  2.132655e-03 -7.601025e-03  2.809415e-02
     vertex  1.290459e-03 -7.975800e-03  2.848486e-02
   endloop
 endfacet
 facet normal  2.361820e-15  7.216663e-01  6.922411e-01
   outer loop
     vertex  2.954515e-03 -7.834984e-03  2.833805e-02
     vertex  2.938050e-03 -7.169510e-03  2.764429e-02
     vertex  2.132655e-03 -7.601025e-03  2.809415e-02
   endloop
 endfacet
 facet normal  3.857473e-16  7.216663e-01  6.922411e-01
   outer loop
     vertex  2.960097e-03 -8.528593e-03  2.906115e-02
     vertex  2.954515e-03 -7.834984e-03  2.833805e-02
     vertex  2.136311e-03 -8.283043e-03  2.880516e-02
   endloop
 endfacet
 facet normal  2.390013e-15  7.216663e-01  6.922411e-01
   outer loop
     vertex  2.132655e-03 -7.601025e-03  2.809415e-02
     vertex  2.136311e-03 -8.283043e-03  2.880516e-02
     vertex  2.954515e-03 -7.834984e-03  2.833805e-02
   endloop
 endfacet
 facet normal  5.053043e-16  7.216663e-01  6.922411e-01
   outer loop
     vertex  2.938050e-03 -7.169510e-03  2.764429e-02
     vertex  3.750000e-03 -7.302241e-03  2.778267e-02
     vertex  3.750000e-03 -6.610000e-03  2.706100e-02
   endloop
 endfacet
 facet normal -1.675508e-17  7.216663e-01  6.922411e-01
   outer loop
     vertex  2.960097e-03 -8.528593e-03  2.906115e-02
     vertex  3.750000e-03 -8.686723e-03  2.922600e-02
     vertex  3.750000e-03 -7.994482e-03  2.850433e-02
   endloop
 endfacet
 facet normal  6.985241e-16  7.216663e-01  6.922411e-01
   outer loop
     vertex  3.750000e-03 -7.994482e-03  2.850433e-02
     vertex  2.954515e-03 -7.834984e-03  2.833805e-02
     vertex  2.960097e-03 -8.528593e-03  2.906115e-02
   endloop
 endfacet
 facet normal  4.256159e-16  7.216663e-01  6.922411e-01
   outer loop
     vertex  3.750000e-03 -7.302241e-03  2.778267e-02
     vertex  2.938050e-03 -7.169510e-03  2.764429e-02
     vertex  2.954515e-03 -7.834984e-03  2.833805e-02
   endloop
 endfacet
 facet normal  2.584479e-15  7.216663e-01  6.922411e-01
   outer loop
     vertex  2.137307e-03 -1.103356e-02  3.167260e-02
     vertex  2.137489e-03 -1.034669e-02  3.095653e-02
     vertex  1.290998e-03 -1.072387e-02  3.134974e-02
   endloop
 endfacet
 facet normal  3.327500e-17  7.216663e-01  6.922411e-01
   outer loop
     vertex  2.954515e-03 -7.834984e-03  2.833805e-02
     vertex  3.750000e-03 -7.994482e-03  2.850433e-02
     vertex  3.750000e-03 -7.302241e-03  2.778267e-02
   endloop
 endfacet
 facet normal -4.575481e-16  7.216663e-01  6.922411e-01
   outer loop
     vertex  2.957711e-03 -1.058965e-02  3.120982e-02
     vertex  2.960167e-03 -9.906837e-03  3.049798e-02
     vertex  2.137489e-03 -1.034669e-02  3.095653e-02
   endloop
 endfacet
 facet normal -3.748359e-15  7.216663e-01  6.922411e-01
   outer loop
     vertex  2.960531e-03 -1.128528e-02  3.193501e-02
     vertex  2.957711e-03 -1.058965e-02  3.120982e-02
     vertex  2.137307e-03 -1.103356e-02  3.167260e-02
   endloop
 endfacet
 facet normal -1.268322e-15  7.216663e-01  6.922411e-01
   outer loop
     vertex  2.137489e-03 -1.034669e-02  3.095653e-02
     vertex  2.137307e-03 -1.103356e-02  3.167260e-02
     vertex  2.957711e-03 -1.058965e-02  3.120982e-02
   endloop
 endfacet
 facet normal -7.540459e-16  7.216663e-01  6.922411e-01
   outer loop
     vertex  2.960167e-03 -9.906837e-03  3.049798e-02
     vertex  3.750000e-03 -1.007121e-02  3.066933e-02
     vertex  3.750000e-03 -9.378965e-03  2.994767e-02
   endloop
 endfacet
 facet normal  2.849930e-15  7.216663e-01  6.922411e-01
   outer loop
     vertex  2.960531e-03 -1.128528e-02  3.193501e-02
     vertex  3.750000e-03 -1.145569e-02  3.211266e-02
     vertex  3.750000e-03 -1.076345e-02  3.139100e-02
   endloop
 endfacet
 facet normal -1.514080e-15  7.216663e-01  6.922411e-01
   outer loop
     vertex  3.750000e-03 -1.076345e-02  3.139100e-02
     vertex  2.957711e-03 -1.058965e-02  3.120982e-02
     vertex  2.960531e-03 -1.128528e-02  3.193501e-02
   endloop
 endfacet
 facet normal -1.018507e-16  7.216663e-01  6.922411e-01
   outer loop
     vertex  3.750000e-03 -1.007121e-02  3.066933e-02
     vertex  2.960167e-03 -9.906837e-03  3.049798e-02
     vertex  2.957711e-03 -1.058965e-02  3.120982e-02
   endloop
 endfacet
 facet normal -1.436597e-15  7.216663e-01  6.922411e-01
   outer loop
     vertex  2.957711e-03 -1.058965e-02  3.120982e-02
     vertex  3.750000e-03 -1.076345e-02  3.139100e-02
     vertex  3.750000e-03 -1.007121e-02  3.066933e-02
   endloop
 endfacet
 facet normal -8.697502e-16  7.216663e-01  6.922411e-01
   outer loop
     vertex  3.750000e-03 -9.378965e-03  2.994767e-02
     vertex  2.958876e-03 -9.214192e-03  2.977589e-02
     vertex  2.960167e-03 -9.906837e-03  3.049798e-02
   endloop
 endfacet
 facet normal -1.048505e-15  7.216663e-01  6.922411e-01
   outer loop
     vertex  3.750000e-03 -8.686723e-03  2.922600e-02
     vertex  2.960097e-03 -8.528593e-03  2.906115e-02
     vertex  2.958876e-03 -9.214192e-03  2.977589e-02
   endloop
 endfacet
 facet normal  1.576963e-15  7.216663e-01  6.922411e-01
   outer loop
     vertex  2.136086e-03 -9.655366e-03  3.023582e-02
     vertex  2.137489e-03 -1.034669e-02  3.095653e-02
     vertex  2.960167e-03 -9.906837e-03  3.049798e-02
   endloop
 endfacet
 facet normal -9.201077e-16  7.216663e-01  6.922411e-01
   outer loop
     vertex  2.958876e-03 -9.214192e-03  2.977589e-02
     vertex  3.750000e-03 -9.378965e-03  2.994767e-02
     vertex  3.750000e-03 -8.686723e-03  2.922600e-02
   endloop
 endfacet
 facet normal  1.416204e-15  7.216663e-01  6.922411e-01
   outer loop
     vertex  1.290770e-03 -1.003616e-02  3.063279e-02
     vertex  1.290998e-03 -1.072387e-02  3.134974e-02
     vertex  2.137489e-03 -1.034669e-02  3.095653e-02
   endloop
 endfacet
 facet normal -1.706422e-15  7.216663e-01  6.922411e-01
   outer loop
     vertex  1.291137e-03 -9.350035e-03  2.991751e-02
     vertex  1.290770e-03 -1.003616e-02  3.063279e-02
     vertex  2.136086e-03 -9.655366e-03  3.023582e-02
   endloop
 endfacet
 facet normal  9.397932e-17  7.216663e-01  6.922411e-01
   outer loop
     vertex  2.137489e-03 -1.034669e-02  3.095653e-02
     vertex  2.136086e-03 -9.655366e-03  3.023582e-02
     vertex  1.290770e-03 -1.003616e-02  3.063279e-02
   endloop
 endfacet
 facet normal -1.075048e-15  7.216663e-01  6.922411e-01
   outer loop
     vertex  2.136311e-03 -8.283043e-03  2.880516e-02
     vertex  2.135167e-03 -8.965481e-03  2.951661e-02
     vertex  2.960097e-03 -8.528593e-03  2.906115e-02
   endloop
 endfacet
 facet normal  8.518525e-16  7.216663e-01  6.922411e-01
   outer loop
     vertex  1.290762e-03 -8.662109e-03  2.920034e-02
     vertex  1.291137e-03 -9.350035e-03  2.991751e-02
     vertex  2.135167e-03 -8.965481e-03  2.951661e-02
   endloop
 endfacet
 facet normal  1.578459e-16  7.216663e-01  6.922411e-01
   outer loop
     vertex  1.290459e-03 -7.975800e-03  2.848486e-02
     vertex  1.290762e-03 -8.662109e-03  2.920034e-02
     vertex  2.136311e-03 -8.283043e-03  2.880516e-02
   endloop
 endfacet
 facet normal  8.580187e-16  7.216663e-01  6.922411e-01
   outer loop
     vertex  2.135167e-03 -8.965481e-03  2.951661e-02
     vertex  2.136311e-03 -8.283043e-03  2.880516e-02
     vertex  1.290762e-03 -8.662109e-03  2.920034e-02
   endloop
 endfacet
 facet normal -1.446663e-15  7.216663e-01  6.922411e-01
   outer loop
     vertex  2.136086e-03 -9.655366e-03  3.023582e-02
     vertex  2.135167e-03 -8.965481e-03  2.951661e-02
     vertex  1.291137e-03 -9.350035e-03  2.991751e-02
   endloop
 endfacet
 facet normal -1.589008e-15  7.216663e-01  6.922411e-01
   outer loop
     vertex  2.958876e-03 -9.214192e-03  2.977589e-02
     vertex  2.960097e-03 -8.528593e-03  2.906115e-02
     vertex  2.135167e-03 -8.965481e-03  2.951661e-02
   endloop
 endfacet
 facet normal  1.766592e-15  7.216663e-01  6.922411e-01
   outer loop
     vertex  2.960167e-03 -9.906837e-03  3.049798e-02
     vertex  2.958876e-03 -9.214192e-03  2.977589e-02
     vertex  2.136086e-03 -9.655366e-03  3.023582e-02
   endloop
 endfacet
 facet normal -3.548329e-16  7.216663e-01  6.922411e-01
   outer loop
     vertex  2.135167e-03 -8.965481e-03  2.951661e-02
     vertex  2.136086e-03 -9.655366e-03  3.023582e-02
     vertex  2.958876e-03 -9.214192e-03  2.977589e-02
   endloop
 endfacet
 facet normal  3.953350e-15  7.216663e-01  6.922411e-01
   outer loop
     vertex  3.095684e-03 -1.315439e-02  3.388357e-02
     vertex  2.986694e-03 -1.263560e-02  3.334273e-02
     vertex  2.216866e-03 -1.306442e-02  3.378978e-02
   endloop
 endfacet
 facet normal  9.925131e-16  7.216663e-01  6.922411e-01
   outer loop
     vertex  2.216866e-03 -1.306442e-02  3.378978e-02
     vertex  1.348577e-03 -1.322699e-02  3.395926e-02
     vertex  1.875000e-03 -1.353241e-02  3.427766e-02
   endloop
 endfacet
 facet normal  0.000000e+00  7.216663e-01  6.922411e-01
   outer loop
     vertex  3.750000e-03 -1.353241e-02  3.427766e-02
     vertex  3.095684e-03 -1.315439e-02  3.388357e-02
     vertex  2.812500e-03 -1.353241e-02  3.427766e-02
   endloop
 endfacet
 facet normal  0.000000e+00  7.216663e-01  6.922411e-01
   outer loop
     vertex  2.216866e-03 -1.306442e-02  3.378978e-02
     vertex  1.875000e-03 -1.353241e-02  3.427766e-02
     vertex  2.812500e-03 -1.353241e-02  3.427766e-02
   endloop
 endfacet
 facet normal  4.943404e-15  7.216663e-01  6.922411e-01
   outer loop
     vertex  3.095684e-03 -1.315439e-02  3.388357e-02
     vertex  2.216866e-03 -1.306442e-02  3.378978e-02
     vertex  2.812500e-03 -1.353241e-02  3.427766e-02
   endloop
 endfacet
 facet normal -5.201673e-16  7.216663e-01  6.922411e-01
   outer loop
     vertex  2.986694e-03 -1.263560e-02  3.334273e-02
     vertex  3.750000e-03 -1.284017e-02  3.355600e-02
     vertex  3.750000e-03 -1.214793e-02  3.283433e-02
   endloop
 endfacet
 facet normal -3.652978e-15  7.216663e-01  6.922411e-01
   outer loop
     vertex  3.750000e-03 -1.284017e-02  3.355600e-02
     vertex  2.986694e-03 -1.263560e-02  3.334273e-02
     vertex  3.095684e-03 -1.315439e-02  3.388357e-02
   endloop
 endfacet
 facet normal -5.946754e-15  7.216663e-01  6.922411e-01
   outer loop
     vertex  3.095684e-03 -1.315439e-02  3.388357e-02
     vertex  3.750000e-03 -1.353241e-02  3.427766e-02
     vertex  3.750000e-03 -1.284017e-02  3.355600e-02
   endloop
 endfacet
 facet normal -5.270743e-17  7.216663e-01  6.922411e-01
   outer loop
     vertex  3.750000e-03 -1.214793e-02  3.283433e-02
     vertex  2.963043e-03 -1.196754e-02  3.264628e-02
     vertex  2.986694e-03 -1.263560e-02  3.334273e-02
   endloop
 endfacet
 facet normal  3.013057e-15  7.216663e-01  6.922411e-01
   outer loop
     vertex  3.750000e-03 -1.145569e-02  3.211266e-02
     vertex  2.960531e-03 -1.128528e-02  3.193501e-02
     vertex  2.963043e-03 -1.196754e-02  3.264628e-02
   endloop
 endfacet
 facet normal -3.713634e-16  7.216663e-01  6.922411e-01
   outer loop
     vertex  2.151798e-03 -1.239564e-02  3.309257e-02
     vertex  2.216866e-03 -1.306442e-02  3.378978e-02
     vertex  2.986694e-03 -1.263560e-02  3.334273e-02
   endloop
 endfacet
 facet normal  1.177247e-16  7.216663e-01  6.922411e-01
   outer loop
     vertex  2.963043e-03 -1.196754e-02  3.264628e-02
     vertex  3.750000e-03 -1.214793e-02  3.283433e-02
     vertex  3.750000e-03 -1.145569e-02  3.211266e-02
   endloop
 endfacet
 facet normal  4.694013e-16  7.216663e-01  6.922411e-01
   outer loop
     vertex  1.310971e-03 -1.273951e-02  3.345105e-02
     vertex  1.348577e-03 -1.322699e-02  3.395926e-02
     vertex  2.216866e-03 -1.306442e-02  3.378978e-02
   endloop
 endfacet
 facet normal  9.357295e-16  7.216663e-01  6.922411e-01
   outer loop
     vertex  1.294185e-03 -1.209428e-02  3.277840e-02
     vertex  1.310971e-03 -1.273951e-02  3.345105e-02
     vertex  2.151798e-03 -1.239564e-02  3.309257e-02
   endloop
 endfacet
 facet normal  1.253515e-15  7.216663e-01  6.922411e-01
   outer loop
     vertex  2.216866e-03 -1.306442e-02  3.378978e-02
     vertex  2.151798e-03 -1.239564e-02  3.309257e-02
     vertex  1.310971e-03 -1.273951e-02  3.345105e-02
   endloop
 endfacet
 facet normal -2.973375e-15  7.216663e-01  6.922411e-01
   outer loop
     vertex  2.137307e-03 -1.103356e-02  3.167260e-02
     vertex  2.138040e-03 -1.171500e-02  3.238300e-02
     vertex  2.960531e-03 -1.128528e-02  3.193501e-02
   endloop
 endfacet
 facet normal -2.110098e-15  7.216663e-01  6.922411e-01
   outer loop
     vertex  1.290149e-03 -1.140663e-02  3.206152e-02
     vertex  1.294185e-03 -1.209428e-02  3.277840e-02
     vertex  2.138040e-03 -1.171500e-02  3.238300e-02
   endloop
 endfacet
 facet normal  2.313866e-15  7.216663e-01  6.922411e-01
   outer loop
     vertex  1.290998e-03 -1.072387e-02  3.134974e-02
     vertex  1.290149e-03 -1.140663e-02  3.206152e-02
     vertex  2.137307e-03 -1.103356e-02  3.167260e-02
   endloop
 endfacet
 facet normal -1.078679e-15  7.216663e-01  6.922411e-01
   outer loop
     vertex  2.138040e-03 -1.171500e-02  3.238300e-02
     vertex  2.137307e-03 -1.103356e-02  3.167260e-02
     vertex  1.290149e-03 -1.140663e-02  3.206152e-02
   endloop
 endfacet
 facet normal  9.484543e-17  7.216663e-01  6.922411e-01
   outer loop
     vertex  2.151798e-03 -1.239564e-02  3.309257e-02
     vertex  2.138040e-03 -1.171500e-02  3.238300e-02
     vertex  1.294185e-03 -1.209428e-02  3.277840e-02
   endloop
 endfacet
 facet normal  1.433971e-15  7.216663e-01  6.922411e-01
   outer loop
     vertex  2.963043e-03 -1.196754e-02  3.264628e-02
     vertex  2.960531e-03 -1.128528e-02  3.193501e-02
     vertex  2.138040e-03 -1.171500e-02  3.238300e-02
   endloop
 endfacet
 facet normal  6.637920e-17  7.216663e-01  6.922411e-01
   outer loop
     vertex  2.986694e-03 -1.263560e-02  3.334273e-02
     vertex  2.963043e-03 -1.196754e-02  3.264628e-02
     vertex  2.151798e-03 -1.239564e-02  3.309257e-02
   endloop
 endfacet
 facet normal  1.641725e-15  7.216663e-01  6.922411e-01
   outer loop
     vertex  2.138040e-03 -1.171500e-02  3.238300e-02
     vertex  2.151798e-03 -1.239564e-02  3.309257e-02
     vertex  2.963043e-03 -1.196754e-02  3.264628e-02
   endloop
 endfacet
 facet normal  0.000000e+00  7.216663e-01  6.922411e-01
   outer loop
     vertex  4.488209e-04 -1.308537e-02  3.381161e-02
     vertex  0.000000e+00 -1.353241e-02  3.427766e-02
     vertex  9.375000e-04 -1.353241e-02  3.427766e-02
   endloop
 endfacet
 facet normal  0.000000e+00  7.216663e-01  6.922411e-01
   outer loop
     vertex  1.875000e-03 -1.353241e-02  3.427766e-02
     vertex  1.348577e-03 -1.322699e-02  3.395926e-02
     vertex  9.375000e-04 -1.353241e-02  3.427766e-02
   endloop
 endfacet
 facet normal -3.796509e-15  7.216663e-01  6.922411e-01
   outer loop
     vertex  1.348577e-03 -1.322699e-02  3.395926e-02
     vertex  4.488209e-04 -1.308537e-02  3.381161e-02
     vertex  9.375000e-04 -1.353241e-02  3.427766e-02
   endloop
 endfacet
 facet normal  4.473592e-15  7.216663e-01  6.922411e-01
   outer loop
     vertex -4.313427e-04 -1.275304e-02  3.346517e-02
     vertex -4.460993e-04 -1.322679e-02  3.395905e-02
     vertex  4.488209e-04 -1.308537e-02  3.381161e-02
   endloop
 endfacet
 facet normal  5.634300e-15  7.216663e-01  6.922411e-01
   outer loop
     vertex  4.488209e-04 -1.308537e-02  3.381161e-02
     vertex -4.460993e-04 -1.322679e-02  3.395905e-02
     vertex  0.000000e+00 -1.353241e-02  3.427766e-02
   endloop
 endfacet
 facet normal -1.188668e-15  7.216663e-01  6.922411e-01
   outer loop
     vertex -1.289234e-03 -1.243346e-02  3.313200e-02
     vertex -1.328390e-03 -1.308372e-02  3.380990e-02
     vertex -4.313427e-04 -1.275304e-02  3.346517e-02
   endloop
 endfacet
 facet normal  1.592433e-15  7.216663e-01  6.922411e-01
   outer loop
     vertex -2.142795e-03 -1.274768e-02  3.345957e-02
     vertex -2.215248e-03 -1.322642e-02  3.395866e-02
     vertex -1.328390e-03 -1.308372e-02  3.380990e-02
   endloop
 endfacet
 facet normal  2.117885e-15  7.216663e-01  6.922411e-01
   outer loop
     vertex -2.131533e-03 -1.210496e-02  3.278953e-02
     vertex -2.142795e-03 -1.274768e-02  3.345957e-02
     vertex -1.289234e-03 -1.243346e-02  3.313200e-02
   endloop
 endfacet
 facet normal  4.726656e-16  7.216663e-01  6.922411e-01
   outer loop
     vertex -1.328390e-03 -1.308372e-02  3.380990e-02
     vertex -1.289234e-03 -1.243346e-02  3.313200e-02
     vertex -2.142795e-03 -1.274768e-02  3.345957e-02
   endloop
 endfacet
 facet normal -1.112246e-15  7.216663e-01  6.922411e-01
   outer loop
     vertex -4.460993e-04 -1.322679e-02  3.395905e-02
     vertex -4.313427e-04 -1.275304e-02  3.346517e-02
     vertex -1.328390e-03 -1.308372e-02  3.380990e-02
   endloop
 endfacet
 facet normal  4.181016e-15  7.216663e-01  6.922411e-01
   outer loop
     vertex -1.328390e-03 -1.308372e-02  3.380990e-02
     vertex -2.215248e-03 -1.322642e-02  3.395866e-02
     vertex -1.875000e-03 -1.353241e-02  3.427766e-02
   endloop
 endfacet
 facet normal  0.000000e+00  7.216663e-01  6.922411e-01
   outer loop
     vertex  0.000000e+00 -1.353241e-02  3.427766e-02
     vertex -4.460993e-04 -1.322679e-02  3.395905e-02
     vertex -9.375000e-04 -1.353241e-02  3.427766e-02
   endloop
 endfacet
 facet normal -1.869432e-16  7.216663e-01  6.922411e-01
   outer loop
     vertex  4.340835e-04 -1.038685e-02  3.099839e-02
     vertex  4.338994e-04 -1.107307e-02  3.171379e-02
     vertex  1.290998e-03 -1.072387e-02  3.134974e-02
   endloop
 endfacet
 facet normal  0.000000e+00  7.216663e-01  6.922411e-01
   outer loop
     vertex -1.328390e-03 -1.308372e-02  3.380990e-02
     vertex -1.875000e-03 -1.353241e-02  3.427766e-02
     vertex -9.375000e-04 -1.353241e-02  3.427766e-02
   endloop
 endfacet
 facet normal -2.897130e-15  7.216663e-01  6.922411e-01
   outer loop
     vertex -4.460993e-04 -1.322679e-02  3.395905e-02
     vertex -1.328390e-03 -1.308372e-02  3.380990e-02
     vertex -9.375000e-04 -1.353241e-02  3.427766e-02
   endloop
 endfacet
 facet normal -1.304889e-15  7.216663e-01  6.922411e-01
   outer loop
     vertex -4.245821e-04 -1.073170e-02  3.135791e-02
     vertex -4.245663e-04 -1.141870e-02  3.207411e-02
     vertex  4.338994e-04 -1.107307e-02  3.171379e-02
   endloop
 endfacet
 facet normal -1.243082e-15  7.216663e-01  6.922411e-01
   outer loop
     vertex -4.245094e-04 -1.004501e-02  3.064202e-02
     vertex -4.245821e-04 -1.073170e-02  3.135791e-02
     vertex  4.340835e-04 -1.038685e-02  3.099839e-02
   endloop
 endfacet
 facet normal -3.234430e-15  7.216663e-01  6.922411e-01
   outer loop
     vertex  4.338994e-04 -1.107307e-02  3.171379e-02
     vertex  4.340835e-04 -1.038685e-02  3.099839e-02
     vertex -4.245821e-04 -1.073170e-02  3.135791e-02
   endloop
 endfacet
 facet normal -2.250032e-15  7.216663e-01  6.922411e-01
   outer loop
     vertex -1.280374e-03 -1.107636e-02  3.171721e-02
     vertex -1.281506e-03 -1.176104e-02  3.243100e-02
     vertex -4.245663e-04 -1.141870e-02  3.207411e-02
   endloop
 endfacet
 facet normal -2.979976e-15  7.216663e-01  6.922411e-01
   outer loop
     vertex -2.127704e-03 -1.142344e-02  3.207904e-02
     vertex -2.131533e-03 -1.210496e-02  3.278953e-02
     vertex -1.281506e-03 -1.176104e-02  3.243100e-02
   endloop
 endfacet
 facet normal -7.539981e-16  7.216663e-01  6.922411e-01
   outer loop
     vertex -2.129817e-03 -1.073597e-02  3.136236e-02
     vertex -2.127704e-03 -1.142344e-02  3.207904e-02
     vertex -1.280374e-03 -1.107636e-02  3.171721e-02
   endloop
 endfacet
 facet normal -3.350176e-15  7.216663e-01  6.922411e-01
   outer loop
     vertex -1.281506e-03 -1.176104e-02  3.243100e-02
     vertex -1.280374e-03 -1.107636e-02  3.171721e-02
     vertex -2.127704e-03 -1.142344e-02  3.207904e-02
   endloop
 endfacet
 facet normal -2.493073e-16  7.216663e-01  6.922411e-01
   outer loop
     vertex -1.280290e-03 -9.702388e-03  3.028484e-02
     vertex -1.279962e-03 -1.038959e-02  3.100125e-02
     vertex -4.245094e-04 -1.004501e-02  3.064202e-02
   endloop
 endfacet
 facet normal -8.797604e-16  7.216663e-01  6.922411e-01
   outer loop
     vertex -2.127564e-03 -1.004885e-02  3.064602e-02
     vertex -2.129817e-03 -1.073597e-02  3.136236e-02
     vertex -1.279962e-03 -1.038959e-02  3.100125e-02
   endloop
 endfacet
 facet normal -2.197276e-15  7.216663e-01  6.922411e-01
   outer loop
     vertex -2.129570e-03 -9.360701e-03  2.992863e-02
     vertex -2.127564e-03 -1.004885e-02  3.064602e-02
     vertex -1.280290e-03 -9.702388e-03  3.028484e-02
   endloop
 endfacet
 facet normal -1.699063e-15  7.216663e-01  6.922411e-01
   outer loop
     vertex -1.279962e-03 -1.038959e-02  3.100125e-02
     vertex -1.280290e-03 -9.702388e-03  3.028484e-02
     vertex -2.127564e-03 -1.004885e-02  3.064602e-02
   endloop
 endfacet
 facet normal  3.140203e-16  7.216663e-01  6.922411e-01
   outer loop
     vertex -1.280374e-03 -1.107636e-02  3.171721e-02
     vertex -1.279962e-03 -1.038959e-02  3.100125e-02
     vertex -2.129817e-03 -1.073597e-02  3.136236e-02
   endloop
 endfacet
 facet normal  1.060589e-15  7.216663e-01  6.922411e-01
   outer loop
     vertex -4.245821e-04 -1.073170e-02  3.135791e-02
     vertex -4.245094e-04 -1.004501e-02  3.064202e-02
     vertex -1.279962e-03 -1.038959e-02  3.100125e-02
   endloop
 endfacet
 facet normal -8.726437e-16  7.216663e-01  6.922411e-01
   outer loop
     vertex -4.245663e-04 -1.141870e-02  3.207411e-02
     vertex -4.245821e-04 -1.073170e-02  3.135791e-02
     vertex -1.280374e-03 -1.107636e-02  3.171721e-02
   endloop
 endfacet
 facet normal  2.058150e-15  7.216663e-01  6.922411e-01
   outer loop
     vertex -1.279962e-03 -1.038959e-02  3.100125e-02
     vertex -1.280374e-03 -1.107636e-02  3.171721e-02
     vertex -4.245821e-04 -1.073170e-02  3.135791e-02
   endloop
 endfacet
 facet normal  4.186964e-16  7.216663e-01  6.922411e-01
   outer loop
     vertex -1.289234e-03 -1.243346e-02  3.313200e-02
     vertex -1.281506e-03 -1.176104e-02  3.243100e-02
     vertex -2.131533e-03 -1.210496e-02  3.278953e-02
   endloop
 endfacet
 facet normal -4.403690e-16  7.216663e-01  6.922411e-01
   outer loop
     vertex -4.256219e-04 -1.209891e-02  3.278322e-02
     vertex -4.245663e-04 -1.141870e-02  3.207411e-02
     vertex -1.281506e-03 -1.176104e-02  3.243100e-02
   endloop
 endfacet
 facet normal -3.124385e-15  7.216663e-01  6.922411e-01
   outer loop
     vertex -4.313427e-04 -1.275304e-02  3.346517e-02
     vertex -4.256219e-04 -1.209891e-02  3.278322e-02
     vertex -1.289234e-03 -1.243346e-02  3.313200e-02
   endloop
 endfacet
 facet normal -1.743197e-15  7.216663e-01  6.922411e-01
   outer loop
     vertex -1.281506e-03 -1.176104e-02  3.243100e-02
     vertex -1.289234e-03 -1.243346e-02  3.313200e-02
     vertex -4.256219e-04 -1.209891e-02  3.278322e-02
   endloop
 endfacet
 facet normal  1.245621e-15  7.216663e-01  6.922411e-01
   outer loop
     vertex  4.342969e-04 -1.175834e-02  3.242818e-02
     vertex  4.338994e-04 -1.107307e-02  3.171379e-02
     vertex -4.245663e-04 -1.141870e-02  3.207411e-02
   endloop
 endfacet
 facet normal  1.159133e-15  7.216663e-01  6.922411e-01
   outer loop
     vertex  1.290149e-03 -1.140663e-02  3.206152e-02
     vertex  1.290998e-03 -1.072387e-02  3.134974e-02
     vertex  4.338994e-04 -1.107307e-02  3.171379e-02
   endloop
 endfacet
 facet normal  6.833096e-16  7.216663e-01  6.922411e-01
   outer loop
     vertex  1.294185e-03 -1.209428e-02  3.277840e-02
     vertex  1.290149e-03 -1.140663e-02  3.206152e-02
     vertex  4.342969e-04 -1.175834e-02  3.242818e-02
   endloop
 endfacet
 facet normal  1.905365e-15  7.216663e-01  6.922411e-01
   outer loop
     vertex  4.338994e-04 -1.107307e-02  3.171379e-02
     vertex  4.342969e-04 -1.175834e-02  3.242818e-02
     vertex  1.290149e-03 -1.140663e-02  3.206152e-02
   endloop
 endfacet
 facet normal  2.144992e-15  7.216663e-01  6.922411e-01
   outer loop
     vertex  4.488209e-04 -1.308537e-02  3.381161e-02
     vertex  4.375935e-04 -1.243086e-02  3.312928e-02
     vertex -4.313427e-04 -1.275304e-02  3.346517e-02
   endloop
 endfacet
 facet normal -3.052018e-15  7.216663e-01  6.922411e-01
   outer loop
     vertex  1.310971e-03 -1.273951e-02  3.345105e-02
     vertex  1.294185e-03 -1.209428e-02  3.277840e-02
     vertex  4.375935e-04 -1.243086e-02  3.312928e-02
   endloop
 endfacet
 facet normal -3.932855e-15  7.216663e-01  6.922411e-01
   outer loop
     vertex  1.348577e-03 -1.322699e-02  3.395926e-02
     vertex  1.310971e-03 -1.273951e-02  3.345105e-02
     vertex  4.488209e-04 -1.308537e-02  3.381161e-02
   endloop
 endfacet
 facet normal -4.095763e-15  7.216663e-01  6.922411e-01
   outer loop
     vertex  4.375935e-04 -1.243086e-02  3.312928e-02
     vertex  4.488209e-04 -1.308537e-02  3.381161e-02
     vertex  1.310971e-03 -1.273951e-02  3.345105e-02
   endloop
 endfacet
 facet normal -1.682556e-15  7.216663e-01  6.922411e-01
   outer loop
     vertex  4.342969e-04 -1.175834e-02  3.242818e-02
     vertex  4.375935e-04 -1.243086e-02  3.312928e-02
     vertex  1.294185e-03 -1.209428e-02  3.277840e-02
   endloop
 endfacet
 facet normal  1.746443e-15  7.216663e-01  6.922411e-01
   outer loop
     vertex -4.256219e-04 -1.209891e-02  3.278322e-02
     vertex -4.313427e-04 -1.275304e-02  3.346517e-02
     vertex  4.375935e-04 -1.243086e-02  3.312928e-02
   endloop
 endfacet
 facet normal  5.642241e-16  7.216663e-01  6.922411e-01
   outer loop
     vertex -4.245663e-04 -1.141870e-02  3.207411e-02
     vertex -4.256219e-04 -1.209891e-02  3.278322e-02
     vertex  4.342969e-04 -1.175834e-02  3.242818e-02
   endloop
 endfacet
 facet normal  1.075183e-15  7.216663e-01  6.922411e-01
   outer loop
     vertex  4.375935e-04 -1.243086e-02  3.312928e-02
     vertex  4.342969e-04 -1.175834e-02  3.242818e-02
     vertex -4.256219e-04 -1.209891e-02  3.278322e-02
   endloop
 endfacet
 facet normal  4.791432e-16  7.216663e-01  6.922411e-01
   outer loop
     vertex  3.750000e-03 -6.610000e-03  2.706100e-02
     vertex  2.799451e-03 -6.610019e-03  2.706102e-02
     vertex  2.938050e-03 -7.169510e-03  2.764429e-02
   endloop
 endfacet
 facet normal  4.822457e-16  7.216663e-01  6.922411e-01
   outer loop
     vertex  2.938163e-03 -6.050396e-03  2.647761e-02
     vertex  2.799451e-03 -6.610019e-03  2.706102e-02
     vertex  3.750000e-03 -6.610000e-03  2.706100e-02
   endloop
 endfacet
 facet normal  1.137351e-15  7.216663e-01  6.922411e-01
   outer loop
     vertex  2.109341e-03 -6.933401e-03  2.739815e-02
     vertex  2.132655e-03 -7.601025e-03  2.809415e-02
     vertex  2.938050e-03 -7.169510e-03  2.764429e-02
   endloop
 endfacet
 facet normal  6.520962e-17  7.216663e-01  6.922411e-01
   outer loop
     vertex  3.750000e-03 -6.610000e-03  2.706100e-02
     vertex  3.750000e-03 -5.917759e-03  2.633933e-02
     vertex  2.938163e-03 -6.050396e-03  2.647761e-02
   endloop
 endfacet
 facet normal -2.084675e-15  7.216663e-01  6.922411e-01
   outer loop
     vertex  1.285452e-03 -7.289218e-03  2.776909e-02
     vertex  1.290459e-03 -7.975800e-03  2.848486e-02
     vertex  2.132655e-03 -7.601025e-03  2.809415e-02
   endloop
 endfacet
 facet normal -1.343624e-15  7.216663e-01  6.922411e-01
   outer loop
     vertex  1.286705e-03 -6.610028e-03  2.706103e-02
     vertex  1.285452e-03 -7.289218e-03  2.776909e-02
     vertex  2.109341e-03 -6.933401e-03  2.739815e-02
   endloop
 endfacet
 facet normal -3.084846e-15  7.216663e-01  6.922411e-01
   outer loop
     vertex  2.132655e-03 -7.601025e-03  2.809415e-02
     vertex  2.109341e-03 -6.933401e-03  2.739815e-02
     vertex  1.285452e-03 -7.289218e-03  2.776909e-02
   endloop
 endfacet
 facet normal -1.272815e-15  7.216663e-01  6.922411e-01
   outer loop
     vertex  2.132172e-03 -5.620336e-03  2.602927e-02
     vertex  2.107468e-03 -6.285883e-03  2.672311e-02
     vertex  2.938163e-03 -6.050396e-03  2.647761e-02
   endloop
 endfacet
 facet normal  1.839133e-15  7.216663e-01  6.922411e-01
   outer loop
     vertex  1.285169e-03 -5.930860e-03  2.635299e-02
     vertex  1.286705e-03 -6.610028e-03  2.706103e-02
     vertex  2.107468e-03 -6.285883e-03  2.672311e-02
   endloop
 endfacet
 facet normal  8.214528e-16  7.216663e-01  6.922411e-01
   outer loop
     vertex  1.290423e-03 -5.244213e-03  2.563716e-02
     vertex  1.285169e-03 -5.930860e-03  2.635299e-02
     vertex  2.132172e-03 -5.620336e-03  2.602927e-02
   endloop
 endfacet
 facet normal  1.252213e-15  7.216663e-01  6.922411e-01
   outer loop
     vertex  2.107468e-03 -6.285883e-03  2.672311e-02
     vertex  2.132172e-03 -5.620336e-03  2.602927e-02
     vertex  1.285169e-03 -5.930860e-03  2.635299e-02
   endloop
 endfacet
 facet normal  8.265210e-16  7.216663e-01  6.922411e-01
   outer loop
     vertex  2.109341e-03 -6.933401e-03  2.739815e-02
     vertex  2.107468e-03 -6.285883e-03  2.672311e-02
     vertex  1.286705e-03 -6.610028e-03  2.706103e-02
   endloop
 endfacet
 facet normal -1.780579e-15  7.216663e-01  6.922411e-01
   outer loop
     vertex  2.799451e-03 -6.610019e-03  2.706102e-02
     vertex  2.938163e-03 -6.050396e-03  2.647761e-02
     vertex  2.107468e-03 -6.285883e-03  2.672311e-02
   endloop
 endfacet
 facet normal  6.378099e-16  7.216663e-01  6.922411e-01
   outer loop
     vertex  2.938050e-03 -7.169510e-03  2.764429e-02
     vertex  2.799451e-03 -6.610019e-03  2.706102e-02
     vertex  2.109341e-03 -6.933401e-03  2.739815e-02
   endloop
 endfacet
 facet normal -8.189914e-16  7.216663e-01  6.922411e-01
   outer loop
     vertex  2.107468e-03 -6.285883e-03  2.672311e-02
     vertex  2.109341e-03 -6.933401e-03  2.739815e-02
     vertex  2.799451e-03 -6.610019e-03  2.706102e-02
   endloop
 endfacet
 facet normal -7.468180e-16  7.216663e-01  6.922411e-01
   outer loop
     vertex  4.333179e-04 -7.638617e-03  2.813334e-02
     vertex  4.340627e-04 -8.325903e-03  2.884984e-02
     vertex  1.290459e-03 -7.975800e-03  2.848486e-02
   endloop
 endfacet
 facet normal  6.832069e-16  7.216663e-01  6.922411e-01
   outer loop
     vertex -4.245371e-04 -7.983690e-03  2.849308e-02
     vertex -4.244156e-04 -8.670945e-03  2.920955e-02
     vertex  4.340627e-04 -8.325903e-03  2.884984e-02
   endloop
 endfacet
 facet normal  0.000000e+00  7.216663e-01  6.922411e-01
   outer loop
     vertex -4.244353e-04 -7.296973e-03  2.777717e-02
     vertex -4.245371e-04 -7.983690e-03  2.849308e-02
     vertex  4.333179e-04 -7.638617e-03  2.813334e-02
   endloop
 endfacet
 facet normal  1.118330e-15  7.216663e-01  6.922411e-01
   outer loop
     vertex  4.340627e-04 -8.325903e-03  2.884984e-02
     vertex  4.333179e-04 -7.638617e-03  2.813334e-02
     vertex -4.245371e-04 -7.983690e-03  2.849308e-02
   endloop
 endfacet
 facet normal -6.226461e-17  7.216663e-01  6.922411e-01
   outer loop
     vertex -1.280806e-03 -8.327893e-03  2.885192e-02
     vertex -1.281013e-03 -9.015076e-03  2.956831e-02
     vertex -4.244156e-04 -8.670945e-03  2.920955e-02
   endloop
 endfacet
 facet normal -2.262571e-15  7.216663e-01  6.922411e-01
   outer loop
     vertex -2.128616e-03 -8.673154e-03  2.921185e-02
     vertex -2.129570e-03 -9.360701e-03  2.992863e-02
     vertex -1.281013e-03 -9.015076e-03  2.956831e-02
   endloop
 endfacet
 facet normal -1.067790e-15  7.216663e-01  6.922411e-01
   outer loop
     vertex -2.129558e-03 -7.985357e-03  2.849482e-02
     vertex -2.128616e-03 -8.673154e-03  2.921185e-02
     vertex -1.280806e-03 -8.327893e-03  2.885192e-02
   endloop
 endfacet
 facet normal -1.509841e-15  7.216663e-01  6.922411e-01
   outer loop
     vertex -1.281013e-03 -9.015076e-03  2.956831e-02
     vertex -1.280806e-03 -8.327893e-03  2.885192e-02
     vertex -2.128616e-03 -8.673154e-03  2.921185e-02
   endloop
 endfacet
 facet normal  6.850595e-16  7.216663e-01  6.922411e-01
   outer loop
     vertex -1.280776e-03 -6.953583e-03  2.741919e-02
     vertex -1.280773e-03 -7.640740e-03  2.813555e-02
     vertex -4.244353e-04 -7.296973e-03  2.777717e-02
   endloop
 endfacet
 facet normal  1.884899e-15  7.216663e-01  6.922411e-01
   outer loop
     vertex -2.128473e-03 -7.297732e-03  2.777797e-02
     vertex -2.129558e-03 -7.985357e-03  2.849482e-02
     vertex -1.280773e-03 -7.640740e-03  2.813555e-02
   endloop
 endfacet
 facet normal -1.570633e-15  7.216663e-01  6.922411e-01
   outer loop
     vertex -2.129444e-03 -6.610009e-03  2.706101e-02
     vertex -2.128473e-03 -7.297732e-03  2.777797e-02
     vertex -1.280776e-03 -6.953583e-03  2.741919e-02
   endloop
 endfacet
 facet normal  6.920430e-16  7.216663e-01  6.922411e-01
   outer loop
     vertex -1.280773e-03 -7.640740e-03  2.813555e-02
     vertex -1.280776e-03 -6.953583e-03  2.741919e-02
     vertex -2.128473e-03 -7.297732e-03  2.777797e-02
   endloop
 endfacet
 facet normal  4.398384e-16  7.216663e-01  6.922411e-01
   outer loop
     vertex -1.280806e-03 -8.327893e-03  2.885192e-02
     vertex -1.280773e-03 -7.640740e-03  2.813555e-02
     vertex -2.129558e-03 -7.985357e-03  2.849482e-02
   endloop
 endfacet
 facet normal -1.931976e-15  7.216663e-01  6.922411e-01
   outer loop
     vertex -4.245371e-04 -7.983690e-03  2.849308e-02
     vertex -4.244353e-04 -7.296973e-03  2.777717e-02
     vertex -1.280773e-03 -7.640740e-03  2.813555e-02
   endloop
 endfacet
 facet normal -4.981597e-16  7.216663e-01  6.922411e-01
   outer loop
     vertex -4.244156e-04 -8.670945e-03  2.920955e-02
     vertex -4.245371e-04 -7.983690e-03  2.849308e-02
     vertex -1.280806e-03 -8.327893e-03  2.885192e-02
   endloop
 endfacet
 facet normal -1.993114e-15  7.216663e-01  6.922411e-01
   outer loop
     vertex -1.280773e-03 -7.640740e-03  2.813555e-02
     vertex -1.280806e-03 -8.327893e-03  2.885192e-02
     vertex -4.245371e-04 -7.983690e-03  2.849308e-02
   endloop
 endfacet
 facet normal -1.244872e-15  7.216663e-01  6.922411e-01
   outer loop
     vertex  4.340211e-04 -4.894221e-03  2.527229e-02
     vertex  4.332760e-04 -5.581405e-03  2.598868e-02
     vertex  1.290423e-03 -5.244213e-03  2.563716e-02
   endloop
 endfacet
 facet normal  8.087984e-16  7.216663e-01  6.922411e-01
   outer loop
     vertex -4.245553e-04 -5.236324e-03  2.562893e-02
     vertex -4.244391e-04 -5.923026e-03  2.634483e-02
     vertex  4.332760e-04 -5.581405e-03  2.598868e-02
   endloop
 endfacet
 facet normal -6.832129e-16  7.216663e-01  6.922411e-01
   outer loop
     vertex -4.244272e-04 -4.549054e-03  2.491245e-02
     vertex -4.245553e-04 -5.236324e-03  2.562893e-02
     vertex  4.340211e-04 -4.894221e-03  2.527229e-02
   endloop
 endfacet
 facet normal -6.214031e-16  7.216663e-01  6.922411e-01
   outer loop
     vertex  4.332760e-04 -5.581405e-03  2.598868e-02
     vertex  4.340211e-04 -4.894221e-03  2.527229e-02
     vertex -4.245553e-04 -5.236324e-03  2.562893e-02
   endloop
 endfacet
 facet normal  8.096222e-16  7.216663e-01  6.922411e-01
   outer loop
     vertex -1.280769e-03 -5.579276e-03  2.598646e-02
     vertex -1.280777e-03 -6.266432e-03  2.670283e-02
     vertex -4.244391e-04 -5.923026e-03  2.634483e-02
   endloop
 endfacet
 facet normal -2.198924e-15  7.216663e-01  6.922411e-01
   outer loop
     vertex -2.128450e-03 -5.922288e-03  2.634406e-02
     vertex -2.129444e-03 -6.610009e-03  2.706101e-02
     vertex -1.280777e-03 -6.266432e-03  2.670283e-02
   endloop
 endfacet
 facet normal -6.911587e-16  7.216663e-01  6.922411e-01
   outer loop
     vertex -2.129454e-03 -5.234643e-03  2.562718e-02
     vertex -2.128450e-03 -5.922288e-03  2.634406e-02
     vertex -1.280769e-03 -5.579276e-03  2.598646e-02
   endloop
 endfacet
 facet normal -1.824526e-15  7.216663e-01  6.922411e-01
   outer loop
     vertex -1.280777e-03 -6.266432e-03  2.670283e-02
     vertex -1.280769e-03 -5.579276e-03  2.598646e-02
     vertex -2.128450e-03 -5.922288e-03  2.634406e-02
   endloop
 endfacet
 facet normal -8.096339e-16  7.216663e-01  6.922411e-01
   outer loop
     vertex -1.280757e-03 -4.204874e-03  2.455364e-02
     vertex -1.280584e-03 -4.892093e-03  2.527007e-02
     vertex -4.244272e-04 -4.549054e-03  2.491245e-02
   endloop
 endfacet
 facet normal  1.318869e-15  7.216663e-01  6.922411e-01
   outer loop
     vertex -2.128451e-03 -4.546832e-03  2.491013e-02
     vertex -2.129454e-03 -5.234643e-03  2.562718e-02
     vertex -1.280584e-03 -4.892093e-03  2.527007e-02
   endloop
 endfacet
 facet normal -5.027011e-16  7.216663e-01  6.922411e-01
   outer loop
     vertex -2.129606e-03 -3.859313e-03  2.419339e-02
     vertex -2.128451e-03 -4.546832e-03  2.491013e-02
     vertex -1.280757e-03 -4.204874e-03  2.455364e-02
   endloop
 endfacet
 facet normal  3.774075e-16  7.216663e-01  6.922411e-01
   outer loop
     vertex -1.280584e-03 -4.892093e-03  2.527007e-02
     vertex -1.280757e-03 -4.204874e-03  2.455364e-02
     vertex -2.128451e-03 -4.546832e-03  2.491013e-02
   endloop
 endfacet
 facet normal  9.424588e-16  7.216663e-01  6.922411e-01
   outer loop
     vertex -1.280769e-03 -5.579276e-03  2.598646e-02
     vertex -1.280584e-03 -4.892093e-03  2.527007e-02
     vertex -2.129454e-03 -5.234643e-03  2.562718e-02
   endloop
 endfacet
 facet normal -4.360007e-16  7.216663e-01  6.922411e-01
   outer loop
     vertex -4.245553e-04 -5.236324e-03  2.562893e-02
     vertex -4.244272e-04 -4.549054e-03  2.491245e-02
     vertex -1.280584e-03 -4.892093e-03  2.527007e-02
   endloop
 endfacet
 facet normal  1.184162e-15  7.216663e-01  6.922411e-01
   outer loop
     vertex -4.244391e-04 -5.923026e-03  2.634483e-02
     vertex -4.245553e-04 -5.236324e-03  2.562893e-02
     vertex -1.280769e-03 -5.579276e-03  2.598646e-02
   endloop
 endfacet
 facet normal  1.121249e-15  7.216663e-01  6.922411e-01
   outer loop
     vertex -1.280584e-03 -4.892093e-03  2.527007e-02
     vertex -1.280769e-03 -5.579276e-03  2.598646e-02
     vertex -4.245553e-04 -5.236324e-03  2.562893e-02
   endloop
 endfacet
 facet normal -2.450828e-15  7.216663e-01  6.922411e-01
   outer loop
     vertex -1.280776e-03 -6.953583e-03  2.741919e-02
     vertex -1.280777e-03 -6.266432e-03  2.670283e-02
     vertex -2.129444e-03 -6.610009e-03  2.706101e-02
   endloop
 endfacet
 facet normal  7.473742e-16  7.216663e-01  6.922411e-01
   outer loop
     vertex -4.240653e-04 -6.610002e-03  2.706100e-02
     vertex -4.244391e-04 -5.923026e-03  2.634483e-02
     vertex -1.280777e-03 -6.266432e-03  2.670283e-02
   endloop
 endfacet
 facet normal  1.307910e-15  7.216663e-01  6.922411e-01
   outer loop
     vertex -4.244353e-04 -7.296973e-03  2.777717e-02
     vertex -4.240653e-04 -6.610002e-03  2.706100e-02
     vertex -1.280776e-03 -6.953583e-03  2.741919e-02
   endloop
 endfacet
 facet normal  4.357618e-16  7.216663e-01  6.922411e-01
   outer loop
     vertex -1.280777e-03 -6.266432e-03  2.670283e-02
     vertex -1.280776e-03 -6.953583e-03  2.741919e-02
     vertex -4.240653e-04 -6.610002e-03  2.706100e-02
   endloop
 endfacet
 facet normal  4.982955e-16  7.216663e-01  6.922411e-01
   outer loop
     vertex  4.328556e-04 -6.267531e-03  2.670397e-02
     vertex  4.332760e-04 -5.581405e-03  2.598868e-02
     vertex -4.244391e-04 -5.923026e-03  2.634483e-02
   endloop
 endfacet
 facet normal -1.936066e-15  7.216663e-01  6.922411e-01
   outer loop
     vertex  1.285169e-03 -5.930860e-03  2.635299e-02
     vertex  1.290423e-03 -5.244213e-03  2.563716e-02
     vertex  4.332760e-04 -5.581405e-03  2.598868e-02
   endloop
 endfacet
 facet normal  1.897556e-16  7.216663e-01  6.922411e-01
   outer loop
     vertex  1.286705e-03 -6.610028e-03  2.706103e-02
     vertex  1.285169e-03 -5.930860e-03  2.635299e-02
     vertex  4.328556e-04 -6.267531e-03  2.670397e-02
   endloop
 endfacet
 facet normal -7.521789e-16  7.216663e-01  6.922411e-01
   outer loop
     vertex  4.332760e-04 -5.581405e-03  2.598868e-02
     vertex  4.328556e-04 -6.267531e-03  2.670397e-02
     vertex  1.285169e-03 -5.930860e-03  2.635299e-02
   endloop
 endfacet
 facet normal -8.721603e-16  7.216663e-01  6.922411e-01
   outer loop
     vertex  4.333179e-04 -7.638617e-03  2.813334e-02
     vertex  4.327399e-04 -6.952572e-03  2.741813e-02
     vertex -4.244353e-04 -7.296973e-03  2.777717e-02
   endloop
 endfacet
 facet normal  2.529226e-16  7.216663e-01  6.922411e-01
   outer loop
     vertex  1.285452e-03 -7.289218e-03  2.776909e-02
     vertex  1.286705e-03 -6.610028e-03  2.706103e-02
     vertex  4.327399e-04 -6.952572e-03  2.741813e-02
   endloop
 endfacet
 facet normal  6.869629e-16  7.216663e-01  6.922411e-01
   outer loop
     vertex  1.290459e-03 -7.975800e-03  2.848486e-02
     vertex  1.285452e-03 -7.289218e-03  2.776909e-02
     vertex  4.333179e-04 -7.638617e-03  2.813334e-02
   endloop
 endfacet
 facet normal  1.817294e-15  7.216663e-01  6.922411e-01
   outer loop
     vertex  4.327399e-04 -6.952572e-03  2.741813e-02
     vertex  4.333179e-04 -7.638617e-03  2.813334e-02
     vertex  1.285452e-03 -7.289218e-03  2.776909e-02
   endloop
 endfacet
 facet normal -4.385392e-16  7.216663e-01  6.922411e-01
   outer loop
     vertex  4.328556e-04 -6.267531e-03  2.670397e-02
     vertex  4.327399e-04 -6.952572e-03  2.741813e-02
     vertex  1.286705e-03 -6.610028e-03  2.706103e-02
   endloop
 endfacet
 facet normal  3.112387e-16  7.216663e-01  6.922411e-01
   outer loop
     vertex -4.240653e-04 -6.610002e-03  2.706100e-02
     vertex -4.244353e-04 -7.296973e-03  2.777717e-02
     vertex  4.327399e-04 -6.952572e-03  2.741813e-02
   endloop
 endfacet
 facet normal -1.867165e-16  7.216663e-01  6.922411e-01
   outer loop
     vertex -4.244391e-04 -5.923026e-03  2.634483e-02
     vertex -4.240653e-04 -6.610002e-03  2.706100e-02
     vertex  4.328556e-04 -6.267531e-03  2.670397e-02
   endloop
 endfacet
 facet normal  6.243237e-16  7.216663e-01  6.922411e-01
   outer loop
     vertex  4.327399e-04 -6.952572e-03  2.741813e-02
     vertex  4.328556e-04 -6.267531e-03  2.670397e-02
     vertex -4.240653e-04 -6.610002e-03  2.706100e-02
   endloop
 endfacet
 facet normal  2.904471e-15  7.216663e-01  6.922411e-01
   outer loop
     vertex -2.952994e-03 -9.022746e-03  2.957630e-02
     vertex -2.954136e-03 -9.711817e-03  3.029467e-02
     vertex -2.129570e-03 -9.360701e-03  2.992863e-02
   endloop
 endfacet
 facet normal -2.003343e-16  7.216663e-01  6.922411e-01
   outer loop
     vertex -2.954136e-03 -9.711817e-03  3.029467e-02
     vertex -2.952994e-03 -9.022746e-03  2.957630e-02
     vertex -3.750000e-03 -9.378965e-03  2.994767e-02
   endloop
 endfacet
 facet normal  4.981730e-16  7.216663e-01  6.922411e-01
   outer loop
     vertex -2.952994e-03 -9.022746e-03  2.957630e-02
     vertex -3.750000e-03 -8.686723e-03  2.922600e-02
     vertex -3.750000e-03 -9.378965e-03  2.994767e-02
   endloop
 endfacet
 facet normal  1.420516e-15  7.216663e-01  6.922411e-01
   outer loop
     vertex -2.953390e-03 -3.507995e-03  2.382714e-02
     vertex -2.952790e-03 -4.197222e-03  2.454566e-02
     vertex -2.129606e-03 -3.859313e-03  2.419339e-02
   endloop
 endfacet
 facet normal -1.134281e-15  7.216663e-01  6.922411e-01
   outer loop
     vertex -2.952790e-03 -4.197222e-03  2.454566e-02
     vertex -2.953390e-03 -3.507995e-03  2.382714e-02
     vertex -3.750000e-03 -3.841035e-03  2.417433e-02
   endloop
 endfacet
 facet normal -3.322803e-17  7.216663e-01  6.922411e-01
   outer loop
     vertex -2.953390e-03 -3.507995e-03  2.382714e-02
     vertex -3.750000e-03 -3.148794e-03  2.345267e-02
     vertex -3.750000e-03 -3.841035e-03  2.417433e-02
   endloop
 endfacet
 facet normal  1.747111e-15  7.216663e-01  6.922411e-01
   outer loop
     vertex -2.128451e-03 -4.546832e-03  2.491013e-02
     vertex -2.129606e-03 -3.859313e-03  2.419339e-02
     vertex -2.952790e-03 -4.197222e-03  2.454566e-02
   endloop
 endfacet
 facet normal -1.467009e-15  7.216663e-01  6.922411e-01
   outer loop
     vertex -2.952704e-03 -4.886560e-03  2.526430e-02
     vertex -2.952790e-03 -4.197222e-03  2.454566e-02
     vertex -3.750000e-03 -4.533277e-03  2.489600e-02
   endloop
 endfacet
 facet normal -2.357414e-15  7.216663e-01  6.922411e-01
   outer loop
     vertex -2.952790e-03 -4.197222e-03  2.454566e-02
     vertex -3.750000e-03 -3.841035e-03  2.417433e-02
     vertex -3.750000e-03 -4.533277e-03  2.489600e-02
   endloop
 endfacet
 facet normal -1.616995e-15  7.216663e-01  6.922411e-01
   outer loop
     vertex -2.129454e-03 -5.234643e-03  2.562718e-02
     vertex -2.128451e-03 -4.546832e-03  2.491013e-02
     vertex -2.952704e-03 -4.886560e-03  2.526430e-02
   endloop
 endfacet
 facet normal  6.449455e-17  7.216663e-01  6.922411e-01
   outer loop
     vertex -2.952790e-03 -4.197222e-03  2.454566e-02
     vertex -2.952704e-03 -4.886560e-03  2.526430e-02
     vertex -2.128451e-03 -4.546832e-03  2.491013e-02
   endloop
 endfacet
 facet normal  7.116673e-16  7.216663e-01  6.922411e-01
   outer loop
     vertex -2.128450e-03 -5.922288e-03  2.634406e-02
     vertex -2.129454e-03 -5.234643e-03  2.562718e-02
     vertex -2.952695e-03 -5.575924e-03  2.598297e-02
   endloop
 endfacet
 facet normal  3.333792e-16  7.216663e-01  6.922411e-01
   outer loop
     vertex -2.952694e-03 -6.265281e-03  2.670163e-02
     vertex -2.952695e-03 -5.575924e-03  2.598297e-02
     vertex -3.750000e-03 -5.917759e-03  2.633933e-02
   endloop
 endfacet
 facet normal -6.639810e-17  7.216663e-01  6.922411e-01
   outer loop
     vertex -2.952695e-03 -5.575924e-03  2.598297e-02
     vertex -3.750000e-03 -5.225518e-03  2.561767e-02
     vertex -3.750000e-03 -5.917759e-03  2.633933e-02
   endloop
 endfacet
 facet normal  4.528237e-16  7.216663e-01  6.922411e-01
   outer loop
     vertex -2.129444e-03 -6.610009e-03  2.706101e-02
     vertex -2.128450e-03 -5.922288e-03  2.634406e-02
     vertex -2.952694e-03 -6.265281e-03  2.670163e-02
   endloop
 endfacet
 facet normal  9.029542e-16  7.216663e-01  6.922411e-01
   outer loop
     vertex -2.952695e-03 -5.575924e-03  2.598297e-02
     vertex -2.952694e-03 -6.265281e-03  2.670163e-02
     vertex -2.128450e-03 -5.922288e-03  2.634406e-02
   endloop
 endfacet
 facet normal -1.162338e-15  7.216663e-01  6.922411e-01
   outer loop
     vertex -2.952704e-03 -4.886560e-03  2.526430e-02
     vertex -2.952695e-03 -5.575924e-03  2.598297e-02
     vertex -2.129454e-03 -5.234643e-03  2.562718e-02
   endloop
 endfacet
 facet normal  1.266837e-15  7.216663e-01  6.922411e-01
   outer loop
     vertex -2.952695e-03 -5.575924e-03  2.598297e-02
     vertex -2.952704e-03 -4.886560e-03  2.526430e-02
     vertex -3.750000e-03 -5.225518e-03  2.561767e-02
   endloop
 endfacet
 facet normal  1.029183e-15  7.216663e-01  6.922411e-01
   outer loop
     vertex -2.952704e-03 -4.886560e-03  2.526430e-02
     vertex -3.750000e-03 -4.533277e-03  2.489600e-02
     vertex -3.750000e-03 -5.225518e-03  2.561767e-02
   endloop
 endfacet
 facet normal  2.587558e-16  7.216663e-01  6.922411e-01
   outer loop
     vertex -2.128473e-03 -7.297732e-03  2.777797e-02
     vertex -2.129444e-03 -6.610009e-03  2.706101e-02
     vertex -2.952705e-03 -6.954644e-03  2.742029e-02
   endloop
 endfacet
 facet normal -9.335489e-16  7.216663e-01  6.922411e-01
   outer loop
     vertex -2.952797e-03 -7.643986e-03  2.813894e-02
     vertex -2.952705e-03 -6.954644e-03  2.742029e-02
     vertex -3.750000e-03 -7.302241e-03  2.778267e-02
   endloop
 endfacet
 facet normal -3.319947e-16  7.216663e-01  6.922411e-01
   outer loop
     vertex -2.952705e-03 -6.954644e-03  2.742029e-02
     vertex -3.750000e-03 -6.610000e-03  2.706100e-02
     vertex -3.750000e-03 -7.302241e-03  2.778267e-02
   endloop
 endfacet
 facet normal  2.587831e-16  7.216663e-01  6.922411e-01
   outer loop
     vertex -2.129558e-03 -7.985357e-03  2.849482e-02
     vertex -2.128473e-03 -7.297732e-03  2.777797e-02
     vertex -2.952797e-03 -7.643986e-03  2.813894e-02
   endloop
 endfacet
 facet normal -3.869728e-16  7.216663e-01  6.922411e-01
   outer loop
     vertex -2.952705e-03 -6.954644e-03  2.742029e-02
     vertex -2.952797e-03 -7.643986e-03  2.813894e-02
     vertex -2.128473e-03 -7.297732e-03  2.777797e-02
   endloop
 endfacet
 facet normal  1.748282e-15  7.216663e-01  6.922411e-01
   outer loop
     vertex -2.128616e-03 -8.673154e-03  2.921185e-02
     vertex -2.129558e-03 -7.985357e-03  2.849482e-02
     vertex -2.951949e-03 -8.333489e-03  2.885775e-02
   endloop
 endfacet
 facet normal  8.666842e-16  7.216663e-01  6.922411e-01
   outer loop
     vertex -2.952994e-03 -9.022746e-03  2.957630e-02
     vertex -2.951949e-03 -8.333489e-03  2.885775e-02
     vertex -3.750000e-03 -8.686723e-03  2.922600e-02
   endloop
 endfacet
 facet normal -1.061377e-15  7.216663e-01  6.922411e-01
   outer loop
     vertex -2.951949e-03 -8.333489e-03  2.885775e-02
     vertex -3.750000e-03 -7.994482e-03  2.850433e-02
     vertex -3.750000e-03 -8.686723e-03  2.922600e-02
   endloop
 endfacet
 facet normal  2.199598e-15  7.216663e-01  6.922411e-01
   outer loop
     vertex -2.129570e-03 -9.360701e-03  2.992863e-02
     vertex -2.128616e-03 -8.673154e-03  2.921185e-02
     vertex -2.952994e-03 -9.022746e-03  2.957630e-02
   endloop
 endfacet
 facet normal  1.807040e-15  7.216663e-01  6.922411e-01
   outer loop
     vertex -2.951949e-03 -8.333489e-03  2.885775e-02
     vertex -2.952994e-03 -9.022746e-03  2.957630e-02
     vertex -2.128616e-03 -8.673154e-03  2.921185e-02
   endloop
 endfacet
 facet normal  9.043270e-16  7.216663e-01  6.922411e-01
   outer loop
     vertex -2.952797e-03 -7.643986e-03  2.813894e-02
     vertex -2.951949e-03 -8.333489e-03  2.885775e-02
     vertex -2.129558e-03 -7.985357e-03  2.849482e-02
   endloop
 endfacet
 facet normal  8.394567e-16  7.216663e-01  6.922411e-01
   outer loop
     vertex -2.952694e-03 -6.265281e-03  2.670163e-02
     vertex -2.952705e-03 -6.954644e-03  2.742029e-02
     vertex -2.129444e-03 -6.610009e-03  2.706101e-02
   endloop
 endfacet
 facet normal -2.198934e-15  7.216663e-01  6.922411e-01
   outer loop
     vertex -2.951949e-03 -8.333489e-03  2.885775e-02
     vertex -2.952797e-03 -7.643986e-03  2.813894e-02
     vertex -3.750000e-03 -7.994482e-03  2.850433e-02
   endloop
 endfacet
 facet normal -1.494150e-15  7.216663e-01  6.922411e-01
   outer loop
     vertex -2.952797e-03 -7.643986e-03  2.813894e-02
     vertex -3.750000e-03 -7.302241e-03  2.778267e-02
     vertex -3.750000e-03 -7.994482e-03  2.850433e-02
   endloop
 endfacet
 facet normal  2.000270e-16  7.216663e-01  6.922411e-01
   outer loop
     vertex -2.952705e-03 -6.954644e-03  2.742029e-02
     vertex -2.952694e-03 -6.265281e-03  2.670163e-02
     vertex -3.750000e-03 -6.610000e-03  2.706100e-02
   endloop
 endfacet
 facet normal  7.303780e-16  7.216663e-01  6.922411e-01
   outer loop
     vertex -2.952694e-03 -6.265281e-03  2.670163e-02
     vertex -3.750000e-03 -5.917759e-03  2.633933e-02
     vertex -3.750000e-03 -6.610000e-03  2.706100e-02
   endloop
 endfacet
endsolid
