solid
 facet normal -2.441583e-16  7.071068e-01  7.071068e-01
   outer loop
     vertex -7.500000e-03 -3.750000e-03 -1.250000e-03
     vertex -6.872364e-03 -3.750142e-03 -1.249858e-03
     vertex -6.963200e-03 -3.319531e-03 -1.680469e-03
   endloop
 endfacet
 facet normal  0.000000e+00  7.071068e-01  7.071068e-01
   outer loop
     vertex -7.500000e-03 -3.124918e-03 -1.875082e-03
     vertex -6.989698e-03 -2.870001e-03 -2.129999e-03
     vertex -7.500000e-03 -2.499835e-03 -2.500165e-03
   endloop
 endfacet
 facet normal -8.367140e-17  7.071068e-01  7.071068e-01
   outer loop
     vertex -6.963200e-03 -3.319531e-03 -1.680469e-03
     vertex -7.500000e-03 -3.124918e-03 -1.875082e-03
     vertex -7.500000e-03 -3.750000e-03 -1.250000e-03
   endloop
 endfacet
 facet normal -1.585170e-16  7.071068e-01  7.071068e-01
   outer loop
     vertex -6.963200e-03 -3.319531e-03 -1.680469e-03
     vertex -6.989698e-03 -2.870001e-03 -2.129999e-03
     vertex -7.500000e-03 -3.124918e-03 -1.875082e-03
   endloop
 endfacet
 facet normal -2.442729e-16  7.071068e-01  7.071068e-01
   outer loop
     vertex -6.872364e-03 -3.750142e-03 -1.249858e-03
     vertex -7.500000e-03 -3.750000e-03 -1.250000e-03
     vertex -6.963083e-03 -4.180568e-03 -8.194318e-04
   endloop
 endfacet
 facet normal -4.359665e-16  7.071068e-01  7.071068e-01
   outer loop
     vertex -6.963083e-03 -4.180568e-03 -8.194318e-04
     vertex -7.500000e-03 -4.375082e-03 -6.249176e-04
     vertex -6.989617e-03 -4.629963e-03 -3.700370e-04
   endloop
 endfacet
 facet normal -3.520083e-16  7.071068e-01  7.071068e-01
   outer loop
     vertex -7.500000e-03 -5.000165e-03  1.647891e-07
     vertex -6.989617e-03 -4.629963e-03 -3.700370e-04
     vertex -7.500000e-03 -4.375082e-03 -6.249176e-04
   endloop
 endfacet
 facet normal  0.000000e+00  7.071068e-01  7.071068e-01
   outer loop
     vertex -6.500000e-03 -5.000165e-03  1.647891e-07
     vertex -6.989617e-03 -4.629963e-03 -3.700370e-04
     vertex -7.500000e-03 -5.000165e-03  1.647891e-07
   endloop
 endfacet
 facet normal -3.903810e-16  7.071068e-01  7.071068e-01
   outer loop
     vertex -7.500000e-03 -4.375082e-03 -6.249176e-04
     vertex -6.963083e-03 -4.180568e-03 -8.194318e-04
     vertex -7.500000e-03 -3.750000e-03 -1.250000e-03
   endloop
 endfacet
 facet normal  3.500336e-16  7.071068e-01  7.071068e-01
   outer loop
     vertex -4.283363e-03 -2.820644e-03 -2.179356e-03
     vertex -4.500000e-03 -2.499835e-03 -2.500165e-03
     vertex -5.078349e-03 -2.939225e-03 -2.060775e-03
   endloop
 endfacet
 facet normal  0.000000e+00  7.071068e-01  7.071068e-01
   outer loop
     vertex -3.500000e-03 -2.499835e-03 -2.500165e-03
     vertex -4.500000e-03 -2.499835e-03 -2.500165e-03
     vertex -4.283363e-03 -2.820644e-03 -2.179356e-03
   endloop
 endfacet
 facet normal -4.039104e-16  7.071068e-01  7.071068e-01
   outer loop
     vertex -3.161050e-03 -3.249361e-03 -1.750639e-03
     vertex -3.096835e-03 -2.834787e-03 -2.165213e-03
     vertex -3.738300e-03 -3.007147e-03 -1.992853e-03
   endloop
 endfacet
 facet normal  0.000000e+00  7.071068e-01  7.071068e-01
   outer loop
     vertex -4.283363e-03 -2.820644e-03 -2.179356e-03
     vertex -3.738300e-03 -3.007147e-03 -1.992853e-03
     vertex -3.500000e-03 -2.499835e-03 -2.500165e-03
   endloop
 endfacet
 facet normal -5.430468e-16  7.071068e-01  7.071068e-01
   outer loop
     vertex -3.096835e-03 -2.834787e-03 -2.165213e-03
     vertex -3.500000e-03 -2.499835e-03 -2.500165e-03
     vertex -3.738300e-03 -3.007147e-03 -1.992853e-03
   endloop
 endfacet
 facet normal -2.438577e-16  7.071068e-01  7.071068e-01
   outer loop
     vertex -2.533216e-03 -3.497092e-03 -1.502908e-03
     vertex -2.524408e-03 -3.011561e-03 -1.988439e-03
     vertex -3.161050e-03 -3.249361e-03 -1.750639e-03
   endloop
 endfacet
 facet normal  0.000000e+00  7.071068e-01  7.071068e-01
   outer loop
     vertex -1.902679e-03 -3.252918e-03 -1.747082e-03
     vertex -1.939684e-03 -2.832363e-03 -2.167637e-03
     vertex -2.524408e-03 -3.011561e-03 -1.988439e-03
   endloop
 endfacet
 facet normal -1.185238e-16  7.071068e-01  7.071068e-01
   outer loop
     vertex -1.892813e-03 -3.749995e-03 -1.250005e-03
     vertex -1.902679e-03 -3.252918e-03 -1.747082e-03
     vertex -2.533216e-03 -3.497092e-03 -1.502908e-03
   endloop
 endfacet
 facet normal  0.000000e+00  7.071068e-01  7.071068e-01
   outer loop
     vertex -2.524408e-03 -3.011561e-03 -1.988439e-03
     vertex -2.533216e-03 -3.497092e-03 -1.502908e-03
     vertex -1.902679e-03 -3.252918e-03 -1.747082e-03
   endloop
 endfacet
 facet normal -1.129046e-16  7.071068e-01  7.071068e-01
   outer loop
     vertex -3.096835e-03 -2.834787e-03 -2.165213e-03
     vertex -3.161050e-03 -3.249361e-03 -1.750639e-03
     vertex -2.524408e-03 -3.011561e-03 -1.988439e-03
   endloop
 endfacet
 facet normal -0.000000e+00  7.071068e-01  7.071068e-01
   outer loop
     vertex -3.500000e-03 -2.499835e-03 -2.500165e-03
     vertex -3.096835e-03 -2.834787e-03 -2.165213e-03
     vertex -2.500000e-03 -2.499835e-03 -2.500165e-03
   endloop
 endfacet
 facet normal -1.904425e-16  7.071068e-01  7.071068e-01
   outer loop
     vertex -2.524408e-03 -3.011561e-03 -1.988439e-03
     vertex -1.939684e-03 -2.832363e-03 -2.167637e-03
     vertex -2.500000e-03 -2.499835e-03 -2.500165e-03
   endloop
 endfacet
 facet normal  1.889072e-16  7.071068e-01  7.071068e-01
   outer loop
     vertex -2.524408e-03 -3.011561e-03 -1.988439e-03
     vertex -2.500000e-03 -2.499835e-03 -2.500165e-03
     vertex -3.096835e-03 -2.834787e-03 -2.165213e-03
   endloop
 endfacet
 facet normal -5.248374e-16  7.071068e-01  7.071068e-01
   outer loop
     vertex -3.500000e-03 -5.000165e-03  1.647891e-07
     vertex -3.738260e-03 -4.492869e-03 -5.071315e-04
     vertex -4.283364e-03 -4.679355e-03 -3.206452e-04
   endloop
 endfacet
 facet normal  5.140105e-16  7.071068e-01  7.071068e-01
   outer loop
     vertex -3.096825e-03 -4.665255e-03 -3.347447e-04
     vertex -3.161000e-03 -4.250626e-03 -7.493743e-04
     vertex -3.738260e-03 -4.492869e-03 -5.071315e-04
   endloop
 endfacet
 facet normal  0.000000e+00  7.071068e-01  7.071068e-01
   outer loop
     vertex -2.500000e-03 -5.000165e-03  1.647891e-07
     vertex -3.096825e-03 -4.665255e-03 -3.347447e-04
     vertex -3.500000e-03 -5.000165e-03  1.647891e-07
   endloop
 endfacet
 facet normal  3.291474e-17  7.071068e-01  7.071068e-01
   outer loop
     vertex -3.096825e-03 -4.665255e-03 -3.347447e-04
     vertex -3.738260e-03 -4.492869e-03 -5.071315e-04
     vertex -3.500000e-03 -5.000165e-03  1.647891e-07
   endloop
 endfacet
 facet normal -4.903763e-16  7.071068e-01  7.071068e-01
   outer loop
     vertex -2.524235e-03 -4.488130e-03 -5.118703e-04
     vertex -2.533401e-03 -4.005180e-03 -9.948196e-04
     vertex -3.161000e-03 -4.250626e-03 -7.493743e-04
   endloop
 endfacet
 facet normal -2.368429e-16  7.071068e-01  7.071068e-01
   outer loop
     vertex -1.902660e-03 -4.247383e-03 -7.526172e-04
     vertex -1.892813e-03 -3.749995e-03 -1.250005e-03
     vertex -2.533401e-03 -4.005180e-03 -9.948196e-04
   endloop
 endfacet
 facet normal  4.079842e-16  7.071068e-01  7.071068e-01
   outer loop
     vertex -1.939728e-03 -4.667680e-03 -3.323205e-04
     vertex -1.902660e-03 -4.247383e-03 -7.526172e-04
     vertex -2.524235e-03 -4.488130e-03 -5.118703e-04
   endloop
 endfacet
 facet normal  0.000000e+00  7.071068e-01  7.071068e-01
   outer loop
     vertex -2.533401e-03 -4.005180e-03 -9.948196e-04
     vertex -2.524235e-03 -4.488130e-03 -5.118703e-04
     vertex -1.902660e-03 -4.247383e-03 -7.526172e-04
   endloop
 endfacet
 facet normal  0.000000e+00  7.071068e-01  7.071068e-01
   outer loop
     vertex -1.500000e-03 -5.000165e-03  1.647891e-07
     vertex -1.939728e-03 -4.667680e-03 -3.323205e-04
     vertex -2.500000e-03 -5.000165e-03  1.647891e-07
   endloop
 endfacet
 facet normal  3.145933e-17  7.071068e-01  7.071068e-01
   outer loop
     vertex -2.524235e-03 -4.488130e-03 -5.118703e-04
     vertex -3.096825e-03 -4.665255e-03 -3.347447e-04
     vertex -2.500000e-03 -5.000165e-03  1.647891e-07
   endloop
 endfacet
 facet normal  3.490354e-16  7.071068e-01  7.071068e-01
   outer loop
     vertex -1.939728e-03 -4.667680e-03 -3.323205e-04
     vertex -2.524235e-03 -4.488130e-03 -5.118703e-04
     vertex -2.500000e-03 -5.000165e-03  1.647891e-07
   endloop
 endfacet
 facet normal -3.761751e-16  7.071068e-01  7.071068e-01
   outer loop
     vertex -3.161000e-03 -4.250626e-03 -7.493743e-04
     vertex -3.096825e-03 -4.665255e-03 -3.347447e-04
     vertex -2.524235e-03 -4.488130e-03 -5.118703e-04
   endloop
 endfacet
 facet normal  0.000000e+00  7.071068e-01  7.071068e-01
   outer loop
     vertex -4.283364e-03 -4.679355e-03 -3.206452e-04
     vertex -4.500000e-03 -5.000165e-03  1.647891e-07
     vertex -3.500000e-03 -5.000165e-03  1.647891e-07
   endloop
 endfacet
 facet normal -2.300595e-16  7.071068e-01  7.071068e-01
   outer loop
     vertex -2.533216e-03 -3.497092e-03 -1.502908e-03
     vertex -2.533401e-03 -4.005180e-03 -9.948196e-04
     vertex -1.892813e-03 -3.749995e-03 -1.250005e-03
   endloop
 endfacet
 facet normal  0.000000e+00  7.071068e-01  7.071068e-01
   outer loop
     vertex -3.175502e-03 -3.750288e-03 -1.249712e-03
     vertex -3.161000e-03 -4.250626e-03 -7.493743e-04
     vertex -2.533401e-03 -4.005180e-03 -9.948196e-04
   endloop
 endfacet
 facet normal  0.000000e+00  7.071068e-01  7.071068e-01
   outer loop
     vertex -3.161050e-03 -3.249361e-03 -1.750639e-03
     vertex -3.175502e-03 -3.750288e-03 -1.249712e-03
     vertex -2.533216e-03 -3.497092e-03 -1.502908e-03
   endloop
 endfacet
 facet normal  2.294508e-16  7.071068e-01  7.071068e-01
   outer loop
     vertex -2.533401e-03 -4.005180e-03 -9.948196e-04
     vertex -2.533216e-03 -3.497092e-03 -1.502908e-03
     vertex -3.175502e-03 -3.750288e-03 -1.249712e-03
   endloop
 endfacet
 facet normal  8.119979e-16  7.071068e-01  7.071068e-01
   outer loop
     vertex -3.811194e-03 -4.004373e-03 -9.956269e-04
     vertex -3.738260e-03 -4.492869e-03 -5.071315e-04
     vertex -3.161000e-03 -4.250626e-03 -7.493743e-04
   endloop
 endfacet
 facet normal -6.168407e-16  7.071068e-01  7.071068e-01
   outer loop
     vertex -4.434924e-03 -4.258052e-03 -7.419481e-04
     vertex -4.283364e-03 -4.679355e-03 -3.206452e-04
     vertex -3.738260e-03 -4.492869e-03 -5.071315e-04
   endloop
 endfacet
 facet normal -3.447553e-16  7.071068e-01  7.071068e-01
   outer loop
     vertex -4.469864e-03 -3.750012e-03 -1.249988e-03
     vertex -4.434924e-03 -4.258052e-03 -7.419481e-04
     vertex -3.811194e-03 -4.004373e-03 -9.956269e-04
   endloop
 endfacet
 facet normal -2.895650e-16  7.071068e-01  7.071068e-01
   outer loop
     vertex -3.738260e-03 -4.492869e-03 -5.071315e-04
     vertex -3.811194e-03 -4.004373e-03 -9.956269e-04
     vertex -4.434924e-03 -4.258052e-03 -7.419481e-04
   endloop
 endfacet
 facet normal  0.000000e+00  7.071068e-01  7.071068e-01
   outer loop
     vertex -3.738300e-03 -3.007147e-03 -1.992853e-03
     vertex -3.810200e-03 -3.495134e-03 -1.504866e-03
     vertex -3.161050e-03 -3.249361e-03 -1.750639e-03
   endloop
 endfacet
 facet normal  0.000000e+00  7.071068e-01  7.071068e-01
   outer loop
     vertex -4.434808e-03 -3.241895e-03 -1.758105e-03
     vertex -4.469864e-03 -3.750012e-03 -1.249988e-03
     vertex -3.810200e-03 -3.495134e-03 -1.504866e-03
   endloop
 endfacet
 facet normal  2.177630e-16  7.071068e-01  7.071068e-01
   outer loop
     vertex -4.283363e-03 -2.820644e-03 -2.179356e-03
     vertex -4.434808e-03 -3.241895e-03 -1.758105e-03
     vertex -3.738300e-03 -3.007147e-03 -1.992853e-03
   endloop
 endfacet
 facet normal  2.317833e-16  7.071068e-01  7.071068e-01
   outer loop
     vertex -3.810200e-03 -3.495134e-03 -1.504866e-03
     vertex -3.738300e-03 -3.007147e-03 -1.992853e-03
     vertex -4.434808e-03 -3.241895e-03 -1.758105e-03
   endloop
 endfacet
 facet normal -2.230376e-16  7.071068e-01  7.071068e-01
   outer loop
     vertex -3.811194e-03 -4.004373e-03 -9.956269e-04
     vertex -3.810200e-03 -3.495134e-03 -1.504866e-03
     vertex -4.469864e-03 -3.750012e-03 -1.249988e-03
   endloop
 endfacet
 facet normal  5.819505e-17  7.071068e-01  7.071068e-01
   outer loop
     vertex -3.175502e-03 -3.750288e-03 -1.249712e-03
     vertex -3.161050e-03 -3.249361e-03 -1.750639e-03
     vertex -3.810200e-03 -3.495134e-03 -1.504866e-03
   endloop
 endfacet
 facet normal  5.235586e-16  7.071068e-01  7.071068e-01
   outer loop
     vertex -3.161000e-03 -4.250626e-03 -7.493743e-04
     vertex -3.175502e-03 -3.750288e-03 -1.249712e-03
     vertex -3.811194e-03 -4.004373e-03 -9.956269e-04
   endloop
 endfacet
 facet normal  0.000000e+00  7.071068e-01  7.071068e-01
   outer loop
     vertex -3.810200e-03 -3.495134e-03 -1.504866e-03
     vertex -3.811194e-03 -4.004373e-03 -9.956269e-04
     vertex -3.175502e-03 -3.750288e-03 -1.249712e-03
   endloop
 endfacet
 facet normal  6.500552e-16  7.071068e-01  7.071068e-01
   outer loop
     vertex -4.283364e-03 -4.679355e-03 -3.206452e-04
     vertex -5.078353e-03 -4.560767e-03 -4.392330e-04
     vertex -4.500000e-03 -5.000165e-03  1.647891e-07
   endloop
 endfacet
 facet normal -5.951134e-16  7.071068e-01  7.071068e-01
   outer loop
     vertex -5.777429e-03 -4.258060e-03 -7.419404e-04
     vertex -5.853044e-03 -4.675213e-03 -3.247874e-04
     vertex -5.078353e-03 -4.560767e-03 -4.392330e-04
   endloop
 endfacet
 facet normal -0.000000e+00  7.071068e-01  7.071068e-01
   outer loop
     vertex -5.500000e-03 -5.000165e-03  1.647891e-07
     vertex -4.500000e-03 -5.000165e-03  1.647891e-07
     vertex -5.078353e-03 -4.560767e-03 -4.392330e-04
   endloop
 endfacet
 facet normal -5.125446e-16  7.071068e-01  7.071068e-01
   outer loop
     vertex -5.853044e-03 -4.675213e-03 -3.247874e-04
     vertex -5.500000e-03 -5.000165e-03  1.647891e-07
     vertex -5.078353e-03 -4.560767e-03 -4.392330e-04
   endloop
 endfacet
 facet normal  2.492822e-16  7.071068e-01  7.071068e-01
   outer loop
     vertex -6.379399e-03 -3.992594e-03 -1.007406e-03
     vertex -6.418116e-03 -4.474438e-03 -5.255618e-04
     vertex -5.777429e-03 -4.258060e-03 -7.419404e-04
   endloop
 endfacet
 facet normal  0.000000e+00  7.071068e-01  7.071068e-01
   outer loop
     vertex -6.963083e-03 -4.180568e-03 -8.194318e-04
     vertex -6.989617e-03 -4.629963e-03 -3.700370e-04
     vertex -6.418116e-03 -4.474438e-03 -5.255618e-04
   endloop
 endfacet
 facet normal  2.797389e-16  7.071068e-01  7.071068e-01
   outer loop
     vertex -6.872364e-03 -3.750142e-03 -1.249858e-03
     vertex -6.963083e-03 -4.180568e-03 -8.194318e-04
     vertex -6.379399e-03 -3.992594e-03 -1.007406e-03
   endloop
 endfacet
 facet normal  2.049551e-16  7.071068e-01  7.071068e-01
   outer loop
     vertex -6.418116e-03 -4.474438e-03 -5.255618e-04
     vertex -6.379399e-03 -3.992594e-03 -1.007406e-03
     vertex -6.963083e-03 -4.180568e-03 -8.194318e-04
   endloop
 endfacet
 facet normal  2.983934e-16  7.071068e-01  7.071068e-01
   outer loop
     vertex -5.853044e-03 -4.675213e-03 -3.247874e-04
     vertex -5.777429e-03 -4.258060e-03 -7.419404e-04
     vertex -6.418116e-03 -4.474438e-03 -5.255618e-04
   endloop
 endfacet
 facet normal  0.000000e+00  7.071068e-01  7.071068e-01
   outer loop
     vertex -5.500000e-03 -5.000165e-03  1.647891e-07
     vertex -5.853044e-03 -4.675213e-03 -3.247874e-04
     vertex -6.500000e-03 -5.000165e-03  1.647891e-07
   endloop
 endfacet
 facet normal  6.505313e-17  7.071068e-01  7.071068e-01
   outer loop
     vertex -6.418116e-03 -4.474438e-03 -5.255618e-04
     vertex -6.989617e-03 -4.629963e-03 -3.700370e-04
     vertex -6.500000e-03 -5.000165e-03  1.647891e-07
   endloop
 endfacet
 facet normal  1.791018e-16  7.071068e-01  7.071068e-01
   outer loop
     vertex -6.418116e-03 -4.474438e-03 -5.255618e-04
     vertex -6.500000e-03 -5.000165e-03  1.647891e-07
     vertex -5.853044e-03 -4.675213e-03 -3.247874e-04
   endloop
 endfacet
 facet normal -0.000000e+00  7.071068e-01  7.071068e-01
   outer loop
     vertex -5.500000e-03 -2.499835e-03 -2.500165e-03
     vertex -5.078349e-03 -2.939225e-03 -2.060775e-03
     vertex -4.500000e-03 -2.499835e-03 -2.500165e-03
   endloop
 endfacet
 facet normal -2.974774e-16  7.071068e-01  7.071068e-01
   outer loop
     vertex -5.853126e-03 -2.824745e-03 -2.175255e-03
     vertex -5.777534e-03 -3.241959e-03 -1.758041e-03
     vertex -5.078349e-03 -2.939225e-03 -2.060775e-03
   endloop
 endfacet
 facet normal  2.986495e-16  7.071068e-01  7.071068e-01
   outer loop
     vertex -6.500000e-03 -2.499835e-03 -2.500165e-03
     vertex -6.416342e-03 -3.026276e-03 -1.973724e-03
     vertex -5.853126e-03 -2.824745e-03 -2.175255e-03
   endloop
 endfacet
 facet normal -3.363383e-16  7.071068e-01  7.071068e-01
   outer loop
     vertex -5.853126e-03 -2.824745e-03 -2.175255e-03
     vertex -5.078349e-03 -2.939225e-03 -2.060775e-03
     vertex -5.500000e-03 -2.499835e-03 -2.500165e-03
   endloop
 endfacet
 facet normal  0.000000e+00  7.071068e-01  7.071068e-01
   outer loop
     vertex -6.416342e-03 -3.026276e-03 -1.973724e-03
     vertex -6.378378e-03 -3.504171e-03 -1.495829e-03
     vertex -5.777534e-03 -3.241959e-03 -1.758041e-03
   endloop
 endfacet
 facet normal -3.981341e-17  7.071068e-01  7.071068e-01
   outer loop
     vertex -6.963200e-03 -3.319531e-03 -1.680469e-03
     vertex -6.872364e-03 -3.750142e-03 -1.249858e-03
     vertex -6.378378e-03 -3.504171e-03 -1.495829e-03
   endloop
 endfacet
 facet normal -4.428307e-16  7.071068e-01  7.071068e-01
   outer loop
     vertex -6.989698e-03 -2.870001e-03 -2.129999e-03
     vertex -6.963200e-03 -3.319531e-03 -1.680469e-03
     vertex -6.416342e-03 -3.026276e-03 -1.973724e-03
   endloop
 endfacet
 facet normal -2.747709e-16  7.071068e-01  7.071068e-01
   outer loop
     vertex -6.378378e-03 -3.504171e-03 -1.495829e-03
     vertex -6.416342e-03 -3.026276e-03 -1.973724e-03
     vertex -6.963200e-03 -3.319531e-03 -1.680469e-03
   endloop
 endfacet
 facet normal -0.000000e+00  7.071068e-01  7.071068e-01
   outer loop
     vertex -7.500000e-03 -2.499835e-03 -2.500165e-03
     vertex -6.989698e-03 -2.870001e-03 -2.129999e-03
     vertex -6.500000e-03 -2.499835e-03 -2.500165e-03
   endloop
 endfacet
 facet normal  0.000000e+00  7.071068e-01  7.071068e-01
   outer loop
     vertex -5.853126e-03 -2.824745e-03 -2.175255e-03
     vertex -5.500000e-03 -2.499835e-03 -2.500165e-03
     vertex -6.500000e-03 -2.499835e-03 -2.500165e-03
   endloop
 endfacet
 facet normal -3.889043e-16  7.071068e-01  7.071068e-01
   outer loop
     vertex -6.989698e-03 -2.870001e-03 -2.129999e-03
     vertex -6.416342e-03 -3.026276e-03 -1.973724e-03
     vertex -6.500000e-03 -2.499835e-03 -2.500165e-03
   endloop
 endfacet
 facet normal  2.618110e-16  7.071068e-01  7.071068e-01
   outer loop
     vertex -5.777534e-03 -3.241959e-03 -1.758041e-03
     vertex -5.853126e-03 -2.824745e-03 -2.175255e-03
     vertex -6.416342e-03 -3.026276e-03 -1.973724e-03
   endloop
 endfacet
 facet normal  3.106249e-16  7.071068e-01  7.071068e-01
   outer loop
     vertex -6.379399e-03 -3.992594e-03 -1.007406e-03
     vertex -6.378378e-03 -3.504171e-03 -1.495829e-03
     vertex -6.872364e-03 -3.750142e-03 -1.249858e-03
   endloop
 endfacet
 facet normal -1.820808e-16  7.071068e-01  7.071068e-01
   outer loop
     vertex -5.764691e-03 -3.749607e-03 -1.250393e-03
     vertex -5.777534e-03 -3.241959e-03 -1.758041e-03
     vertex -6.378378e-03 -3.504171e-03 -1.495829e-03
   endloop
 endfacet
 facet normal -6.048363e-17  7.071068e-01  7.071068e-01
   outer loop
     vertex -5.777429e-03 -4.258060e-03 -7.419404e-04
     vertex -5.764691e-03 -3.749607e-03 -1.250393e-03
     vertex -6.379399e-03 -3.992594e-03 -1.007406e-03
   endloop
 endfacet
 facet normal -2.495681e-16  7.071068e-01  7.071068e-01
   outer loop
     vertex -6.378378e-03 -3.504171e-03 -1.495829e-03
     vertex -6.379399e-03 -3.992594e-03 -1.007406e-03
     vertex -5.764691e-03 -3.749607e-03 -1.250393e-03
   endloop
 endfacet
 facet normal  1.004663e-16  7.071068e-01  7.071068e-01
   outer loop
     vertex -5.114381e-03 -3.487734e-03 -1.512266e-03
     vertex -5.078349e-03 -2.939225e-03 -2.060775e-03
     vertex -5.777534e-03 -3.241959e-03 -1.758041e-03
   endloop
 endfacet
 facet normal  2.952855e-16  7.071068e-01  7.071068e-01
   outer loop
     vertex -4.434808e-03 -3.241895e-03 -1.758105e-03
     vertex -4.283363e-03 -2.820644e-03 -2.179356e-03
     vertex -5.078349e-03 -2.939225e-03 -2.060775e-03
   endloop
 endfacet
 facet normal -2.223680e-16  7.071068e-01  7.071068e-01
   outer loop
     vertex -4.469864e-03 -3.750012e-03 -1.249988e-03
     vertex -4.434808e-03 -3.241895e-03 -1.758105e-03
     vertex -5.114381e-03 -3.487734e-03 -1.512266e-03
   endloop
 endfacet
 facet normal -1.028703e-16  7.071068e-01  7.071068e-01
   outer loop
     vertex -5.078349e-03 -2.939225e-03 -2.060775e-03
     vertex -5.114381e-03 -3.487734e-03 -1.512266e-03
     vertex -4.434808e-03 -3.241895e-03 -1.758105e-03
   endloop
 endfacet
 facet normal -6.529011e-16  7.071068e-01  7.071068e-01
   outer loop
     vertex -5.078353e-03 -4.560767e-03 -4.392330e-04
     vertex -5.113475e-03 -4.012461e-03 -9.875387e-04
     vertex -5.777429e-03 -4.258060e-03 -7.419404e-04
   endloop
 endfacet
 facet normal  3.897627e-16  7.071068e-01  7.071068e-01
   outer loop
     vertex -4.434924e-03 -4.258052e-03 -7.419481e-04
     vertex -4.469864e-03 -3.750012e-03 -1.249988e-03
     vertex -5.113475e-03 -4.012461e-03 -9.875387e-04
   endloop
 endfacet
 facet normal  6.200450e-16  7.071068e-01  7.071068e-01
   outer loop
     vertex -4.283364e-03 -4.679355e-03 -3.206452e-04
     vertex -4.434924e-03 -4.258052e-03 -7.419481e-04
     vertex -5.078353e-03 -4.560767e-03 -4.392330e-04
   endloop
 endfacet
 facet normal  3.605083e-16  7.071068e-01  7.071068e-01
   outer loop
     vertex -5.113475e-03 -4.012461e-03 -9.875387e-04
     vertex -5.078353e-03 -4.560767e-03 -4.392330e-04
     vertex -4.434924e-03 -4.258052e-03 -7.419481e-04
   endloop
 endfacet
 facet normal  1.107652e-16  7.071068e-01  7.071068e-01
   outer loop
     vertex -5.114381e-03 -3.487734e-03 -1.512266e-03
     vertex -5.113475e-03 -4.012461e-03 -9.875387e-04
     vertex -4.469864e-03 -3.750012e-03 -1.249988e-03
   endloop
 endfacet
 facet normal -4.476923e-16  7.071068e-01  7.071068e-01
   outer loop
     vertex -5.764691e-03 -3.749607e-03 -1.250393e-03
     vertex -5.777429e-03 -4.258060e-03 -7.419404e-04
     vertex -5.113475e-03 -4.012461e-03 -9.875387e-04
   endloop
 endfacet
 facet normal  3.367456e-16  7.071068e-01  7.071068e-01
   outer loop
     vertex -5.777534e-03 -3.241959e-03 -1.758041e-03
     vertex -5.764691e-03 -3.749607e-03 -1.250393e-03
     vertex -5.114381e-03 -3.487734e-03 -1.512266e-03
   endloop
 endfacet
 facet normal  1.644376e-16  7.071068e-01  7.071068e-01
   outer loop
     vertex -5.113475e-03 -4.012461e-03 -9.875387e-04
     vertex -5.114381e-03 -3.487734e-03 -1.512266e-03
     vertex -5.764691e-03 -3.749607e-03 -1.250393e-03
   endloop
 endfacet
 facet normal -3.267348e-16  7.071068e-01  7.071068e-01
   outer loop
     vertex  4.761257e-03 -2.823121e-03 -2.176879e-03
     vertex  5.310506e-03 -3.009251e-03 -1.990749e-03
     vertex  5.500000e-03 -2.499835e-03 -2.500165e-03
   endloop
 endfacet
 facet normal  4.388326e-16  7.071068e-01  7.071068e-01
   outer loop
     vertex  6.491948e-03 -3.025037e-03 -1.974963e-03
     vertex  7.022131e-03 -2.873921e-03 -2.126079e-03
     vertex  6.500000e-03 -2.499835e-03 -2.500165e-03
   endloop
 endfacet
 facet normal -3.495351e-16  7.071068e-01  7.071068e-01
   outer loop
     vertex  5.934101e-03 -2.834733e-03 -2.165267e-03
     vertex  6.491948e-03 -3.025037e-03 -1.974963e-03
     vertex  6.500000e-03 -2.499835e-03 -2.500165e-03
   endloop
 endfacet
 facet normal  3.968887e-16  7.071068e-01  7.071068e-01
   outer loop
     vertex  7.023719e-03 -3.318214e-03 -1.681786e-03
     vertex  7.022131e-03 -2.873921e-03 -2.126079e-03
     vertex  6.491948e-03 -3.025037e-03 -1.974963e-03
   endloop
 endfacet
 facet normal  0.000000e+00  7.071068e-01  7.071068e-01
   outer loop
     vertex  7.500000e-03 -2.499835e-03 -2.500165e-03
     vertex  7.022131e-03 -2.873921e-03 -2.126079e-03
     vertex  7.500000e-03 -3.124918e-03 -1.875082e-03
   endloop
 endfacet
 facet normal  3.532915e-16  7.071068e-01  7.071068e-01
   outer loop
     vertex  7.023719e-03 -3.318214e-03 -1.681786e-03
     vertex  7.500000e-03 -3.124918e-03 -1.875082e-03
     vertex  7.022131e-03 -2.873921e-03 -2.126079e-03
   endloop
 endfacet
 facet normal -0.000000e+00  7.071068e-01  7.071068e-01
   outer loop
     vertex  6.500000e-03 -2.499835e-03 -2.500165e-03
     vertex  7.022131e-03 -2.873921e-03 -2.126079e-03
     vertex  7.500000e-03 -2.499835e-03 -2.500165e-03
   endloop
 endfacet
 facet normal -0.000000e+00  7.071068e-01  7.071068e-01
   outer loop
     vertex  5.500000e-03 -2.499835e-03 -2.500165e-03
     vertex  5.934101e-03 -2.834733e-03 -2.165267e-03
     vertex  6.500000e-03 -2.499835e-03 -2.500165e-03
   endloop
 endfacet
 facet normal  0.000000e+00  7.071068e-01  7.071068e-01
   outer loop
     vertex  6.500000e-03 -5.000165e-03  1.647891e-07
     vertex  5.934109e-03 -4.665261e-03 -3.347387e-04
     vertex  5.500000e-03 -5.000165e-03  1.647891e-07
   endloop
 endfacet
 facet normal  3.123747e-16  7.071068e-01  7.071068e-01
   outer loop
     vertex  5.934109e-03 -4.665261e-03 -3.347387e-04
     vertex  5.310517e-03 -4.490723e-03 -5.092769e-04
     vertex  5.500000e-03 -5.000165e-03  1.647891e-07
   endloop
 endfacet
 facet normal  5.556509e-16  7.071068e-01  7.071068e-01
   outer loop
     vertex  7.022111e-03 -4.626087e-03 -3.739128e-04
     vertex  7.023636e-03 -4.181825e-03 -8.181746e-04
     vertex  6.491877e-03 -4.474991e-03 -5.250092e-04
   endloop
 endfacet
 facet normal  5.063421e-16  7.071068e-01  7.071068e-01
   outer loop
     vertex  7.022111e-03 -4.626087e-03 -3.739128e-04
     vertex  6.491877e-03 -4.474991e-03 -5.250092e-04
     vertex  6.500000e-03 -5.000165e-03  1.647891e-07
   endloop
 endfacet
 facet normal -3.178068e-16  7.071068e-01  7.071068e-01
   outer loop
     vertex  6.491877e-03 -4.474991e-03 -5.250092e-04
     vertex  5.934109e-03 -4.665261e-03 -3.347387e-04
     vertex  6.500000e-03 -5.000165e-03  1.647891e-07
   endloop
 endfacet
 facet normal -0.000000e+00  7.071068e-01  7.071068e-01
   outer loop
     vertex  6.500000e-03 -5.000165e-03  1.647891e-07
     vertex  7.500000e-03 -5.000165e-03  1.647891e-07
     vertex  7.022111e-03 -4.626087e-03 -3.739128e-04
   endloop
 endfacet
 facet normal  7.542936e-16  7.071068e-01  7.071068e-01
   outer loop
     vertex  7.500000e-03 -3.750000e-03 -1.250000e-03
     vertex  7.023636e-03 -4.181825e-03 -8.181746e-04
     vertex  7.500000e-03 -4.375082e-03 -6.249176e-04
   endloop
 endfacet
 facet normal  5.299127e-16  7.071068e-01  7.071068e-01
   outer loop
     vertex  7.023636e-03 -4.181825e-03 -8.181746e-04
     vertex  7.022111e-03 -4.626087e-03 -3.739128e-04
     vertex  7.500000e-03 -4.375082e-03 -6.249176e-04
   endloop
 endfacet
 facet normal  6.265723e-17  7.071068e-01  7.071068e-01
   outer loop
     vertex  7.500000e-03 -4.375082e-03 -6.249176e-04
     vertex  7.022111e-03 -4.626087e-03 -3.739128e-04
     vertex  7.500000e-03 -5.000165e-03  1.647891e-07
   endloop
 endfacet
 facet normal  0.000000e+00  7.071068e-01  7.071068e-01
   outer loop
     vertex  6.939525e-03 -3.750041e-03 -1.249959e-03
     vertex  7.500000e-03 -3.750000e-03 -1.250000e-03
     vertex  7.023719e-03 -3.318214e-03 -1.681786e-03
   endloop
 endfacet
 facet normal -2.855641e-16  7.071068e-01  7.071068e-01
   outer loop
     vertex  6.472349e-03 -3.992723e-03 -1.007277e-03
     vertex  6.491877e-03 -4.474991e-03 -5.250092e-04
     vertex  7.023636e-03 -4.181825e-03 -8.181746e-04
   endloop
 endfacet
 facet normal  4.400810e-16  7.071068e-01  7.071068e-01
   outer loop
     vertex  7.500000e-03 -3.124918e-03 -1.875082e-03
     vertex  7.023719e-03 -3.318214e-03 -1.681786e-03
     vertex  7.500000e-03 -3.750000e-03 -1.250000e-03
   endloop
 endfacet
 facet normal -4.720479e-20  7.071068e-01  7.071068e-01
   outer loop
     vertex  6.939525e-03 -3.750041e-03 -1.249959e-03
     vertex  7.023636e-03 -4.181825e-03 -8.181746e-04
     vertex  7.500000e-03 -3.750000e-03 -1.250000e-03
   endloop
 endfacet
 facet normal -4.607406e-16  7.071068e-01  7.071068e-01
   outer loop
     vertex  5.888158e-03 -4.243941e-03 -7.560588e-04
     vertex  5.934109e-03 -4.665261e-03 -3.347387e-04
     vertex  6.491877e-03 -4.474991e-03 -5.250092e-04
   endloop
 endfacet
 facet normal  1.287554e-16  7.071068e-01  7.071068e-01
   outer loop
     vertex  5.879436e-03 -3.750018e-03 -1.249982e-03
     vertex  5.888158e-03 -4.243941e-03 -7.560588e-04
     vertex  6.472349e-03 -3.992723e-03 -1.007277e-03
   endloop
 endfacet
 facet normal -6.529729e-17  7.071068e-01  7.071068e-01
   outer loop
     vertex  6.491877e-03 -4.474991e-03 -5.250092e-04
     vertex  6.472349e-03 -3.992723e-03 -1.007277e-03
     vertex  5.888158e-03 -4.243941e-03 -7.560588e-04
   endloop
 endfacet
 facet normal  0.000000e+00  7.071068e-01  7.071068e-01
   outer loop
     vertex  6.491948e-03 -3.025037e-03 -1.974963e-03
     vertex  6.469812e-03 -3.506324e-03 -1.493676e-03
     vertex  7.023719e-03 -3.318214e-03 -1.681786e-03
   endloop
 endfacet
 facet normal  0.000000e+00  7.071068e-01  7.071068e-01
   outer loop
     vertex  5.887884e-03 -3.255946e-03 -1.744054e-03
     vertex  5.879436e-03 -3.750018e-03 -1.249982e-03
     vertex  6.469812e-03 -3.506324e-03 -1.493676e-03
   endloop
 endfacet
 facet normal -3.071274e-16  7.071068e-01  7.071068e-01
   outer loop
     vertex  5.934101e-03 -2.834733e-03 -2.165267e-03
     vertex  5.887884e-03 -3.255946e-03 -1.744054e-03
     vertex  6.491948e-03 -3.025037e-03 -1.974963e-03
   endloop
 endfacet
 facet normal  0.000000e+00  7.071068e-01  7.071068e-01
   outer loop
     vertex  6.469812e-03 -3.506324e-03 -1.493676e-03
     vertex  6.491948e-03 -3.025037e-03 -1.974963e-03
     vertex  5.887884e-03 -3.255946e-03 -1.744054e-03
   endloop
 endfacet
 facet normal  0.000000e+00  7.071068e-01  7.071068e-01
   outer loop
     vertex  6.472349e-03 -3.992723e-03 -1.007277e-03
     vertex  6.469812e-03 -3.506324e-03 -1.493676e-03
     vertex  5.879436e-03 -3.750018e-03 -1.249982e-03
   endloop
 endfacet
 facet normal  0.000000e+00  7.071068e-01  7.071068e-01
   outer loop
     vertex  6.939525e-03 -3.750041e-03 -1.249959e-03
     vertex  7.023719e-03 -3.318214e-03 -1.681786e-03
     vertex  6.469812e-03 -3.506324e-03 -1.493676e-03
   endloop
 endfacet
 facet normal -3.370429e-16  7.071068e-01  7.071068e-01
   outer loop
     vertex  7.023636e-03 -4.181825e-03 -8.181746e-04
     vertex  6.939525e-03 -3.750041e-03 -1.249959e-03
     vertex  6.472349e-03 -3.992723e-03 -1.007277e-03
   endloop
 endfacet
 facet normal  0.000000e+00  7.071068e-01  7.071068e-01
   outer loop
     vertex  6.469812e-03 -3.506324e-03 -1.493676e-03
     vertex  6.472349e-03 -3.992723e-03 -1.007277e-03
     vertex  6.939525e-03 -3.750041e-03 -1.249959e-03
   endloop
 endfacet
 facet normal -1.188060e-16  7.071068e-01  7.071068e-01
   outer loop
     vertex  5.500000e-03 -5.000165e-03  1.647891e-07
     vertex  5.310517e-03 -4.490723e-03 -5.092769e-04
     vertex  4.761261e-03 -4.676865e-03 -3.231354e-04
   endloop
 endfacet
 facet normal -4.420541e-16  7.071068e-01  7.071068e-01
   outer loop
     vertex  4.622654e-03 -4.261312e-03 -7.386881e-04
     vertex  4.761261e-03 -4.676865e-03 -3.231354e-04
     vertex  5.310517e-03 -4.490723e-03 -5.092769e-04
   endloop
 endfacet
 facet normal  0.000000e+00  7.071068e-01  7.071068e-01
   outer loop
     vertex  4.761261e-03 -4.676865e-03 -3.231354e-04
     vertex  4.500000e-03 -5.000165e-03  1.647891e-07
     vertex  5.500000e-03 -5.000165e-03  1.647891e-07
   endloop
 endfacet
 facet normal  0.000000e+00  7.071068e-01  7.071068e-01
   outer loop
     vertex  3.965761e-03 -4.561987e-03 -4.380125e-04
     vertex  3.500000e-03 -5.000165e-03  1.647891e-07
     vertex  4.500000e-03 -5.000165e-03  1.647891e-07
   endloop
 endfacet
 facet normal -2.559204e-16  7.071068e-01  7.071068e-01
   outer loop
     vertex  3.947288e-03 -4.013762e-03 -9.862377e-04
     vertex  3.965761e-03 -4.561987e-03 -4.380125e-04
     vertex  4.622654e-03 -4.261312e-03 -7.386881e-04
   endloop
 endfacet
 facet normal -1.762744e-16  7.071068e-01  7.071068e-01
   outer loop
     vertex  3.276914e-03 -4.259382e-03 -7.406178e-04
     vertex  3.180075e-03 -4.679270e-03 -3.207303e-04
     vertex  3.965761e-03 -4.561987e-03 -4.380125e-04
   endloop
 endfacet
 facet normal  5.532432e-16  7.071068e-01  7.071068e-01
   outer loop
     vertex  3.290091e-03 -3.749890e-03 -1.250110e-03
     vertex  3.276914e-03 -4.259382e-03 -7.406178e-04
     vertex  3.947288e-03 -4.013762e-03 -9.862377e-04
   endloop
 endfacet
 facet normal  4.024576e-16  7.071068e-01  7.071068e-01
   outer loop
     vertex  3.965761e-03 -4.561987e-03 -4.380125e-04
     vertex  3.947288e-03 -4.013762e-03 -9.862377e-04
     vertex  3.276914e-03 -4.259382e-03 -7.406178e-04
   endloop
 endfacet
 facet normal -2.907920e-16  7.071068e-01  7.071068e-01
   outer loop
     vertex  3.180075e-03 -4.679270e-03 -3.207303e-04
     vertex  3.500000e-03 -5.000165e-03  1.647891e-07
     vertex  3.965761e-03 -4.561987e-03 -4.380125e-04
   endloop
 endfacet
 facet normal  2.974259e-17  7.071068e-01  7.071068e-01
   outer loop
     vertex  4.761261e-03 -4.676865e-03 -3.231354e-04
     vertex  4.622654e-03 -4.261312e-03 -7.386881e-04
     vertex  3.965761e-03 -4.561987e-03 -4.380125e-04
   endloop
 endfacet
 facet normal -6.517092e-17  7.071068e-01  7.071068e-01
   outer loop
     vertex  4.500000e-03 -5.000165e-03  1.647891e-07
     vertex  4.761261e-03 -4.676865e-03 -3.231354e-04
     vertex  3.965761e-03 -4.561987e-03 -4.380125e-04
   endloop
 endfacet
 facet normal  3.617133e-16  7.071068e-01  7.071068e-01
   outer loop
     vertex  5.934101e-03 -2.834733e-03 -2.165267e-03
     vertex  5.500000e-03 -2.499835e-03 -2.500165e-03
     vertex  5.310506e-03 -3.009251e-03 -1.990749e-03
   endloop
 endfacet
 facet normal -2.947307e-16  7.071068e-01  7.071068e-01
   outer loop
     vertex  4.761257e-03 -2.823121e-03 -2.176879e-03
     vertex  4.622685e-03 -3.238650e-03 -1.761350e-03
     vertex  5.310506e-03 -3.009251e-03 -1.990749e-03
   endloop
 endfacet
 facet normal  0.000000e+00  7.071068e-01  7.071068e-01
   outer loop
     vertex  5.500000e-03 -2.499835e-03 -2.500165e-03
     vertex  4.500000e-03 -2.499835e-03 -2.500165e-03
     vertex  4.761257e-03 -2.823121e-03 -2.176879e-03
   endloop
 endfacet
 facet normal -3.589523e-16  7.071068e-01  7.071068e-01
   outer loop
     vertex  3.966025e-03 -2.938073e-03 -2.061927e-03
     vertex  3.947042e-03 -3.485231e-03 -1.514769e-03
     vertex  4.622685e-03 -3.238650e-03 -1.761350e-03
   endloop
 endfacet
 facet normal  2.767424e-16  7.071068e-01  7.071068e-01
   outer loop
     vertex  3.276924e-03 -3.240445e-03 -1.759555e-03
     vertex  3.290091e-03 -3.749890e-03 -1.250110e-03
     vertex  3.947042e-03 -3.485231e-03 -1.514769e-03
   endloop
 endfacet
 facet normal  1.028374e-16  7.071068e-01  7.071068e-01
   outer loop
     vertex  3.180045e-03 -2.820744e-03 -2.179256e-03
     vertex  3.276924e-03 -3.240445e-03 -1.759555e-03
     vertex  3.966025e-03 -2.938073e-03 -2.061927e-03
   endloop
 endfacet
 facet normal  3.024494e-16  7.071068e-01  7.071068e-01
   outer loop
     vertex  3.947042e-03 -3.485231e-03 -1.514769e-03
     vertex  3.966025e-03 -2.938073e-03 -2.061927e-03
     vertex  3.276924e-03 -3.240445e-03 -1.759555e-03
   endloop
 endfacet
 facet normal  2.991047e-16  7.071068e-01  7.071068e-01
   outer loop
     vertex  2.500000e-03 -2.499835e-03 -2.500165e-03
     vertex  2.605749e-03 -3.009830e-03 -1.990170e-03
     vertex  3.180045e-03 -2.820744e-03 -2.179256e-03
   endloop
 endfacet
 facet normal  0.000000e+00  7.071068e-01  7.071068e-01
   outer loop
     vertex  3.180045e-03 -2.820744e-03 -2.179256e-03
     vertex  3.966025e-03 -2.938073e-03 -2.061927e-03
     vertex  3.500000e-03 -2.499835e-03 -2.500165e-03
   endloop
 endfacet
 facet normal -1.190218e-16  7.071068e-01  7.071068e-01
   outer loop
     vertex  4.622685e-03 -3.238650e-03 -1.761350e-03
     vertex  4.761257e-03 -2.823121e-03 -2.176879e-03
     vertex  3.966025e-03 -2.938073e-03 -2.061927e-03
   endloop
 endfacet
 facet normal  0.000000e+00  7.071068e-01  7.071068e-01
   outer loop
     vertex  4.500000e-03 -2.499835e-03 -2.500165e-03
     vertex  3.500000e-03 -2.499835e-03 -2.500165e-03
     vertex  3.966025e-03 -2.938073e-03 -2.061927e-03
   endloop
 endfacet
 facet normal  0.000000e+00  7.071068e-01  7.071068e-01
   outer loop
     vertex  3.966025e-03 -2.938073e-03 -2.061927e-03
     vertex  4.761257e-03 -2.823121e-03 -2.176879e-03
     vertex  4.500000e-03 -2.499835e-03 -2.500165e-03
   endloop
 endfacet
 facet normal  3.772666e-16  7.071068e-01  7.071068e-01
   outer loop
     vertex  3.947288e-03 -4.013762e-03 -9.862377e-04
     vertex  3.947042e-03 -3.485231e-03 -1.514769e-03
     vertex  3.290091e-03 -3.749890e-03 -1.250110e-03
   endloop
 endfacet
 facet normal -3.855499e-16  7.071068e-01  7.071068e-01
   outer loop
     vertex  4.600000e-03 -3.749892e-03 -1.250108e-03
     vertex  4.622685e-03 -3.238650e-03 -1.761350e-03
     vertex  3.947042e-03 -3.485231e-03 -1.514769e-03
   endloop
 endfacet
 facet normal -6.610113e-16  7.071068e-01  7.071068e-01
   outer loop
     vertex  4.622654e-03 -4.261312e-03 -7.386881e-04
     vertex  4.600000e-03 -3.749892e-03 -1.250108e-03
     vertex  3.947288e-03 -4.013762e-03 -9.862377e-04
   endloop
 endfacet
 facet normal -5.966970e-16  7.071068e-01  7.071068e-01
   outer loop
     vertex  3.947042e-03 -3.485231e-03 -1.514769e-03
     vertex  3.947288e-03 -4.013762e-03 -9.862377e-04
     vertex  4.600000e-03 -3.749892e-03 -1.250108e-03
   endloop
 endfacet
 facet normal  0.000000e+00  7.071068e-01  7.071068e-01
   outer loop
     vertex  5.252024e-03 -3.497270e-03 -1.502730e-03
     vertex  5.310506e-03 -3.009251e-03 -1.990749e-03
     vertex  4.622685e-03 -3.238650e-03 -1.761350e-03
   endloop
 endfacet
 facet normal  2.940597e-16  7.071068e-01  7.071068e-01
   outer loop
     vertex  5.887884e-03 -3.255946e-03 -1.744054e-03
     vertex  5.934101e-03 -2.834733e-03 -2.165267e-03
     vertex  5.310506e-03 -3.009251e-03 -1.990749e-03
   endloop
 endfacet
 facet normal  0.000000e+00  7.071068e-01  7.071068e-01
   outer loop
     vertex  5.879436e-03 -3.750018e-03 -1.249982e-03
     vertex  5.887884e-03 -3.255946e-03 -1.744054e-03
     vertex  5.252024e-03 -3.497270e-03 -1.502730e-03
   endloop
 endfacet
 facet normal  0.000000e+00  7.071068e-01  7.071068e-01
   outer loop
     vertex  5.310506e-03 -3.009251e-03 -1.990749e-03
     vertex  5.252024e-03 -3.497270e-03 -1.502730e-03
     vertex  5.887884e-03 -3.255946e-03 -1.744054e-03
   endloop
 endfacet
 facet normal -8.720338e-17  7.071068e-01  7.071068e-01
   outer loop
     vertex  5.310517e-03 -4.490723e-03 -5.092769e-04
     vertex  5.252816e-03 -4.003430e-03 -9.965696e-04
     vertex  4.622654e-03 -4.261312e-03 -7.386881e-04
   endloop
 endfacet
 facet normal -3.602737e-16  7.071068e-01  7.071068e-01
   outer loop
     vertex  5.888158e-03 -4.243941e-03 -7.560588e-04
     vertex  5.879436e-03 -3.750018e-03 -1.249982e-03
     vertex  5.252816e-03 -4.003430e-03 -9.965696e-04
   endloop
 endfacet
 facet normal  4.408973e-16  7.071068e-01  7.071068e-01
   outer loop
     vertex  5.934109e-03 -4.665261e-03 -3.347387e-04
     vertex  5.888158e-03 -4.243941e-03 -7.560588e-04
     vertex  5.310517e-03 -4.490723e-03 -5.092769e-04
   endloop
 endfacet
 facet normal -6.329288e-17  7.071068e-01  7.071068e-01
   outer loop
     vertex  5.252816e-03 -4.003430e-03 -9.965696e-04
     vertex  5.310517e-03 -4.490723e-03 -5.092769e-04
     vertex  5.888158e-03 -4.243941e-03 -7.560588e-04
   endloop
 endfacet
 facet normal -1.769251e-16  7.071068e-01  7.071068e-01
   outer loop
     vertex  5.252024e-03 -3.497270e-03 -1.502730e-03
     vertex  5.252816e-03 -4.003430e-03 -9.965696e-04
     vertex  5.879436e-03 -3.750018e-03 -1.249982e-03
   endloop
 endfacet
 facet normal  3.993014e-16  7.071068e-01  7.071068e-01
   outer loop
     vertex  4.600000e-03 -3.749892e-03 -1.250108e-03
     vertex  4.622654e-03 -4.261312e-03 -7.386881e-04
     vertex  5.252816e-03 -4.003430e-03 -9.965696e-04
   endloop
 endfacet
 facet normal  1.142634e-16  7.071068e-01  7.071068e-01
   outer loop
     vertex  4.622685e-03 -3.238650e-03 -1.761350e-03
     vertex  4.600000e-03 -3.749892e-03 -1.250108e-03
     vertex  5.252024e-03 -3.497270e-03 -1.502730e-03
   endloop
 endfacet
 facet normal  3.400724e-16  7.071068e-01  7.071068e-01
   outer loop
     vertex  5.252816e-03 -4.003430e-03 -9.965696e-04
     vertex  5.252024e-03 -3.497270e-03 -1.502730e-03
     vertex  4.600000e-03 -3.749892e-03 -1.250108e-03
   endloop
 endfacet
 facet normal -1.199671e-16  7.071068e-01  7.071068e-01
   outer loop
     vertex  1.500000e-03 -5.000165e-03  1.647891e-07
     vertex  1.391828e-03 -4.491765e-03 -5.082347e-04
     vertex  8.178641e-04 -4.678800e-03 -3.211999e-04
   endloop
 endfacet
 facet normal -1.184746e-16  7.071068e-01  7.071068e-01
   outer loop
     vertex -6.258600e-04 -4.261243e-03 -7.387574e-04
     vertex -7.619651e-04 -4.678025e-03 -3.219748e-04
     vertex  3.367944e-05 -4.563078e-03 -4.369219e-04
   endloop
 endfacet
 facet normal -0.000000e+00  7.071068e-01  7.071068e-01
   outer loop
     vertex -5.000000e-04 -5.000165e-03  1.647891e-07
     vertex  5.000000e-04 -5.000165e-03  1.647891e-07
     vertex  3.367944e-05 -4.563078e-03 -4.369219e-04
   endloop
 endfacet
 facet normal  6.534779e-17  7.071068e-01  7.071068e-01
   outer loop
     vertex  3.367944e-05 -4.563078e-03 -4.369219e-04
     vertex -7.619651e-04 -4.678025e-03 -3.219748e-04
     vertex -5.000000e-04 -5.000165e-03  1.647891e-07
   endloop
 endfacet
 facet normal  1.474505e-16  7.071068e-01  7.071068e-01
   outer loop
     vertex -7.619651e-04 -4.678025e-03 -3.219748e-04
     vertex -1.316510e-03 -4.490091e-03 -5.099093e-04
     vertex -1.500000e-03 -5.000165e-03  1.647891e-07
   endloop
 endfacet
 facet normal  7.534723e-16  7.071068e-01  7.071068e-01
   outer loop
     vertex -1.257618e-03 -4.002999e-03 -9.970006e-04
     vertex -1.316510e-03 -4.490091e-03 -5.099093e-04
     vertex -6.258600e-04 -4.261243e-03 -7.387574e-04
   endloop
 endfacet
 facet normal -5.497364e-16  7.071068e-01  7.071068e-01
   outer loop
     vertex -1.902660e-03 -4.247383e-03 -7.526172e-04
     vertex -1.939728e-03 -4.667680e-03 -3.323205e-04
     vertex -1.316510e-03 -4.490091e-03 -5.099093e-04
   endloop
 endfacet
 facet normal -2.351158e-16  7.071068e-01  7.071068e-01
   outer loop
     vertex -1.892813e-03 -3.749995e-03 -1.250005e-03
     vertex -1.902660e-03 -4.247383e-03 -7.526172e-04
     vertex -1.257618e-03 -4.002999e-03 -9.970006e-04
   endloop
 endfacet
 facet normal -3.121552e-16  7.071068e-01  7.071068e-01
   outer loop
     vertex -1.316510e-03 -4.490091e-03 -5.099093e-04
     vertex -1.257618e-03 -4.002999e-03 -9.970006e-04
     vertex -1.902660e-03 -4.247383e-03 -7.526172e-04
   endloop
 endfacet
 facet normal -4.592289e-16  7.071068e-01  7.071068e-01
   outer loop
     vertex -1.939728e-03 -4.667680e-03 -3.323205e-04
     vertex -1.500000e-03 -5.000165e-03  1.647891e-07
     vertex -1.316510e-03 -4.490091e-03 -5.099093e-04
   endloop
 endfacet
 facet normal  5.833021e-16  7.071068e-01  7.071068e-01
   outer loop
     vertex -7.619651e-04 -4.678025e-03 -3.219748e-04
     vertex -6.258600e-04 -4.261243e-03 -7.387574e-04
     vertex -1.316510e-03 -4.490091e-03 -5.099093e-04
   endloop
 endfacet
 facet normal -0.000000e+00  7.071068e-01  7.071068e-01
   outer loop
     vertex -1.500000e-03 -5.000165e-03  1.647891e-07
     vertex -5.000000e-04 -5.000165e-03  1.647891e-07
     vertex -7.619651e-04 -4.678025e-03 -3.219748e-04
   endloop
 endfacet
 facet normal  2.916493e-16  7.071068e-01  7.071068e-01
   outer loop
     vertex  8.178641e-04 -4.678800e-03 -3.211999e-04
     vertex  3.367944e-05 -4.563078e-03 -4.369219e-04
     vertex  5.000000e-04 -5.000165e-03  1.647891e-07
   endloop
 endfacet
 facet normal  3.402611e-16  7.071068e-01  7.071068e-01
   outer loop
     vertex  8.178638e-04 -2.821200e-03 -2.178800e-03
     vertex  5.000000e-04 -2.499835e-03 -2.500165e-03
     vertex  3.368112e-05 -2.936915e-03 -2.063085e-03
   endloop
 endfacet
 facet normal -3.998289e-16  7.071068e-01  7.071068e-01
   outer loop
     vertex -7.619232e-04 -2.821952e-03 -2.178048e-03
     vertex -6.258842e-04 -3.238772e-03 -1.761228e-03
     vertex  3.368112e-05 -2.936915e-03 -2.063085e-03
   endloop
 endfacet
 facet normal -3.267750e-16  7.071068e-01  7.071068e-01
   outer loop
     vertex -5.000000e-04 -2.499835e-03 -2.500165e-03
     vertex -7.619232e-04 -2.821952e-03 -2.178048e-03
     vertex  3.368112e-05 -2.936915e-03 -2.063085e-03
   endloop
 endfacet
 facet normal  0.000000e+00  7.071068e-01  7.071068e-01
   outer loop
     vertex -1.317229e-03 -3.010377e-03 -1.989623e-03
     vertex -1.256677e-03 -3.494649e-03 -1.505351e-03
     vertex -6.258842e-04 -3.238772e-03 -1.761228e-03
   endloop
 endfacet
 facet normal  5.872390e-16  7.071068e-01  7.071068e-01
   outer loop
     vertex -1.902679e-03 -3.252918e-03 -1.747082e-03
     vertex -1.892813e-03 -3.749995e-03 -1.250005e-03
     vertex -1.256677e-03 -3.494649e-03 -1.505351e-03
   endloop
 endfacet
 facet normal  5.134187e-16  7.071068e-01  7.071068e-01
   outer loop
     vertex -1.939684e-03 -2.832363e-03 -2.167637e-03
     vertex -1.902679e-03 -3.252918e-03 -1.747082e-03
     vertex -1.317229e-03 -3.010377e-03 -1.989623e-03
   endloop
 endfacet
 facet normal  5.021257e-16  7.071068e-01  7.071068e-01
   outer loop
     vertex -1.256677e-03 -3.494649e-03 -1.505351e-03
     vertex -1.317229e-03 -3.010377e-03 -1.989623e-03
     vertex -1.902679e-03 -3.252918e-03 -1.747082e-03
   endloop
 endfacet
 facet normal -0.000000e+00  7.071068e-01  7.071068e-01
   outer loop
     vertex -2.500000e-03 -2.499835e-03 -2.500165e-03
     vertex -1.939684e-03 -2.832363e-03 -2.167637e-03
     vertex -1.500000e-03 -2.499835e-03 -2.500165e-03
   endloop
 endfacet
 facet normal  5.413255e-16  7.071068e-01  7.071068e-01
   outer loop
     vertex -1.939684e-03 -2.832363e-03 -2.167637e-03
     vertex -1.317229e-03 -3.010377e-03 -1.989623e-03
     vertex -1.500000e-03 -2.499835e-03 -2.500165e-03
   endloop
 endfacet
 facet normal  0.000000e+00  7.071068e-01  7.071068e-01
   outer loop
     vertex -1.500000e-03 -2.499835e-03 -2.500165e-03
     vertex -1.317229e-03 -3.010377e-03 -1.989623e-03
     vertex -7.619232e-04 -2.821952e-03 -2.178048e-03
   endloop
 endfacet
 facet normal  0.000000e+00  7.071068e-01  7.071068e-01
   outer loop
     vertex -6.258842e-04 -3.238772e-03 -1.761228e-03
     vertex -7.619232e-04 -2.821952e-03 -2.178048e-03
     vertex -1.317229e-03 -3.010377e-03 -1.989623e-03
   endloop
 endfacet
 facet normal  0.000000e+00  7.071068e-01  7.071068e-01
   outer loop
     vertex -7.619232e-04 -2.821952e-03 -2.178048e-03
     vertex -5.000000e-04 -2.499835e-03 -2.500165e-03
     vertex -1.500000e-03 -2.499835e-03 -2.500165e-03
   endloop
 endfacet
 facet normal  0.000000e+00  7.071068e-01  7.071068e-01
   outer loop
     vertex  3.368112e-05 -2.936915e-03 -2.063085e-03
     vertex  5.000000e-04 -2.499835e-03 -2.500165e-03
     vertex -5.000000e-04 -2.499835e-03 -2.500165e-03
   endloop
 endfacet
 facet normal  2.316884e-16  7.071068e-01  7.071068e-01
   outer loop
     vertex -1.257618e-03 -4.002999e-03 -9.970006e-04
     vertex -1.256677e-03 -3.494649e-03 -1.505351e-03
     vertex -1.892813e-03 -3.749995e-03 -1.250005e-03
   endloop
 endfacet
 facet normal -3.426240e-16  7.071068e-01  7.071068e-01
   outer loop
     vertex -6.044965e-04 -3.749712e-03 -1.250288e-03
     vertex -6.258842e-04 -3.238772e-03 -1.761228e-03
     vertex -1.256677e-03 -3.494649e-03 -1.505351e-03
   endloop
 endfacet
 facet normal  5.125114e-16  7.071068e-01  7.071068e-01
   outer loop
     vertex -6.258600e-04 -4.261243e-03 -7.387574e-04
     vertex -6.044965e-04 -3.749712e-03 -1.250288e-03
     vertex -1.257618e-03 -4.002999e-03 -9.970006e-04
   endloop
 endfacet
 facet normal -2.256575e-16  7.071068e-01  7.071068e-01
   outer loop
     vertex -1.256677e-03 -3.494649e-03 -1.505351e-03
     vertex -1.257618e-03 -4.002999e-03 -9.970006e-04
     vertex -6.044965e-04 -3.749712e-03 -1.250288e-03
   endloop
 endfacet
 facet normal -3.571839e-16  7.071068e-01  7.071068e-01
   outer loop
     vertex  4.905946e-05 -3.486016e-03 -1.513984e-03
     vertex  3.368112e-05 -2.936915e-03 -2.063085e-03
     vertex -6.258842e-04 -3.238772e-03 -1.761228e-03
   endloop
 endfacet
 facet normal  3.535992e-16  7.071068e-01  7.071068e-01
   outer loop
     vertex  7.202565e-04 -3.240606e-03 -1.759394e-03
     vertex  8.178638e-04 -2.821200e-03 -2.178800e-03
     vertex  3.368112e-05 -2.936915e-03 -2.063085e-03
   endloop
 endfacet
 facet normal  1.105697e-16  7.071068e-01  7.071068e-01
   outer loop
     vertex  7.066103e-04 -3.750000e-03 -1.250000e-03
     vertex  7.202565e-04 -3.240606e-03 -1.759394e-03
     vertex  4.905946e-05 -3.486016e-03 -1.513984e-03
   endloop
 endfacet
 facet normal  3.518894e-16  7.071068e-01  7.071068e-01
   outer loop
     vertex  3.368112e-05 -2.936915e-03 -2.063085e-03
     vertex  4.905946e-05 -3.486016e-03 -1.513984e-03
     vertex  7.202565e-04 -3.240606e-03 -1.759394e-03
   endloop
 endfacet
 facet normal -2.042231e-16  7.071068e-01  7.071068e-01
   outer loop
     vertex  3.367944e-05 -4.563078e-03 -4.369219e-04
     vertex  4.864316e-05 -4.014086e-03 -9.859137e-04
     vertex -6.258600e-04 -4.261243e-03 -7.387574e-04
   endloop
 endfacet
 facet normal -2.762493e-16  7.071068e-01  7.071068e-01
   outer loop
     vertex  7.202212e-04 -4.259410e-03 -7.405903e-04
     vertex  7.066103e-04 -3.750000e-03 -1.250000e-03
     vertex  4.864316e-05 -4.014086e-03 -9.859137e-04
   endloop
 endfacet
 facet normal  2.210107e-16  7.071068e-01  7.071068e-01
   outer loop
     vertex  8.178641e-04 -4.678800e-03 -3.211999e-04
     vertex  7.202212e-04 -4.259410e-03 -7.405903e-04
     vertex  3.367944e-05 -4.563078e-03 -4.369219e-04
   endloop
 endfacet
 facet normal -2.513277e-16  7.071068e-01  7.071068e-01
   outer loop
     vertex  4.864316e-05 -4.014086e-03 -9.859137e-04
     vertex  3.367944e-05 -4.563078e-03 -4.369219e-04
     vertex  7.202212e-04 -4.259410e-03 -7.405903e-04
   endloop
 endfacet
 facet normal  0.000000e+00  7.071068e-01  7.071068e-01
   outer loop
     vertex  4.905946e-05 -3.486016e-03 -1.513984e-03
     vertex  4.864316e-05 -4.014086e-03 -9.859137e-04
     vertex  7.066103e-04 -3.750000e-03 -1.250000e-03
   endloop
 endfacet
 facet normal  2.203621e-16  7.071068e-01  7.071068e-01
   outer loop
     vertex -6.044965e-04 -3.749712e-03 -1.250288e-03
     vertex -6.258600e-04 -4.261243e-03 -7.387574e-04
     vertex  4.864316e-05 -4.014086e-03 -9.859137e-04
   endloop
 endfacet
 facet normal  1.102400e-16  7.071068e-01  7.071068e-01
   outer loop
     vertex -6.258842e-04 -3.238772e-03 -1.761228e-03
     vertex -6.044965e-04 -3.749712e-03 -1.250288e-03
     vertex  4.905946e-05 -3.486016e-03 -1.513984e-03
   endloop
 endfacet
 facet normal  4.339993e-16  7.071068e-01  7.071068e-01
   outer loop
     vertex  4.864316e-05 -4.014086e-03 -9.859137e-04
     vertex  4.905946e-05 -3.486016e-03 -1.513984e-03
     vertex -6.044965e-04 -3.749712e-03 -1.250288e-03
   endloop
 endfacet
 facet normal  0.000000e+00  7.071068e-01  7.071068e-01
   outer loop
     vertex  1.500000e-03 -2.499835e-03 -2.500165e-03
     vertex  5.000000e-04 -2.499835e-03 -2.500165e-03
     vertex  8.178638e-04 -2.821200e-03 -2.178800e-03
   endloop
 endfacet
 facet normal  0.000000e+00  7.071068e-01  7.071068e-01
   outer loop
     vertex  1.998389e-03 -3.249114e-03 -1.750886e-03
     vertex  2.000002e-03 -2.834726e-03 -2.165274e-03
     vertex  1.391822e-03 -3.008244e-03 -1.991756e-03
   endloop
 endfacet
 facet normal -2.999131e-16  7.071068e-01  7.071068e-01
   outer loop
     vertex  8.178638e-04 -2.821200e-03 -2.178800e-03
     vertex  1.391822e-03 -3.008244e-03 -1.991756e-03
     vertex  1.500000e-03 -2.499835e-03 -2.500165e-03
   endloop
 endfacet
 facet normal -1.611123e-16  7.071068e-01  7.071068e-01
   outer loop
     vertex  1.391822e-03 -3.008244e-03 -1.991756e-03
     vertex  2.000002e-03 -2.834726e-03 -2.165274e-03
     vertex  1.500000e-03 -2.499835e-03 -2.500165e-03
   endloop
 endfacet
 facet normal  0.000000e+00  7.071068e-01  7.071068e-01
   outer loop
     vertex  3.180045e-03 -2.820744e-03 -2.179256e-03
     vertex  3.500000e-03 -2.499835e-03 -2.500165e-03
     vertex  2.500000e-03 -2.499835e-03 -2.500165e-03
   endloop
 endfacet
 facet normal  0.000000e+00  7.071068e-01  7.071068e-01
   outer loop
     vertex  2.637922e-03 -3.496761e-03 -1.503239e-03
     vertex  2.605749e-03 -3.009830e-03 -1.990170e-03
     vertex  1.998389e-03 -3.249114e-03 -1.750886e-03
   endloop
 endfacet
 facet normal  2.886745e-16  7.071068e-01  7.071068e-01
   outer loop
     vertex  3.276924e-03 -3.240445e-03 -1.759555e-03
     vertex  3.180045e-03 -2.820744e-03 -2.179256e-03
     vertex  2.605749e-03 -3.009830e-03 -1.990170e-03
   endloop
 endfacet
 facet normal  0.000000e+00  7.071068e-01  7.071068e-01
   outer loop
     vertex  3.290091e-03 -3.749890e-03 -1.250110e-03
     vertex  3.276924e-03 -3.240445e-03 -1.759555e-03
     vertex  2.637922e-03 -3.496761e-03 -1.503239e-03
   endloop
 endfacet
 facet normal  0.000000e+00  7.071068e-01  7.071068e-01
   outer loop
     vertex  2.605749e-03 -3.009830e-03 -1.990170e-03
     vertex  2.637922e-03 -3.496761e-03 -1.503239e-03
     vertex  3.276924e-03 -3.240445e-03 -1.759555e-03
   endloop
 endfacet
 facet normal  0.000000e+00  7.071068e-01  7.071068e-01
   outer loop
     vertex  2.000002e-03 -2.834726e-03 -2.165274e-03
     vertex  1.998389e-03 -3.249114e-03 -1.750886e-03
     vertex  2.605749e-03 -3.009830e-03 -1.990170e-03
   endloop
 endfacet
 facet normal -0.000000e+00  7.071068e-01  7.071068e-01
   outer loop
     vertex  1.500000e-03 -2.499835e-03 -2.500165e-03
     vertex  2.000002e-03 -2.834726e-03 -2.165274e-03
     vertex  2.500000e-03 -2.499835e-03 -2.500165e-03
   endloop
 endfacet
 facet normal  0.000000e+00  7.071068e-01  7.071068e-01
   outer loop
     vertex  8.178641e-04 -4.678800e-03 -3.211999e-04
     vertex  5.000000e-04 -5.000165e-03  1.647891e-07
     vertex  1.500000e-03 -5.000165e-03  1.647891e-07
   endloop
 endfacet
 facet normal  1.772374e-16  7.071068e-01  7.071068e-01
   outer loop
     vertex  2.000002e-03 -2.834726e-03 -2.165274e-03
     vertex  2.605749e-03 -3.009830e-03 -1.990170e-03
     vertex  2.500000e-03 -2.499835e-03 -2.500165e-03
   endloop
 endfacet
 facet normal -2.230280e-16  7.071068e-01  7.071068e-01
   outer loop
     vertex  2.000023e-03 -4.665298e-03 -3.347018e-04
     vertex  1.998380e-03 -4.250873e-03 -7.491268e-04
     vertex  1.391828e-03 -4.491765e-03 -5.082347e-04
   endloop
 endfacet
 facet normal  0.000000e+00  7.071068e-01  7.071068e-01
   outer loop
     vertex  2.605447e-03 -4.489734e-03 -5.102663e-04
     vertex  2.638377e-03 -4.005564e-03 -9.944358e-04
     vertex  1.998380e-03 -4.250873e-03 -7.491268e-04
   endloop
 endfacet
 facet normal  0.000000e+00  7.071068e-01  7.071068e-01
   outer loop
     vertex  2.500000e-03 -5.000165e-03  1.647891e-07
     vertex  2.000023e-03 -4.665298e-03 -3.347018e-04
     vertex  1.500000e-03 -5.000165e-03  1.647891e-07
   endloop
 endfacet
 facet normal -5.316685e-16  7.071068e-01  7.071068e-01
   outer loop
     vertex  2.000023e-03 -4.665298e-03 -3.347018e-04
     vertex  1.391828e-03 -4.491765e-03 -5.082347e-04
     vertex  1.500000e-03 -5.000165e-03  1.647891e-07
   endloop
 endfacet
 facet normal -3.986278e-16  7.071068e-01  7.071068e-01
   outer loop
     vertex  3.276914e-03 -4.259382e-03 -7.406178e-04
     vertex  3.290091e-03 -3.749890e-03 -1.250110e-03
     vertex  2.638377e-03 -4.005564e-03 -9.944358e-04
   endloop
 endfacet
 facet normal -7.208992e-17  7.071068e-01  7.071068e-01
   outer loop
     vertex  3.180075e-03 -4.679270e-03 -3.207303e-04
     vertex  3.276914e-03 -4.259382e-03 -7.406178e-04
     vertex  2.605447e-03 -4.489734e-03 -5.102663e-04
   endloop
 endfacet
 facet normal -2.947381e-16  7.071068e-01  7.071068e-01
   outer loop
     vertex  2.638377e-03 -4.005564e-03 -9.944358e-04
     vertex  2.605447e-03 -4.489734e-03 -5.102663e-04
     vertex  3.276914e-03 -4.259382e-03 -7.406178e-04
   endloop
 endfacet
 facet normal -0.000000e+00  7.071068e-01  7.071068e-01
   outer loop
     vertex  2.500000e-03 -5.000165e-03  1.647891e-07
     vertex  3.500000e-03 -5.000165e-03  1.647891e-07
     vertex  3.180075e-03 -4.679270e-03 -3.207303e-04
   endloop
 endfacet
 facet normal  2.235384e-16  7.071068e-01  7.071068e-01
   outer loop
     vertex  1.998380e-03 -4.250873e-03 -7.491268e-04
     vertex  2.000023e-03 -4.665298e-03 -3.347018e-04
     vertex  2.605447e-03 -4.489734e-03 -5.102663e-04
   endloop
 endfacet
 facet normal -1.128510e-16  7.071068e-01  7.071068e-01
   outer loop
     vertex  2.637922e-03 -3.496761e-03 -1.503239e-03
     vertex  2.638377e-03 -4.005564e-03 -9.944358e-04
     vertex  3.290091e-03 -3.749890e-03 -1.250110e-03
   endloop
 endfacet
 facet normal  1.194850e-16  7.071068e-01  7.071068e-01
   outer loop
     vertex  3.180075e-03 -4.679270e-03 -3.207303e-04
     vertex  2.605447e-03 -4.489734e-03 -5.102663e-04
     vertex  2.500000e-03 -5.000165e-03  1.647891e-07
   endloop
 endfacet
 facet normal  5.154157e-16  7.071068e-01  7.071068e-01
   outer loop
     vertex  2.605447e-03 -4.489734e-03 -5.102663e-04
     vertex  2.000023e-03 -4.665298e-03 -3.347018e-04
     vertex  2.500000e-03 -5.000165e-03  1.647891e-07
   endloop
 endfacet
 facet normal  1.751593e-16  7.071068e-01  7.071068e-01
   outer loop
     vertex  1.997580e-03 -3.750286e-03 -1.249714e-03
     vertex  1.998380e-03 -4.250873e-03 -7.491268e-04
     vertex  2.638377e-03 -4.005564e-03 -9.944358e-04
   endloop
 endfacet
 facet normal  0.000000e+00  7.071068e-01  7.071068e-01
   outer loop
     vertex  1.998389e-03 -3.249114e-03 -1.750886e-03
     vertex  1.997580e-03 -3.750286e-03 -1.249714e-03
     vertex  2.637922e-03 -3.496761e-03 -1.503239e-03
   endloop
 endfacet
 facet normal  1.148550e-16  7.071068e-01  7.071068e-01
   outer loop
     vertex  2.638377e-03 -4.005564e-03 -9.944358e-04
     vertex  2.637922e-03 -3.496761e-03 -1.503239e-03
     vertex  1.997580e-03 -3.750286e-03 -1.249714e-03
   endloop
 endfacet
 facet normal  2.461224e-16  7.071068e-01  7.071068e-01
   outer loop
     vertex  1.358717e-03 -4.003410e-03 -9.965905e-04
     vertex  1.391828e-03 -4.491765e-03 -5.082347e-04
     vertex  1.998380e-03 -4.250873e-03 -7.491268e-04
   endloop
 endfacet
 facet normal  3.613624e-17  7.071068e-01  7.071068e-01
   outer loop
     vertex  7.202212e-04 -4.259410e-03 -7.405903e-04
     vertex  8.178641e-04 -4.678800e-03 -3.211999e-04
     vertex  1.391828e-03 -4.491765e-03 -5.082347e-04
   endloop
 endfacet
 facet normal -2.277415e-16  7.071068e-01  7.071068e-01
   outer loop
     vertex  7.066103e-04 -3.750000e-03 -1.250000e-03
     vertex  7.202212e-04 -4.259410e-03 -7.405903e-04
     vertex  1.358717e-03 -4.003410e-03 -9.965905e-04
   endloop
 endfacet
 facet normal  1.168752e-16  7.071068e-01  7.071068e-01
   outer loop
     vertex  1.391828e-03 -4.491765e-03 -5.082347e-04
     vertex  1.358717e-03 -4.003410e-03 -9.965905e-04
     vertex  7.202212e-04 -4.259410e-03 -7.405903e-04
   endloop
 endfacet
 facet normal  0.000000e+00  7.071068e-01  7.071068e-01
   outer loop
     vertex  1.391822e-03 -3.008244e-03 -1.991756e-03
     vertex  1.359118e-03 -3.495964e-03 -1.504036e-03
     vertex  1.998389e-03 -3.249114e-03 -1.750886e-03
   endloop
 endfacet
 facet normal -3.983335e-16  7.071068e-01  7.071068e-01
   outer loop
     vertex  7.202565e-04 -3.240606e-03 -1.759394e-03
     vertex  7.066103e-04 -3.750000e-03 -1.250000e-03
     vertex  1.359118e-03 -3.495964e-03 -1.504036e-03
   endloop
 endfacet
 facet normal -5.059061e-16  7.071068e-01  7.071068e-01
   outer loop
     vertex  8.178638e-04 -2.821200e-03 -2.178800e-03
     vertex  7.202565e-04 -3.240606e-03 -1.759394e-03
     vertex  1.391822e-03 -3.008244e-03 -1.991756e-03
   endloop
 endfacet
 facet normal -4.680170e-16  7.071068e-01  7.071068e-01
   outer loop
     vertex  1.359118e-03 -3.495964e-03 -1.504036e-03
     vertex  1.391822e-03 -3.008244e-03 -1.991756e-03
     vertex  7.202565e-04 -3.240606e-03 -1.759394e-03
   endloop
 endfacet
 facet normal -3.392696e-16  7.071068e-01  7.071068e-01
   outer loop
     vertex  1.358717e-03 -4.003410e-03 -9.965905e-04
     vertex  1.359118e-03 -3.495964e-03 -1.504036e-03
     vertex  7.066103e-04 -3.750000e-03 -1.250000e-03
   endloop
 endfacet
 facet normal  0.000000e+00  7.071068e-01  7.071068e-01
   outer loop
     vertex  1.997580e-03 -3.750286e-03 -1.249714e-03
     vertex  1.998389e-03 -3.249114e-03 -1.750886e-03
     vertex  1.359118e-03 -3.495964e-03 -1.504036e-03
   endloop
 endfacet
 facet normal  2.924440e-16  7.071068e-01  7.071068e-01
   outer loop
     vertex  1.998380e-03 -4.250873e-03 -7.491268e-04
     vertex  1.997580e-03 -3.750286e-03 -1.249714e-03
     vertex  1.358717e-03 -4.003410e-03 -9.965905e-04
   endloop
 endfacet
 facet normal  1.155058e-16  7.071068e-01  7.071068e-01
   outer loop
     vertex  1.359118e-03 -3.495964e-03 -1.504036e-03
     vertex  1.358717e-03 -4.003410e-03 -9.965905e-04
     vertex  1.997580e-03 -3.750286e-03 -1.249714e-03
   endloop
 endfacet
endsolid
